M48
; DRILL file {KiCad 8.0.4} date 2024-09-11T16:45:43-0400
; FORMAT={-:-/ absolute / inch / decimal}
; #@! TF.CreationDate,2024-09-11T16:45:43-04:00
; #@! TF.GenerationSoftware,Kicad,Pcbnew,8.0.4
; #@! TF.FileFunction,Plated,1,2,PTH
FMAT,2
INCH
; #@! TA.AperFunction,Plated,PTH,ViaDrill
T1C0.0118
; #@! TA.AperFunction,Plated,PTH,ComponentDrill
T2C0.0287
; #@! TA.AperFunction,Plated,PTH,ComponentDrill
T3C0.0300
; #@! TA.AperFunction,Plated,PTH,ComponentDrill
T4C0.0394
; #@! TA.AperFunction,Plated,PTH,ComponentDrill
T5C0.0433
; #@! TA.AperFunction,Plated,PTH,ComponentDrill
T6C0.0512
; #@! TA.AperFunction,Plated,PTH,ComponentDrill
T7C0.1083
; #@! TA.AperFunction,Plated,PTH,ComponentDrill
T8C0.1280
%
G90
G05
T1
X1.5087Y-2.0839
X1.7028Y-2.1142
X1.7126Y-1.7913
X1.7323Y-2.2736
X1.7815Y-1.5551
X1.8031Y-2.2225
X1.8307Y-2.0866
X1.8406Y-2.4902
X1.8862Y-1.5555
X2.1358Y-1.565
X2.1358Y-1.6437
X2.185Y-1.7717
X2.2539Y-2.8346
X2.2933Y-2.2047
X2.3228Y-2.2942
X2.3327Y-1.7717
X2.3425Y-2.1752
X2.3819Y-1.5551
X2.4311Y-1.7717
X2.7362Y-1.565
X2.8937Y-2.4409
X3.002Y-1.7618
X3.1102Y-2.9528
X3.189Y-1.5551
X3.3465Y-2.9528
X3.3602Y-2.4409
X3.3957Y-1.5551
X3.6811Y-1.7717
X4.5669Y-2.2406
T2
X1.5551Y-2.9528
X1.5551Y-3.2579
X1.6142Y-2.9528
X1.6142Y-3.2579
X1.6732Y-2.9528
X1.6732Y-3.2579
X1.8307Y-3.3957
X1.8307Y-3.4547
X1.8307Y-3.5138
X2.0669Y-3.3957
X2.0669Y-3.4547
X2.0669Y-3.5138
X2.3031Y-3.3957
X2.3031Y-3.4547
X2.3031Y-3.5138
T3
X3.7795Y-2.5378
X3.7795Y-2.6378
X3.7795Y-2.7378
X3.7795Y-2.8378
X4.4795Y-2.4378
X4.4795Y-2.5378
X4.4795Y-2.6378
X4.4795Y-2.7378
X4.4795Y-2.8378
X4.4795Y-2.9378
X4.7539Y-1.7406
X4.7539Y-1.8406
X4.7539Y-1.9406
X4.7539Y-1.9406
X4.7539Y-2.0406
X4.7539Y-2.1406
X4.7539Y-2.2406
X4.7539Y-2.3406
X4.7539Y-2.4406
X4.7539Y-2.5406
X4.7539Y-2.6406
X4.7539Y-2.7406
X4.7539Y-2.8406
X4.7539Y-2.9406
X4.7539Y-3.0406
T4
X1.5697Y-2.0228
X1.5697Y-2.6228
X1.6697Y-2.0228
X1.6697Y-2.6228
X1.7697Y-2.0228
X1.7697Y-2.6228
X1.8697Y-2.0228
X1.8697Y-2.6228
X1.9697Y-2.0228
X1.9697Y-2.6228
X2.0697Y-2.0228
X2.0697Y-2.6228
X2.1697Y-2.0228
X2.1697Y-2.6228
X2.2697Y-2.0228
X2.2697Y-2.6228
X2.3697Y-2.0228
X2.3697Y-2.6228
X2.4697Y-2.0228
X2.4697Y-2.6228
X2.4972Y-3.0167
X2.5697Y-2.0228
X2.5697Y-2.6228
X2.5972Y-3.0167
X2.6697Y-2.0228
X2.6697Y-2.6228
X2.6972Y-3.0167
X2.7697Y-2.0228
X2.7697Y-2.6228
X2.7972Y-3.0167
X2.8697Y-2.0228
X2.8697Y-2.6228
X2.9697Y-2.0228
X2.9697Y-2.6228
X3.0697Y-2.0228
X3.0697Y-2.6228
X3.1697Y-2.0228
X3.1697Y-2.6228
X3.2697Y-2.0228
X3.2697Y-2.6228
X3.3697Y-2.0228
X3.3697Y-2.6228
X3.4697Y-2.0228
X3.4697Y-2.6228
X4.1488Y-1.9882
X4.2488Y-1.9882
X4.3488Y-1.9882
X4.4488Y-1.9882
X4.5488Y-1.9882
T5
X2.9528Y-3.3071
X2.9528Y-3.563
X3.1299Y-3.3071
X3.1299Y-3.563
X3.4252Y-3.2972
X3.4252Y-3.5531
X3.6024Y-3.2972
X3.6024Y-3.5531
T6
X4.2224Y-3.4646
X4.4193Y-3.4646
T7
X1.5945Y-1.6589
X1.5945Y-3.588
X3.878Y-1.6589
X3.878Y-3.588
T8
X1.8856Y-3.1093
M30
