%TF.GenerationSoftware,KiCad,Pcbnew,8.0.4*%
%TF.CreationDate,2024-09-11T16:45:36-04:00*%
%TF.ProjectId,auxiliary-pi-hat,61757869-6c69-4617-9279-2d70692d6861,rev?*%
%TF.SameCoordinates,Original*%
%TF.FileFunction,Legend,Top*%
%TF.FilePolarity,Positive*%
%FSLAX46Y46*%
G04 Gerber Fmt 4.6, Leading zero omitted, Abs format (unit mm)*
G04 Created by KiCad (PCBNEW 8.0.4) date 2024-09-11 16:45:36*
%MOMM*%
%LPD*%
G01*
G04 APERTURE LIST*
%ADD10C,0.300000*%
%ADD11C,0.150000*%
%ADD12C,0.100000*%
%ADD13C,0.120000*%
%ADD14C,0.050000*%
%ADD15C,0.127000*%
%ADD16C,0.200000*%
G04 APERTURE END LIST*
D10*
X50428572Y-60229400D02*
X50642858Y-60300828D01*
X50642858Y-60300828D02*
X51000000Y-60300828D01*
X51000000Y-60300828D02*
X51142858Y-60229400D01*
X51142858Y-60229400D02*
X51214286Y-60157971D01*
X51214286Y-60157971D02*
X51285715Y-60015114D01*
X51285715Y-60015114D02*
X51285715Y-59872257D01*
X51285715Y-59872257D02*
X51214286Y-59729400D01*
X51214286Y-59729400D02*
X51142858Y-59657971D01*
X51142858Y-59657971D02*
X51000000Y-59586542D01*
X51000000Y-59586542D02*
X50714286Y-59515114D01*
X50714286Y-59515114D02*
X50571429Y-59443685D01*
X50571429Y-59443685D02*
X50500000Y-59372257D01*
X50500000Y-59372257D02*
X50428572Y-59229400D01*
X50428572Y-59229400D02*
X50428572Y-59086542D01*
X50428572Y-59086542D02*
X50500000Y-58943685D01*
X50500000Y-58943685D02*
X50571429Y-58872257D01*
X50571429Y-58872257D02*
X50714286Y-58800828D01*
X50714286Y-58800828D02*
X51071429Y-58800828D01*
X51071429Y-58800828D02*
X51285715Y-58872257D01*
X51714286Y-58800828D02*
X52571429Y-58800828D01*
X52142857Y-60300828D02*
X52142857Y-58800828D01*
X53071428Y-60300828D02*
X53071428Y-58800828D01*
X53071428Y-58800828D02*
X53571428Y-59872257D01*
X53571428Y-59872257D02*
X54071428Y-58800828D01*
X54071428Y-58800828D02*
X54071428Y-60300828D01*
X54642857Y-58800828D02*
X55571429Y-58800828D01*
X55571429Y-58800828D02*
X55071429Y-59372257D01*
X55071429Y-59372257D02*
X55285714Y-59372257D01*
X55285714Y-59372257D02*
X55428572Y-59443685D01*
X55428572Y-59443685D02*
X55500000Y-59515114D01*
X55500000Y-59515114D02*
X55571429Y-59657971D01*
X55571429Y-59657971D02*
X55571429Y-60015114D01*
X55571429Y-60015114D02*
X55500000Y-60157971D01*
X55500000Y-60157971D02*
X55428572Y-60229400D01*
X55428572Y-60229400D02*
X55285714Y-60300828D01*
X55285714Y-60300828D02*
X54857143Y-60300828D01*
X54857143Y-60300828D02*
X54714286Y-60229400D01*
X54714286Y-60229400D02*
X54642857Y-60157971D01*
X56142857Y-58943685D02*
X56214285Y-58872257D01*
X56214285Y-58872257D02*
X56357143Y-58800828D01*
X56357143Y-58800828D02*
X56714285Y-58800828D01*
X56714285Y-58800828D02*
X56857143Y-58872257D01*
X56857143Y-58872257D02*
X56928571Y-58943685D01*
X56928571Y-58943685D02*
X57000000Y-59086542D01*
X57000000Y-59086542D02*
X57000000Y-59229400D01*
X57000000Y-59229400D02*
X56928571Y-59443685D01*
X56928571Y-59443685D02*
X56071428Y-60300828D01*
X56071428Y-60300828D02*
X57000000Y-60300828D01*
X59285713Y-59515114D02*
X59499999Y-59586542D01*
X59499999Y-59586542D02*
X59571428Y-59657971D01*
X59571428Y-59657971D02*
X59642856Y-59800828D01*
X59642856Y-59800828D02*
X59642856Y-60015114D01*
X59642856Y-60015114D02*
X59571428Y-60157971D01*
X59571428Y-60157971D02*
X59499999Y-60229400D01*
X59499999Y-60229400D02*
X59357142Y-60300828D01*
X59357142Y-60300828D02*
X58785713Y-60300828D01*
X58785713Y-60300828D02*
X58785713Y-58800828D01*
X58785713Y-58800828D02*
X59285713Y-58800828D01*
X59285713Y-58800828D02*
X59428571Y-58872257D01*
X59428571Y-58872257D02*
X59499999Y-58943685D01*
X59499999Y-58943685D02*
X59571428Y-59086542D01*
X59571428Y-59086542D02*
X59571428Y-59229400D01*
X59571428Y-59229400D02*
X59499999Y-59372257D01*
X59499999Y-59372257D02*
X59428571Y-59443685D01*
X59428571Y-59443685D02*
X59285713Y-59515114D01*
X59285713Y-59515114D02*
X58785713Y-59515114D01*
X60499999Y-60300828D02*
X60357142Y-60229400D01*
X60357142Y-60229400D02*
X60285713Y-60086542D01*
X60285713Y-60086542D02*
X60285713Y-58800828D01*
X61714285Y-59300828D02*
X61714285Y-60300828D01*
X61071427Y-59300828D02*
X61071427Y-60086542D01*
X61071427Y-60086542D02*
X61142856Y-60229400D01*
X61142856Y-60229400D02*
X61285713Y-60300828D01*
X61285713Y-60300828D02*
X61499999Y-60300828D01*
X61499999Y-60300828D02*
X61642856Y-60229400D01*
X61642856Y-60229400D02*
X61714285Y-60157971D01*
X62999999Y-60229400D02*
X62857142Y-60300828D01*
X62857142Y-60300828D02*
X62571428Y-60300828D01*
X62571428Y-60300828D02*
X62428570Y-60229400D01*
X62428570Y-60229400D02*
X62357142Y-60086542D01*
X62357142Y-60086542D02*
X62357142Y-59515114D01*
X62357142Y-59515114D02*
X62428570Y-59372257D01*
X62428570Y-59372257D02*
X62571428Y-59300828D01*
X62571428Y-59300828D02*
X62857142Y-59300828D01*
X62857142Y-59300828D02*
X62999999Y-59372257D01*
X62999999Y-59372257D02*
X63071428Y-59515114D01*
X63071428Y-59515114D02*
X63071428Y-59657971D01*
X63071428Y-59657971D02*
X62357142Y-59800828D01*
X63714284Y-59300828D02*
X63714284Y-60800828D01*
X63714284Y-59372257D02*
X63857142Y-59300828D01*
X63857142Y-59300828D02*
X64142856Y-59300828D01*
X64142856Y-59300828D02*
X64285713Y-59372257D01*
X64285713Y-59372257D02*
X64357142Y-59443685D01*
X64357142Y-59443685D02*
X64428570Y-59586542D01*
X64428570Y-59586542D02*
X64428570Y-60015114D01*
X64428570Y-60015114D02*
X64357142Y-60157971D01*
X64357142Y-60157971D02*
X64285713Y-60229400D01*
X64285713Y-60229400D02*
X64142856Y-60300828D01*
X64142856Y-60300828D02*
X63857142Y-60300828D01*
X63857142Y-60300828D02*
X63714284Y-60229400D01*
X65071427Y-60300828D02*
X65071427Y-59300828D01*
X65071427Y-58800828D02*
X64999999Y-58872257D01*
X64999999Y-58872257D02*
X65071427Y-58943685D01*
X65071427Y-58943685D02*
X65142856Y-58872257D01*
X65142856Y-58872257D02*
X65071427Y-58800828D01*
X65071427Y-58800828D02*
X65071427Y-58943685D01*
X65999999Y-60300828D02*
X65857142Y-60229400D01*
X65857142Y-60229400D02*
X65785713Y-60086542D01*
X65785713Y-60086542D02*
X65785713Y-58800828D01*
X66785713Y-60300828D02*
X66642856Y-60229400D01*
X66642856Y-60229400D02*
X66571427Y-60086542D01*
X66571427Y-60086542D02*
X66571427Y-58800828D01*
X68428570Y-58729400D02*
X67142856Y-60657971D01*
X69428570Y-59515114D02*
X69642856Y-59586542D01*
X69642856Y-59586542D02*
X69714285Y-59657971D01*
X69714285Y-59657971D02*
X69785713Y-59800828D01*
X69785713Y-59800828D02*
X69785713Y-60015114D01*
X69785713Y-60015114D02*
X69714285Y-60157971D01*
X69714285Y-60157971D02*
X69642856Y-60229400D01*
X69642856Y-60229400D02*
X69499999Y-60300828D01*
X69499999Y-60300828D02*
X68928570Y-60300828D01*
X68928570Y-60300828D02*
X68928570Y-58800828D01*
X68928570Y-58800828D02*
X69428570Y-58800828D01*
X69428570Y-58800828D02*
X69571428Y-58872257D01*
X69571428Y-58872257D02*
X69642856Y-58943685D01*
X69642856Y-58943685D02*
X69714285Y-59086542D01*
X69714285Y-59086542D02*
X69714285Y-59229400D01*
X69714285Y-59229400D02*
X69642856Y-59372257D01*
X69642856Y-59372257D02*
X69571428Y-59443685D01*
X69571428Y-59443685D02*
X69428570Y-59515114D01*
X69428570Y-59515114D02*
X68928570Y-59515114D01*
X70642856Y-60300828D02*
X70499999Y-60229400D01*
X70499999Y-60229400D02*
X70428570Y-60086542D01*
X70428570Y-60086542D02*
X70428570Y-58800828D01*
X71857142Y-60300828D02*
X71857142Y-59515114D01*
X71857142Y-59515114D02*
X71785713Y-59372257D01*
X71785713Y-59372257D02*
X71642856Y-59300828D01*
X71642856Y-59300828D02*
X71357142Y-59300828D01*
X71357142Y-59300828D02*
X71214284Y-59372257D01*
X71857142Y-60229400D02*
X71714284Y-60300828D01*
X71714284Y-60300828D02*
X71357142Y-60300828D01*
X71357142Y-60300828D02*
X71214284Y-60229400D01*
X71214284Y-60229400D02*
X71142856Y-60086542D01*
X71142856Y-60086542D02*
X71142856Y-59943685D01*
X71142856Y-59943685D02*
X71214284Y-59800828D01*
X71214284Y-59800828D02*
X71357142Y-59729400D01*
X71357142Y-59729400D02*
X71714284Y-59729400D01*
X71714284Y-59729400D02*
X71857142Y-59657971D01*
X73214285Y-60229400D02*
X73071427Y-60300828D01*
X73071427Y-60300828D02*
X72785713Y-60300828D01*
X72785713Y-60300828D02*
X72642856Y-60229400D01*
X72642856Y-60229400D02*
X72571427Y-60157971D01*
X72571427Y-60157971D02*
X72499999Y-60015114D01*
X72499999Y-60015114D02*
X72499999Y-59586542D01*
X72499999Y-59586542D02*
X72571427Y-59443685D01*
X72571427Y-59443685D02*
X72642856Y-59372257D01*
X72642856Y-59372257D02*
X72785713Y-59300828D01*
X72785713Y-59300828D02*
X73071427Y-59300828D01*
X73071427Y-59300828D02*
X73214285Y-59372257D01*
X73857141Y-60300828D02*
X73857141Y-58800828D01*
X73999999Y-59729400D02*
X74428570Y-60300828D01*
X74428570Y-59300828D02*
X73857141Y-59872257D01*
X75071427Y-59300828D02*
X75071427Y-60800828D01*
X75071427Y-59372257D02*
X75214285Y-59300828D01*
X75214285Y-59300828D02*
X75499999Y-59300828D01*
X75499999Y-59300828D02*
X75642856Y-59372257D01*
X75642856Y-59372257D02*
X75714285Y-59443685D01*
X75714285Y-59443685D02*
X75785713Y-59586542D01*
X75785713Y-59586542D02*
X75785713Y-60015114D01*
X75785713Y-60015114D02*
X75714285Y-60157971D01*
X75714285Y-60157971D02*
X75642856Y-60229400D01*
X75642856Y-60229400D02*
X75499999Y-60300828D01*
X75499999Y-60300828D02*
X75214285Y-60300828D01*
X75214285Y-60300828D02*
X75071427Y-60229400D01*
X76428570Y-60300828D02*
X76428570Y-59300828D01*
X76428570Y-58800828D02*
X76357142Y-58872257D01*
X76357142Y-58872257D02*
X76428570Y-58943685D01*
X76428570Y-58943685D02*
X76499999Y-58872257D01*
X76499999Y-58872257D02*
X76428570Y-58800828D01*
X76428570Y-58800828D02*
X76428570Y-58943685D01*
X77357142Y-60300828D02*
X77214285Y-60229400D01*
X77214285Y-60229400D02*
X77142856Y-60086542D01*
X77142856Y-60086542D02*
X77142856Y-58800828D01*
X78142856Y-60300828D02*
X77999999Y-60229400D01*
X77999999Y-60229400D02*
X77928570Y-60086542D01*
X77928570Y-60086542D02*
X77928570Y-58800828D01*
X50304510Y-93550828D02*
X50304510Y-92050828D01*
X50304510Y-92050828D02*
X51161653Y-93550828D01*
X51161653Y-93550828D02*
X51161653Y-92050828D01*
X51875939Y-92765114D02*
X52375939Y-92765114D01*
X52590225Y-93550828D02*
X51875939Y-93550828D01*
X51875939Y-93550828D02*
X51875939Y-92050828D01*
X51875939Y-92050828D02*
X52590225Y-92050828D01*
X53518797Y-92050828D02*
X53804511Y-92050828D01*
X53804511Y-92050828D02*
X53947368Y-92122257D01*
X53947368Y-92122257D02*
X54090225Y-92265114D01*
X54090225Y-92265114D02*
X54161654Y-92550828D01*
X54161654Y-92550828D02*
X54161654Y-93050828D01*
X54161654Y-93050828D02*
X54090225Y-93336542D01*
X54090225Y-93336542D02*
X53947368Y-93479400D01*
X53947368Y-93479400D02*
X53804511Y-93550828D01*
X53804511Y-93550828D02*
X53518797Y-93550828D01*
X53518797Y-93550828D02*
X53375940Y-93479400D01*
X53375940Y-93479400D02*
X53233082Y-93336542D01*
X53233082Y-93336542D02*
X53161654Y-93050828D01*
X53161654Y-93050828D02*
X53161654Y-92550828D01*
X53161654Y-92550828D02*
X53233082Y-92265114D01*
X53233082Y-92265114D02*
X53375940Y-92122257D01*
X53375940Y-92122257D02*
X53518797Y-92050828D01*
X55090226Y-92050828D02*
X55233083Y-92050828D01*
X55233083Y-92050828D02*
X55375940Y-92122257D01*
X55375940Y-92122257D02*
X55447369Y-92193685D01*
X55447369Y-92193685D02*
X55518797Y-92336542D01*
X55518797Y-92336542D02*
X55590226Y-92622257D01*
X55590226Y-92622257D02*
X55590226Y-92979400D01*
X55590226Y-92979400D02*
X55518797Y-93265114D01*
X55518797Y-93265114D02*
X55447369Y-93407971D01*
X55447369Y-93407971D02*
X55375940Y-93479400D01*
X55375940Y-93479400D02*
X55233083Y-93550828D01*
X55233083Y-93550828D02*
X55090226Y-93550828D01*
X55090226Y-93550828D02*
X54947369Y-93479400D01*
X54947369Y-93479400D02*
X54875940Y-93407971D01*
X54875940Y-93407971D02*
X54804511Y-93265114D01*
X54804511Y-93265114D02*
X54733083Y-92979400D01*
X54733083Y-92979400D02*
X54733083Y-92622257D01*
X54733083Y-92622257D02*
X54804511Y-92336542D01*
X54804511Y-92336542D02*
X54875940Y-92193685D01*
X54875940Y-92193685D02*
X54947369Y-92122257D01*
X54947369Y-92122257D02*
X55090226Y-92050828D01*
X75554510Y-93265114D02*
X75768796Y-93336542D01*
X75768796Y-93336542D02*
X75840225Y-93407971D01*
X75840225Y-93407971D02*
X75911653Y-93550828D01*
X75911653Y-93550828D02*
X75911653Y-93765114D01*
X75911653Y-93765114D02*
X75840225Y-93907971D01*
X75840225Y-93907971D02*
X75768796Y-93979400D01*
X75768796Y-93979400D02*
X75625939Y-94050828D01*
X75625939Y-94050828D02*
X75054510Y-94050828D01*
X75054510Y-94050828D02*
X75054510Y-92550828D01*
X75054510Y-92550828D02*
X75554510Y-92550828D01*
X75554510Y-92550828D02*
X75697368Y-92622257D01*
X75697368Y-92622257D02*
X75768796Y-92693685D01*
X75768796Y-92693685D02*
X75840225Y-92836542D01*
X75840225Y-92836542D02*
X75840225Y-92979400D01*
X75840225Y-92979400D02*
X75768796Y-93122257D01*
X75768796Y-93122257D02*
X75697368Y-93193685D01*
X75697368Y-93193685D02*
X75554510Y-93265114D01*
X75554510Y-93265114D02*
X75054510Y-93265114D01*
X76340225Y-92550828D02*
X77197368Y-92550828D01*
X76768796Y-94050828D02*
X76768796Y-92550828D01*
X77697367Y-94050828D02*
X77697367Y-92550828D01*
X77697367Y-92550828D02*
X78554510Y-94050828D01*
X78554510Y-94050828D02*
X78554510Y-92550828D01*
X79554511Y-92550828D02*
X79697368Y-92550828D01*
X79697368Y-92550828D02*
X79840225Y-92622257D01*
X79840225Y-92622257D02*
X79911654Y-92693685D01*
X79911654Y-92693685D02*
X79983082Y-92836542D01*
X79983082Y-92836542D02*
X80054511Y-93122257D01*
X80054511Y-93122257D02*
X80054511Y-93479400D01*
X80054511Y-93479400D02*
X79983082Y-93765114D01*
X79983082Y-93765114D02*
X79911654Y-93907971D01*
X79911654Y-93907971D02*
X79840225Y-93979400D01*
X79840225Y-93979400D02*
X79697368Y-94050828D01*
X79697368Y-94050828D02*
X79554511Y-94050828D01*
X79554511Y-94050828D02*
X79411654Y-93979400D01*
X79411654Y-93979400D02*
X79340225Y-93907971D01*
X79340225Y-93907971D02*
X79268796Y-93765114D01*
X79268796Y-93765114D02*
X79197368Y-93479400D01*
X79197368Y-93479400D02*
X79197368Y-93122257D01*
X79197368Y-93122257D02*
X79268796Y-92836542D01*
X79268796Y-92836542D02*
X79340225Y-92693685D01*
X79340225Y-92693685D02*
X79411654Y-92622257D01*
X79411654Y-92622257D02*
X79554511Y-92550828D01*
X115622257Y-89159774D02*
X115550828Y-89302632D01*
X115550828Y-89302632D02*
X115550828Y-89516917D01*
X115550828Y-89516917D02*
X115622257Y-89731203D01*
X115622257Y-89731203D02*
X115765114Y-89874060D01*
X115765114Y-89874060D02*
X115907971Y-89945489D01*
X115907971Y-89945489D02*
X116193685Y-90016917D01*
X116193685Y-90016917D02*
X116407971Y-90016917D01*
X116407971Y-90016917D02*
X116693685Y-89945489D01*
X116693685Y-89945489D02*
X116836542Y-89874060D01*
X116836542Y-89874060D02*
X116979400Y-89731203D01*
X116979400Y-89731203D02*
X117050828Y-89516917D01*
X117050828Y-89516917D02*
X117050828Y-89374060D01*
X117050828Y-89374060D02*
X116979400Y-89159774D01*
X116979400Y-89159774D02*
X116907971Y-89088346D01*
X116907971Y-89088346D02*
X116407971Y-89088346D01*
X116407971Y-89088346D02*
X116407971Y-89374060D01*
X117050828Y-88445489D02*
X115550828Y-88445489D01*
X115550828Y-88445489D02*
X117050828Y-87588346D01*
X117050828Y-87588346D02*
X115550828Y-87588346D01*
X117050828Y-86874060D02*
X115550828Y-86874060D01*
X115550828Y-86874060D02*
X115550828Y-86516917D01*
X115550828Y-86516917D02*
X115622257Y-86302631D01*
X115622257Y-86302631D02*
X115765114Y-86159774D01*
X115765114Y-86159774D02*
X115907971Y-86088345D01*
X115907971Y-86088345D02*
X116193685Y-86016917D01*
X116193685Y-86016917D02*
X116407971Y-86016917D01*
X116407971Y-86016917D02*
X116693685Y-86088345D01*
X116693685Y-86088345D02*
X116836542Y-86159774D01*
X116836542Y-86159774D02*
X116979400Y-86302631D01*
X116979400Y-86302631D02*
X117050828Y-86516917D01*
X117050828Y-86516917D02*
X117050828Y-86874060D01*
X102300828Y-89231203D02*
X102300828Y-89945489D01*
X102300828Y-89945489D02*
X103015114Y-90016917D01*
X103015114Y-90016917D02*
X102943685Y-89945489D01*
X102943685Y-89945489D02*
X102872257Y-89802632D01*
X102872257Y-89802632D02*
X102872257Y-89445489D01*
X102872257Y-89445489D02*
X102943685Y-89302632D01*
X102943685Y-89302632D02*
X103015114Y-89231203D01*
X103015114Y-89231203D02*
X103157971Y-89159774D01*
X103157971Y-89159774D02*
X103515114Y-89159774D01*
X103515114Y-89159774D02*
X103657971Y-89231203D01*
X103657971Y-89231203D02*
X103729400Y-89302632D01*
X103729400Y-89302632D02*
X103800828Y-89445489D01*
X103800828Y-89445489D02*
X103800828Y-89802632D01*
X103800828Y-89802632D02*
X103729400Y-89945489D01*
X103729400Y-89945489D02*
X103657971Y-90016917D01*
X102300828Y-88731203D02*
X103800828Y-88231203D01*
X103800828Y-88231203D02*
X102300828Y-87731203D01*
X103229400Y-87231204D02*
X103229400Y-86088347D01*
X103800828Y-86659775D02*
X102657971Y-86659775D01*
X44983082Y-93479400D02*
X45197368Y-93550828D01*
X45197368Y-93550828D02*
X45554510Y-93550828D01*
X45554510Y-93550828D02*
X45697368Y-93479400D01*
X45697368Y-93479400D02*
X45768796Y-93407971D01*
X45768796Y-93407971D02*
X45840225Y-93265114D01*
X45840225Y-93265114D02*
X45840225Y-93122257D01*
X45840225Y-93122257D02*
X45768796Y-92979400D01*
X45768796Y-92979400D02*
X45697368Y-92907971D01*
X45697368Y-92907971D02*
X45554510Y-92836542D01*
X45554510Y-92836542D02*
X45268796Y-92765114D01*
X45268796Y-92765114D02*
X45125939Y-92693685D01*
X45125939Y-92693685D02*
X45054510Y-92622257D01*
X45054510Y-92622257D02*
X44983082Y-92479400D01*
X44983082Y-92479400D02*
X44983082Y-92336542D01*
X44983082Y-92336542D02*
X45054510Y-92193685D01*
X45054510Y-92193685D02*
X45125939Y-92122257D01*
X45125939Y-92122257D02*
X45268796Y-92050828D01*
X45268796Y-92050828D02*
X45625939Y-92050828D01*
X45625939Y-92050828D02*
X45840225Y-92122257D01*
X47340224Y-93550828D02*
X46840224Y-92836542D01*
X46483081Y-93550828D02*
X46483081Y-92050828D01*
X46483081Y-92050828D02*
X47054510Y-92050828D01*
X47054510Y-92050828D02*
X47197367Y-92122257D01*
X47197367Y-92122257D02*
X47268796Y-92193685D01*
X47268796Y-92193685D02*
X47340224Y-92336542D01*
X47340224Y-92336542D02*
X47340224Y-92550828D01*
X47340224Y-92550828D02*
X47268796Y-92693685D01*
X47268796Y-92693685D02*
X47197367Y-92765114D01*
X47197367Y-92765114D02*
X47054510Y-92836542D01*
X47054510Y-92836542D02*
X46483081Y-92836542D01*
X47768796Y-92050828D02*
X48268796Y-93550828D01*
X48268796Y-93550828D02*
X48768796Y-92050828D01*
X56804510Y-93550828D02*
X56804510Y-92050828D01*
X56804510Y-92050828D02*
X57661653Y-93550828D01*
X57661653Y-93550828D02*
X57661653Y-92050828D01*
X58375939Y-92765114D02*
X58875939Y-92765114D01*
X59090225Y-93550828D02*
X58375939Y-93550828D01*
X58375939Y-93550828D02*
X58375939Y-92050828D01*
X58375939Y-92050828D02*
X59090225Y-92050828D01*
X60018797Y-92050828D02*
X60304511Y-92050828D01*
X60304511Y-92050828D02*
X60447368Y-92122257D01*
X60447368Y-92122257D02*
X60590225Y-92265114D01*
X60590225Y-92265114D02*
X60661654Y-92550828D01*
X60661654Y-92550828D02*
X60661654Y-93050828D01*
X60661654Y-93050828D02*
X60590225Y-93336542D01*
X60590225Y-93336542D02*
X60447368Y-93479400D01*
X60447368Y-93479400D02*
X60304511Y-93550828D01*
X60304511Y-93550828D02*
X60018797Y-93550828D01*
X60018797Y-93550828D02*
X59875940Y-93479400D01*
X59875940Y-93479400D02*
X59733082Y-93336542D01*
X59733082Y-93336542D02*
X59661654Y-93050828D01*
X59661654Y-93050828D02*
X59661654Y-92550828D01*
X59661654Y-92550828D02*
X59733082Y-92265114D01*
X59733082Y-92265114D02*
X59875940Y-92122257D01*
X59875940Y-92122257D02*
X60018797Y-92050828D01*
X62090226Y-93550828D02*
X61233083Y-93550828D01*
X61661654Y-93550828D02*
X61661654Y-92050828D01*
X61661654Y-92050828D02*
X61518797Y-92265114D01*
X61518797Y-92265114D02*
X61375940Y-92407971D01*
X61375940Y-92407971D02*
X61233083Y-92479400D01*
X87554510Y-93015114D02*
X87768796Y-93086542D01*
X87768796Y-93086542D02*
X87840225Y-93157971D01*
X87840225Y-93157971D02*
X87911653Y-93300828D01*
X87911653Y-93300828D02*
X87911653Y-93515114D01*
X87911653Y-93515114D02*
X87840225Y-93657971D01*
X87840225Y-93657971D02*
X87768796Y-93729400D01*
X87768796Y-93729400D02*
X87625939Y-93800828D01*
X87625939Y-93800828D02*
X87054510Y-93800828D01*
X87054510Y-93800828D02*
X87054510Y-92300828D01*
X87054510Y-92300828D02*
X87554510Y-92300828D01*
X87554510Y-92300828D02*
X87697368Y-92372257D01*
X87697368Y-92372257D02*
X87768796Y-92443685D01*
X87768796Y-92443685D02*
X87840225Y-92586542D01*
X87840225Y-92586542D02*
X87840225Y-92729400D01*
X87840225Y-92729400D02*
X87768796Y-92872257D01*
X87768796Y-92872257D02*
X87697368Y-92943685D01*
X87697368Y-92943685D02*
X87554510Y-93015114D01*
X87554510Y-93015114D02*
X87054510Y-93015114D01*
X88340225Y-92300828D02*
X89197368Y-92300828D01*
X88768796Y-93800828D02*
X88768796Y-92300828D01*
X89697367Y-93800828D02*
X89697367Y-92300828D01*
X89697367Y-92300828D02*
X90554510Y-93800828D01*
X90554510Y-93800828D02*
X90554510Y-92300828D01*
X92054511Y-93800828D02*
X91197368Y-93800828D01*
X91625939Y-93800828D02*
X91625939Y-92300828D01*
X91625939Y-92300828D02*
X91483082Y-92515114D01*
X91483082Y-92515114D02*
X91340225Y-92657971D01*
X91340225Y-92657971D02*
X91197368Y-92729400D01*
X65054510Y-74050828D02*
X65054510Y-72550828D01*
X65697368Y-72693685D02*
X65768796Y-72622257D01*
X65768796Y-72622257D02*
X65911654Y-72550828D01*
X65911654Y-72550828D02*
X66268796Y-72550828D01*
X66268796Y-72550828D02*
X66411654Y-72622257D01*
X66411654Y-72622257D02*
X66483082Y-72693685D01*
X66483082Y-72693685D02*
X66554511Y-72836542D01*
X66554511Y-72836542D02*
X66554511Y-72979400D01*
X66554511Y-72979400D02*
X66483082Y-73193685D01*
X66483082Y-73193685D02*
X65625939Y-74050828D01*
X65625939Y-74050828D02*
X66554511Y-74050828D01*
X68054510Y-73907971D02*
X67983082Y-73979400D01*
X67983082Y-73979400D02*
X67768796Y-74050828D01*
X67768796Y-74050828D02*
X67625939Y-74050828D01*
X67625939Y-74050828D02*
X67411653Y-73979400D01*
X67411653Y-73979400D02*
X67268796Y-73836542D01*
X67268796Y-73836542D02*
X67197367Y-73693685D01*
X67197367Y-73693685D02*
X67125939Y-73407971D01*
X67125939Y-73407971D02*
X67125939Y-73193685D01*
X67125939Y-73193685D02*
X67197367Y-72907971D01*
X67197367Y-72907971D02*
X67268796Y-72765114D01*
X67268796Y-72765114D02*
X67411653Y-72622257D01*
X67411653Y-72622257D02*
X67625939Y-72550828D01*
X67625939Y-72550828D02*
X67768796Y-72550828D01*
X67768796Y-72550828D02*
X67983082Y-72622257D01*
X67983082Y-72622257D02*
X68054510Y-72693685D01*
X39233082Y-72372257D02*
X39947368Y-72372257D01*
X39090225Y-72800828D02*
X39590225Y-71300828D01*
X39590225Y-71300828D02*
X40090225Y-72800828D01*
X40590224Y-71300828D02*
X40590224Y-72515114D01*
X40590224Y-72515114D02*
X40661653Y-72657971D01*
X40661653Y-72657971D02*
X40733082Y-72729400D01*
X40733082Y-72729400D02*
X40875939Y-72800828D01*
X40875939Y-72800828D02*
X41161653Y-72800828D01*
X41161653Y-72800828D02*
X41304510Y-72729400D01*
X41304510Y-72729400D02*
X41375939Y-72657971D01*
X41375939Y-72657971D02*
X41447367Y-72515114D01*
X41447367Y-72515114D02*
X41447367Y-71300828D01*
X42018796Y-71300828D02*
X43018796Y-72800828D01*
X43018796Y-71300828D02*
X42018796Y-72800828D01*
X107100198Y-72678571D02*
X107171626Y-72464285D01*
X107171626Y-72464285D02*
X107243055Y-72392856D01*
X107243055Y-72392856D02*
X107385912Y-72321428D01*
X107385912Y-72321428D02*
X107600198Y-72321428D01*
X107600198Y-72321428D02*
X107743055Y-72392856D01*
X107743055Y-72392856D02*
X107814484Y-72464285D01*
X107814484Y-72464285D02*
X107885912Y-72607142D01*
X107885912Y-72607142D02*
X107885912Y-73178571D01*
X107885912Y-73178571D02*
X106385912Y-73178571D01*
X106385912Y-73178571D02*
X106385912Y-72678571D01*
X106385912Y-72678571D02*
X106457341Y-72535714D01*
X106457341Y-72535714D02*
X106528769Y-72464285D01*
X106528769Y-72464285D02*
X106671626Y-72392856D01*
X106671626Y-72392856D02*
X106814484Y-72392856D01*
X106814484Y-72392856D02*
X106957341Y-72464285D01*
X106957341Y-72464285D02*
X107028769Y-72535714D01*
X107028769Y-72535714D02*
X107100198Y-72678571D01*
X107100198Y-72678571D02*
X107100198Y-73178571D01*
X107885912Y-71678571D02*
X106385912Y-71678571D01*
X106385912Y-71678571D02*
X107885912Y-70821428D01*
X107885912Y-70821428D02*
X106385912Y-70821428D01*
X106385912Y-69821427D02*
X106385912Y-69535713D01*
X106385912Y-69535713D02*
X106457341Y-69392856D01*
X106457341Y-69392856D02*
X106600198Y-69249999D01*
X106600198Y-69249999D02*
X106885912Y-69178570D01*
X106885912Y-69178570D02*
X107385912Y-69178570D01*
X107385912Y-69178570D02*
X107671626Y-69249999D01*
X107671626Y-69249999D02*
X107814484Y-69392856D01*
X107814484Y-69392856D02*
X107885912Y-69535713D01*
X107885912Y-69535713D02*
X107885912Y-69821427D01*
X107885912Y-69821427D02*
X107814484Y-69964285D01*
X107814484Y-69964285D02*
X107671626Y-70107142D01*
X107671626Y-70107142D02*
X107385912Y-70178570D01*
X107385912Y-70178570D02*
X106885912Y-70178570D01*
X106885912Y-70178570D02*
X106600198Y-70107142D01*
X106600198Y-70107142D02*
X106457341Y-69964285D01*
X106457341Y-69964285D02*
X106385912Y-69821427D01*
X106385912Y-68249998D02*
X106385912Y-68107141D01*
X106385912Y-68107141D02*
X106457341Y-67964284D01*
X106457341Y-67964284D02*
X106528769Y-67892856D01*
X106528769Y-67892856D02*
X106671626Y-67821427D01*
X106671626Y-67821427D02*
X106957341Y-67749998D01*
X106957341Y-67749998D02*
X107314484Y-67749998D01*
X107314484Y-67749998D02*
X107600198Y-67821427D01*
X107600198Y-67821427D02*
X107743055Y-67892856D01*
X107743055Y-67892856D02*
X107814484Y-67964284D01*
X107814484Y-67964284D02*
X107885912Y-68107141D01*
X107885912Y-68107141D02*
X107885912Y-68249998D01*
X107885912Y-68249998D02*
X107814484Y-68392856D01*
X107814484Y-68392856D02*
X107743055Y-68464284D01*
X107743055Y-68464284D02*
X107600198Y-68535713D01*
X107600198Y-68535713D02*
X107314484Y-68607141D01*
X107314484Y-68607141D02*
X106957341Y-68607141D01*
X106957341Y-68607141D02*
X106671626Y-68535713D01*
X106671626Y-68535713D02*
X106528769Y-68464284D01*
X106528769Y-68464284D02*
X106457341Y-68392856D01*
X106457341Y-68392856D02*
X106385912Y-68249998D01*
X106385912Y-66392856D02*
X106385912Y-67107142D01*
X106385912Y-67107142D02*
X107100198Y-67178570D01*
X107100198Y-67178570D02*
X107028769Y-67107142D01*
X107028769Y-67107142D02*
X106957341Y-66964285D01*
X106957341Y-66964285D02*
X106957341Y-66607142D01*
X106957341Y-66607142D02*
X107028769Y-66464285D01*
X107028769Y-66464285D02*
X107100198Y-66392856D01*
X107100198Y-66392856D02*
X107243055Y-66321427D01*
X107243055Y-66321427D02*
X107600198Y-66321427D01*
X107600198Y-66321427D02*
X107743055Y-66392856D01*
X107743055Y-66392856D02*
X107814484Y-66464285D01*
X107814484Y-66464285D02*
X107885912Y-66607142D01*
X107885912Y-66607142D02*
X107885912Y-66964285D01*
X107885912Y-66964285D02*
X107814484Y-67107142D01*
X107814484Y-67107142D02*
X107743055Y-67178570D01*
X106385912Y-64964285D02*
X106385912Y-65678571D01*
X106385912Y-65678571D02*
X107100198Y-65749999D01*
X107100198Y-65749999D02*
X107028769Y-65678571D01*
X107028769Y-65678571D02*
X106957341Y-65535714D01*
X106957341Y-65535714D02*
X106957341Y-65178571D01*
X106957341Y-65178571D02*
X107028769Y-65035714D01*
X107028769Y-65035714D02*
X107100198Y-64964285D01*
X107100198Y-64964285D02*
X107243055Y-64892856D01*
X107243055Y-64892856D02*
X107600198Y-64892856D01*
X107600198Y-64892856D02*
X107743055Y-64964285D01*
X107743055Y-64964285D02*
X107814484Y-65035714D01*
X107814484Y-65035714D02*
X107885912Y-65178571D01*
X107885912Y-65178571D02*
X107885912Y-65535714D01*
X107885912Y-65535714D02*
X107814484Y-65678571D01*
X107814484Y-65678571D02*
X107743055Y-65749999D01*
X110300828Y-76892856D02*
X110300828Y-76607142D01*
X110300828Y-76607142D02*
X110229400Y-76464285D01*
X110229400Y-76464285D02*
X110157971Y-76392856D01*
X110157971Y-76392856D02*
X109943685Y-76249999D01*
X109943685Y-76249999D02*
X109657971Y-76178570D01*
X109657971Y-76178570D02*
X109086542Y-76178570D01*
X109086542Y-76178570D02*
X108943685Y-76249999D01*
X108943685Y-76249999D02*
X108872257Y-76321428D01*
X108872257Y-76321428D02*
X108800828Y-76464285D01*
X108800828Y-76464285D02*
X108800828Y-76749999D01*
X108800828Y-76749999D02*
X108872257Y-76892856D01*
X108872257Y-76892856D02*
X108943685Y-76964285D01*
X108943685Y-76964285D02*
X109086542Y-77035713D01*
X109086542Y-77035713D02*
X109443685Y-77035713D01*
X109443685Y-77035713D02*
X109586542Y-76964285D01*
X109586542Y-76964285D02*
X109657971Y-76892856D01*
X109657971Y-76892856D02*
X109729400Y-76749999D01*
X109729400Y-76749999D02*
X109729400Y-76464285D01*
X109729400Y-76464285D02*
X109657971Y-76321428D01*
X109657971Y-76321428D02*
X109586542Y-76249999D01*
X109586542Y-76249999D02*
X109443685Y-76178570D01*
X109729400Y-75535714D02*
X109729400Y-74392857D01*
X110300828Y-73678571D02*
X108800828Y-73678571D01*
X108800828Y-73678571D02*
X108800828Y-73321428D01*
X108800828Y-73321428D02*
X108872257Y-73107142D01*
X108872257Y-73107142D02*
X109015114Y-72964285D01*
X109015114Y-72964285D02*
X109157971Y-72892856D01*
X109157971Y-72892856D02*
X109443685Y-72821428D01*
X109443685Y-72821428D02*
X109657971Y-72821428D01*
X109657971Y-72821428D02*
X109943685Y-72892856D01*
X109943685Y-72892856D02*
X110086542Y-72964285D01*
X110086542Y-72964285D02*
X110229400Y-73107142D01*
X110229400Y-73107142D02*
X110300828Y-73321428D01*
X110300828Y-73321428D02*
X110300828Y-73678571D01*
X108800828Y-71892856D02*
X108800828Y-71607142D01*
X108800828Y-71607142D02*
X108872257Y-71464285D01*
X108872257Y-71464285D02*
X109015114Y-71321428D01*
X109015114Y-71321428D02*
X109300828Y-71249999D01*
X109300828Y-71249999D02*
X109800828Y-71249999D01*
X109800828Y-71249999D02*
X110086542Y-71321428D01*
X110086542Y-71321428D02*
X110229400Y-71464285D01*
X110229400Y-71464285D02*
X110300828Y-71607142D01*
X110300828Y-71607142D02*
X110300828Y-71892856D01*
X110300828Y-71892856D02*
X110229400Y-72035714D01*
X110229400Y-72035714D02*
X110086542Y-72178571D01*
X110086542Y-72178571D02*
X109800828Y-72249999D01*
X109800828Y-72249999D02*
X109300828Y-72249999D01*
X109300828Y-72249999D02*
X109015114Y-72178571D01*
X109015114Y-72178571D02*
X108872257Y-72035714D01*
X108872257Y-72035714D02*
X108800828Y-71892856D01*
X109515114Y-70107142D02*
X109515114Y-70607142D01*
X110300828Y-70607142D02*
X108800828Y-70607142D01*
X108800828Y-70607142D02*
X108800828Y-69892856D01*
X110229400Y-68249999D02*
X110300828Y-68035714D01*
X110300828Y-68035714D02*
X110300828Y-67678571D01*
X110300828Y-67678571D02*
X110229400Y-67535714D01*
X110229400Y-67535714D02*
X110157971Y-67464285D01*
X110157971Y-67464285D02*
X110015114Y-67392856D01*
X110015114Y-67392856D02*
X109872257Y-67392856D01*
X109872257Y-67392856D02*
X109729400Y-67464285D01*
X109729400Y-67464285D02*
X109657971Y-67535714D01*
X109657971Y-67535714D02*
X109586542Y-67678571D01*
X109586542Y-67678571D02*
X109515114Y-67964285D01*
X109515114Y-67964285D02*
X109443685Y-68107142D01*
X109443685Y-68107142D02*
X109372257Y-68178571D01*
X109372257Y-68178571D02*
X109229400Y-68249999D01*
X109229400Y-68249999D02*
X109086542Y-68249999D01*
X109086542Y-68249999D02*
X108943685Y-68178571D01*
X108943685Y-68178571D02*
X108872257Y-68107142D01*
X108872257Y-68107142D02*
X108800828Y-67964285D01*
X108800828Y-67964285D02*
X108800828Y-67607142D01*
X108800828Y-67607142D02*
X108872257Y-67392856D01*
X109515114Y-66750000D02*
X109515114Y-66250000D01*
X110300828Y-66035714D02*
X110300828Y-66750000D01*
X110300828Y-66750000D02*
X108800828Y-66750000D01*
X108800828Y-66750000D02*
X108800828Y-66035714D01*
X110300828Y-65392857D02*
X108800828Y-65392857D01*
X108800828Y-65392857D02*
X110300828Y-64535714D01*
X110300828Y-64535714D02*
X108800828Y-64535714D01*
X110229400Y-63892856D02*
X110300828Y-63678571D01*
X110300828Y-63678571D02*
X110300828Y-63321428D01*
X110300828Y-63321428D02*
X110229400Y-63178571D01*
X110229400Y-63178571D02*
X110157971Y-63107142D01*
X110157971Y-63107142D02*
X110015114Y-63035713D01*
X110015114Y-63035713D02*
X109872257Y-63035713D01*
X109872257Y-63035713D02*
X109729400Y-63107142D01*
X109729400Y-63107142D02*
X109657971Y-63178571D01*
X109657971Y-63178571D02*
X109586542Y-63321428D01*
X109586542Y-63321428D02*
X109515114Y-63607142D01*
X109515114Y-63607142D02*
X109443685Y-63749999D01*
X109443685Y-63749999D02*
X109372257Y-63821428D01*
X109372257Y-63821428D02*
X109229400Y-63892856D01*
X109229400Y-63892856D02*
X109086542Y-63892856D01*
X109086542Y-63892856D02*
X108943685Y-63821428D01*
X108943685Y-63821428D02*
X108872257Y-63749999D01*
X108872257Y-63749999D02*
X108800828Y-63607142D01*
X108800828Y-63607142D02*
X108800828Y-63249999D01*
X108800828Y-63249999D02*
X108872257Y-63035713D01*
X108800828Y-62107142D02*
X108800828Y-61821428D01*
X108800828Y-61821428D02*
X108872257Y-61678571D01*
X108872257Y-61678571D02*
X109015114Y-61535714D01*
X109015114Y-61535714D02*
X109300828Y-61464285D01*
X109300828Y-61464285D02*
X109800828Y-61464285D01*
X109800828Y-61464285D02*
X110086542Y-61535714D01*
X110086542Y-61535714D02*
X110229400Y-61678571D01*
X110229400Y-61678571D02*
X110300828Y-61821428D01*
X110300828Y-61821428D02*
X110300828Y-62107142D01*
X110300828Y-62107142D02*
X110229400Y-62250000D01*
X110229400Y-62250000D02*
X110086542Y-62392857D01*
X110086542Y-62392857D02*
X109800828Y-62464285D01*
X109800828Y-62464285D02*
X109300828Y-62464285D01*
X109300828Y-62464285D02*
X109015114Y-62392857D01*
X109015114Y-62392857D02*
X108872257Y-62250000D01*
X108872257Y-62250000D02*
X108800828Y-62107142D01*
X110300828Y-59964285D02*
X109586542Y-60464285D01*
X110300828Y-60821428D02*
X108800828Y-60821428D01*
X108800828Y-60821428D02*
X108800828Y-60249999D01*
X108800828Y-60249999D02*
X108872257Y-60107142D01*
X108872257Y-60107142D02*
X108943685Y-60035713D01*
X108943685Y-60035713D02*
X109086542Y-59964285D01*
X109086542Y-59964285D02*
X109300828Y-59964285D01*
X109300828Y-59964285D02*
X109443685Y-60035713D01*
X109443685Y-60035713D02*
X109515114Y-60107142D01*
X109515114Y-60107142D02*
X109586542Y-60249999D01*
X109586542Y-60249999D02*
X109586542Y-60821428D01*
X108804510Y-54050828D02*
X108804510Y-52550828D01*
X108804510Y-52550828D02*
X109161653Y-52550828D01*
X109161653Y-52550828D02*
X109375939Y-52622257D01*
X109375939Y-52622257D02*
X109518796Y-52765114D01*
X109518796Y-52765114D02*
X109590225Y-52907971D01*
X109590225Y-52907971D02*
X109661653Y-53193685D01*
X109661653Y-53193685D02*
X109661653Y-53407971D01*
X109661653Y-53407971D02*
X109590225Y-53693685D01*
X109590225Y-53693685D02*
X109518796Y-53836542D01*
X109518796Y-53836542D02*
X109375939Y-53979400D01*
X109375939Y-53979400D02*
X109161653Y-54050828D01*
X109161653Y-54050828D02*
X108804510Y-54050828D01*
X110233082Y-53622257D02*
X110947368Y-53622257D01*
X110090225Y-54050828D02*
X110590225Y-52550828D01*
X110590225Y-52550828D02*
X111090225Y-54050828D01*
X112447367Y-53907971D02*
X112375939Y-53979400D01*
X112375939Y-53979400D02*
X112161653Y-54050828D01*
X112161653Y-54050828D02*
X112018796Y-54050828D01*
X112018796Y-54050828D02*
X111804510Y-53979400D01*
X111804510Y-53979400D02*
X111661653Y-53836542D01*
X111661653Y-53836542D02*
X111590224Y-53693685D01*
X111590224Y-53693685D02*
X111518796Y-53407971D01*
X111518796Y-53407971D02*
X111518796Y-53193685D01*
X111518796Y-53193685D02*
X111590224Y-52907971D01*
X111590224Y-52907971D02*
X111661653Y-52765114D01*
X111661653Y-52765114D02*
X111804510Y-52622257D01*
X111804510Y-52622257D02*
X112018796Y-52550828D01*
X112018796Y-52550828D02*
X112161653Y-52550828D01*
X112161653Y-52550828D02*
X112375939Y-52622257D01*
X112375939Y-52622257D02*
X112447367Y-52693685D01*
X39233082Y-80122257D02*
X39947368Y-80122257D01*
X39090225Y-80550828D02*
X39590225Y-79050828D01*
X39590225Y-79050828D02*
X40090225Y-80550828D01*
X40590224Y-80550828D02*
X40590224Y-79050828D01*
X40590224Y-79050828D02*
X40947367Y-79050828D01*
X40947367Y-79050828D02*
X41161653Y-79122257D01*
X41161653Y-79122257D02*
X41304510Y-79265114D01*
X41304510Y-79265114D02*
X41375939Y-79407971D01*
X41375939Y-79407971D02*
X41447367Y-79693685D01*
X41447367Y-79693685D02*
X41447367Y-79907971D01*
X41447367Y-79907971D02*
X41375939Y-80193685D01*
X41375939Y-80193685D02*
X41304510Y-80336542D01*
X41304510Y-80336542D02*
X41161653Y-80479400D01*
X41161653Y-80479400D02*
X40947367Y-80550828D01*
X40947367Y-80550828D02*
X40590224Y-80550828D01*
X42947367Y-80407971D02*
X42875939Y-80479400D01*
X42875939Y-80479400D02*
X42661653Y-80550828D01*
X42661653Y-80550828D02*
X42518796Y-80550828D01*
X42518796Y-80550828D02*
X42304510Y-80479400D01*
X42304510Y-80479400D02*
X42161653Y-80336542D01*
X42161653Y-80336542D02*
X42090224Y-80193685D01*
X42090224Y-80193685D02*
X42018796Y-79907971D01*
X42018796Y-79907971D02*
X42018796Y-79693685D01*
X42018796Y-79693685D02*
X42090224Y-79407971D01*
X42090224Y-79407971D02*
X42161653Y-79265114D01*
X42161653Y-79265114D02*
X42304510Y-79122257D01*
X42304510Y-79122257D02*
X42518796Y-79050828D01*
X42518796Y-79050828D02*
X42661653Y-79050828D01*
X42661653Y-79050828D02*
X42875939Y-79122257D01*
X42875939Y-79122257D02*
X42947367Y-79193685D01*
D11*
X56704819Y-78666666D02*
X56228628Y-78999999D01*
X56704819Y-79238094D02*
X55704819Y-79238094D01*
X55704819Y-79238094D02*
X55704819Y-78857142D01*
X55704819Y-78857142D02*
X55752438Y-78761904D01*
X55752438Y-78761904D02*
X55800057Y-78714285D01*
X55800057Y-78714285D02*
X55895295Y-78666666D01*
X55895295Y-78666666D02*
X56038152Y-78666666D01*
X56038152Y-78666666D02*
X56133390Y-78714285D01*
X56133390Y-78714285D02*
X56181009Y-78761904D01*
X56181009Y-78761904D02*
X56228628Y-78857142D01*
X56228628Y-78857142D02*
X56228628Y-79238094D01*
X56038152Y-77809523D02*
X56704819Y-77809523D01*
X55657200Y-78047618D02*
X56371485Y-78285713D01*
X56371485Y-78285713D02*
X56371485Y-77666666D01*
X103844819Y-70103332D02*
X102844819Y-70103332D01*
X102844819Y-70103332D02*
X103559104Y-69769999D01*
X103559104Y-69769999D02*
X102844819Y-69436666D01*
X102844819Y-69436666D02*
X103844819Y-69436666D01*
X102844819Y-68769999D02*
X102844819Y-68579523D01*
X102844819Y-68579523D02*
X102892438Y-68484285D01*
X102892438Y-68484285D02*
X102987676Y-68389047D01*
X102987676Y-68389047D02*
X103178152Y-68341428D01*
X103178152Y-68341428D02*
X103511485Y-68341428D01*
X103511485Y-68341428D02*
X103701961Y-68389047D01*
X103701961Y-68389047D02*
X103797200Y-68484285D01*
X103797200Y-68484285D02*
X103844819Y-68579523D01*
X103844819Y-68579523D02*
X103844819Y-68769999D01*
X103844819Y-68769999D02*
X103797200Y-68865237D01*
X103797200Y-68865237D02*
X103701961Y-68960475D01*
X103701961Y-68960475D02*
X103511485Y-69008094D01*
X103511485Y-69008094D02*
X103178152Y-69008094D01*
X103178152Y-69008094D02*
X102987676Y-68960475D01*
X102987676Y-68960475D02*
X102892438Y-68865237D01*
X102892438Y-68865237D02*
X102844819Y-68769999D01*
X103844819Y-67912856D02*
X102844819Y-67912856D01*
X102844819Y-67912856D02*
X102844819Y-67674761D01*
X102844819Y-67674761D02*
X102892438Y-67531904D01*
X102892438Y-67531904D02*
X102987676Y-67436666D01*
X102987676Y-67436666D02*
X103082914Y-67389047D01*
X103082914Y-67389047D02*
X103273390Y-67341428D01*
X103273390Y-67341428D02*
X103416247Y-67341428D01*
X103416247Y-67341428D02*
X103606723Y-67389047D01*
X103606723Y-67389047D02*
X103701961Y-67436666D01*
X103701961Y-67436666D02*
X103797200Y-67531904D01*
X103797200Y-67531904D02*
X103844819Y-67674761D01*
X103844819Y-67674761D02*
X103844819Y-67912856D01*
X103844819Y-66389047D02*
X103844819Y-66960475D01*
X103844819Y-66674761D02*
X102844819Y-66674761D01*
X102844819Y-66674761D02*
X102987676Y-66769999D01*
X102987676Y-66769999D02*
X103082914Y-66865237D01*
X103082914Y-66865237D02*
X103130533Y-66960475D01*
D12*
X119175419Y-63096380D02*
X118175419Y-63096380D01*
X118175419Y-63096380D02*
X118175419Y-62858285D01*
X118175419Y-62858285D02*
X118223038Y-62715428D01*
X118223038Y-62715428D02*
X118318276Y-62620190D01*
X118318276Y-62620190D02*
X118413514Y-62572571D01*
X118413514Y-62572571D02*
X118603990Y-62524952D01*
X118603990Y-62524952D02*
X118746847Y-62524952D01*
X118746847Y-62524952D02*
X118937323Y-62572571D01*
X118937323Y-62572571D02*
X119032561Y-62620190D01*
X119032561Y-62620190D02*
X119127800Y-62715428D01*
X119127800Y-62715428D02*
X119175419Y-62858285D01*
X119175419Y-62858285D02*
X119175419Y-63096380D01*
X119175419Y-62096380D02*
X118175419Y-62096380D01*
X119127800Y-61667809D02*
X119175419Y-61524952D01*
X119175419Y-61524952D02*
X119175419Y-61286857D01*
X119175419Y-61286857D02*
X119127800Y-61191619D01*
X119127800Y-61191619D02*
X119080180Y-61144000D01*
X119080180Y-61144000D02*
X118984942Y-61096381D01*
X118984942Y-61096381D02*
X118889704Y-61096381D01*
X118889704Y-61096381D02*
X118794466Y-61144000D01*
X118794466Y-61144000D02*
X118746847Y-61191619D01*
X118746847Y-61191619D02*
X118699228Y-61286857D01*
X118699228Y-61286857D02*
X118651609Y-61477333D01*
X118651609Y-61477333D02*
X118603990Y-61572571D01*
X118603990Y-61572571D02*
X118556371Y-61620190D01*
X118556371Y-61620190D02*
X118461133Y-61667809D01*
X118461133Y-61667809D02*
X118365895Y-61667809D01*
X118365895Y-61667809D02*
X118270657Y-61620190D01*
X118270657Y-61620190D02*
X118223038Y-61572571D01*
X118223038Y-61572571D02*
X118175419Y-61477333D01*
X118175419Y-61477333D02*
X118175419Y-61239238D01*
X118175419Y-61239238D02*
X118223038Y-61096381D01*
X119175419Y-60667809D02*
X118175419Y-60667809D01*
X118175419Y-60667809D02*
X118175419Y-60286857D01*
X118175419Y-60286857D02*
X118223038Y-60191619D01*
X118223038Y-60191619D02*
X118270657Y-60144000D01*
X118270657Y-60144000D02*
X118365895Y-60096381D01*
X118365895Y-60096381D02*
X118508752Y-60096381D01*
X118508752Y-60096381D02*
X118603990Y-60144000D01*
X118603990Y-60144000D02*
X118651609Y-60191619D01*
X118651609Y-60191619D02*
X118699228Y-60286857D01*
X118699228Y-60286857D02*
X118699228Y-60667809D01*
X119175419Y-59144000D02*
X119175419Y-59715428D01*
X119175419Y-59429714D02*
X118175419Y-59429714D01*
X118175419Y-59429714D02*
X118318276Y-59524952D01*
X118318276Y-59524952D02*
X118413514Y-59620190D01*
X118413514Y-59620190D02*
X118461133Y-59715428D01*
D11*
X45166666Y-82454819D02*
X45166666Y-83169104D01*
X45166666Y-83169104D02*
X45119047Y-83311961D01*
X45119047Y-83311961D02*
X45023809Y-83407200D01*
X45023809Y-83407200D02*
X44880952Y-83454819D01*
X44880952Y-83454819D02*
X44785714Y-83454819D01*
X46071428Y-82454819D02*
X45880952Y-82454819D01*
X45880952Y-82454819D02*
X45785714Y-82502438D01*
X45785714Y-82502438D02*
X45738095Y-82550057D01*
X45738095Y-82550057D02*
X45642857Y-82692914D01*
X45642857Y-82692914D02*
X45595238Y-82883390D01*
X45595238Y-82883390D02*
X45595238Y-83264342D01*
X45595238Y-83264342D02*
X45642857Y-83359580D01*
X45642857Y-83359580D02*
X45690476Y-83407200D01*
X45690476Y-83407200D02*
X45785714Y-83454819D01*
X45785714Y-83454819D02*
X45976190Y-83454819D01*
X45976190Y-83454819D02*
X46071428Y-83407200D01*
X46071428Y-83407200D02*
X46119047Y-83359580D01*
X46119047Y-83359580D02*
X46166666Y-83264342D01*
X46166666Y-83264342D02*
X46166666Y-83026247D01*
X46166666Y-83026247D02*
X46119047Y-82931009D01*
X46119047Y-82931009D02*
X46071428Y-82883390D01*
X46071428Y-82883390D02*
X45976190Y-82835771D01*
X45976190Y-82835771D02*
X45785714Y-82835771D01*
X45785714Y-82835771D02*
X45690476Y-82883390D01*
X45690476Y-82883390D02*
X45642857Y-82931009D01*
X45642857Y-82931009D02*
X45595238Y-83026247D01*
X37954819Y-59761904D02*
X38764342Y-59761904D01*
X38764342Y-59761904D02*
X38859580Y-59714285D01*
X38859580Y-59714285D02*
X38907200Y-59666666D01*
X38907200Y-59666666D02*
X38954819Y-59571428D01*
X38954819Y-59571428D02*
X38954819Y-59380952D01*
X38954819Y-59380952D02*
X38907200Y-59285714D01*
X38907200Y-59285714D02*
X38859580Y-59238095D01*
X38859580Y-59238095D02*
X38764342Y-59190476D01*
X38764342Y-59190476D02*
X37954819Y-59190476D01*
X38954819Y-58190476D02*
X38954819Y-58761904D01*
X38954819Y-58476190D02*
X37954819Y-58476190D01*
X37954819Y-58476190D02*
X38097676Y-58571428D01*
X38097676Y-58571428D02*
X38192914Y-58666666D01*
X38192914Y-58666666D02*
X38240533Y-58761904D01*
X102564819Y-46448333D02*
X103279104Y-46448333D01*
X103279104Y-46448333D02*
X103421961Y-46495952D01*
X103421961Y-46495952D02*
X103517200Y-46591190D01*
X103517200Y-46591190D02*
X103564819Y-46734047D01*
X103564819Y-46734047D02*
X103564819Y-46829285D01*
X103564819Y-45924523D02*
X103564819Y-45734047D01*
X103564819Y-45734047D02*
X103517200Y-45638809D01*
X103517200Y-45638809D02*
X103469580Y-45591190D01*
X103469580Y-45591190D02*
X103326723Y-45495952D01*
X103326723Y-45495952D02*
X103136247Y-45448333D01*
X103136247Y-45448333D02*
X102755295Y-45448333D01*
X102755295Y-45448333D02*
X102660057Y-45495952D01*
X102660057Y-45495952D02*
X102612438Y-45543571D01*
X102612438Y-45543571D02*
X102564819Y-45638809D01*
X102564819Y-45638809D02*
X102564819Y-45829285D01*
X102564819Y-45829285D02*
X102612438Y-45924523D01*
X102612438Y-45924523D02*
X102660057Y-45972142D01*
X102660057Y-45972142D02*
X102755295Y-46019761D01*
X102755295Y-46019761D02*
X102993390Y-46019761D01*
X102993390Y-46019761D02*
X103088628Y-45972142D01*
X103088628Y-45972142D02*
X103136247Y-45924523D01*
X103136247Y-45924523D02*
X103183866Y-45829285D01*
X103183866Y-45829285D02*
X103183866Y-45638809D01*
X103183866Y-45638809D02*
X103136247Y-45543571D01*
X103136247Y-45543571D02*
X103088628Y-45495952D01*
X103088628Y-45495952D02*
X102993390Y-45448333D01*
X46416666Y-82954819D02*
X46416666Y-83669104D01*
X46416666Y-83669104D02*
X46369047Y-83811961D01*
X46369047Y-83811961D02*
X46273809Y-83907200D01*
X46273809Y-83907200D02*
X46130952Y-83954819D01*
X46130952Y-83954819D02*
X46035714Y-83954819D01*
X47369047Y-82954819D02*
X46892857Y-82954819D01*
X46892857Y-82954819D02*
X46845238Y-83431009D01*
X46845238Y-83431009D02*
X46892857Y-83383390D01*
X46892857Y-83383390D02*
X46988095Y-83335771D01*
X46988095Y-83335771D02*
X47226190Y-83335771D01*
X47226190Y-83335771D02*
X47321428Y-83383390D01*
X47321428Y-83383390D02*
X47369047Y-83431009D01*
X47369047Y-83431009D02*
X47416666Y-83526247D01*
X47416666Y-83526247D02*
X47416666Y-83764342D01*
X47416666Y-83764342D02*
X47369047Y-83859580D01*
X47369047Y-83859580D02*
X47321428Y-83907200D01*
X47321428Y-83907200D02*
X47226190Y-83954819D01*
X47226190Y-83954819D02*
X46988095Y-83954819D01*
X46988095Y-83954819D02*
X46892857Y-83907200D01*
X46892857Y-83907200D02*
X46845238Y-83859580D01*
X83134819Y-78666666D02*
X82658628Y-78999999D01*
X83134819Y-79238094D02*
X82134819Y-79238094D01*
X82134819Y-79238094D02*
X82134819Y-78857142D01*
X82134819Y-78857142D02*
X82182438Y-78761904D01*
X82182438Y-78761904D02*
X82230057Y-78714285D01*
X82230057Y-78714285D02*
X82325295Y-78666666D01*
X82325295Y-78666666D02*
X82468152Y-78666666D01*
X82468152Y-78666666D02*
X82563390Y-78714285D01*
X82563390Y-78714285D02*
X82611009Y-78761904D01*
X82611009Y-78761904D02*
X82658628Y-78857142D01*
X82658628Y-78857142D02*
X82658628Y-79238094D01*
X82230057Y-78285713D02*
X82182438Y-78238094D01*
X82182438Y-78238094D02*
X82134819Y-78142856D01*
X82134819Y-78142856D02*
X82134819Y-77904761D01*
X82134819Y-77904761D02*
X82182438Y-77809523D01*
X82182438Y-77809523D02*
X82230057Y-77761904D01*
X82230057Y-77761904D02*
X82325295Y-77714285D01*
X82325295Y-77714285D02*
X82420533Y-77714285D01*
X82420533Y-77714285D02*
X82563390Y-77761904D01*
X82563390Y-77761904D02*
X83134819Y-78333332D01*
X83134819Y-78333332D02*
X83134819Y-77714285D01*
X109416666Y-82394819D02*
X109416666Y-83109104D01*
X109416666Y-83109104D02*
X109369047Y-83251961D01*
X109369047Y-83251961D02*
X109273809Y-83347200D01*
X109273809Y-83347200D02*
X109130952Y-83394819D01*
X109130952Y-83394819D02*
X109035714Y-83394819D01*
X110416666Y-83394819D02*
X109845238Y-83394819D01*
X110130952Y-83394819D02*
X110130952Y-82394819D01*
X110130952Y-82394819D02*
X110035714Y-82537676D01*
X110035714Y-82537676D02*
X109940476Y-82632914D01*
X109940476Y-82632914D02*
X109845238Y-82680533D01*
X77657200Y-88583332D02*
X77704819Y-88440475D01*
X77704819Y-88440475D02*
X77704819Y-88202380D01*
X77704819Y-88202380D02*
X77657200Y-88107142D01*
X77657200Y-88107142D02*
X77609580Y-88059523D01*
X77609580Y-88059523D02*
X77514342Y-88011904D01*
X77514342Y-88011904D02*
X77419104Y-88011904D01*
X77419104Y-88011904D02*
X77323866Y-88059523D01*
X77323866Y-88059523D02*
X77276247Y-88107142D01*
X77276247Y-88107142D02*
X77228628Y-88202380D01*
X77228628Y-88202380D02*
X77181009Y-88392856D01*
X77181009Y-88392856D02*
X77133390Y-88488094D01*
X77133390Y-88488094D02*
X77085771Y-88535713D01*
X77085771Y-88535713D02*
X76990533Y-88583332D01*
X76990533Y-88583332D02*
X76895295Y-88583332D01*
X76895295Y-88583332D02*
X76800057Y-88535713D01*
X76800057Y-88535713D02*
X76752438Y-88488094D01*
X76752438Y-88488094D02*
X76704819Y-88392856D01*
X76704819Y-88392856D02*
X76704819Y-88154761D01*
X76704819Y-88154761D02*
X76752438Y-88011904D01*
X76704819Y-87678570D02*
X77704819Y-87440475D01*
X77704819Y-87440475D02*
X76990533Y-87249999D01*
X76990533Y-87249999D02*
X77704819Y-87059523D01*
X77704819Y-87059523D02*
X76704819Y-86821428D01*
X77704819Y-85916666D02*
X77704819Y-86488094D01*
X77704819Y-86202380D02*
X76704819Y-86202380D01*
X76704819Y-86202380D02*
X76847676Y-86297618D01*
X76847676Y-86297618D02*
X76942914Y-86392856D01*
X76942914Y-86392856D02*
X76990533Y-86488094D01*
X52516666Y-82954819D02*
X52516666Y-83669104D01*
X52516666Y-83669104D02*
X52469047Y-83811961D01*
X52469047Y-83811961D02*
X52373809Y-83907200D01*
X52373809Y-83907200D02*
X52230952Y-83954819D01*
X52230952Y-83954819D02*
X52135714Y-83954819D01*
X52897619Y-82954819D02*
X53516666Y-82954819D01*
X53516666Y-82954819D02*
X53183333Y-83335771D01*
X53183333Y-83335771D02*
X53326190Y-83335771D01*
X53326190Y-83335771D02*
X53421428Y-83383390D01*
X53421428Y-83383390D02*
X53469047Y-83431009D01*
X53469047Y-83431009D02*
X53516666Y-83526247D01*
X53516666Y-83526247D02*
X53516666Y-83764342D01*
X53516666Y-83764342D02*
X53469047Y-83859580D01*
X53469047Y-83859580D02*
X53421428Y-83907200D01*
X53421428Y-83907200D02*
X53326190Y-83954819D01*
X53326190Y-83954819D02*
X53040476Y-83954819D01*
X53040476Y-83954819D02*
X52945238Y-83907200D01*
X52945238Y-83907200D02*
X52897619Y-83859580D01*
X77384819Y-78916666D02*
X76908628Y-79249999D01*
X77384819Y-79488094D02*
X76384819Y-79488094D01*
X76384819Y-79488094D02*
X76384819Y-79107142D01*
X76384819Y-79107142D02*
X76432438Y-79011904D01*
X76432438Y-79011904D02*
X76480057Y-78964285D01*
X76480057Y-78964285D02*
X76575295Y-78916666D01*
X76575295Y-78916666D02*
X76718152Y-78916666D01*
X76718152Y-78916666D02*
X76813390Y-78964285D01*
X76813390Y-78964285D02*
X76861009Y-79011904D01*
X76861009Y-79011904D02*
X76908628Y-79107142D01*
X76908628Y-79107142D02*
X76908628Y-79488094D01*
X77384819Y-77964285D02*
X77384819Y-78535713D01*
X77384819Y-78249999D02*
X76384819Y-78249999D01*
X76384819Y-78249999D02*
X76527676Y-78345237D01*
X76527676Y-78345237D02*
X76622914Y-78440475D01*
X76622914Y-78440475D02*
X76670533Y-78535713D01*
X89657200Y-88333332D02*
X89704819Y-88190475D01*
X89704819Y-88190475D02*
X89704819Y-87952380D01*
X89704819Y-87952380D02*
X89657200Y-87857142D01*
X89657200Y-87857142D02*
X89609580Y-87809523D01*
X89609580Y-87809523D02*
X89514342Y-87761904D01*
X89514342Y-87761904D02*
X89419104Y-87761904D01*
X89419104Y-87761904D02*
X89323866Y-87809523D01*
X89323866Y-87809523D02*
X89276247Y-87857142D01*
X89276247Y-87857142D02*
X89228628Y-87952380D01*
X89228628Y-87952380D02*
X89181009Y-88142856D01*
X89181009Y-88142856D02*
X89133390Y-88238094D01*
X89133390Y-88238094D02*
X89085771Y-88285713D01*
X89085771Y-88285713D02*
X88990533Y-88333332D01*
X88990533Y-88333332D02*
X88895295Y-88333332D01*
X88895295Y-88333332D02*
X88800057Y-88285713D01*
X88800057Y-88285713D02*
X88752438Y-88238094D01*
X88752438Y-88238094D02*
X88704819Y-88142856D01*
X88704819Y-88142856D02*
X88704819Y-87904761D01*
X88704819Y-87904761D02*
X88752438Y-87761904D01*
X88704819Y-87428570D02*
X89704819Y-87190475D01*
X89704819Y-87190475D02*
X88990533Y-86999999D01*
X88990533Y-86999999D02*
X89704819Y-86809523D01*
X89704819Y-86809523D02*
X88704819Y-86571428D01*
X88800057Y-86238094D02*
X88752438Y-86190475D01*
X88752438Y-86190475D02*
X88704819Y-86095237D01*
X88704819Y-86095237D02*
X88704819Y-85857142D01*
X88704819Y-85857142D02*
X88752438Y-85761904D01*
X88752438Y-85761904D02*
X88800057Y-85714285D01*
X88800057Y-85714285D02*
X88895295Y-85666666D01*
X88895295Y-85666666D02*
X88990533Y-85666666D01*
X88990533Y-85666666D02*
X89133390Y-85714285D01*
X89133390Y-85714285D02*
X89704819Y-86285713D01*
X89704819Y-86285713D02*
X89704819Y-85666666D01*
X58616666Y-82954819D02*
X58616666Y-83669104D01*
X58616666Y-83669104D02*
X58569047Y-83811961D01*
X58569047Y-83811961D02*
X58473809Y-83907200D01*
X58473809Y-83907200D02*
X58330952Y-83954819D01*
X58330952Y-83954819D02*
X58235714Y-83954819D01*
X59521428Y-83288152D02*
X59521428Y-83954819D01*
X59283333Y-82907200D02*
X59045238Y-83621485D01*
X59045238Y-83621485D02*
X59664285Y-83621485D01*
X72774819Y-81343333D02*
X73489104Y-81343333D01*
X73489104Y-81343333D02*
X73631961Y-81390952D01*
X73631961Y-81390952D02*
X73727200Y-81486190D01*
X73727200Y-81486190D02*
X73774819Y-81629047D01*
X73774819Y-81629047D02*
X73774819Y-81724285D01*
X73203390Y-80724285D02*
X73155771Y-80819523D01*
X73155771Y-80819523D02*
X73108152Y-80867142D01*
X73108152Y-80867142D02*
X73012914Y-80914761D01*
X73012914Y-80914761D02*
X72965295Y-80914761D01*
X72965295Y-80914761D02*
X72870057Y-80867142D01*
X72870057Y-80867142D02*
X72822438Y-80819523D01*
X72822438Y-80819523D02*
X72774819Y-80724285D01*
X72774819Y-80724285D02*
X72774819Y-80533809D01*
X72774819Y-80533809D02*
X72822438Y-80438571D01*
X72822438Y-80438571D02*
X72870057Y-80390952D01*
X72870057Y-80390952D02*
X72965295Y-80343333D01*
X72965295Y-80343333D02*
X73012914Y-80343333D01*
X73012914Y-80343333D02*
X73108152Y-80390952D01*
X73108152Y-80390952D02*
X73155771Y-80438571D01*
X73155771Y-80438571D02*
X73203390Y-80533809D01*
X73203390Y-80533809D02*
X73203390Y-80724285D01*
X73203390Y-80724285D02*
X73251009Y-80819523D01*
X73251009Y-80819523D02*
X73298628Y-80867142D01*
X73298628Y-80867142D02*
X73393866Y-80914761D01*
X73393866Y-80914761D02*
X73584342Y-80914761D01*
X73584342Y-80914761D02*
X73679580Y-80867142D01*
X73679580Y-80867142D02*
X73727200Y-80819523D01*
X73727200Y-80819523D02*
X73774819Y-80724285D01*
X73774819Y-80724285D02*
X73774819Y-80533809D01*
X73774819Y-80533809D02*
X73727200Y-80438571D01*
X73727200Y-80438571D02*
X73679580Y-80390952D01*
X73679580Y-80390952D02*
X73584342Y-80343333D01*
X73584342Y-80343333D02*
X73393866Y-80343333D01*
X73393866Y-80343333D02*
X73298628Y-80390952D01*
X73298628Y-80390952D02*
X73251009Y-80438571D01*
X73251009Y-80438571D02*
X73203390Y-80533809D01*
X93916666Y-46454819D02*
X93916666Y-47169104D01*
X93916666Y-47169104D02*
X93869047Y-47311961D01*
X93869047Y-47311961D02*
X93773809Y-47407200D01*
X93773809Y-47407200D02*
X93630952Y-47454819D01*
X93630952Y-47454819D02*
X93535714Y-47454819D01*
X94345238Y-46550057D02*
X94392857Y-46502438D01*
X94392857Y-46502438D02*
X94488095Y-46454819D01*
X94488095Y-46454819D02*
X94726190Y-46454819D01*
X94726190Y-46454819D02*
X94821428Y-46502438D01*
X94821428Y-46502438D02*
X94869047Y-46550057D01*
X94869047Y-46550057D02*
X94916666Y-46645295D01*
X94916666Y-46645295D02*
X94916666Y-46740533D01*
X94916666Y-46740533D02*
X94869047Y-46883390D01*
X94869047Y-46883390D02*
X94297619Y-47454819D01*
X94297619Y-47454819D02*
X94916666Y-47454819D01*
X52454819Y-78879166D02*
X51978628Y-79212499D01*
X52454819Y-79450594D02*
X51454819Y-79450594D01*
X51454819Y-79450594D02*
X51454819Y-79069642D01*
X51454819Y-79069642D02*
X51502438Y-78974404D01*
X51502438Y-78974404D02*
X51550057Y-78926785D01*
X51550057Y-78926785D02*
X51645295Y-78879166D01*
X51645295Y-78879166D02*
X51788152Y-78879166D01*
X51788152Y-78879166D02*
X51883390Y-78926785D01*
X51883390Y-78926785D02*
X51931009Y-78974404D01*
X51931009Y-78974404D02*
X51978628Y-79069642D01*
X51978628Y-79069642D02*
X51978628Y-79450594D01*
X51454819Y-78545832D02*
X51454819Y-77926785D01*
X51454819Y-77926785D02*
X51835771Y-78260118D01*
X51835771Y-78260118D02*
X51835771Y-78117261D01*
X51835771Y-78117261D02*
X51883390Y-78022023D01*
X51883390Y-78022023D02*
X51931009Y-77974404D01*
X51931009Y-77974404D02*
X52026247Y-77926785D01*
X52026247Y-77926785D02*
X52264342Y-77926785D01*
X52264342Y-77926785D02*
X52359580Y-77974404D01*
X52359580Y-77974404D02*
X52407200Y-78022023D01*
X52407200Y-78022023D02*
X52454819Y-78117261D01*
X52454819Y-78117261D02*
X52454819Y-78402975D01*
X52454819Y-78402975D02*
X52407200Y-78498213D01*
X52407200Y-78498213D02*
X52359580Y-78545832D01*
X45416666Y-74954819D02*
X45416666Y-75669104D01*
X45416666Y-75669104D02*
X45369047Y-75811961D01*
X45369047Y-75811961D02*
X45273809Y-75907200D01*
X45273809Y-75907200D02*
X45130952Y-75954819D01*
X45130952Y-75954819D02*
X45035714Y-75954819D01*
X45797619Y-74954819D02*
X46464285Y-74954819D01*
X46464285Y-74954819D02*
X46035714Y-75954819D01*
D13*
%TO.C,R4*%
X57340000Y-77772936D02*
X57340000Y-79227064D01*
X59160000Y-77772936D02*
X59160000Y-79227064D01*
%TO.C,MOD1*%
X94730000Y-81605000D02*
X115055000Y-81605000D01*
X115055000Y-54935000D01*
X94730000Y-54935000D01*
X94730000Y-81605000D01*
%TO.C,DISP1*%
D14*
X44820000Y-82000000D02*
X122020000Y-82000000D01*
X122020000Y-39250000D01*
X44820000Y-39250000D01*
X44820000Y-82000000D01*
X119480000Y-78865000D02*
X122020000Y-78865000D01*
X122020000Y-42365000D01*
X119480000Y-42365000D01*
X119480000Y-78865000D01*
D13*
%TO.C,J6*%
X37690000Y-81140000D02*
X37690000Y-81940000D01*
X37890000Y-81340000D02*
X37890000Y-85060000D01*
X37890000Y-82250000D02*
X38290000Y-82250000D01*
X37890000Y-83250000D02*
X38290000Y-83250000D01*
X37890000Y-85060000D02*
X44110000Y-85060000D01*
X38290000Y-81740000D02*
X38290000Y-84660000D01*
X38290000Y-84660000D02*
X43710000Y-84660000D01*
X38490000Y-81140000D02*
X37690000Y-81140000D01*
X38900000Y-81140000D02*
X38900000Y-81340000D01*
X39200000Y-81140000D02*
X38900000Y-81140000D01*
X39200000Y-81240000D02*
X38900000Y-81240000D01*
X39200000Y-81340000D02*
X39200000Y-81140000D01*
X40150000Y-84260000D02*
X40350000Y-84260000D01*
X40150000Y-84660000D02*
X40150000Y-84260000D01*
X40250000Y-84660000D02*
X40250000Y-84260000D01*
X40350000Y-84260000D02*
X40350000Y-84660000D01*
X41650000Y-84260000D02*
X41850000Y-84260000D01*
X41650000Y-84660000D02*
X41650000Y-84260000D01*
X41750000Y-84660000D02*
X41750000Y-84260000D01*
X41850000Y-84260000D02*
X41850000Y-84660000D01*
X43710000Y-81740000D02*
X38290000Y-81740000D01*
X43710000Y-84660000D02*
X43710000Y-81740000D01*
X44110000Y-81340000D02*
X37890000Y-81340000D01*
X44110000Y-82250000D02*
X43710000Y-82250000D01*
X44110000Y-83250000D02*
X43710000Y-83250000D01*
X44110000Y-85060000D02*
X44110000Y-81340000D01*
%TO.C,U1*%
X37425000Y-47625000D02*
X90575000Y-47625000D01*
X37425000Y-70375000D02*
X37425000Y-47625000D01*
X38540000Y-67950000D02*
X38540000Y-66620000D01*
X38600000Y-50110000D02*
X89400000Y-50110000D01*
X38600000Y-52650000D02*
X38600000Y-50110000D01*
X39870000Y-67950000D02*
X38540000Y-67950000D01*
X41140000Y-65290000D02*
X89460000Y-65290000D01*
X41140000Y-67950000D02*
X41140000Y-65290000D01*
X89400000Y-50110000D02*
X89400000Y-52650000D01*
X89400000Y-52650000D02*
X38600000Y-52650000D01*
X89460000Y-65290000D02*
X89460000Y-67950000D01*
X89460000Y-67950000D02*
X41140000Y-67950000D01*
X90575000Y-47625000D02*
X90575000Y-70375000D01*
X90575000Y-70375000D02*
X37425000Y-70375000D01*
%TO.C,J9*%
X104050000Y-46400000D02*
X104050000Y-49060000D01*
X104050000Y-49060000D02*
X116870000Y-49060000D01*
X104110000Y-51770000D02*
X104110000Y-50500000D01*
X105000000Y-40400000D02*
X105760000Y-40400000D01*
X105000000Y-46400000D02*
X105000000Y-40400000D01*
X105000000Y-49390000D02*
X105000000Y-49060000D01*
X105060000Y-46400000D02*
X105060000Y-40400000D01*
X105180000Y-46400000D02*
X105180000Y-40400000D01*
X105300000Y-46400000D02*
X105300000Y-40400000D01*
X105380000Y-51770000D02*
X104110000Y-51770000D01*
X105420000Y-46400000D02*
X105420000Y-40400000D01*
X105540000Y-46400000D02*
X105540000Y-40400000D01*
X105660000Y-46400000D02*
X105660000Y-40400000D01*
X105760000Y-40400000D02*
X105760000Y-46400000D01*
X105760000Y-49390000D02*
X105760000Y-49060000D01*
X106650000Y-49060000D02*
X106650000Y-46400000D01*
X107540000Y-40400000D02*
X108300000Y-40400000D01*
X107540000Y-46400000D02*
X107540000Y-40400000D01*
X107540000Y-49457071D02*
X107540000Y-49060000D01*
X108300000Y-40400000D02*
X108300000Y-46400000D01*
X108300000Y-49457071D02*
X108300000Y-49060000D01*
X109190000Y-49060000D02*
X109190000Y-46400000D01*
X110080000Y-40400000D02*
X110840000Y-40400000D01*
X110080000Y-46400000D02*
X110080000Y-40400000D01*
X110080000Y-49457071D02*
X110080000Y-49060000D01*
X110840000Y-40400000D02*
X110840000Y-46400000D01*
X110840000Y-49457071D02*
X110840000Y-49060000D01*
X111730000Y-49060000D02*
X111730000Y-46400000D01*
X112620000Y-40400000D02*
X113380000Y-40400000D01*
X112620000Y-46400000D02*
X112620000Y-40400000D01*
X112620000Y-49457071D02*
X112620000Y-49060000D01*
X113380000Y-40400000D02*
X113380000Y-46400000D01*
X113380000Y-49457071D02*
X113380000Y-49060000D01*
X114270000Y-49060000D02*
X114270000Y-46400000D01*
X115160000Y-40400000D02*
X115920000Y-40400000D01*
X115160000Y-46400000D02*
X115160000Y-40400000D01*
X115160000Y-49457071D02*
X115160000Y-49060000D01*
X115920000Y-40400000D02*
X115920000Y-46400000D01*
X115920000Y-49457071D02*
X115920000Y-49060000D01*
X116870000Y-46400000D02*
X104050000Y-46400000D01*
X116870000Y-49060000D02*
X116870000Y-46400000D01*
%TO.C,J5*%
X44890000Y-89550000D02*
X44890000Y-89850000D01*
X44890000Y-89850000D02*
X45090000Y-89850000D01*
X44890000Y-90260000D02*
X44890000Y-91060000D01*
X44890000Y-91060000D02*
X45690000Y-91060000D01*
X44990000Y-89550000D02*
X44990000Y-89850000D01*
X45090000Y-84640000D02*
X45090000Y-90860000D01*
X45090000Y-89550000D02*
X44890000Y-89550000D01*
X45090000Y-90860000D02*
X48810000Y-90860000D01*
X45490000Y-85040000D02*
X45490000Y-90460000D01*
X45490000Y-90460000D02*
X48410000Y-90460000D01*
X46000000Y-84640000D02*
X46000000Y-85040000D01*
X46000000Y-90860000D02*
X46000000Y-90460000D01*
X47000000Y-84640000D02*
X47000000Y-85040000D01*
X47000000Y-90860000D02*
X47000000Y-90460000D01*
X48010000Y-86900000D02*
X48410000Y-86900000D01*
X48010000Y-87100000D02*
X48010000Y-86900000D01*
X48010000Y-88400000D02*
X48410000Y-88400000D01*
X48010000Y-88600000D02*
X48010000Y-88400000D01*
X48410000Y-85040000D02*
X45490000Y-85040000D01*
X48410000Y-87000000D02*
X48010000Y-87000000D01*
X48410000Y-87100000D02*
X48010000Y-87100000D01*
X48410000Y-88500000D02*
X48010000Y-88500000D01*
X48410000Y-88600000D02*
X48010000Y-88600000D01*
X48410000Y-90460000D02*
X48410000Y-85040000D01*
X48810000Y-84640000D02*
X45090000Y-84640000D01*
X48810000Y-90860000D02*
X48810000Y-84640000D01*
%TO.C,R2*%
X83590000Y-79227064D02*
X83590000Y-77772936D01*
X85410000Y-79227064D02*
X85410000Y-77772936D01*
%TO.C,J1*%
X104450000Y-92660000D02*
X104450000Y-93300000D01*
X104450000Y-93300000D02*
X104850000Y-93300000D01*
X104690000Y-83940000D02*
X104690000Y-93060000D01*
X104690000Y-83940000D02*
X114810000Y-83940000D01*
X104690000Y-91500000D02*
X114810000Y-91500000D01*
X104690000Y-92600000D02*
X114810000Y-92600000D01*
X104690000Y-93060000D02*
X114810000Y-93060000D01*
X105702000Y-89281000D02*
X105596000Y-89388000D01*
X105968000Y-89547000D02*
X105862000Y-89654000D01*
X108638000Y-86346000D02*
X108531000Y-86453000D01*
X108904000Y-86612000D02*
X108797000Y-86719000D01*
X110992000Y-88992000D02*
X110597000Y-89388000D01*
X111243000Y-89274000D02*
X110863000Y-89654000D01*
X113638000Y-86346000D02*
X113258000Y-86726000D01*
X113904000Y-86612000D02*
X113509000Y-87008000D01*
X114810000Y-83940000D02*
X114810000Y-93060000D01*
X109430000Y-88000000D02*
G75*
G02*
X105070000Y-88000000I-2180000J0D01*
G01*
X105070000Y-88000000D02*
G75*
G02*
X109430000Y-88000000I2180000J0D01*
G01*
X114430000Y-88000000D02*
G75*
G02*
X110070000Y-88000000I-2180000J0D01*
G01*
X110070000Y-88000000D02*
G75*
G02*
X114430000Y-88000000I2180000J0D01*
G01*
%TO.C,SW1*%
X74000000Y-85000000D02*
X74000000Y-89500000D01*
X76500000Y-90750000D02*
X78000000Y-90750000D01*
X78000000Y-83750000D02*
X76500000Y-83750000D01*
X80500000Y-89500000D02*
X80500000Y-85000000D01*
%TO.C,J3*%
X50890000Y-89550000D02*
X50890000Y-89850000D01*
X50890000Y-89850000D02*
X51090000Y-89850000D01*
X50890000Y-90260000D02*
X50890000Y-91060000D01*
X50890000Y-91060000D02*
X51690000Y-91060000D01*
X50990000Y-89550000D02*
X50990000Y-89850000D01*
X51090000Y-84640000D02*
X51090000Y-90860000D01*
X51090000Y-89550000D02*
X50890000Y-89550000D01*
X51090000Y-90860000D02*
X54810000Y-90860000D01*
X51490000Y-85040000D02*
X51490000Y-90460000D01*
X51490000Y-90460000D02*
X54410000Y-90460000D01*
X52000000Y-84640000D02*
X52000000Y-85040000D01*
X52000000Y-90860000D02*
X52000000Y-90460000D01*
X53000000Y-84640000D02*
X53000000Y-85040000D01*
X53000000Y-90860000D02*
X53000000Y-90460000D01*
X54010000Y-86900000D02*
X54410000Y-86900000D01*
X54010000Y-87100000D02*
X54010000Y-86900000D01*
X54010000Y-88400000D02*
X54410000Y-88400000D01*
X54010000Y-88600000D02*
X54010000Y-88400000D01*
X54410000Y-85040000D02*
X51490000Y-85040000D01*
X54410000Y-87000000D02*
X54010000Y-87000000D01*
X54410000Y-87100000D02*
X54010000Y-87100000D01*
X54410000Y-88500000D02*
X54010000Y-88500000D01*
X54410000Y-88600000D02*
X54010000Y-88600000D01*
X54410000Y-90460000D02*
X54410000Y-85040000D01*
X54810000Y-84640000D02*
X51090000Y-84640000D01*
X54810000Y-90860000D02*
X54810000Y-84640000D01*
%TO.C,R1*%
X77840000Y-79477064D02*
X77840000Y-78022936D01*
X79660000Y-79477064D02*
X79660000Y-78022936D01*
%TO.C,SW2*%
X86000000Y-84750000D02*
X86000000Y-89250000D01*
X88500000Y-90500000D02*
X90000000Y-90500000D01*
X90000000Y-83500000D02*
X88500000Y-83500000D01*
X92500000Y-89250000D02*
X92500000Y-84750000D01*
%TO.C,J4*%
X56890000Y-89550000D02*
X56890000Y-89850000D01*
X56890000Y-89850000D02*
X57090000Y-89850000D01*
X56890000Y-90260000D02*
X56890000Y-91060000D01*
X56890000Y-91060000D02*
X57690000Y-91060000D01*
X56990000Y-89550000D02*
X56990000Y-89850000D01*
X57090000Y-84640000D02*
X57090000Y-90860000D01*
X57090000Y-89550000D02*
X56890000Y-89550000D01*
X57090000Y-90860000D02*
X60810000Y-90860000D01*
X57490000Y-85040000D02*
X57490000Y-90460000D01*
X57490000Y-90460000D02*
X60410000Y-90460000D01*
X58000000Y-84640000D02*
X58000000Y-85040000D01*
X58000000Y-90860000D02*
X58000000Y-90460000D01*
X59000000Y-84640000D02*
X59000000Y-85040000D01*
X59000000Y-90860000D02*
X59000000Y-90460000D01*
X60010000Y-86900000D02*
X60410000Y-86900000D01*
X60010000Y-87100000D02*
X60010000Y-86900000D01*
X60010000Y-88400000D02*
X60410000Y-88400000D01*
X60010000Y-88600000D02*
X60010000Y-88400000D01*
X60410000Y-85040000D02*
X57490000Y-85040000D01*
X60410000Y-87000000D02*
X60010000Y-87000000D01*
X60410000Y-87100000D02*
X60010000Y-87100000D01*
X60410000Y-88500000D02*
X60010000Y-88500000D01*
X60410000Y-88600000D02*
X60010000Y-88600000D01*
X60410000Y-90460000D02*
X60410000Y-85040000D01*
X60810000Y-84640000D02*
X57090000Y-84640000D01*
X60810000Y-90860000D02*
X60810000Y-84640000D01*
%TO.C,J8*%
X62100000Y-78065000D02*
X62100000Y-80725000D01*
X62100000Y-80725000D02*
X72380000Y-80725000D01*
X63050000Y-77667929D02*
X63050000Y-78065000D01*
X63050000Y-86725000D02*
X63050000Y-80725000D01*
X63810000Y-77667929D02*
X63810000Y-78065000D01*
X63810000Y-80725000D02*
X63810000Y-86725000D01*
X63810000Y-86725000D02*
X63050000Y-86725000D01*
X64700000Y-78065000D02*
X64700000Y-80725000D01*
X65590000Y-77667929D02*
X65590000Y-78065000D01*
X65590000Y-86725000D02*
X65590000Y-80725000D01*
X66350000Y-77667929D02*
X66350000Y-78065000D01*
X66350000Y-80725000D02*
X66350000Y-86725000D01*
X66350000Y-86725000D02*
X65590000Y-86725000D01*
X67240000Y-78065000D02*
X67240000Y-80725000D01*
X68130000Y-77667929D02*
X68130000Y-78065000D01*
X68130000Y-86725000D02*
X68130000Y-80725000D01*
X68890000Y-77667929D02*
X68890000Y-78065000D01*
X68890000Y-80725000D02*
X68890000Y-86725000D01*
X68890000Y-86725000D02*
X68130000Y-86725000D01*
X69780000Y-78065000D02*
X69780000Y-80725000D01*
X70670000Y-77735000D02*
X70670000Y-78065000D01*
X70670000Y-86725000D02*
X70670000Y-80725000D01*
X70770000Y-80725000D02*
X70770000Y-86725000D01*
X70890000Y-80725000D02*
X70890000Y-86725000D01*
X71010000Y-80725000D02*
X71010000Y-86725000D01*
X71050000Y-75355000D02*
X72320000Y-75355000D01*
X71130000Y-80725000D02*
X71130000Y-86725000D01*
X71250000Y-80725000D02*
X71250000Y-86725000D01*
X71370000Y-80725000D02*
X71370000Y-86725000D01*
X71430000Y-77735000D02*
X71430000Y-78065000D01*
X71430000Y-80725000D02*
X71430000Y-86725000D01*
X71430000Y-86725000D02*
X70670000Y-86725000D01*
X72320000Y-75355000D02*
X72320000Y-76625000D01*
X72380000Y-78065000D02*
X62100000Y-78065000D01*
X72380000Y-80725000D02*
X72380000Y-78065000D01*
D15*
%TO.C,J2*%
X37000000Y-41635750D02*
X37000000Y-91635750D01*
X40000000Y-94635750D02*
X119000000Y-94635750D01*
D16*
X44100000Y-44675750D02*
X44100000Y-39595750D01*
X94900000Y-44675750D02*
X94900000Y-39595750D01*
D15*
X119000000Y-38635750D02*
X40000000Y-38635750D01*
X122000000Y-91635750D02*
X122000000Y-41635750D01*
X37000000Y-41635750D02*
G75*
G02*
X40000000Y-38635750I3000001J-1D01*
G01*
X40000000Y-94635750D02*
G75*
G02*
X37000000Y-91635750I1J3000001D01*
G01*
X119000000Y-38635750D02*
G75*
G02*
X122000000Y-41635750I0J-3000000D01*
G01*
X122000000Y-91635750D02*
G75*
G02*
X119000000Y-94635750I-3000000J0D01*
G01*
D16*
X44960000Y-46455750D02*
G75*
G02*
X44760000Y-46455750I-100000J0D01*
G01*
X44760000Y-46455750D02*
G75*
G02*
X44960000Y-46455750I100000J0D01*
G01*
D13*
%TO.C,R3*%
X53090000Y-77985436D02*
X53090000Y-79439564D01*
X54910000Y-77985436D02*
X54910000Y-79439564D01*
%TO.C,J7*%
X37690000Y-73390000D02*
X37690000Y-74190000D01*
X37890000Y-73590000D02*
X37890000Y-77310000D01*
X37890000Y-74500000D02*
X38290000Y-74500000D01*
X37890000Y-75500000D02*
X38290000Y-75500000D01*
X37890000Y-77310000D02*
X44110000Y-77310000D01*
X38290000Y-73990000D02*
X38290000Y-76910000D01*
X38290000Y-76910000D02*
X43710000Y-76910000D01*
X38490000Y-73390000D02*
X37690000Y-73390000D01*
X38900000Y-73390000D02*
X38900000Y-73590000D01*
X39200000Y-73390000D02*
X38900000Y-73390000D01*
X39200000Y-73490000D02*
X38900000Y-73490000D01*
X39200000Y-73590000D02*
X39200000Y-73390000D01*
X40150000Y-76510000D02*
X40350000Y-76510000D01*
X40150000Y-76910000D02*
X40150000Y-76510000D01*
X40250000Y-76910000D02*
X40250000Y-76510000D01*
X40350000Y-76510000D02*
X40350000Y-76910000D01*
X41650000Y-76510000D02*
X41850000Y-76510000D01*
X41650000Y-76910000D02*
X41650000Y-76510000D01*
X41750000Y-76910000D02*
X41750000Y-76510000D01*
X41850000Y-76510000D02*
X41850000Y-76910000D01*
X43710000Y-73990000D02*
X38290000Y-73990000D01*
X43710000Y-76910000D02*
X43710000Y-73990000D01*
X44110000Y-73590000D02*
X37890000Y-73590000D01*
X44110000Y-74500000D02*
X43710000Y-74500000D01*
X44110000Y-75500000D02*
X43710000Y-75500000D01*
X44110000Y-77310000D02*
X44110000Y-73590000D01*
%TD*%
M02*
