%TF.GenerationSoftware,KiCad,Pcbnew,8.0.4*%
%TF.CreationDate,2024-09-11T16:45:36-04:00*%
%TF.ProjectId,auxiliary-pi-hat,61757869-6c69-4617-9279-2d70692d6861,rev?*%
%TF.SameCoordinates,Original*%
%TF.FileFunction,Copper,L1,Top*%
%TF.FilePolarity,Positive*%
%FSLAX46Y46*%
G04 Gerber Fmt 4.6, Leading zero omitted, Abs format (unit mm)*
G04 Created by KiCad (PCBNEW 8.0.4) date 2024-09-11 16:45:36*
%MOMM*%
%LPD*%
G01*
G04 APERTURE LIST*
G04 Aperture macros list*
%AMRoundRect*
0 Rectangle with rounded corners*
0 $1 Rounding radius*
0 $2 $3 $4 $5 $6 $7 $8 $9 X,Y pos of 4 corners*
0 Add a 4 corners polygon primitive as box body*
4,1,4,$2,$3,$4,$5,$6,$7,$8,$9,$2,$3,0*
0 Add four circle primitives for the rounded corners*
1,1,$1+$1,$2,$3*
1,1,$1+$1,$4,$5*
1,1,$1+$1,$6,$7*
1,1,$1+$1,$8,$9*
0 Add four rect primitives between the rounded corners*
20,1,$1+$1,$2,$3,$4,$5,0*
20,1,$1+$1,$4,$5,$6,$7,0*
20,1,$1+$1,$6,$7,$8,$9,0*
20,1,$1+$1,$8,$9,$2,$3,0*%
G04 Aperture macros list end*
%TA.AperFunction,SMDPad,CuDef*%
%ADD10RoundRect,0.250000X-0.625000X0.312500X-0.625000X-0.312500X0.625000X-0.312500X0.625000X0.312500X0*%
%TD*%
%TA.AperFunction,ComponentPad*%
%ADD11C,1.524000*%
%TD*%
%TA.AperFunction,ComponentPad*%
%ADD12C,3.500000*%
%TD*%
%TA.AperFunction,ComponentPad*%
%ADD13RoundRect,0.250000X-0.265000X-0.615000X0.265000X-0.615000X0.265000X0.615000X-0.265000X0.615000X0*%
%TD*%
%TA.AperFunction,ComponentPad*%
%ADD14O,1.030000X1.730000*%
%TD*%
%TA.AperFunction,ComponentPad*%
%ADD15R,1.700000X1.700000*%
%TD*%
%TA.AperFunction,ComponentPad*%
%ADD16C,1.700000*%
%TD*%
%TA.AperFunction,ComponentPad*%
%ADD17O,1.700000X1.700000*%
%TD*%
%TA.AperFunction,ComponentPad*%
%ADD18RoundRect,0.250000X0.615000X-0.265000X0.615000X0.265000X-0.615000X0.265000X-0.615000X-0.265000X0*%
%TD*%
%TA.AperFunction,ComponentPad*%
%ADD19O,1.730000X1.030000*%
%TD*%
%TA.AperFunction,SMDPad,CuDef*%
%ADD20RoundRect,0.250000X0.625000X-0.312500X0.625000X0.312500X-0.625000X0.312500X-0.625000X-0.312500X0*%
%TD*%
%TA.AperFunction,ComponentPad*%
%ADD21R,2.600000X2.600000*%
%TD*%
%TA.AperFunction,ComponentPad*%
%ADD22C,2.600000*%
%TD*%
%TA.AperFunction,ComponentPad*%
%ADD23C,2.000000*%
%TD*%
%TA.AperFunction,SMDPad,CuDef*%
%ADD24R,1.270000X1.680000*%
%TD*%
%TA.AperFunction,ComponentPad*%
%ADD25C,6.200000*%
%TD*%
%TA.AperFunction,ViaPad*%
%ADD26C,0.600000*%
%TD*%
%TA.AperFunction,Conductor*%
%ADD27C,0.200000*%
%TD*%
%TA.AperFunction,Conductor*%
%ADD28C,1.000000*%
%TD*%
%TA.AperFunction,Conductor*%
%ADD29C,1.500000*%
%TD*%
%TA.AperFunction,Conductor*%
%ADD30C,0.750000*%
%TD*%
%TA.AperFunction,Conductor*%
%ADD31C,0.500000*%
%TD*%
G04 APERTURE END LIST*
D10*
%TO.P,R4,1*%
%TO.N,NEO-1*%
X58250000Y-77037500D03*
%TO.P,R4,2*%
%TO.N,Net-(J4-Pin_2)*%
X58250000Y-79962500D03*
%TD*%
D11*
%TO.P,MOD1,1,Vin*%
%TO.N,+5V*%
X113780000Y-74620000D03*
%TO.P,MOD1,2,3vo*%
%TO.N,unconnected-(MOD1-3vo-Pad2)*%
X113780000Y-72080000D03*
%TO.P,MOD1,3,GND*%
%TO.N,GND*%
X113780000Y-69540000D03*
%TO.P,MOD1,4,SDA*%
%TO.N,SDA*%
X113780000Y-67000000D03*
%TO.P,MOD1,5,SCL*%
%TO.N,SCL*%
X113780000Y-64460000D03*
%TO.P,MOD1,6,RST*%
%TO.N,unconnected-(MOD1-RST-Pad6)*%
X113780000Y-61920000D03*
%TO.P,MOD1,7,ADR*%
%TO.N,unconnected-(MOD1-ADR-Pad7)*%
X96000000Y-64460000D03*
%TO.P,MOD1,8,INT*%
%TO.N,unconnected-(MOD1-INT-Pad8)*%
X96000000Y-67000000D03*
%TO.P,MOD1,9,PS1*%
%TO.N,unconnected-(MOD1-PS1-Pad9)*%
X96000000Y-69540000D03*
%TO.P,MOD1,10,PS0*%
%TO.N,unconnected-(MOD1-PS0-Pad10)*%
X96000000Y-72080000D03*
%TD*%
D12*
%TO.P,DISP1,*%
%TO.N,*%
X47895000Y-78975000D03*
D11*
%TO.P,DISP1,1,VCC*%
%TO.N,+3.3V*%
X120750000Y-77230000D03*
%TO.P,DISP1,2,GND*%
%TO.N,GND*%
X120750000Y-74690000D03*
%TO.P,DISP1,3,CS*%
%TO.N,TFT-CS*%
X120750000Y-72150000D03*
%TO.P,DISP1,4,RESET*%
%TO.N,TFT-RESET*%
X120750000Y-69610000D03*
%TO.P,DISP1,5,DC*%
%TO.N,TFT-DC*%
X120750000Y-67070000D03*
%TO.P,DISP1,6,MOSI*%
%TO.N,TFT-MOSI*%
X120750000Y-64530000D03*
%TO.P,DISP1,7,SCK*%
%TO.N,TFT-SCK*%
X120750000Y-61990000D03*
%TO.P,DISP1,8,LED*%
%TO.N,+3.3V*%
X120750000Y-59450000D03*
%TO.P,DISP1,9,MISO*%
%TO.N,TFT-MISO*%
X120750000Y-56910000D03*
%TO.P,DISP1,10,T_CLK*%
%TO.N,unconnected-(DISP1-T_CLK-Pad10)*%
X120750000Y-54370000D03*
%TO.P,DISP1,11,T_CS*%
%TO.N,unconnected-(DISP1-T_CS-Pad11)*%
X120750000Y-51830000D03*
%TO.P,DISP1,12,T_DIN*%
%TO.N,unconnected-(DISP1-T_DIN-Pad12)*%
X120750000Y-49290000D03*
%TO.P,DISP1,13,T_DO*%
%TO.N,unconnected-(DISP1-T_DO-Pad13)_1*%
X120750000Y-49290000D03*
%TO.N,unconnected-(DISP1-T_DO-Pad13)*%
X120750000Y-46750000D03*
%TO.P,DISP1,14,T_IRQ*%
%TO.N,unconnected-(DISP1-T_IRQ-Pad14)*%
X120750000Y-44210000D03*
%TD*%
D13*
%TO.P,J6,1,Pin_1*%
%TO.N,+3.3V*%
X39500000Y-82750000D03*
D14*
%TO.P,J6,2,Pin_2*%
%TO.N,ADC-0*%
X41000000Y-82750000D03*
%TO.P,J6,3,Pin_3*%
%TO.N,GND*%
X42500000Y-82750000D03*
%TD*%
D15*
%TO.P,U1,1,PB12*%
%TO.N,GPIO-0*%
X39870000Y-66620000D03*
D16*
%TO.P,U1,2,PB13*%
%TO.N,GPIO-1*%
X42410000Y-66620000D03*
%TO.P,U1,3,PB14*%
%TO.N,GPIO-2*%
X44950000Y-66620000D03*
%TO.P,U1,4,PB15*%
%TO.N,unconnected-(U1-PB15-Pad4)*%
X47490000Y-66620000D03*
%TO.P,U1,5,PA8*%
%TO.N,unconnected-(U1-PA8-Pad5)*%
X50030000Y-66620000D03*
%TO.P,U1,6,PA9*%
%TO.N,Net-(J2-UART0_RX)*%
X52570000Y-66620000D03*
%TO.P,U1,7,PA10*%
%TO.N,Net-(J2-UART0_TX)*%
X55110000Y-66620000D03*
%TO.P,U1,8,PA11*%
%TO.N,unconnected-(U1-PA11-Pad8)*%
X57650000Y-66620000D03*
%TO.P,U1,9,PA12*%
%TO.N,unconnected-(U1-PA12-Pad9)*%
X60190000Y-66620000D03*
%TO.P,U1,10,PA15*%
%TO.N,unconnected-(U1-PA15-Pad10)*%
X62730000Y-66620000D03*
%TO.P,U1,11,PB3*%
%TO.N,NEO-0*%
X65270000Y-66620000D03*
%TO.P,U1,12,PB4*%
%TO.N,NEO-1*%
X67810000Y-66620000D03*
%TO.P,U1,13,PB5*%
%TO.N,unconnected-(U1-PB5-Pad13)*%
X70350000Y-66620000D03*
%TO.P,U1,14,PB6*%
%TO.N,SCL*%
X72890000Y-66620000D03*
%TO.P,U1,15,PB7*%
%TO.N,SDA*%
X75430000Y-66620000D03*
%TO.P,U1,16,PB8*%
%TO.N,BTN-1*%
X77970000Y-66620000D03*
%TO.P,U1,17,PB9*%
%TO.N,BTN-2*%
X80510000Y-66620000D03*
%TO.P,U1,18,5V*%
%TO.N,unconnected-(U1-5V-Pad18)*%
X83050000Y-66620000D03*
%TO.P,U1,19,GND*%
%TO.N,GND*%
X85590000Y-66620000D03*
%TO.P,U1,20,3V3*%
%TO.N,unconnected-(U1-3V3-Pad20)*%
X88130000Y-66620000D03*
%TO.P,U1,21,VBat*%
%TO.N,unconnected-(U1-VBat-Pad21)*%
X88130000Y-51380000D03*
%TO.P,U1,22,PC13*%
%TO.N,unconnected-(U1-PC13-Pad22)*%
X85590000Y-51380000D03*
%TO.P,U1,23,PC14*%
%TO.N,unconnected-(U1-PC14-Pad23)*%
X83050000Y-51380000D03*
%TO.P,U1,24,PC15*%
%TO.N,unconnected-(U1-PC15-Pad24)*%
X80510000Y-51380000D03*
%TO.P,U1,25,RES*%
%TO.N,unconnected-(U1-RES-Pad25)*%
X77970000Y-51380000D03*
%TO.P,U1,26,PA0*%
%TO.N,ADC-0*%
X75430000Y-51380000D03*
%TO.P,U1,27,PA1*%
%TO.N,RC-PWM-0*%
X72890000Y-51380000D03*
%TO.P,U1,28,PA2*%
%TO.N,unconnected-(U1-PA2-Pad28)*%
X70350000Y-51380000D03*
%TO.P,U1,29,PA3*%
%TO.N,unconnected-(U1-PA3-Pad29)*%
X67810000Y-51380000D03*
%TO.P,U1,30,PA4*%
%TO.N,unconnected-(U1-PA4-Pad30)*%
X65270000Y-51380000D03*
%TO.P,U1,31,PA5*%
%TO.N,TFT-SCK*%
X62730000Y-51380000D03*
%TO.P,U1,32,PA6*%
%TO.N,TFT-MISO*%
X60190000Y-51380000D03*
%TO.P,U1,33,PA7*%
%TO.N,TFT-MOSI*%
X57650000Y-51380000D03*
%TO.P,U1,34,PB0*%
%TO.N,TFT-DC*%
X55110000Y-51380000D03*
%TO.P,U1,35,PB1*%
%TO.N,TFT-RESET*%
X52570000Y-51380000D03*
%TO.P,U1,36,PB2*%
%TO.N,TFT-CS*%
X50030000Y-51380000D03*
%TO.P,U1,37,PB10*%
%TO.N,unconnected-(U1-PB10-Pad37)*%
X47490000Y-51380000D03*
%TO.P,U1,38,3V3*%
%TO.N,+3.3V*%
X44950000Y-51380000D03*
%TO.P,U1,39,GND*%
%TO.N,GND*%
X42410000Y-51380000D03*
%TO.P,U1,40,5V*%
%TO.N,+5V*%
X39870000Y-51380000D03*
%TD*%
D15*
%TO.P,J9,1,Pin_1*%
%TO.N,BCK*%
X105380000Y-50500000D03*
D17*
%TO.P,J9,2,Pin_2*%
%TO.N,DIN*%
X107920000Y-50500000D03*
%TO.P,J9,3,Pin_3*%
%TO.N,LRCK*%
X110460000Y-50500000D03*
%TO.P,J9,4,Pin_4*%
%TO.N,GND*%
X113000000Y-50500000D03*
%TO.P,J9,5,Pin_5*%
%TO.N,+3.3V*%
X115540000Y-50500000D03*
%TD*%
D18*
%TO.P,J5,1,Pin_1*%
%TO.N,+5V*%
X46500000Y-89250000D03*
D19*
%TO.P,J5,2,Pin_2*%
%TO.N,RC-PWM-0*%
X46500000Y-87750000D03*
%TO.P,J5,3,Pin_3*%
%TO.N,GND*%
X46500000Y-86250000D03*
%TD*%
D20*
%TO.P,R2,1*%
%TO.N,BTN-2*%
X84500000Y-79962500D03*
%TO.P,R2,2*%
%TO.N,+3.3V*%
X84500000Y-77037500D03*
%TD*%
D21*
%TO.P,J1,1,Pin_1*%
%TO.N,+5V*%
X107250000Y-88000000D03*
D22*
%TO.P,J1,2,Pin_2*%
%TO.N,GND*%
X112250000Y-88000000D03*
%TD*%
D23*
%TO.P,SW1,1,1*%
%TO.N,BTN-1*%
X75000000Y-90500000D03*
X75000000Y-84000000D03*
%TO.P,SW1,2,2*%
%TO.N,GND*%
X79500000Y-90500000D03*
X79500000Y-84000000D03*
%TD*%
D18*
%TO.P,J3,1,Pin_1*%
%TO.N,+5V*%
X52500000Y-89250000D03*
D19*
%TO.P,J3,2,Pin_2*%
%TO.N,Net-(J3-Pin_2)*%
X52500000Y-87750000D03*
%TO.P,J3,3,Pin_3*%
%TO.N,GND*%
X52500000Y-86250000D03*
%TD*%
D20*
%TO.P,R1,1*%
%TO.N,BTN-1*%
X78750000Y-80212500D03*
%TO.P,R1,2*%
%TO.N,+3.3V*%
X78750000Y-77287500D03*
%TD*%
D23*
%TO.P,SW2,1,1*%
%TO.N,BTN-2*%
X87000000Y-90250000D03*
X87000000Y-83750000D03*
%TO.P,SW2,2,2*%
%TO.N,GND*%
X91500000Y-90250000D03*
X91500000Y-83750000D03*
%TD*%
D18*
%TO.P,J4,1,Pin_1*%
%TO.N,+5V*%
X58500000Y-89250000D03*
D19*
%TO.P,J4,2,Pin_2*%
%TO.N,Net-(J4-Pin_2)*%
X58500000Y-87750000D03*
%TO.P,J4,3,Pin_3*%
%TO.N,GND*%
X58500000Y-86250000D03*
%TD*%
D15*
%TO.P,J8,1,Pin_1*%
%TO.N,+3.3V*%
X71050000Y-76625000D03*
D17*
%TO.P,J8,2,Pin_2*%
%TO.N,SDA*%
X68510000Y-76625000D03*
%TO.P,J8,3,Pin_3*%
%TO.N,SCL*%
X65970000Y-76625000D03*
%TO.P,J8,4,Pin_4*%
%TO.N,GND*%
X63430000Y-76625000D03*
%TD*%
D24*
%TO.P,J2,01,3.3v*%
%TO.N,unconnected-(J2-3.3v-Pad01)*%
X45370000Y-44855750D03*
%TO.P,J2,02,5V_PWR*%
%TO.N,+5V*%
X45370000Y-39415750D03*
%TO.P,J2,03,GPIO02/SDA1*%
%TO.N,unconnected-(J2-GPIO02{slash}SDA1-Pad03)*%
X47910000Y-44855750D03*
%TO.P,J2,04,5V_PWR*%
%TO.N,+5V*%
X47910000Y-39415750D03*
%TO.P,J2,05,GPIO03/SCL*%
%TO.N,unconnected-(J2-GPIO03{slash}SCL-Pad05)*%
X50450000Y-44855750D03*
%TO.P,J2,06,GND*%
%TO.N,GND*%
X50450000Y-39415750D03*
%TO.P,J2,07,GPIO04*%
%TO.N,unconnected-(J2-GPIO04-Pad07)*%
X52990000Y-44855750D03*
%TO.P,J2,08,UART0_TX*%
%TO.N,Net-(J2-UART0_TX)*%
X52990000Y-39415750D03*
%TO.P,J2,09,GND*%
%TO.N,GND*%
X55530000Y-44855750D03*
%TO.P,J2,10,UART0_RX*%
%TO.N,Net-(J2-UART0_RX)*%
X55530000Y-39415750D03*
%TO.P,J2,11,GPIO17*%
%TO.N,GPIO-0*%
X58070000Y-44855750D03*
%TO.P,J2,12,GPIO18*%
%TO.N,BCK*%
X58070000Y-39415750D03*
%TO.P,J2,13,GPIO27*%
%TO.N,GPIO-1*%
X60610000Y-44855750D03*
%TO.P,J2,14,GND*%
%TO.N,GND*%
X60610000Y-39415750D03*
%TO.P,J2,15,GPIO22*%
%TO.N,unconnected-(J2-GPIO22-Pad15)*%
X63150000Y-44855750D03*
%TO.P,J2,16,GPIO23*%
%TO.N,unconnected-(J2-GPIO23-Pad16)*%
X63150000Y-39415750D03*
%TO.P,J2,17,3.3v*%
%TO.N,unconnected-(J2-3.3v-Pad17)*%
X65690000Y-44855750D03*
%TO.P,J2,18,GPIO24*%
%TO.N,unconnected-(J2-GPIO24-Pad18)*%
X65690000Y-39415750D03*
%TO.P,J2,19,GPIO10/SPI_MOSI*%
%TO.N,unconnected-(J2-GPIO10{slash}SPI_MOSI-Pad19)*%
X68230000Y-44855750D03*
%TO.P,J2,20,GND*%
%TO.N,GND*%
X68230000Y-39415750D03*
%TO.P,J2,21,GPIO09/SPI_MISO*%
%TO.N,unconnected-(J2-GPIO09{slash}SPI_MISO-Pad21)*%
X70770000Y-44855750D03*
%TO.P,J2,22,GPIO25*%
%TO.N,unconnected-(J2-GPIO25-Pad22)*%
X70770000Y-39415750D03*
%TO.P,J2,23,GPIO11/SPI_CLK*%
%TO.N,unconnected-(J2-GPIO11{slash}SPI_CLK-Pad23)*%
X73310000Y-44855750D03*
%TO.P,J2,24,GPIO08*%
%TO.N,unconnected-(J2-GPIO08-Pad24)*%
X73310000Y-39415750D03*
%TO.P,J2,25,GND*%
%TO.N,GND*%
X75850000Y-44855750D03*
%TO.P,J2,26,GPIO07*%
%TO.N,unconnected-(J2-GPIO07-Pad26)*%
X75850000Y-39415750D03*
%TO.P,J2,27,ID_SD*%
%TO.N,unconnected-(J2-ID_SD-Pad27)*%
X78390000Y-44855750D03*
%TO.P,J2,28,ID_SC*%
%TO.N,unconnected-(J2-ID_SC-Pad28)*%
X78390000Y-39415750D03*
%TO.P,J2,29,GPIO05*%
%TO.N,unconnected-(J2-GPIO05-Pad29)*%
X80930000Y-44855750D03*
%TO.P,J2,30,GND*%
%TO.N,GND*%
X80930000Y-39415750D03*
%TO.P,J2,31,GPIO06*%
%TO.N,unconnected-(J2-GPIO06-Pad31)*%
X83470000Y-44855750D03*
%TO.P,J2,32,GPIO12*%
%TO.N,unconnected-(J2-GPIO12-Pad32)*%
X83470000Y-39415750D03*
%TO.P,J2,33,GPIO13*%
%TO.N,unconnected-(J2-GPIO13-Pad33)*%
X86010000Y-44855750D03*
%TO.P,J2,34,GND*%
%TO.N,GND*%
X86010000Y-39415750D03*
%TO.P,J2,35,GPIO19*%
%TO.N,LRCK*%
X88550000Y-44855750D03*
%TO.P,J2,36,GPIO16*%
%TO.N,unconnected-(J2-GPIO16-Pad36)*%
X88550000Y-39415750D03*
%TO.P,J2,37,GPIO26*%
%TO.N,unconnected-(J2-GPIO26-Pad37)*%
X91090000Y-44855750D03*
%TO.P,J2,38,GPIO20*%
%TO.N,unconnected-(J2-GPIO20-Pad38)*%
X91090000Y-39415750D03*
%TO.P,J2,39,GND*%
%TO.N,GND*%
X93630000Y-44855750D03*
%TO.P,J2,40,GPIO21*%
%TO.N,DIN*%
X93630000Y-39415750D03*
D25*
%TO.P,J2,S1*%
%TO.N,N/C*%
X40500000Y-42135750D03*
%TO.P,J2,S2*%
X98500000Y-42135750D03*
%TO.P,J2,S3*%
X98500000Y-91135750D03*
%TO.P,J2,S4*%
X40500000Y-91135750D03*
%TD*%
D10*
%TO.P,R3,1*%
%TO.N,NEO-0*%
X54000000Y-77250000D03*
%TO.P,R3,2*%
%TO.N,Net-(J3-Pin_2)*%
X54000000Y-80175000D03*
%TD*%
D13*
%TO.P,J7,1,Pin_1*%
%TO.N,+5V*%
X39500000Y-75000000D03*
D14*
%TO.P,J7,2,Pin_2*%
%TO.N,GPIO-2*%
X41000000Y-75000000D03*
%TO.P,J7,3,Pin_3*%
%TO.N,GND*%
X42500000Y-75000000D03*
%TD*%
D26*
%TO.N,+5V*%
X43500000Y-45500000D03*
X45250000Y-39500000D03*
X47910000Y-39510750D03*
X38320000Y-52930000D03*
%TO.N,GND*%
X76250000Y-44750000D03*
X55500000Y-45000000D03*
X43250000Y-53700000D03*
X60500000Y-39500000D03*
X44000000Y-57750000D03*
X93500000Y-45000000D03*
X45799265Y-56450735D03*
X86250000Y-39500000D03*
X81000000Y-39500000D03*
X69500000Y-39750000D03*
%TO.N,TFT-MISO*%
X59500000Y-55250000D03*
X116000000Y-56910000D03*
%TO.N,+3.3V*%
X57250000Y-72000000D03*
X85348478Y-62000000D03*
X85000000Y-75000000D03*
X46500000Y-53000000D03*
X73500000Y-62000000D03*
X79000000Y-75000000D03*
%TO.N,GPIO-1*%
X46750000Y-63250000D03*
X61750000Y-45000000D03*
X59000000Y-58273173D03*
%TO.N,GPIO-0*%
X59250000Y-45000000D03*
X58250000Y-56000000D03*
%TO.N,Net-(J2-UART0_TX)*%
X54250000Y-41750000D03*
%TO.N,Net-(J2-UART0_RX)*%
X54250000Y-39750000D03*
%TD*%
D27*
%TO.N,+3.3V*%
X55815256Y-72000000D02*
X57250000Y-72000000D01*
X52000000Y-75815256D02*
X55815256Y-72000000D01*
X52000000Y-81250000D02*
X52000000Y-75815256D01*
X49335000Y-83915000D02*
X52000000Y-81250000D01*
X40662416Y-83915000D02*
X49335000Y-83915000D01*
X39500000Y-82752584D02*
X40662416Y-83915000D01*
X39500000Y-82750000D02*
X39500000Y-82752584D01*
%TO.N,RC-PWM-0*%
X74040000Y-50230000D02*
X72890000Y-51380000D01*
X75906346Y-50230000D02*
X74040000Y-50230000D01*
X76580000Y-50903654D02*
X75906346Y-50230000D01*
X76580000Y-51856346D02*
X76580000Y-50903654D01*
X66660000Y-61776346D02*
X76580000Y-51856346D01*
X65920920Y-67579080D02*
X66177266Y-67579080D01*
X54750000Y-78750000D02*
X65920920Y-67579080D01*
X52500000Y-79534744D02*
X53284744Y-78750000D01*
X52500000Y-81752584D02*
X52500000Y-79534744D01*
X66177266Y-67579080D02*
X66660000Y-67096346D01*
X46502584Y-87750000D02*
X52500000Y-81752584D01*
X53284744Y-78750000D02*
X54750000Y-78750000D01*
X66660000Y-67096346D02*
X66660000Y-61776346D01*
X46500000Y-87750000D02*
X46502584Y-87750000D01*
%TO.N,NEO-0*%
X54640000Y-77250000D02*
X65270000Y-66620000D01*
X54000000Y-77250000D02*
X54640000Y-77250000D01*
%TO.N,Net-(J3-Pin_2)*%
X52750000Y-87750000D02*
X52500000Y-87750000D01*
X53665000Y-86835000D02*
X52750000Y-87750000D01*
X53665000Y-80510000D02*
X53665000Y-86835000D01*
X54000000Y-80175000D02*
X53665000Y-80510000D01*
%TO.N,TFT-MISO*%
X42113654Y-55250000D02*
X59500000Y-55250000D01*
X38720000Y-51856346D02*
X42113654Y-55250000D01*
X38720000Y-50903654D02*
X38720000Y-51856346D01*
X44500000Y-46250000D02*
X40520000Y-50230000D01*
X98738430Y-56910000D02*
X88078430Y-46250000D01*
X88078430Y-46250000D02*
X44500000Y-46250000D01*
X39393654Y-50230000D02*
X38720000Y-50903654D01*
X40520000Y-50230000D02*
X39393654Y-50230000D01*
X116000000Y-56910000D02*
X98738430Y-56910000D01*
D28*
%TO.N,+5V*%
X38320000Y-73820000D02*
X39500000Y-75000000D01*
X38320000Y-52930000D02*
X38320000Y-73820000D01*
D29*
X61700000Y-92450000D02*
X58500000Y-89250000D01*
X76950000Y-91307717D02*
X75807717Y-92450000D01*
X76950000Y-89692283D02*
X76950000Y-91307717D01*
X75807717Y-92450000D02*
X61700000Y-92450000D01*
X79556533Y-87085750D02*
X76950000Y-89692283D01*
X106335750Y-87085750D02*
X79556533Y-87085750D01*
X107250000Y-88000000D02*
X106335750Y-87085750D01*
D27*
%TO.N,GPIO-2*%
X41000000Y-75000000D02*
X41000000Y-70570000D01*
X41000000Y-70570000D02*
X44950000Y-66620000D01*
D28*
%TO.N,+5V*%
X38834570Y-84315000D02*
X38285000Y-83765430D01*
D30*
X44260000Y-39990000D02*
X44739250Y-39510750D01*
D28*
X38285000Y-76215000D02*
X39500000Y-75000000D01*
D27*
X113780000Y-81470000D02*
X107250000Y-88000000D01*
D28*
X46500000Y-89250000D02*
X44250000Y-89250000D01*
D30*
X43500000Y-44332985D02*
X44260000Y-43572985D01*
D29*
X52500000Y-89250000D02*
X46500000Y-89250000D01*
D30*
X43500000Y-45500000D02*
X43500000Y-44332985D01*
X44260000Y-43572985D02*
X44260000Y-39990000D01*
D31*
X45370000Y-39415750D02*
X47910000Y-39415750D01*
D28*
X44250000Y-89250000D02*
X39315000Y-84315000D01*
D30*
X44739250Y-39510750D02*
X45250000Y-39510750D01*
D28*
X39315000Y-84315000D02*
X38834570Y-84315000D01*
D27*
X113780000Y-74620000D02*
X113780000Y-81470000D01*
D28*
X38285000Y-83765430D02*
X38285000Y-76215000D01*
D29*
X58500000Y-89250000D02*
X52500000Y-89250000D01*
D27*
%TO.N,GND*%
X44500000Y-57750000D02*
X44000000Y-57750000D01*
X68230000Y-39415750D02*
X69165750Y-39415750D01*
X69165750Y-39415750D02*
X69500000Y-39750000D01*
X50450000Y-39620750D02*
X55530000Y-44700750D01*
X50450000Y-39415750D02*
X50450000Y-39620750D01*
X45799265Y-56450735D02*
X44500000Y-57750000D01*
X42410000Y-51380000D02*
X42410000Y-52860000D01*
X42410000Y-52860000D02*
X43250000Y-53700000D01*
X55530000Y-44700750D02*
X55530000Y-44855750D01*
%TO.N,TFT-CS*%
X120750000Y-72150000D02*
X117062000Y-68462000D01*
X117062000Y-68462000D02*
X117062000Y-66240105D01*
X117062000Y-66240105D02*
X114219895Y-63398000D01*
X114219895Y-63398000D02*
X102398000Y-63398000D01*
X102398000Y-63398000D02*
X87250000Y-48250000D01*
X87250000Y-48250000D02*
X53160000Y-48250000D01*
X53160000Y-48250000D02*
X50030000Y-51380000D01*
%TO.N,TFT-MOSI*%
X87747058Y-47050000D02*
X47653654Y-47050000D01*
X43800000Y-50903654D02*
X43800000Y-51856346D01*
X45843654Y-53900000D02*
X55130000Y-53900000D01*
X120750000Y-64530000D02*
X116678000Y-60458000D01*
X47653654Y-47050000D02*
X43800000Y-50903654D01*
X116678000Y-60458000D02*
X101155058Y-60458000D01*
X101155058Y-60458000D02*
X87747058Y-47050000D01*
X55130000Y-53900000D02*
X57650000Y-51380000D01*
X43800000Y-51856346D02*
X45843654Y-53900000D01*
%TO.N,TFT-RESET*%
X87415686Y-47850000D02*
X51933654Y-47850000D01*
X120750000Y-69610000D02*
X120750000Y-68750000D01*
X51420000Y-52530000D02*
X52570000Y-51380000D01*
X48880000Y-50903654D02*
X48880000Y-51856346D01*
X49553654Y-52530000D02*
X51420000Y-52530000D01*
X120750000Y-68750000D02*
X114982000Y-62982000D01*
X48880000Y-51856346D02*
X49553654Y-52530000D01*
X51933654Y-47850000D02*
X48880000Y-50903654D01*
X114982000Y-62982000D02*
X102547686Y-62982000D01*
X102547686Y-62982000D02*
X87415686Y-47850000D01*
%TO.N,TFT-SCK*%
X45513654Y-46650000D02*
X41260000Y-50903654D01*
X42550000Y-54300000D02*
X59810000Y-54300000D01*
X101320744Y-60058000D02*
X87912744Y-46650000D01*
X41260000Y-50903654D02*
X41260000Y-53010000D01*
X118818000Y-60058000D02*
X101320744Y-60058000D01*
X120750000Y-61990000D02*
X118818000Y-60058000D01*
X87912744Y-46650000D02*
X45513654Y-46650000D01*
X59810000Y-54300000D02*
X62730000Y-51380000D01*
X41260000Y-53010000D02*
X42550000Y-54300000D01*
%TO.N,TFT-DC*%
X120750000Y-67070000D02*
X114538000Y-60858000D01*
X114538000Y-60858000D02*
X100989372Y-60858000D01*
X55110000Y-53140000D02*
X55110000Y-51380000D01*
X46340000Y-50903654D02*
X46340000Y-51856346D01*
X49793654Y-47450000D02*
X46340000Y-50903654D01*
X54750000Y-53500000D02*
X55110000Y-53140000D01*
X47983654Y-53500000D02*
X54750000Y-53500000D01*
X100989372Y-60858000D02*
X87581372Y-47450000D01*
X46340000Y-51856346D02*
X47983654Y-53500000D01*
X87581372Y-47450000D02*
X49793654Y-47450000D01*
D31*
%TO.N,+3.3V*%
X84500000Y-75500000D02*
X85000000Y-75000000D01*
X44950000Y-51380000D02*
X44950000Y-51450000D01*
D28*
X115540000Y-54240000D02*
X120750000Y-59450000D01*
D31*
X88129500Y-73408000D02*
X84500000Y-77037500D01*
X44950000Y-51450000D02*
X46500000Y-53000000D01*
X120750000Y-77230000D02*
X116928000Y-73408000D01*
D28*
X115540000Y-50500000D02*
X115540000Y-54240000D01*
D31*
X116928000Y-73408000D02*
X88129500Y-73408000D01*
X78750000Y-75250000D02*
X79000000Y-75000000D01*
X84500000Y-77037500D02*
X84500000Y-75500000D01*
X73500000Y-62000000D02*
X85348478Y-62000000D01*
X78750000Y-77287500D02*
X78750000Y-75250000D01*
D27*
%TO.N,GPIO-1*%
X51726827Y-58273173D02*
X46750000Y-63250000D01*
X61605750Y-44855750D02*
X61750000Y-45000000D01*
X59000000Y-58273173D02*
X51726827Y-58273173D01*
X60610000Y-44855750D02*
X61605750Y-44855750D01*
%TO.N,GPIO-0*%
X39870000Y-64314315D02*
X39870000Y-66620000D01*
X58070000Y-44855750D02*
X59105750Y-44855750D01*
X48184315Y-56000000D02*
X39870000Y-64314315D01*
X59105750Y-44855750D02*
X59250000Y-45000000D01*
X58250000Y-56000000D02*
X48184315Y-56000000D01*
%TO.N,SDA*%
X68510000Y-76625000D02*
X68510000Y-73540000D01*
X113780000Y-67000000D02*
X112718000Y-68062000D01*
X92748105Y-65250000D02*
X76800000Y-65250000D01*
X112718000Y-68062000D02*
X95560105Y-68062000D01*
X76800000Y-65250000D02*
X75430000Y-66620000D01*
X95560105Y-68062000D02*
X92748105Y-65250000D01*
X68510000Y-73540000D02*
X75430000Y-66620000D01*
%TO.N,SCL*%
X74760000Y-64750000D02*
X72890000Y-66620000D01*
X95560105Y-65522000D02*
X94788105Y-64750000D01*
X94788105Y-64750000D02*
X74760000Y-64750000D01*
X112718000Y-65522000D02*
X95560105Y-65522000D01*
X113780000Y-64460000D02*
X112718000Y-65522000D01*
X65970000Y-76625000D02*
X65970000Y-73540000D01*
X65970000Y-73540000D02*
X72890000Y-66620000D01*
%TO.N,NEO-1*%
X58250000Y-77037500D02*
X67810000Y-67477500D01*
X67810000Y-67477500D02*
X67810000Y-66620000D01*
%TO.N,BTN-1*%
X77120000Y-78120000D02*
X77120000Y-67470000D01*
X75000000Y-83962500D02*
X75000000Y-84000000D01*
X78750000Y-80212500D02*
X75000000Y-83962500D01*
X75000000Y-90500000D02*
X75000000Y-84000000D01*
X78750000Y-80212500D02*
X78750000Y-79750000D01*
X78750000Y-79750000D02*
X77120000Y-78120000D01*
X77120000Y-67470000D02*
X77970000Y-66620000D01*
%TO.N,BTN-2*%
X87000000Y-82462500D02*
X87000000Y-83750000D01*
X84500000Y-79962500D02*
X80510000Y-75972500D01*
X84500000Y-79962500D02*
X87000000Y-82462500D01*
X80510000Y-75972500D02*
X80510000Y-66620000D01*
%TO.N,ADC-0*%
X46100000Y-72902584D02*
X46100000Y-58650000D01*
X41000000Y-78002584D02*
X46100000Y-72902584D01*
X47076827Y-57673173D02*
X69136827Y-57673173D01*
X69136827Y-57673173D02*
X75430000Y-51380000D01*
X46100000Y-58650000D02*
X47076827Y-57673173D01*
X41000000Y-82750000D02*
X41000000Y-78002584D01*
%TO.N,DIN*%
X106670000Y-49250000D02*
X107920000Y-50500000D01*
X100805923Y-49250000D02*
X106670000Y-49250000D01*
X95100000Y-40885750D02*
X95100000Y-43544077D01*
X95100000Y-43544077D02*
X100805923Y-49250000D01*
X93630000Y-39415750D02*
X95100000Y-40885750D01*
%TO.N,LRCK*%
X90722125Y-47027875D02*
X95344250Y-51650000D01*
X88550000Y-45550000D02*
X90027875Y-47027875D01*
X109310000Y-51650000D02*
X110460000Y-50500000D01*
X88550000Y-44855750D02*
X88550000Y-45550000D01*
X95344250Y-51650000D02*
X109310000Y-51650000D01*
X90027875Y-47027875D02*
X90722125Y-47027875D01*
%TO.N,Net-(J2-UART0_TX)*%
X54250000Y-41750000D02*
X54250000Y-40675750D01*
X54250000Y-40675750D02*
X52990000Y-39415750D01*
%TO.N,BCK*%
X90155000Y-42959882D02*
X90155000Y-45895064D01*
X89695118Y-42500000D02*
X90155000Y-42959882D01*
X61063382Y-42500000D02*
X89695118Y-42500000D01*
X58070000Y-39415750D02*
X58070000Y-39506618D01*
X58070000Y-39506618D02*
X61063382Y-42500000D01*
X90155000Y-45895064D02*
X94759936Y-50500000D01*
X94759936Y-50500000D02*
X105380000Y-50500000D01*
%TO.N,Net-(J2-UART0_RX)*%
X54250000Y-39750000D02*
X55195750Y-39750000D01*
X55195750Y-39750000D02*
X55530000Y-39415750D01*
%TO.N,Net-(J4-Pin_2)*%
X58250000Y-79962500D02*
X59665000Y-81377500D01*
X59665000Y-86935000D02*
X58850000Y-87750000D01*
X58850000Y-87750000D02*
X58500000Y-87750000D01*
X59665000Y-81377500D02*
X59665000Y-86935000D01*
%TD*%
%TA.AperFunction,Conductor*%
%TO.N,+5V*%
G36*
X44221177Y-39155935D02*
G01*
X44233357Y-39165750D01*
X46510669Y-39165750D01*
X46559504Y-39139084D01*
X46585862Y-39136250D01*
X46694138Y-39136250D01*
X46761177Y-39155935D01*
X46773357Y-39165750D01*
X49050669Y-39165750D01*
X49099504Y-39139084D01*
X49125862Y-39136250D01*
X49190500Y-39136250D01*
X49257539Y-39155935D01*
X49303294Y-39208739D01*
X49314500Y-39260250D01*
X49314500Y-40303620D01*
X49314501Y-40303626D01*
X49320908Y-40363233D01*
X49371202Y-40498078D01*
X49371206Y-40498085D01*
X49457452Y-40613294D01*
X49457455Y-40613297D01*
X49572664Y-40699543D01*
X49572671Y-40699547D01*
X49633833Y-40722359D01*
X49689767Y-40764230D01*
X49714184Y-40829694D01*
X49714500Y-40838541D01*
X49714500Y-40938194D01*
X49742763Y-41080280D01*
X49742766Y-41080292D01*
X49798204Y-41214133D01*
X49798211Y-41214146D01*
X49878699Y-41334603D01*
X49878702Y-41334607D01*
X49981142Y-41437047D01*
X49981146Y-41437050D01*
X50101603Y-41517538D01*
X50101616Y-41517545D01*
X50230054Y-41570745D01*
X50235462Y-41572985D01*
X50377555Y-41601249D01*
X50377559Y-41601250D01*
X50377560Y-41601250D01*
X50522441Y-41601250D01*
X50522442Y-41601249D01*
X50664538Y-41572985D01*
X50798390Y-41517542D01*
X50918854Y-41437050D01*
X51021300Y-41334604D01*
X51034225Y-41315259D01*
X51054844Y-41284403D01*
X51108456Y-41239597D01*
X51177781Y-41230890D01*
X51240808Y-41261044D01*
X51245627Y-41265612D01*
X52590137Y-42610122D01*
X52623622Y-42671445D01*
X52618638Y-42741137D01*
X52576766Y-42797070D01*
X52571349Y-42800904D01*
X52521144Y-42834450D01*
X52418702Y-42936892D01*
X52418699Y-42936896D01*
X52338211Y-43057353D01*
X52338204Y-43057366D01*
X52282766Y-43191207D01*
X52282763Y-43191219D01*
X52254500Y-43333305D01*
X52254500Y-43432958D01*
X52234815Y-43499997D01*
X52182011Y-43545752D01*
X52173834Y-43549139D01*
X52112675Y-43571950D01*
X52112664Y-43571956D01*
X51997455Y-43658202D01*
X51997452Y-43658205D01*
X51911206Y-43773414D01*
X51911202Y-43773421D01*
X51860908Y-43908267D01*
X51857661Y-43938475D01*
X51854500Y-43967877D01*
X51854500Y-44750000D01*
X51854501Y-45525500D01*
X51834816Y-45592539D01*
X51782013Y-45638294D01*
X51730501Y-45649500D01*
X51709500Y-45649500D01*
X51642461Y-45629815D01*
X51596706Y-45577011D01*
X51585500Y-45525500D01*
X51585499Y-43967879D01*
X51585498Y-43967873D01*
X51585497Y-43967866D01*
X51579091Y-43908267D01*
X51529965Y-43776554D01*
X51528797Y-43773421D01*
X51528793Y-43773414D01*
X51442547Y-43658205D01*
X51442544Y-43658202D01*
X51327335Y-43571956D01*
X51327328Y-43571952D01*
X51266167Y-43549141D01*
X51210233Y-43507270D01*
X51185816Y-43441806D01*
X51185500Y-43432959D01*
X51185500Y-43333309D01*
X51185499Y-43333305D01*
X51168550Y-43248098D01*
X51157235Y-43191212D01*
X51119661Y-43100500D01*
X51101795Y-43057366D01*
X51101788Y-43057353D01*
X51021300Y-42936896D01*
X51021297Y-42936892D01*
X50918857Y-42834452D01*
X50918853Y-42834449D01*
X50798396Y-42753961D01*
X50798383Y-42753954D01*
X50664542Y-42698516D01*
X50664530Y-42698513D01*
X50522444Y-42670250D01*
X50522440Y-42670250D01*
X50377560Y-42670250D01*
X50377555Y-42670250D01*
X50235469Y-42698513D01*
X50235457Y-42698516D01*
X50101616Y-42753954D01*
X50101603Y-42753961D01*
X49981146Y-42834449D01*
X49981142Y-42834452D01*
X49878702Y-42936892D01*
X49878699Y-42936896D01*
X49798211Y-43057353D01*
X49798204Y-43057366D01*
X49742766Y-43191207D01*
X49742763Y-43191219D01*
X49714500Y-43333305D01*
X49714500Y-43432958D01*
X49694815Y-43499997D01*
X49642011Y-43545752D01*
X49633834Y-43549139D01*
X49572675Y-43571950D01*
X49572664Y-43571956D01*
X49457455Y-43658202D01*
X49457452Y-43658205D01*
X49371206Y-43773414D01*
X49371202Y-43773421D01*
X49320908Y-43908267D01*
X49317661Y-43938475D01*
X49314500Y-43967877D01*
X49314500Y-44750000D01*
X49314501Y-45525500D01*
X49294816Y-45592539D01*
X49242013Y-45638294D01*
X49190501Y-45649500D01*
X49169500Y-45649500D01*
X49102461Y-45629815D01*
X49056706Y-45577011D01*
X49045500Y-45525500D01*
X49045499Y-43967879D01*
X49045498Y-43967873D01*
X49045497Y-43967866D01*
X49039091Y-43908267D01*
X48989965Y-43776554D01*
X48988797Y-43773421D01*
X48988793Y-43773414D01*
X48902547Y-43658205D01*
X48902544Y-43658202D01*
X48787335Y-43571956D01*
X48787328Y-43571952D01*
X48726167Y-43549141D01*
X48670233Y-43507270D01*
X48645816Y-43441806D01*
X48645500Y-43432959D01*
X48645500Y-43333309D01*
X48645499Y-43333305D01*
X48628550Y-43248098D01*
X48617235Y-43191212D01*
X48579661Y-43100500D01*
X48561795Y-43057366D01*
X48561788Y-43057353D01*
X48481300Y-42936896D01*
X48481297Y-42936892D01*
X48378857Y-42834452D01*
X48378853Y-42834449D01*
X48258396Y-42753961D01*
X48258383Y-42753954D01*
X48124542Y-42698516D01*
X48124530Y-42698513D01*
X47982444Y-42670250D01*
X47982440Y-42670250D01*
X47837560Y-42670250D01*
X47836194Y-42670250D01*
X47769155Y-42650565D01*
X47723400Y-42597761D01*
X47713456Y-42528603D01*
X47718260Y-42507940D01*
X47752417Y-42402818D01*
X47780500Y-42225509D01*
X47780500Y-42045991D01*
X47752417Y-41868682D01*
X47718262Y-41763566D01*
X47716268Y-41693728D01*
X47752348Y-41633895D01*
X47815049Y-41603066D01*
X47836194Y-41601250D01*
X47982441Y-41601250D01*
X47982442Y-41601249D01*
X48124538Y-41572985D01*
X48258390Y-41517542D01*
X48378854Y-41437050D01*
X48481300Y-41334604D01*
X48561792Y-41214140D01*
X48617235Y-41080288D01*
X48645500Y-40938190D01*
X48645500Y-40838007D01*
X48665185Y-40770968D01*
X48717989Y-40725213D01*
X48726168Y-40721825D01*
X48787084Y-40699105D01*
X48787093Y-40699100D01*
X48902187Y-40612940D01*
X48902190Y-40612937D01*
X48988350Y-40497843D01*
X48988354Y-40497836D01*
X49038596Y-40363129D01*
X49038598Y-40363122D01*
X49044999Y-40303594D01*
X49045000Y-40303577D01*
X49045000Y-39665750D01*
X46775000Y-39665750D01*
X46775000Y-40303594D01*
X46781401Y-40363122D01*
X46781403Y-40363129D01*
X46831645Y-40497836D01*
X46831649Y-40497843D01*
X46917809Y-40612937D01*
X46917812Y-40612940D01*
X47032906Y-40699100D01*
X47032915Y-40699105D01*
X47093832Y-40721825D01*
X47149766Y-40763695D01*
X47174184Y-40829159D01*
X47174500Y-40838007D01*
X47174500Y-40939555D01*
X47154815Y-41006594D01*
X47102011Y-41052349D01*
X47032853Y-41062293D01*
X47012182Y-41057486D01*
X46907069Y-41023333D01*
X46801382Y-41006594D01*
X46729759Y-40995250D01*
X46550241Y-40995250D01*
X46514779Y-41000866D01*
X46372928Y-41023333D01*
X46267817Y-41057485D01*
X46197976Y-41059480D01*
X46138143Y-41023399D01*
X46107316Y-40960697D01*
X46105500Y-40939554D01*
X46105500Y-40838007D01*
X46125185Y-40770968D01*
X46177989Y-40725213D01*
X46186168Y-40721825D01*
X46247084Y-40699105D01*
X46247093Y-40699100D01*
X46362187Y-40612940D01*
X46362190Y-40612937D01*
X46448350Y-40497843D01*
X46448354Y-40497836D01*
X46498596Y-40363129D01*
X46498598Y-40363122D01*
X46504999Y-40303594D01*
X46505000Y-40303577D01*
X46505000Y-39665750D01*
X44235000Y-39665750D01*
X44235000Y-40303594D01*
X44241401Y-40363122D01*
X44241403Y-40363129D01*
X44291645Y-40497836D01*
X44291649Y-40497843D01*
X44377809Y-40612937D01*
X44377812Y-40612940D01*
X44492906Y-40699100D01*
X44492915Y-40699105D01*
X44553832Y-40721825D01*
X44609766Y-40763695D01*
X44634184Y-40829159D01*
X44634500Y-40838007D01*
X44634500Y-40938194D01*
X44662763Y-41080280D01*
X44662766Y-41080292D01*
X44718204Y-41214133D01*
X44718211Y-41214146D01*
X44798699Y-41334603D01*
X44798702Y-41334607D01*
X44901142Y-41437047D01*
X44901146Y-41437050D01*
X45021603Y-41517538D01*
X45021616Y-41517545D01*
X45150054Y-41570745D01*
X45155462Y-41572985D01*
X45297555Y-41601249D01*
X45297559Y-41601250D01*
X45443805Y-41601250D01*
X45510844Y-41620935D01*
X45556599Y-41673739D01*
X45566543Y-41742897D01*
X45561736Y-41763568D01*
X45527583Y-41868680D01*
X45499500Y-42045991D01*
X45499500Y-42225508D01*
X45527582Y-42402816D01*
X45527583Y-42402818D01*
X45561737Y-42507933D01*
X45563732Y-42577772D01*
X45527652Y-42637605D01*
X45464951Y-42668434D01*
X45443806Y-42670250D01*
X45297555Y-42670250D01*
X45155469Y-42698513D01*
X45155457Y-42698516D01*
X45021616Y-42753954D01*
X45021603Y-42753961D01*
X44901146Y-42834449D01*
X44901142Y-42834452D01*
X44798702Y-42936892D01*
X44798699Y-42936896D01*
X44718211Y-43057353D01*
X44718204Y-43057366D01*
X44662766Y-43191207D01*
X44662763Y-43191219D01*
X44634500Y-43333305D01*
X44634500Y-43432958D01*
X44614815Y-43499997D01*
X44562011Y-43545752D01*
X44553834Y-43549139D01*
X44492675Y-43571950D01*
X44492664Y-43571956D01*
X44377455Y-43658202D01*
X44377452Y-43658205D01*
X44291206Y-43773414D01*
X44291202Y-43773421D01*
X44240908Y-43908267D01*
X44237661Y-43938475D01*
X44234501Y-43967873D01*
X44234500Y-43967885D01*
X44234500Y-45638296D01*
X44214815Y-45705335D01*
X44172501Y-45745683D01*
X44131285Y-45769479D01*
X44131282Y-45769481D01*
X44019478Y-45881286D01*
X40307584Y-49593181D01*
X40246261Y-49626666D01*
X40219903Y-49629500D01*
X39480324Y-49629500D01*
X39480308Y-49629499D01*
X39472712Y-49629499D01*
X39314597Y-49629499D01*
X39238233Y-49649961D01*
X39161868Y-49670423D01*
X39161863Y-49670426D01*
X39024944Y-49749475D01*
X39024936Y-49749481D01*
X38239481Y-50534936D01*
X38239479Y-50534939D01*
X38226556Y-50557323D01*
X38202759Y-50598541D01*
X38160423Y-50671869D01*
X38119499Y-50824597D01*
X38119499Y-50824599D01*
X38119499Y-50992700D01*
X38119500Y-50992713D01*
X38119500Y-51769676D01*
X38119499Y-51769694D01*
X38119499Y-51935400D01*
X38119498Y-51935400D01*
X38140833Y-52015023D01*
X38160423Y-52088131D01*
X38184896Y-52130519D01*
X38230539Y-52209575D01*
X38239479Y-52225060D01*
X38239481Y-52225063D01*
X38358349Y-52343931D01*
X38358354Y-52343935D01*
X41744938Y-55730520D01*
X41744940Y-55730521D01*
X41744944Y-55730524D01*
X41782804Y-55752382D01*
X41881870Y-55809577D01*
X42034597Y-55850501D01*
X42034599Y-55850501D01*
X42200308Y-55850501D01*
X42200324Y-55850500D01*
X45006648Y-55850500D01*
X45073687Y-55870185D01*
X45119442Y-55922989D01*
X45129386Y-55992147D01*
X45111642Y-56040472D01*
X45073475Y-56101213D01*
X45013895Y-56271485D01*
X45004102Y-56358403D01*
X44977035Y-56422817D01*
X44968563Y-56432200D01*
X44424640Y-56976123D01*
X44363317Y-57009608D01*
X44296005Y-57005484D01*
X44179257Y-56964632D01*
X44179249Y-56964630D01*
X44000004Y-56944435D01*
X43999996Y-56944435D01*
X43820750Y-56964630D01*
X43820745Y-56964631D01*
X43650476Y-57024211D01*
X43497737Y-57120184D01*
X43370184Y-57247737D01*
X43274211Y-57400476D01*
X43214631Y-57570745D01*
X43214630Y-57570750D01*
X43194435Y-57749996D01*
X43194435Y-57750003D01*
X43214630Y-57929249D01*
X43214631Y-57929254D01*
X43274211Y-58099523D01*
X43361201Y-58237966D01*
X43370184Y-58252262D01*
X43497738Y-58379816D01*
X43650478Y-58475789D01*
X43803401Y-58529299D01*
X43820745Y-58535368D01*
X43820750Y-58535369D01*
X43999996Y-58555565D01*
X44000000Y-58555565D01*
X44000004Y-58555565D01*
X44179249Y-58535369D01*
X44179252Y-58535368D01*
X44179255Y-58535368D01*
X44349522Y-58475789D01*
X44502262Y-58379816D01*
X44502266Y-58379811D01*
X44505097Y-58377555D01*
X44507275Y-58376665D01*
X44508158Y-58376111D01*
X44508255Y-58376265D01*
X44569784Y-58351146D01*
X44576927Y-58350781D01*
X44579052Y-58350501D01*
X44579057Y-58350501D01*
X44686007Y-58321843D01*
X44755853Y-58323506D01*
X44813716Y-58362668D01*
X44841221Y-58426896D01*
X44829635Y-58495798D01*
X44805779Y-58529299D01*
X39501286Y-63833793D01*
X39389481Y-63945597D01*
X39372050Y-63975788D01*
X39342743Y-64026550D01*
X39310423Y-64082530D01*
X39269499Y-64235258D01*
X39269499Y-64235260D01*
X39269499Y-64403361D01*
X39269500Y-64403374D01*
X39269500Y-65145500D01*
X39249815Y-65212539D01*
X39197011Y-65258294D01*
X39145501Y-65269500D01*
X38972130Y-65269500D01*
X38972123Y-65269501D01*
X38912516Y-65275908D01*
X38777671Y-65326202D01*
X38777664Y-65326206D01*
X38662455Y-65412452D01*
X38662452Y-65412455D01*
X38576206Y-65527664D01*
X38576202Y-65527671D01*
X38525908Y-65662517D01*
X38519501Y-65722116D01*
X38519500Y-65722135D01*
X38519500Y-67517870D01*
X38519501Y-67517876D01*
X38525908Y-67577483D01*
X38576202Y-67712328D01*
X38576206Y-67712335D01*
X38662452Y-67827544D01*
X38662455Y-67827547D01*
X38777664Y-67913793D01*
X38777671Y-67913797D01*
X38912517Y-67964091D01*
X38912516Y-67964091D01*
X38919444Y-67964835D01*
X38972127Y-67970500D01*
X40767872Y-67970499D01*
X40827483Y-67964091D01*
X40962331Y-67913796D01*
X41077546Y-67827546D01*
X41163796Y-67712331D01*
X41212810Y-67580916D01*
X41254681Y-67524984D01*
X41320145Y-67500566D01*
X41388418Y-67515417D01*
X41416673Y-67536569D01*
X41538599Y-67658495D01*
X41620499Y-67715842D01*
X41732165Y-67794032D01*
X41732167Y-67794033D01*
X41732170Y-67794035D01*
X41946337Y-67893903D01*
X42174592Y-67955063D01*
X42351034Y-67970500D01*
X42409999Y-67975659D01*
X42410000Y-67975659D01*
X42410001Y-67975659D01*
X42424106Y-67974424D01*
X42437842Y-67973223D01*
X42506342Y-67986989D01*
X42556525Y-68035604D01*
X42572459Y-68103633D01*
X42549084Y-68169476D01*
X42536331Y-68184432D01*
X40631286Y-70089478D01*
X40519481Y-70201282D01*
X40519479Y-70201285D01*
X40469361Y-70288094D01*
X40469359Y-70288096D01*
X40440425Y-70338209D01*
X40440424Y-70338210D01*
X40436027Y-70354620D01*
X40399499Y-70490943D01*
X40399499Y-70490945D01*
X40399499Y-70659046D01*
X40399500Y-70659059D01*
X40399500Y-73672994D01*
X40379815Y-73740033D01*
X40327011Y-73785788D01*
X40257853Y-73795732D01*
X40210403Y-73778533D01*
X40084124Y-73700643D01*
X40084119Y-73700641D01*
X39917697Y-73645494D01*
X39917690Y-73645493D01*
X39814986Y-73635000D01*
X39750000Y-73635000D01*
X39750000Y-74733811D01*
X39724116Y-74707927D01*
X39640885Y-74659874D01*
X39548053Y-74635000D01*
X39451947Y-74635000D01*
X39359115Y-74659874D01*
X39275884Y-74707927D01*
X39250000Y-74733811D01*
X39250000Y-73635000D01*
X39249999Y-73634999D01*
X39185028Y-73635000D01*
X39185011Y-73635001D01*
X39082302Y-73645494D01*
X38915880Y-73700641D01*
X38915875Y-73700643D01*
X38766654Y-73792684D01*
X38642684Y-73916654D01*
X38550643Y-74065875D01*
X38550641Y-74065880D01*
X38495494Y-74232302D01*
X38495493Y-74232309D01*
X38485000Y-74335013D01*
X38485000Y-74750000D01*
X39233811Y-74750000D01*
X39207927Y-74775884D01*
X39159874Y-74859115D01*
X39135000Y-74951947D01*
X39135000Y-75048053D01*
X39159874Y-75140885D01*
X39207927Y-75224116D01*
X39233811Y-75250000D01*
X38485001Y-75250000D01*
X38485001Y-75664986D01*
X38495494Y-75767697D01*
X38550641Y-75934119D01*
X38550643Y-75934124D01*
X38642684Y-76083345D01*
X38766654Y-76207315D01*
X38915875Y-76299356D01*
X38915880Y-76299358D01*
X39082302Y-76354505D01*
X39082309Y-76354506D01*
X39185019Y-76364999D01*
X39249999Y-76364998D01*
X39250000Y-76364998D01*
X39250000Y-75266189D01*
X39275884Y-75292073D01*
X39359115Y-75340126D01*
X39451947Y-75365000D01*
X39548053Y-75365000D01*
X39640885Y-75340126D01*
X39724116Y-75292073D01*
X39750000Y-75266189D01*
X39750000Y-76364999D01*
X39814972Y-76364999D01*
X39814986Y-76364998D01*
X39917697Y-76354505D01*
X40084119Y-76299358D01*
X40084124Y-76299356D01*
X40233344Y-76207316D01*
X40250251Y-76190409D01*
X40311573Y-76156922D01*
X40381265Y-76161905D01*
X40406825Y-76174986D01*
X40518973Y-76249921D01*
X40518986Y-76249928D01*
X40694550Y-76322648D01*
X40703789Y-76326475D01*
X40872915Y-76360116D01*
X40899977Y-76365499D01*
X40899981Y-76365500D01*
X40899982Y-76365500D01*
X41100019Y-76365500D01*
X41100020Y-76365499D01*
X41296211Y-76326475D01*
X41465528Y-76256342D01*
X41481013Y-76249928D01*
X41481013Y-76249927D01*
X41481020Y-76249925D01*
X41647344Y-76138791D01*
X41662318Y-76123816D01*
X41723639Y-76090331D01*
X41793331Y-76095314D01*
X41837681Y-76123816D01*
X41845925Y-76132060D01*
X41879410Y-76193383D01*
X41874426Y-76263075D01*
X41845925Y-76307422D01*
X40631286Y-77522062D01*
X40519481Y-77633866D01*
X40519479Y-77633868D01*
X40510161Y-77650009D01*
X40499004Y-77669334D01*
X40440423Y-77770799D01*
X40399499Y-77923527D01*
X40399499Y-77923529D01*
X40399499Y-78091630D01*
X40399500Y-78091643D01*
X40399500Y-81422407D01*
X40379815Y-81489446D01*
X40327011Y-81535201D01*
X40257853Y-81545145D01*
X40210404Y-81527946D01*
X40084340Y-81450189D01*
X40084335Y-81450187D01*
X40084334Y-81450186D01*
X39917797Y-81395001D01*
X39917795Y-81395000D01*
X39815010Y-81384500D01*
X39184998Y-81384500D01*
X39184980Y-81384501D01*
X39082203Y-81395000D01*
X39082200Y-81395001D01*
X38915668Y-81450185D01*
X38915663Y-81450187D01*
X38766342Y-81542289D01*
X38642289Y-81666342D01*
X38550187Y-81815663D01*
X38550186Y-81815666D01*
X38495001Y-81982203D01*
X38495001Y-81982204D01*
X38495000Y-81982204D01*
X38484500Y-82084983D01*
X38484500Y-83415001D01*
X38484501Y-83415018D01*
X38495000Y-83517796D01*
X38495001Y-83517799D01*
X38550185Y-83684331D01*
X38550186Y-83684334D01*
X38642288Y-83833656D01*
X38766344Y-83957712D01*
X38915666Y-84049814D01*
X39082203Y-84104999D01*
X39184991Y-84115500D01*
X39815008Y-84115499D01*
X39815016Y-84115498D01*
X39815019Y-84115498D01*
X39838896Y-84113058D01*
X39917797Y-84104999D01*
X39917804Y-84104996D01*
X39922172Y-84104062D01*
X39991847Y-84109275D01*
X40035814Y-84137633D01*
X40177555Y-84279374D01*
X40177565Y-84279385D01*
X40181895Y-84283715D01*
X40181896Y-84283716D01*
X40293700Y-84395520D01*
X40293702Y-84395521D01*
X40293706Y-84395524D01*
X40416826Y-84466606D01*
X40430632Y-84474577D01*
X40516548Y-84497598D01*
X40583358Y-84515500D01*
X40583359Y-84515500D01*
X48588487Y-84515500D01*
X48655526Y-84535185D01*
X48701281Y-84587989D01*
X48711225Y-84657147D01*
X48682200Y-84720703D01*
X48676170Y-84727178D01*
X48225809Y-85177539D01*
X47807423Y-85595925D01*
X47746100Y-85629410D01*
X47676408Y-85624426D01*
X47632061Y-85595925D01*
X47497347Y-85461211D01*
X47497343Y-85461208D01*
X47331026Y-85350078D01*
X47331013Y-85350071D01*
X47146215Y-85273526D01*
X47146203Y-85273523D01*
X46950022Y-85234500D01*
X46950018Y-85234500D01*
X46049982Y-85234500D01*
X46049977Y-85234500D01*
X45853796Y-85273523D01*
X45853784Y-85273526D01*
X45668986Y-85350071D01*
X45668973Y-85350078D01*
X45502656Y-85461208D01*
X45502652Y-85461211D01*
X45361211Y-85602652D01*
X45361208Y-85602656D01*
X45250078Y-85768973D01*
X45250071Y-85768986D01*
X45173526Y-85953784D01*
X45173523Y-85953796D01*
X45134500Y-86149977D01*
X45134500Y-86350022D01*
X45173523Y-86546203D01*
X45173526Y-86546215D01*
X45250071Y-86731013D01*
X45250078Y-86731026D01*
X45361208Y-86897343D01*
X45361211Y-86897347D01*
X45376183Y-86912319D01*
X45409668Y-86973642D01*
X45404684Y-87043334D01*
X45376183Y-87087681D01*
X45361211Y-87102652D01*
X45361208Y-87102656D01*
X45250078Y-87268973D01*
X45250071Y-87268986D01*
X45173526Y-87453784D01*
X45173523Y-87453796D01*
X45134500Y-87649977D01*
X45134500Y-87850022D01*
X45173523Y-88046203D01*
X45173526Y-88046215D01*
X45250071Y-88231013D01*
X45250078Y-88231026D01*
X45325013Y-88343174D01*
X45345891Y-88409852D01*
X45327406Y-88477232D01*
X45309594Y-88499744D01*
X45292684Y-88516654D01*
X45200643Y-88665875D01*
X45200641Y-88665880D01*
X45145494Y-88832302D01*
X45145493Y-88832309D01*
X45135000Y-88935013D01*
X45135000Y-89000000D01*
X46233811Y-89000000D01*
X46207927Y-89025884D01*
X46159874Y-89109115D01*
X46135000Y-89201947D01*
X46135000Y-89298053D01*
X46159874Y-89390885D01*
X46207927Y-89474116D01*
X46233811Y-89500000D01*
X45135001Y-89500000D01*
X45135001Y-89564986D01*
X45145494Y-89667697D01*
X45200641Y-89834119D01*
X45200643Y-89834124D01*
X45292684Y-89983345D01*
X45416654Y-90107315D01*
X45565875Y-90199356D01*
X45565880Y-90199358D01*
X45732302Y-90254505D01*
X45732309Y-90254506D01*
X45835019Y-90264999D01*
X46249999Y-90264999D01*
X46250000Y-90264998D01*
X46250000Y-89516189D01*
X46275884Y-89542073D01*
X46359115Y-89590126D01*
X46451947Y-89615000D01*
X46548053Y-89615000D01*
X46640885Y-89590126D01*
X46724116Y-89542073D01*
X46750000Y-89516189D01*
X46750000Y-90264999D01*
X47164972Y-90264999D01*
X47164986Y-90264998D01*
X47267697Y-90254505D01*
X47434119Y-90199358D01*
X47434124Y-90199356D01*
X47583345Y-90107315D01*
X47707315Y-89983345D01*
X47799356Y-89834124D01*
X47799358Y-89834119D01*
X47854505Y-89667697D01*
X47854506Y-89667690D01*
X47864999Y-89564986D01*
X47865000Y-89564973D01*
X47865000Y-89500000D01*
X46766189Y-89500000D01*
X46792073Y-89474116D01*
X46840126Y-89390885D01*
X46865000Y-89298053D01*
X46865000Y-89201947D01*
X46840126Y-89109115D01*
X46792073Y-89025884D01*
X46766189Y-89000000D01*
X47864999Y-89000000D01*
X47864999Y-88935028D01*
X47864998Y-88935013D01*
X47854505Y-88832302D01*
X47799358Y-88665880D01*
X47799356Y-88665875D01*
X47707315Y-88516654D01*
X47690407Y-88499746D01*
X47656922Y-88438423D01*
X47661906Y-88368731D01*
X47674986Y-88343174D01*
X47749921Y-88231026D01*
X47749921Y-88231025D01*
X47749925Y-88231020D01*
X47754952Y-88218885D01*
X47767270Y-88189144D01*
X47826475Y-88046211D01*
X47865500Y-87850018D01*
X47865500Y-87649982D01*
X47865499Y-87649979D01*
X47865499Y-87649977D01*
X47864288Y-87643890D01*
X47826475Y-87453789D01*
X47826473Y-87453784D01*
X47805916Y-87404154D01*
X47798447Y-87334685D01*
X47829722Y-87272206D01*
X47832768Y-87269049D01*
X52852819Y-82248999D01*
X52914142Y-82215514D01*
X52983834Y-82220498D01*
X53039767Y-82262370D01*
X53064184Y-82327834D01*
X53064500Y-82336680D01*
X53064500Y-85110500D01*
X53044815Y-85177539D01*
X52992011Y-85223294D01*
X52940500Y-85234500D01*
X52049977Y-85234500D01*
X51853796Y-85273523D01*
X51853784Y-85273526D01*
X51668986Y-85350071D01*
X51668973Y-85350078D01*
X51502656Y-85461208D01*
X51502652Y-85461211D01*
X51361211Y-85602652D01*
X51361208Y-85602656D01*
X51250078Y-85768973D01*
X51250071Y-85768986D01*
X51173526Y-85953784D01*
X51173523Y-85953796D01*
X51134500Y-86149977D01*
X51134500Y-86350022D01*
X51173523Y-86546203D01*
X51173526Y-86546215D01*
X51250071Y-86731013D01*
X51250078Y-86731026D01*
X51361208Y-86897343D01*
X51361211Y-86897347D01*
X51376183Y-86912319D01*
X51409668Y-86973642D01*
X51404684Y-87043334D01*
X51376183Y-87087681D01*
X51361211Y-87102652D01*
X51361208Y-87102656D01*
X51250078Y-87268973D01*
X51250071Y-87268986D01*
X51173526Y-87453784D01*
X51173523Y-87453796D01*
X51134500Y-87649977D01*
X51134500Y-87850022D01*
X51173523Y-88046203D01*
X51173526Y-88046215D01*
X51250071Y-88231013D01*
X51250078Y-88231026D01*
X51325013Y-88343174D01*
X51345891Y-88409852D01*
X51327406Y-88477232D01*
X51309594Y-88499744D01*
X51292684Y-88516654D01*
X51200643Y-88665875D01*
X51200641Y-88665880D01*
X51145494Y-88832302D01*
X51145493Y-88832309D01*
X51135000Y-88935013D01*
X51135000Y-89000000D01*
X52233811Y-89000000D01*
X52207927Y-89025884D01*
X52159874Y-89109115D01*
X52135000Y-89201947D01*
X52135000Y-89298053D01*
X52159874Y-89390885D01*
X52207927Y-89474116D01*
X52233811Y-89500000D01*
X51135001Y-89500000D01*
X51135001Y-89564986D01*
X51145494Y-89667697D01*
X51200641Y-89834119D01*
X51200643Y-89834124D01*
X51292684Y-89983345D01*
X51416654Y-90107315D01*
X51565875Y-90199356D01*
X51565880Y-90199358D01*
X51732302Y-90254505D01*
X51732309Y-90254506D01*
X51835019Y-90264999D01*
X52249999Y-90264999D01*
X52250000Y-90264998D01*
X52250000Y-89516189D01*
X52275884Y-89542073D01*
X52359115Y-89590126D01*
X52451947Y-89615000D01*
X52548053Y-89615000D01*
X52640885Y-89590126D01*
X52724116Y-89542073D01*
X52750000Y-89516189D01*
X52750000Y-90264999D01*
X53164972Y-90264999D01*
X53164986Y-90264998D01*
X53267697Y-90254505D01*
X53434119Y-90199358D01*
X53434124Y-90199356D01*
X53583345Y-90107315D01*
X53707315Y-89983345D01*
X53799356Y-89834124D01*
X53799358Y-89834119D01*
X53854505Y-89667697D01*
X53854506Y-89667690D01*
X53864999Y-89564986D01*
X53865000Y-89564973D01*
X53865000Y-89500000D01*
X52766189Y-89500000D01*
X52792073Y-89474116D01*
X52840126Y-89390885D01*
X52865000Y-89298053D01*
X52865000Y-89201947D01*
X52840126Y-89109115D01*
X52792073Y-89025884D01*
X52766189Y-89000000D01*
X53864999Y-89000000D01*
X53864999Y-88935028D01*
X53864998Y-88935013D01*
X53854505Y-88832302D01*
X53799358Y-88665880D01*
X53799356Y-88665875D01*
X53707315Y-88516654D01*
X53690407Y-88499746D01*
X53656922Y-88438423D01*
X53661906Y-88368731D01*
X53674986Y-88343174D01*
X53749921Y-88231026D01*
X53749921Y-88231025D01*
X53749925Y-88231020D01*
X53754952Y-88218885D01*
X53767270Y-88189144D01*
X53826475Y-88046211D01*
X53865500Y-87850018D01*
X53865500Y-87649982D01*
X53865500Y-87649981D01*
X53865500Y-87649979D01*
X53850848Y-87576322D01*
X53857075Y-87506730D01*
X53884782Y-87464451D01*
X54023506Y-87325728D01*
X54023511Y-87325724D01*
X54033714Y-87315520D01*
X54033716Y-87315520D01*
X54145520Y-87203716D01*
X54224577Y-87066784D01*
X54265500Y-86914057D01*
X54265500Y-81361999D01*
X54285185Y-81294960D01*
X54337989Y-81249205D01*
X54389500Y-81237999D01*
X54675002Y-81237999D01*
X54675008Y-81237999D01*
X54777797Y-81227499D01*
X54944334Y-81172314D01*
X55093656Y-81080212D01*
X55217712Y-80956156D01*
X55309814Y-80806834D01*
X55364999Y-80640297D01*
X55375500Y-80537509D01*
X55375499Y-79812492D01*
X55364999Y-79709703D01*
X55328641Y-79599983D01*
X56874500Y-79599983D01*
X56874500Y-80325001D01*
X56874501Y-80325019D01*
X56885000Y-80427796D01*
X56885001Y-80427799D01*
X56913980Y-80515251D01*
X56940186Y-80594334D01*
X57032288Y-80743656D01*
X57156344Y-80867712D01*
X57305666Y-80959814D01*
X57472203Y-81014999D01*
X57574991Y-81025500D01*
X58412402Y-81025499D01*
X58479441Y-81045183D01*
X58500083Y-81061818D01*
X59028181Y-81589916D01*
X59061666Y-81651239D01*
X59064500Y-81677597D01*
X59064500Y-85110500D01*
X59044815Y-85177539D01*
X58992011Y-85223294D01*
X58940500Y-85234500D01*
X58049977Y-85234500D01*
X57853796Y-85273523D01*
X57853784Y-85273526D01*
X57668986Y-85350071D01*
X57668973Y-85350078D01*
X57502656Y-85461208D01*
X57502652Y-85461211D01*
X57361211Y-85602652D01*
X57361208Y-85602656D01*
X57250078Y-85768973D01*
X57250071Y-85768986D01*
X57173526Y-85953784D01*
X57173523Y-85953796D01*
X57134500Y-86149977D01*
X57134500Y-86350022D01*
X57173523Y-86546203D01*
X57173526Y-86546215D01*
X57250071Y-86731013D01*
X57250078Y-86731026D01*
X57361208Y-86897343D01*
X57361211Y-86897347D01*
X57376183Y-86912319D01*
X57409668Y-86973642D01*
X57404684Y-87043334D01*
X57376183Y-87087681D01*
X57361211Y-87102652D01*
X57361208Y-87102656D01*
X57250078Y-87268973D01*
X57250071Y-87268986D01*
X57173526Y-87453784D01*
X57173523Y-87453796D01*
X57134500Y-87649977D01*
X57134500Y-87850022D01*
X57173523Y-88046203D01*
X57173526Y-88046215D01*
X57250071Y-88231013D01*
X57250078Y-88231026D01*
X57325013Y-88343174D01*
X57345891Y-88409852D01*
X57327406Y-88477232D01*
X57309594Y-88499744D01*
X57292684Y-88516654D01*
X57200643Y-88665875D01*
X57200641Y-88665880D01*
X57145494Y-88832302D01*
X57145493Y-88832309D01*
X57135000Y-88935013D01*
X57135000Y-89000000D01*
X58233811Y-89000000D01*
X58207927Y-89025884D01*
X58159874Y-89109115D01*
X58135000Y-89201947D01*
X58135000Y-89298053D01*
X58159874Y-89390885D01*
X58207927Y-89474116D01*
X58233811Y-89500000D01*
X57135001Y-89500000D01*
X57135001Y-89564986D01*
X57145494Y-89667697D01*
X57200641Y-89834119D01*
X57200643Y-89834124D01*
X57292684Y-89983345D01*
X57416654Y-90107315D01*
X57565875Y-90199356D01*
X57565880Y-90199358D01*
X57732302Y-90254505D01*
X57732309Y-90254506D01*
X57835019Y-90264999D01*
X58249999Y-90264999D01*
X58250000Y-90264998D01*
X58250000Y-89516189D01*
X58275884Y-89542073D01*
X58359115Y-89590126D01*
X58451947Y-89615000D01*
X58548053Y-89615000D01*
X58640885Y-89590126D01*
X58724116Y-89542073D01*
X58750000Y-89516189D01*
X58750000Y-90264999D01*
X59164972Y-90264999D01*
X59164986Y-90264998D01*
X59267697Y-90254505D01*
X59434119Y-90199358D01*
X59434124Y-90199356D01*
X59583345Y-90107315D01*
X59707315Y-89983345D01*
X59799356Y-89834124D01*
X59799358Y-89834119D01*
X59854505Y-89667697D01*
X59854506Y-89667690D01*
X59864999Y-89564986D01*
X59865000Y-89564973D01*
X59865000Y-89500000D01*
X58766189Y-89500000D01*
X58792073Y-89474116D01*
X58840126Y-89390885D01*
X58865000Y-89298053D01*
X58865000Y-89201947D01*
X58840126Y-89109115D01*
X58792073Y-89025884D01*
X58766189Y-89000000D01*
X59864999Y-89000000D01*
X59864999Y-88935028D01*
X59864998Y-88935013D01*
X59854505Y-88832302D01*
X59799358Y-88665880D01*
X59799356Y-88665875D01*
X59707315Y-88516654D01*
X59690407Y-88499746D01*
X59656922Y-88438423D01*
X59661906Y-88368731D01*
X59674986Y-88343174D01*
X59749921Y-88231026D01*
X59749921Y-88231025D01*
X59749925Y-88231020D01*
X59754952Y-88218885D01*
X59767270Y-88189144D01*
X59826475Y-88046211D01*
X59865500Y-87850018D01*
X59865500Y-87649982D01*
X59865499Y-87649981D01*
X59865309Y-87648045D01*
X59865500Y-87647037D01*
X59865500Y-87643890D01*
X59866097Y-87643890D01*
X59878324Y-87579399D01*
X59901027Y-87548206D01*
X60023506Y-87425728D01*
X60023511Y-87425724D01*
X60033714Y-87415520D01*
X60033716Y-87415520D01*
X60145520Y-87303716D01*
X60165579Y-87268973D01*
X60195815Y-87216603D01*
X60195815Y-87216602D01*
X60224577Y-87166785D01*
X60265500Y-87014057D01*
X60265500Y-86855943D01*
X60265500Y-81298443D01*
X60259353Y-81275500D01*
X60224577Y-81145715D01*
X60195639Y-81095595D01*
X60145520Y-81008784D01*
X60033716Y-80896980D01*
X60033715Y-80896979D01*
X60029385Y-80892649D01*
X60029374Y-80892639D01*
X59651986Y-80515251D01*
X59618501Y-80453928D01*
X59616309Y-80414971D01*
X59625500Y-80325009D01*
X59625499Y-79599992D01*
X59614999Y-79497203D01*
X59559814Y-79330666D01*
X59467712Y-79181344D01*
X59343656Y-79057288D01*
X59250888Y-79000069D01*
X59194336Y-78965187D01*
X59194331Y-78965185D01*
X59192862Y-78964698D01*
X59027797Y-78910001D01*
X59027795Y-78910000D01*
X58925010Y-78899500D01*
X57574998Y-78899500D01*
X57574981Y-78899501D01*
X57472203Y-78910000D01*
X57472200Y-78910001D01*
X57305668Y-78965185D01*
X57305663Y-78965187D01*
X57156342Y-79057289D01*
X57032289Y-79181342D01*
X56940187Y-79330663D01*
X56940185Y-79330668D01*
X56919251Y-79393844D01*
X56885001Y-79497203D01*
X56885001Y-79497204D01*
X56885000Y-79497204D01*
X56874500Y-79599983D01*
X55328641Y-79599983D01*
X55309814Y-79543166D01*
X55217712Y-79393844D01*
X55174233Y-79350365D01*
X55140748Y-79289042D01*
X55145732Y-79219350D01*
X55174233Y-79175003D01*
X55199736Y-79149500D01*
X55230520Y-79118716D01*
X55230520Y-79118714D01*
X55240724Y-79108511D01*
X55240728Y-79108506D01*
X56733252Y-77615981D01*
X56794573Y-77582498D01*
X56864265Y-77587482D01*
X56920198Y-77629354D01*
X56938635Y-77664654D01*
X56940186Y-77669334D01*
X57032288Y-77818656D01*
X57156344Y-77942712D01*
X57305666Y-78034814D01*
X57472203Y-78089999D01*
X57574991Y-78100500D01*
X58925008Y-78100499D01*
X59027797Y-78089999D01*
X59194334Y-78034814D01*
X59343656Y-77942712D01*
X59467712Y-77818656D01*
X59559814Y-77669334D01*
X59614999Y-77502797D01*
X59625500Y-77400009D01*
X59625499Y-76674992D01*
X59616309Y-76585028D01*
X59629079Y-76516337D01*
X59651983Y-76484750D01*
X68208054Y-67928680D01*
X68263644Y-67896587D01*
X68273663Y-67893903D01*
X68487830Y-67794035D01*
X68681401Y-67658495D01*
X68848495Y-67491401D01*
X68978425Y-67305842D01*
X69033002Y-67262217D01*
X69102500Y-67255023D01*
X69164855Y-67286546D01*
X69181575Y-67305842D01*
X69311500Y-67491395D01*
X69311505Y-67491401D01*
X69478599Y-67658495D01*
X69560499Y-67715842D01*
X69672165Y-67794032D01*
X69672167Y-67794033D01*
X69672170Y-67794035D01*
X69886337Y-67893903D01*
X70114592Y-67955063D01*
X70291034Y-67970500D01*
X70349999Y-67975659D01*
X70350000Y-67975659D01*
X70350001Y-67975659D01*
X70364106Y-67974424D01*
X70377842Y-67973223D01*
X70446342Y-67986989D01*
X70496525Y-68035604D01*
X70512459Y-68103633D01*
X70489084Y-68169476D01*
X70476331Y-68184432D01*
X65601286Y-73059478D01*
X65489481Y-73171282D01*
X65489481Y-73171283D01*
X65489480Y-73171284D01*
X65445458Y-73247534D01*
X65439361Y-73258094D01*
X65439359Y-73258096D01*
X65410425Y-73308209D01*
X65410424Y-73308210D01*
X65398211Y-73353790D01*
X65369499Y-73460943D01*
X65369499Y-73460945D01*
X65369499Y-73629046D01*
X65369500Y-73629059D01*
X65369500Y-75335908D01*
X65349815Y-75402947D01*
X65297914Y-75448286D01*
X65292173Y-75450963D01*
X65292169Y-75450965D01*
X65098597Y-75586505D01*
X64931505Y-75753597D01*
X64801575Y-75939158D01*
X64746998Y-75982783D01*
X64677500Y-75989977D01*
X64615145Y-75958454D01*
X64598425Y-75939158D01*
X64468494Y-75753597D01*
X64301402Y-75586506D01*
X64301395Y-75586501D01*
X64107834Y-75450967D01*
X64107830Y-75450965D01*
X64044833Y-75421589D01*
X63893663Y-75351097D01*
X63893659Y-75351096D01*
X63893655Y-75351094D01*
X63665413Y-75289938D01*
X63665403Y-75289936D01*
X63430001Y-75269341D01*
X63429999Y-75269341D01*
X63194596Y-75289936D01*
X63194586Y-75289938D01*
X62966344Y-75351094D01*
X62966335Y-75351098D01*
X62752171Y-75450964D01*
X62752169Y-75450965D01*
X62558597Y-75586505D01*
X62391505Y-75753597D01*
X62255965Y-75947169D01*
X62255964Y-75947171D01*
X62156098Y-76161335D01*
X62156094Y-76161344D01*
X62094938Y-76389586D01*
X62094936Y-76389596D01*
X62074341Y-76624999D01*
X62074341Y-76625000D01*
X62094936Y-76860403D01*
X62094938Y-76860413D01*
X62156094Y-77088655D01*
X62156096Y-77088659D01*
X62156097Y-77088663D01*
X62222002Y-77229997D01*
X62255965Y-77302830D01*
X62255967Y-77302834D01*
X62324015Y-77400016D01*
X62391505Y-77496401D01*
X62558599Y-77663495D01*
X62655384Y-77731265D01*
X62752165Y-77799032D01*
X62752167Y-77799033D01*
X62752170Y-77799035D01*
X62966337Y-77898903D01*
X63194592Y-77960063D01*
X63371034Y-77975500D01*
X63429999Y-77980659D01*
X63430000Y-77980659D01*
X63430001Y-77980659D01*
X63488966Y-77975500D01*
X63665408Y-77960063D01*
X63893663Y-77898903D01*
X64107830Y-77799035D01*
X64301401Y-77663495D01*
X64468495Y-77496401D01*
X64598425Y-77310842D01*
X64653002Y-77267217D01*
X64722500Y-77260023D01*
X64784855Y-77291546D01*
X64801575Y-77310842D01*
X64931500Y-77496395D01*
X64931505Y-77496401D01*
X65098599Y-77663495D01*
X65195384Y-77731265D01*
X65292165Y-77799032D01*
X65292167Y-77799033D01*
X65292170Y-77799035D01*
X65506337Y-77898903D01*
X65734592Y-77960063D01*
X65911034Y-77975500D01*
X65969999Y-77980659D01*
X65970000Y-77980659D01*
X65970001Y-77980659D01*
X66028966Y-77975500D01*
X66205408Y-77960063D01*
X66433663Y-77898903D01*
X66647830Y-77799035D01*
X66841401Y-77663495D01*
X67008495Y-77496401D01*
X67138425Y-77310842D01*
X67193002Y-77267217D01*
X67262500Y-77260023D01*
X67324855Y-77291546D01*
X67341575Y-77310842D01*
X67471500Y-77496395D01*
X67471505Y-77496401D01*
X67638599Y-77663495D01*
X67735384Y-77731265D01*
X67832165Y-77799032D01*
X67832167Y-77799033D01*
X67832170Y-77799035D01*
X68046337Y-77898903D01*
X68274592Y-77960063D01*
X68451034Y-77975500D01*
X68509999Y-77980659D01*
X68510000Y-77980659D01*
X68510001Y-77980659D01*
X68568966Y-77975500D01*
X68745408Y-77960063D01*
X68973663Y-77898903D01*
X69187830Y-77799035D01*
X69381401Y-77663495D01*
X69503329Y-77541566D01*
X69564648Y-77508084D01*
X69634340Y-77513068D01*
X69690274Y-77554939D01*
X69707189Y-77585917D01*
X69756202Y-77717328D01*
X69756206Y-77717335D01*
X69842452Y-77832544D01*
X69842455Y-77832547D01*
X69957664Y-77918793D01*
X69957671Y-77918797D01*
X70092517Y-77969091D01*
X70092516Y-77969091D01*
X70099444Y-77969835D01*
X70152127Y-77975500D01*
X71947872Y-77975499D01*
X72007483Y-77969091D01*
X72142331Y-77918796D01*
X72257546Y-77832546D01*
X72343796Y-77717331D01*
X72394091Y-77582483D01*
X72400500Y-77522873D01*
X72400499Y-75727128D01*
X72394091Y-75667517D01*
X72392810Y-75664083D01*
X72343797Y-75532671D01*
X72343793Y-75532664D01*
X72257547Y-75417455D01*
X72257544Y-75417452D01*
X72142335Y-75331206D01*
X72142328Y-75331202D01*
X72007482Y-75280908D01*
X72007483Y-75280908D01*
X71947883Y-75274501D01*
X71947881Y-75274500D01*
X71947873Y-75274500D01*
X71947864Y-75274500D01*
X70152129Y-75274500D01*
X70152123Y-75274501D01*
X70092516Y-75280908D01*
X69957671Y-75331202D01*
X69957664Y-75331206D01*
X69842455Y-75417452D01*
X69842452Y-75417455D01*
X69756206Y-75532664D01*
X69756203Y-75532669D01*
X69707189Y-75664083D01*
X69665317Y-75720016D01*
X69599853Y-75744433D01*
X69531580Y-75729581D01*
X69503326Y-75708430D01*
X69381402Y-75586506D01*
X69381395Y-75586501D01*
X69187831Y-75450965D01*
X69187826Y-75450962D01*
X69182091Y-75448288D01*
X69129653Y-75402113D01*
X69110500Y-75335908D01*
X69110500Y-73840096D01*
X69130185Y-73773057D01*
X69146814Y-73752420D01*
X74946470Y-67952763D01*
X75007791Y-67919280D01*
X75066238Y-67920670D01*
X75194592Y-67955063D01*
X75371034Y-67970500D01*
X75429999Y-67975659D01*
X75430000Y-67975659D01*
X75430001Y-67975659D01*
X75469234Y-67972226D01*
X75665408Y-67955063D01*
X75893663Y-67893903D01*
X76107830Y-67794035D01*
X76301401Y-67658495D01*
X76307819Y-67652077D01*
X76369142Y-67618592D01*
X76438834Y-67623576D01*
X76494767Y-67665448D01*
X76519184Y-67730912D01*
X76519500Y-67739758D01*
X76519500Y-78033330D01*
X76519499Y-78033348D01*
X76519499Y-78199054D01*
X76519498Y-78199054D01*
X76560423Y-78351785D01*
X76583223Y-78391274D01*
X76583224Y-78391278D01*
X76583225Y-78391278D01*
X76639479Y-78488714D01*
X76639481Y-78488717D01*
X76758349Y-78607585D01*
X76758355Y-78607590D01*
X77481965Y-79331200D01*
X77515450Y-79392523D01*
X77510466Y-79462215D01*
X77499823Y-79483977D01*
X77440189Y-79580659D01*
X77440185Y-79580668D01*
X77433785Y-79599983D01*
X77385001Y-79747203D01*
X77385001Y-79747204D01*
X77385000Y-79747204D01*
X77374500Y-79849983D01*
X77374500Y-80575001D01*
X77374501Y-80575019D01*
X77383690Y-80664968D01*
X77370920Y-80733661D01*
X77348013Y-80765250D01*
X75575632Y-82537631D01*
X75514309Y-82571116D01*
X75447689Y-82567231D01*
X75369618Y-82540429D01*
X75124335Y-82499500D01*
X74875665Y-82499500D01*
X74630383Y-82540429D01*
X74395197Y-82621169D01*
X74395188Y-82621172D01*
X74176493Y-82739524D01*
X73980257Y-82892261D01*
X73811833Y-83075217D01*
X73675826Y-83283393D01*
X73575936Y-83511118D01*
X73514892Y-83752175D01*
X73514890Y-83752187D01*
X73494357Y-83999994D01*
X73494357Y-84000005D01*
X73514890Y-84247812D01*
X73514892Y-84247824D01*
X73575936Y-84488881D01*
X73675826Y-84716606D01*
X73811833Y-84924782D01*
X73811836Y-84924785D01*
X73980256Y-85107738D01*
X74172376Y-85257271D01*
X74176494Y-85260476D01*
X74176496Y-85260477D01*
X74200603Y-85273523D01*
X74334517Y-85345993D01*
X74384108Y-85395212D01*
X74399500Y-85455048D01*
X74399500Y-89044951D01*
X74379815Y-89111990D01*
X74334518Y-89154006D01*
X74176493Y-89239524D01*
X73980257Y-89392261D01*
X73811833Y-89575217D01*
X73675826Y-89783393D01*
X73575936Y-90011118D01*
X73514892Y-90252175D01*
X73514890Y-90252187D01*
X73494357Y-90499994D01*
X73494357Y-90500005D01*
X73514890Y-90747812D01*
X73514892Y-90747824D01*
X73575936Y-90988881D01*
X73675826Y-91216606D01*
X73811833Y-91424782D01*
X73811836Y-91424785D01*
X73980256Y-91607738D01*
X74176491Y-91760474D01*
X74395190Y-91878828D01*
X74630386Y-91959571D01*
X74875665Y-92000500D01*
X75124335Y-92000500D01*
X75369614Y-91959571D01*
X75604810Y-91878828D01*
X75823509Y-91760474D01*
X76019744Y-91607738D01*
X76188164Y-91424785D01*
X76324173Y-91216607D01*
X76424063Y-90988881D01*
X76485108Y-90747821D01*
X76505643Y-90500000D01*
X76505643Y-90499994D01*
X77994357Y-90499994D01*
X77994357Y-90500005D01*
X78014890Y-90747812D01*
X78014892Y-90747824D01*
X78075936Y-90988881D01*
X78175826Y-91216606D01*
X78311833Y-91424782D01*
X78311836Y-91424785D01*
X78480256Y-91607738D01*
X78676491Y-91760474D01*
X78895190Y-91878828D01*
X79130386Y-91959571D01*
X79375665Y-92000500D01*
X79624335Y-92000500D01*
X79869614Y-91959571D01*
X80104810Y-91878828D01*
X80323509Y-91760474D01*
X80519744Y-91607738D01*
X80688164Y-91424785D01*
X80824173Y-91216607D01*
X80924063Y-90988881D01*
X80985108Y-90747821D01*
X81005643Y-90500000D01*
X81005462Y-90497821D01*
X80985109Y-90252187D01*
X80985107Y-90252175D01*
X80984555Y-90249994D01*
X85494357Y-90249994D01*
X85494357Y-90250005D01*
X85514890Y-90497812D01*
X85514892Y-90497824D01*
X85575936Y-90738881D01*
X85675826Y-90966606D01*
X85811833Y-91174782D01*
X85811836Y-91174785D01*
X85980256Y-91357738D01*
X86176491Y-91510474D01*
X86395190Y-91628828D01*
X86630386Y-91709571D01*
X86875665Y-91750500D01*
X87124335Y-91750500D01*
X87369614Y-91709571D01*
X87604810Y-91628828D01*
X87823509Y-91510474D01*
X88019744Y-91357738D01*
X88188164Y-91174785D01*
X88324173Y-90966607D01*
X88424063Y-90738881D01*
X88485108Y-90497821D01*
X88494362Y-90386142D01*
X88505643Y-90250005D01*
X88505643Y-90249994D01*
X89994357Y-90249994D01*
X89994357Y-90250005D01*
X90014890Y-90497812D01*
X90014892Y-90497824D01*
X90075936Y-90738881D01*
X90175826Y-90966606D01*
X90311833Y-91174782D01*
X90311836Y-91174785D01*
X90480256Y-91357738D01*
X90676491Y-91510474D01*
X90895190Y-91628828D01*
X91130386Y-91709571D01*
X91375665Y-91750500D01*
X91624335Y-91750500D01*
X91869614Y-91709571D01*
X92104810Y-91628828D01*
X92323509Y-91510474D01*
X92519744Y-91357738D01*
X92688164Y-91174785D01*
X92824173Y-90966607D01*
X92924063Y-90738881D01*
X92985108Y-90497821D01*
X92994362Y-90386142D01*
X93005643Y-90250005D01*
X93005643Y-90249994D01*
X92985109Y-90002187D01*
X92985107Y-90002175D01*
X92924063Y-89761118D01*
X92824173Y-89533393D01*
X92688166Y-89325217D01*
X92663160Y-89298053D01*
X92519744Y-89142262D01*
X92323509Y-88989526D01*
X92323507Y-88989525D01*
X92323506Y-88989524D01*
X92104811Y-88871172D01*
X92104802Y-88871169D01*
X91869616Y-88790429D01*
X91624335Y-88749500D01*
X91375665Y-88749500D01*
X91130383Y-88790429D01*
X90895197Y-88871169D01*
X90895188Y-88871172D01*
X90676493Y-88989524D01*
X90480257Y-89142261D01*
X90311833Y-89325217D01*
X90175826Y-89533393D01*
X90075936Y-89761118D01*
X90014892Y-90002175D01*
X90014890Y-90002187D01*
X89994357Y-90249994D01*
X88505643Y-90249994D01*
X88485109Y-90002187D01*
X88485107Y-90002175D01*
X88424063Y-89761118D01*
X88324173Y-89533393D01*
X88188166Y-89325217D01*
X88163160Y-89298053D01*
X88019744Y-89142262D01*
X87823509Y-88989526D01*
X87823507Y-88989525D01*
X87823506Y-88989524D01*
X87604811Y-88871172D01*
X87604802Y-88871169D01*
X87369616Y-88790429D01*
X87124335Y-88749500D01*
X86875665Y-88749500D01*
X86630383Y-88790429D01*
X86395197Y-88871169D01*
X86395188Y-88871172D01*
X86176493Y-88989524D01*
X85980257Y-89142261D01*
X85811833Y-89325217D01*
X85675826Y-89533393D01*
X85575936Y-89761118D01*
X85514892Y-90002175D01*
X85514890Y-90002187D01*
X85494357Y-90249994D01*
X80984555Y-90249994D01*
X80924063Y-90011118D01*
X80824173Y-89783393D01*
X80688166Y-89575217D01*
X80649664Y-89533393D01*
X80519744Y-89392262D01*
X80323509Y-89239526D01*
X80323507Y-89239525D01*
X80323506Y-89239524D01*
X80104811Y-89121172D01*
X80104802Y-89121169D01*
X79869616Y-89040429D01*
X79624335Y-88999500D01*
X79375665Y-88999500D01*
X79130383Y-89040429D01*
X78895197Y-89121169D01*
X78895188Y-89121172D01*
X78676493Y-89239524D01*
X78480257Y-89392261D01*
X78311833Y-89575217D01*
X78175826Y-89783393D01*
X78075936Y-90011118D01*
X78014892Y-90252175D01*
X78014890Y-90252187D01*
X77994357Y-90499994D01*
X76505643Y-90499994D01*
X76505462Y-90497821D01*
X76485109Y-90252187D01*
X76485107Y-90252175D01*
X76424063Y-90011118D01*
X76324173Y-89783393D01*
X76188166Y-89575217D01*
X76149664Y-89533393D01*
X76019744Y-89392262D01*
X75823509Y-89239526D01*
X75823507Y-89239525D01*
X75823506Y-89239524D01*
X75665482Y-89154006D01*
X75615892Y-89104786D01*
X75600500Y-89044951D01*
X75600500Y-86652155D01*
X105450000Y-86652155D01*
X105450000Y-87750000D01*
X106649999Y-87750000D01*
X106624979Y-87810402D01*
X106600000Y-87935981D01*
X106600000Y-88064019D01*
X106624979Y-88189598D01*
X106649999Y-88250000D01*
X105450000Y-88250000D01*
X105450000Y-89347844D01*
X105456401Y-89407372D01*
X105456403Y-89407379D01*
X105506645Y-89542086D01*
X105506649Y-89542093D01*
X105592809Y-89657187D01*
X105592812Y-89657190D01*
X105707906Y-89743350D01*
X105707913Y-89743354D01*
X105842620Y-89793596D01*
X105842627Y-89793598D01*
X105902155Y-89799999D01*
X105902172Y-89800000D01*
X107000000Y-89800000D01*
X107000000Y-88600001D01*
X107060402Y-88625021D01*
X107185981Y-88650000D01*
X107314019Y-88650000D01*
X107439598Y-88625021D01*
X107500000Y-88600001D01*
X107500000Y-89800000D01*
X108597828Y-89800000D01*
X108597844Y-89799999D01*
X108657372Y-89793598D01*
X108657379Y-89793596D01*
X108792086Y-89743354D01*
X108792093Y-89743350D01*
X108907187Y-89657190D01*
X108907190Y-89657187D01*
X108993350Y-89542093D01*
X108993354Y-89542086D01*
X109043596Y-89407379D01*
X109043598Y-89407372D01*
X109049999Y-89347844D01*
X109050000Y-89347827D01*
X109050000Y-88250000D01*
X107850001Y-88250000D01*
X107875021Y-88189598D01*
X107900000Y-88064019D01*
X107900000Y-87999995D01*
X110444451Y-87999995D01*
X110444451Y-88000004D01*
X110464616Y-88269101D01*
X110524664Y-88532188D01*
X110524666Y-88532195D01*
X110599647Y-88723243D01*
X110623257Y-88783398D01*
X110758185Y-89017102D01*
X110857997Y-89142262D01*
X110926442Y-89228089D01*
X111101896Y-89390885D01*
X111124259Y-89411635D01*
X111347226Y-89563651D01*
X111590359Y-89680738D01*
X111848228Y-89760280D01*
X111848229Y-89760280D01*
X111848232Y-89760281D01*
X112115063Y-89800499D01*
X112115068Y-89800499D01*
X112115071Y-89800500D01*
X112115072Y-89800500D01*
X112384928Y-89800500D01*
X112384929Y-89800500D01*
X112384936Y-89800499D01*
X112651767Y-89760281D01*
X112651768Y-89760280D01*
X112651772Y-89760280D01*
X112909641Y-89680738D01*
X113152775Y-89563651D01*
X113375741Y-89411635D01*
X113573561Y-89228085D01*
X113741815Y-89017102D01*
X113876743Y-88783398D01*
X113975334Y-88532195D01*
X114035383Y-88269103D01*
X114055549Y-88000000D01*
X114035383Y-87730897D01*
X113975334Y-87467805D01*
X113915437Y-87315192D01*
X113876743Y-87216601D01*
X113876741Y-87216599D01*
X113847981Y-87166785D01*
X113741815Y-86982898D01*
X113573561Y-86771915D01*
X113573560Y-86771914D01*
X113573557Y-86771910D01*
X113375741Y-86588365D01*
X113313918Y-86546215D01*
X113152775Y-86436349D01*
X113152769Y-86436346D01*
X113152768Y-86436345D01*
X113152767Y-86436344D01*
X112909643Y-86319263D01*
X112909645Y-86319263D01*
X112651773Y-86239720D01*
X112651767Y-86239718D01*
X112384936Y-86199500D01*
X112384929Y-86199500D01*
X112115071Y-86199500D01*
X112115063Y-86199500D01*
X111848232Y-86239718D01*
X111848226Y-86239720D01*
X111590358Y-86319262D01*
X111347230Y-86436346D01*
X111124258Y-86588365D01*
X110926442Y-86771910D01*
X110758185Y-86982898D01*
X110623258Y-87216599D01*
X110623257Y-87216601D01*
X110524666Y-87467804D01*
X110524664Y-87467811D01*
X110464616Y-87730898D01*
X110444451Y-87999995D01*
X107900000Y-87999995D01*
X107900000Y-87935981D01*
X107875021Y-87810402D01*
X107850001Y-87750000D01*
X109050000Y-87750000D01*
X109050000Y-86652172D01*
X109049999Y-86652155D01*
X109043598Y-86592627D01*
X109043596Y-86592620D01*
X108993354Y-86457913D01*
X108993350Y-86457906D01*
X108907190Y-86342812D01*
X108907187Y-86342809D01*
X108792093Y-86256649D01*
X108792086Y-86256645D01*
X108657379Y-86206403D01*
X108657372Y-86206401D01*
X108597844Y-86200000D01*
X107500000Y-86200000D01*
X107500000Y-87399998D01*
X107439598Y-87374979D01*
X107314019Y-87350000D01*
X107185981Y-87350000D01*
X107060402Y-87374979D01*
X107000000Y-87399998D01*
X107000000Y-86200000D01*
X105902155Y-86200000D01*
X105842627Y-86206401D01*
X105842620Y-86206403D01*
X105707913Y-86256645D01*
X105707906Y-86256649D01*
X105592812Y-86342809D01*
X105592809Y-86342812D01*
X105506649Y-86457906D01*
X105506645Y-86457913D01*
X105456403Y-86592620D01*
X105456401Y-86592627D01*
X105450000Y-86652155D01*
X75600500Y-86652155D01*
X75600500Y-85455048D01*
X75620185Y-85388009D01*
X75665481Y-85345993D01*
X75823509Y-85260474D01*
X76019744Y-85107738D01*
X76188164Y-84924785D01*
X76324173Y-84716607D01*
X76424063Y-84488881D01*
X76485108Y-84247821D01*
X76485849Y-84238881D01*
X76505643Y-84000005D01*
X76505643Y-83999994D01*
X77994357Y-83999994D01*
X77994357Y-84000005D01*
X78014890Y-84247812D01*
X78014892Y-84247824D01*
X78075936Y-84488881D01*
X78175826Y-84716606D01*
X78311833Y-84924782D01*
X78311836Y-84924785D01*
X78480256Y-85107738D01*
X78676491Y-85260474D01*
X78895190Y-85378828D01*
X79130386Y-85459571D01*
X79375665Y-85500500D01*
X79624335Y-85500500D01*
X79869614Y-85459571D01*
X80104810Y-85378828D01*
X80323509Y-85260474D01*
X80519744Y-85107738D01*
X80688164Y-84924785D01*
X80824173Y-84716607D01*
X80924063Y-84488881D01*
X80985108Y-84247821D01*
X80985849Y-84238881D01*
X81005643Y-84000005D01*
X81005643Y-83999994D01*
X80985109Y-83752187D01*
X80985107Y-83752175D01*
X80924063Y-83511118D01*
X80824173Y-83283393D01*
X80688166Y-83075217D01*
X80649664Y-83033393D01*
X80519744Y-82892262D01*
X80323509Y-82739526D01*
X80323507Y-82739525D01*
X80323506Y-82739524D01*
X80104811Y-82621172D01*
X80104802Y-82621169D01*
X79869616Y-82540429D01*
X79624335Y-82499500D01*
X79375665Y-82499500D01*
X79130383Y-82540429D01*
X78895197Y-82621169D01*
X78895188Y-82621172D01*
X78676493Y-82739524D01*
X78480257Y-82892261D01*
X78311833Y-83075217D01*
X78175826Y-83283393D01*
X78075936Y-83511118D01*
X78014892Y-83752175D01*
X78014890Y-83752187D01*
X77994357Y-83999994D01*
X76505643Y-83999994D01*
X76485109Y-83752187D01*
X76485107Y-83752175D01*
X76467926Y-83684331D01*
X76424063Y-83511119D01*
X76420455Y-83502893D01*
X76411552Y-83433593D01*
X76441530Y-83370481D01*
X76446312Y-83365421D01*
X78499916Y-81311818D01*
X78561239Y-81278333D01*
X78587597Y-81275499D01*
X79425002Y-81275499D01*
X79425008Y-81275499D01*
X79527797Y-81264999D01*
X79694334Y-81209814D01*
X79843656Y-81117712D01*
X79967712Y-80993656D01*
X80059814Y-80844334D01*
X80114999Y-80677797D01*
X80125500Y-80575009D01*
X80125499Y-79849992D01*
X80114999Y-79747203D01*
X80059814Y-79580666D01*
X79967712Y-79431344D01*
X79843656Y-79307288D01*
X79694334Y-79215186D01*
X79527797Y-79160001D01*
X79527795Y-79160000D01*
X79425016Y-79149500D01*
X79425009Y-79149500D01*
X79050097Y-79149500D01*
X78983058Y-79129815D01*
X78962416Y-79113181D01*
X78411415Y-78562180D01*
X78377930Y-78500857D01*
X78382914Y-78431165D01*
X78424786Y-78375232D01*
X78490250Y-78350815D01*
X78499096Y-78350499D01*
X79425002Y-78350499D01*
X79425008Y-78350499D01*
X79527797Y-78339999D01*
X79694334Y-78284814D01*
X79843656Y-78192712D01*
X79967712Y-78068656D01*
X80059814Y-77919334D01*
X80114999Y-77752797D01*
X80125500Y-77650009D01*
X80125499Y-76924992D01*
X80114999Y-76822203D01*
X80083578Y-76727383D01*
X80081177Y-76657559D01*
X80116908Y-76597516D01*
X80179428Y-76566323D01*
X80248888Y-76573883D01*
X80288966Y-76600701D01*
X83098013Y-79409748D01*
X83131498Y-79471071D01*
X83133690Y-79510031D01*
X83124500Y-79599981D01*
X83124500Y-80325001D01*
X83124501Y-80325019D01*
X83135000Y-80427796D01*
X83135001Y-80427799D01*
X83163980Y-80515251D01*
X83190186Y-80594334D01*
X83282288Y-80743656D01*
X83406344Y-80867712D01*
X83555666Y-80959814D01*
X83722203Y-81014999D01*
X83824991Y-81025500D01*
X84662402Y-81025499D01*
X84729441Y-81045183D01*
X84750083Y-81061818D01*
X86077932Y-82389667D01*
X86111417Y-82450990D01*
X86106433Y-82520682D01*
X86066414Y-82575201D01*
X85980258Y-82642260D01*
X85811833Y-82825217D01*
X85675826Y-83033393D01*
X85575936Y-83261118D01*
X85514892Y-83502175D01*
X85514890Y-83502187D01*
X85494357Y-83749994D01*
X85494357Y-83750005D01*
X85514890Y-83997812D01*
X85514892Y-83997824D01*
X85575936Y-84238881D01*
X85675826Y-84466606D01*
X85811833Y-84674782D01*
X85811836Y-84674785D01*
X85980256Y-84857738D01*
X86176491Y-85010474D01*
X86395190Y-85128828D01*
X86630386Y-85209571D01*
X86875665Y-85250500D01*
X87124335Y-85250500D01*
X87369614Y-85209571D01*
X87604810Y-85128828D01*
X87823509Y-85010474D01*
X88019744Y-84857738D01*
X88188164Y-84674785D01*
X88324173Y-84466607D01*
X88424063Y-84238881D01*
X88485108Y-83997821D01*
X88505462Y-83752187D01*
X88505643Y-83750005D01*
X88505643Y-83749994D01*
X89994357Y-83749994D01*
X89994357Y-83750005D01*
X90014890Y-83997812D01*
X90014892Y-83997824D01*
X90075936Y-84238881D01*
X90175826Y-84466606D01*
X90311833Y-84674782D01*
X90311836Y-84674785D01*
X90480256Y-84857738D01*
X90676491Y-85010474D01*
X90895190Y-85128828D01*
X91130386Y-85209571D01*
X91375665Y-85250500D01*
X91624335Y-85250500D01*
X91869614Y-85209571D01*
X92104810Y-85128828D01*
X92323509Y-85010474D01*
X92519744Y-84857738D01*
X92688164Y-84674785D01*
X92824173Y-84466607D01*
X92924063Y-84238881D01*
X92985108Y-83997821D01*
X93005462Y-83752187D01*
X93005643Y-83750005D01*
X93005643Y-83749994D01*
X92985109Y-83502187D01*
X92985107Y-83502175D01*
X92924063Y-83261118D01*
X92824173Y-83033393D01*
X92688166Y-82825217D01*
X92666557Y-82801744D01*
X92519744Y-82642262D01*
X92323509Y-82489526D01*
X92323507Y-82489525D01*
X92323506Y-82489524D01*
X92104811Y-82371172D01*
X92104802Y-82371169D01*
X91869616Y-82290429D01*
X91624335Y-82249500D01*
X91375665Y-82249500D01*
X91130383Y-82290429D01*
X90895197Y-82371169D01*
X90895188Y-82371172D01*
X90676493Y-82489524D01*
X90480257Y-82642261D01*
X90311833Y-82825217D01*
X90175826Y-83033393D01*
X90075936Y-83261118D01*
X90014892Y-83502175D01*
X90014890Y-83502187D01*
X89994357Y-83749994D01*
X88505643Y-83749994D01*
X88485109Y-83502187D01*
X88485107Y-83502175D01*
X88424063Y-83261118D01*
X88324173Y-83033393D01*
X88188166Y-82825217D01*
X88166557Y-82801744D01*
X88019744Y-82642262D01*
X87823509Y-82489526D01*
X87823507Y-82489525D01*
X87823506Y-82489524D01*
X87642866Y-82391767D01*
X87593276Y-82342547D01*
X87582109Y-82314806D01*
X87578137Y-82299981D01*
X87559577Y-82230715D01*
X87530639Y-82180595D01*
X87480520Y-82093784D01*
X87368716Y-81981980D01*
X87368715Y-81981979D01*
X87364385Y-81977649D01*
X87364374Y-81977639D01*
X85901986Y-80515251D01*
X85868501Y-80453928D01*
X85866309Y-80414971D01*
X85875500Y-80325009D01*
X85875499Y-79599992D01*
X85864999Y-79497203D01*
X85809814Y-79330666D01*
X85717712Y-79181344D01*
X85593656Y-79057288D01*
X85500888Y-79000069D01*
X85444336Y-78965187D01*
X85444331Y-78965185D01*
X85442862Y-78964698D01*
X85277797Y-78910001D01*
X85277795Y-78910000D01*
X85175016Y-78899500D01*
X85175009Y-78899500D01*
X84337597Y-78899500D01*
X84270558Y-78879815D01*
X84249916Y-78863181D01*
X83695266Y-78308531D01*
X83661781Y-78247208D01*
X83666765Y-78177516D01*
X83708637Y-78121583D01*
X83774101Y-78097166D01*
X83795546Y-78097491D01*
X83824991Y-78100500D01*
X85175008Y-78100499D01*
X85277797Y-78089999D01*
X85444334Y-78034814D01*
X85593656Y-77942712D01*
X85717712Y-77818656D01*
X85809814Y-77669334D01*
X85864999Y-77502797D01*
X85875500Y-77400009D01*
X85875499Y-76774728D01*
X85895183Y-76707690D01*
X85911813Y-76687053D01*
X88404048Y-74194819D01*
X88465371Y-74161334D01*
X88491729Y-74158500D01*
X112435540Y-74158500D01*
X112502579Y-74178185D01*
X112548334Y-74230989D01*
X112558278Y-74300147D01*
X112555315Y-74314594D01*
X112532425Y-74400017D01*
X112532424Y-74400023D01*
X112513179Y-74619999D01*
X112513179Y-74620000D01*
X112532424Y-74839976D01*
X112532426Y-74839986D01*
X112589575Y-75053270D01*
X112589580Y-75053284D01*
X112682898Y-75253405D01*
X112682901Y-75253411D01*
X112728258Y-75318187D01*
X112728258Y-75318188D01*
X113399000Y-74647446D01*
X113399000Y-74670160D01*
X113424964Y-74767061D01*
X113475124Y-74853940D01*
X113546060Y-74924876D01*
X113632939Y-74975036D01*
X113729840Y-75001000D01*
X113752553Y-75001000D01*
X113081810Y-75671740D01*
X113146590Y-75717099D01*
X113146592Y-75717100D01*
X113346715Y-75810419D01*
X113346729Y-75810424D01*
X113560013Y-75867573D01*
X113560023Y-75867575D01*
X113779999Y-75886821D01*
X113780001Y-75886821D01*
X113999976Y-75867575D01*
X113999986Y-75867573D01*
X114213270Y-75810424D01*
X114213284Y-75810419D01*
X114413407Y-75717100D01*
X114413417Y-75717094D01*
X114478188Y-75671741D01*
X113807448Y-75001000D01*
X113830160Y-75001000D01*
X113927061Y-74975036D01*
X114013940Y-74924876D01*
X114084876Y-74853940D01*
X114135036Y-74767061D01*
X114161000Y-74670160D01*
X114161000Y-74647447D01*
X114831741Y-75318188D01*
X114877094Y-75253417D01*
X114877100Y-75253407D01*
X114970419Y-75053284D01*
X114970424Y-75053270D01*
X115027573Y-74839986D01*
X115027575Y-74839976D01*
X115046821Y-74620000D01*
X115046821Y-74619999D01*
X115027575Y-74400023D01*
X115027574Y-74400017D01*
X115004685Y-74314594D01*
X115006348Y-74244744D01*
X115045510Y-74186881D01*
X115109739Y-74159377D01*
X115124460Y-74158500D01*
X116565770Y-74158500D01*
X116632809Y-74178185D01*
X116653451Y-74194819D01*
X119458358Y-76999726D01*
X119491843Y-77061049D01*
X119494205Y-77098213D01*
X119482677Y-77229997D01*
X119482677Y-77230002D01*
X119501929Y-77450062D01*
X119501930Y-77450070D01*
X119559104Y-77663445D01*
X119559105Y-77663447D01*
X119559106Y-77663450D01*
X119637957Y-77832547D01*
X119652466Y-77863662D01*
X119652468Y-77863666D01*
X119779170Y-78044615D01*
X119779175Y-78044621D01*
X119935378Y-78200824D01*
X119935384Y-78200829D01*
X120116333Y-78327531D01*
X120116335Y-78327532D01*
X120116338Y-78327534D01*
X120316550Y-78420894D01*
X120529932Y-78478070D01*
X120687123Y-78491822D01*
X120749998Y-78497323D01*
X120750000Y-78497323D01*
X120750002Y-78497323D01*
X120805017Y-78492509D01*
X120970068Y-78478070D01*
X121183450Y-78420894D01*
X121323097Y-78355775D01*
X121392173Y-78345284D01*
X121455957Y-78373804D01*
X121494196Y-78432280D01*
X121499500Y-78468158D01*
X121499500Y-91631988D01*
X121499274Y-91639477D01*
X121481724Y-91929533D01*
X121479919Y-91944398D01*
X121428212Y-92226529D01*
X121424628Y-92241067D01*
X121339293Y-92514903D01*
X121333983Y-92528904D01*
X121216260Y-92790464D01*
X121209301Y-92803722D01*
X121060914Y-93049179D01*
X121052408Y-93061502D01*
X120875512Y-93287289D01*
X120865582Y-93298497D01*
X120662763Y-93501312D01*
X120651556Y-93511241D01*
X120425771Y-93688130D01*
X120413447Y-93696636D01*
X120167987Y-93845020D01*
X120154729Y-93851979D01*
X119893167Y-93969698D01*
X119879166Y-93975008D01*
X119605320Y-94060340D01*
X119590781Y-94063923D01*
X119308657Y-94115623D01*
X119293793Y-94117428D01*
X119100865Y-94129098D01*
X119002903Y-94135024D01*
X118995429Y-94135250D01*
X100867342Y-94135250D01*
X100800303Y-94115565D01*
X100754548Y-94062761D01*
X100744604Y-93993603D01*
X100773629Y-93930047D01*
X100789307Y-93914884D01*
X100912497Y-93815126D01*
X100912511Y-93815115D01*
X101179365Y-93548261D01*
X101416863Y-93254975D01*
X101622403Y-92938471D01*
X101793734Y-92602215D01*
X101928978Y-92249893D01*
X102026653Y-91885363D01*
X102085690Y-91512621D01*
X102105441Y-91135750D01*
X102085690Y-90758879D01*
X102026653Y-90386137D01*
X101928978Y-90021607D01*
X101793734Y-89669285D01*
X101622403Y-89333030D01*
X101499500Y-89143775D01*
X101416864Y-89016526D01*
X101233774Y-88790429D01*
X101179365Y-88723239D01*
X100912511Y-88456385D01*
X100681237Y-88269103D01*
X100619223Y-88218885D01*
X100302725Y-88013349D01*
X99966468Y-87842017D01*
X99614147Y-87706773D01*
X99249614Y-87609097D01*
X99249607Y-87609096D01*
X98876872Y-87550060D01*
X98500001Y-87530309D01*
X98499999Y-87530309D01*
X98123127Y-87550060D01*
X97750392Y-87609096D01*
X97750385Y-87609097D01*
X97385852Y-87706773D01*
X97033531Y-87842017D01*
X96697275Y-88013349D01*
X96380776Y-88218885D01*
X96087493Y-88456381D01*
X96087485Y-88456388D01*
X95820638Y-88723235D01*
X95820631Y-88723243D01*
X95583135Y-89016526D01*
X95377599Y-89333025D01*
X95206267Y-89669281D01*
X95071023Y-90021602D01*
X94973347Y-90386135D01*
X94973346Y-90386142D01*
X94914310Y-90758877D01*
X94894559Y-91135749D01*
X94894559Y-91135750D01*
X94914310Y-91512622D01*
X94973346Y-91885357D01*
X94973347Y-91885364D01*
X95071023Y-92249897D01*
X95206267Y-92602218D01*
X95377599Y-92938475D01*
X95583135Y-93254973D01*
X95786911Y-93506615D01*
X95820635Y-93548261D01*
X96087489Y-93815115D01*
X96087495Y-93815120D01*
X96087502Y-93815126D01*
X96210693Y-93914884D01*
X96250405Y-93972371D01*
X96252733Y-94042202D01*
X96216938Y-94102206D01*
X96154384Y-94133332D01*
X96132658Y-94135250D01*
X42867342Y-94135250D01*
X42800303Y-94115565D01*
X42754548Y-94062761D01*
X42744604Y-93993603D01*
X42773629Y-93930047D01*
X42789307Y-93914884D01*
X42912497Y-93815126D01*
X42912511Y-93815115D01*
X43179365Y-93548261D01*
X43416863Y-93254975D01*
X43622403Y-92938471D01*
X43793734Y-92602215D01*
X43928978Y-92249893D01*
X44026653Y-91885363D01*
X44085690Y-91512621D01*
X44105441Y-91135750D01*
X44085690Y-90758879D01*
X44026653Y-90386137D01*
X43928978Y-90021607D01*
X43793734Y-89669285D01*
X43622403Y-89333030D01*
X43499500Y-89143775D01*
X43416864Y-89016526D01*
X43233774Y-88790429D01*
X43179365Y-88723239D01*
X42912511Y-88456385D01*
X42681237Y-88269103D01*
X42619223Y-88218885D01*
X42302725Y-88013349D01*
X41966468Y-87842017D01*
X41614147Y-87706773D01*
X41249614Y-87609097D01*
X41249607Y-87609096D01*
X40876872Y-87550060D01*
X40500001Y-87530309D01*
X40499999Y-87530309D01*
X40123127Y-87550060D01*
X39750392Y-87609096D01*
X39750385Y-87609097D01*
X39385852Y-87706773D01*
X39033531Y-87842017D01*
X38697275Y-88013349D01*
X38380776Y-88218885D01*
X38087493Y-88456381D01*
X38087485Y-88456388D01*
X37820638Y-88723235D01*
X37820631Y-88723243D01*
X37720866Y-88846443D01*
X37663379Y-88886154D01*
X37593548Y-88888482D01*
X37533544Y-88852686D01*
X37502418Y-88790133D01*
X37500500Y-88768407D01*
X37500500Y-44503092D01*
X37520185Y-44436053D01*
X37572989Y-44390298D01*
X37642147Y-44380354D01*
X37705703Y-44409379D01*
X37720866Y-44425057D01*
X37820623Y-44548247D01*
X37820631Y-44548256D01*
X37820635Y-44548261D01*
X38087489Y-44815115D01*
X38087493Y-44815118D01*
X38380776Y-45052614D01*
X38578210Y-45180829D01*
X38697279Y-45258153D01*
X39033535Y-45429484D01*
X39385857Y-45564728D01*
X39750387Y-45662403D01*
X40123129Y-45721440D01*
X40479155Y-45740098D01*
X40499999Y-45741191D01*
X40500000Y-45741191D01*
X40500001Y-45741191D01*
X40519752Y-45740155D01*
X40876871Y-45721440D01*
X41249613Y-45662403D01*
X41614143Y-45564728D01*
X41966465Y-45429484D01*
X42302721Y-45258153D01*
X42619225Y-45052613D01*
X42912511Y-44815115D01*
X43179365Y-44548261D01*
X43416863Y-44254975D01*
X43622403Y-43938471D01*
X43793734Y-43602215D01*
X43928978Y-43249893D01*
X44026653Y-42885363D01*
X44085690Y-42512621D01*
X44105441Y-42135750D01*
X44085690Y-41758879D01*
X44026653Y-41386137D01*
X43928978Y-41021607D01*
X43793734Y-40669285D01*
X43622403Y-40333030D01*
X43622400Y-40333025D01*
X43416864Y-40016526D01*
X43209308Y-39760216D01*
X43179365Y-39723239D01*
X42912511Y-39456385D01*
X42912506Y-39456381D01*
X42912497Y-39456373D01*
X42789307Y-39356616D01*
X42749595Y-39299129D01*
X42747267Y-39229298D01*
X42783062Y-39169294D01*
X42845616Y-39138168D01*
X42867342Y-39136250D01*
X44154138Y-39136250D01*
X44221177Y-39155935D01*
G37*
%TD.AperFunction*%
%TD*%
M02*
