%TF.GenerationSoftware,KiCad,Pcbnew,8.0.4*%
%TF.CreationDate,2024-09-08T12:09:03-04:00*%
%TF.ProjectId,aux-board,6175782d-626f-4617-9264-2e6b69636164,rev?*%
%TF.SameCoordinates,Original*%
%TF.FileFunction,Paste,Top*%
%TF.FilePolarity,Positive*%
%FSLAX46Y46*%
G04 Gerber Fmt 4.6, Leading zero omitted, Abs format (unit mm)*
G04 Created by KiCad (PCBNEW 8.0.4) date 2024-09-08 12:09:03*
%MOMM*%
%LPD*%
G01*
G04 APERTURE LIST*
G04 Aperture macros list*
%AMRoundRect*
0 Rectangle with rounded corners*
0 $1 Rounding radius*
0 $2 $3 $4 $5 $6 $7 $8 $9 X,Y pos of 4 corners*
0 Add a 4 corners polygon primitive as box body*
4,1,4,$2,$3,$4,$5,$6,$7,$8,$9,$2,$3,0*
0 Add four circle primitives for the rounded corners*
1,1,$1+$1,$2,$3*
1,1,$1+$1,$4,$5*
1,1,$1+$1,$6,$7*
1,1,$1+$1,$8,$9*
0 Add four rect primitives between the rounded corners*
20,1,$1+$1,$2,$3,$4,$5,0*
20,1,$1+$1,$4,$5,$6,$7,0*
20,1,$1+$1,$6,$7,$8,$9,0*
20,1,$1+$1,$8,$9,$2,$3,0*%
G04 Aperture macros list end*
%ADD10RoundRect,0.250000X-0.625000X0.312500X-0.625000X-0.312500X0.625000X-0.312500X0.625000X0.312500X0*%
%ADD11RoundRect,0.250000X0.625000X-0.312500X0.625000X0.312500X-0.625000X0.312500X-0.625000X-0.312500X0*%
%ADD12R,1.270000X1.680000*%
G04 APERTURE END LIST*
D10*
%TO.C,R4*%
X58250000Y-77037500D03*
X58250000Y-79962500D03*
%TD*%
D11*
%TO.C,R2*%
X84500000Y-79962500D03*
X84500000Y-77037500D03*
%TD*%
%TO.C,R1*%
X78750000Y-80212500D03*
X78750000Y-77287500D03*
%TD*%
D12*
%TO.C,J2*%
X45370000Y-44855750D03*
X45370000Y-39415750D03*
X47910000Y-44855750D03*
X47910000Y-39415750D03*
X50450000Y-44855750D03*
X50450000Y-39415750D03*
X52990000Y-44855750D03*
X52990000Y-39415750D03*
X55530000Y-44855750D03*
X55530000Y-39415750D03*
X58070000Y-44855750D03*
X58070000Y-39415750D03*
X60610000Y-44855750D03*
X60610000Y-39415750D03*
X63150000Y-44855750D03*
X63150000Y-39415750D03*
X65690000Y-44855750D03*
X65690000Y-39415750D03*
X68230000Y-44855750D03*
X68230000Y-39415750D03*
X70770000Y-44855750D03*
X70770000Y-39415750D03*
X73310000Y-44855750D03*
X73310000Y-39415750D03*
X75850000Y-44855750D03*
X75850000Y-39415750D03*
X78390000Y-44855750D03*
X78390000Y-39415750D03*
X80930000Y-44855750D03*
X80930000Y-39415750D03*
X83470000Y-44855750D03*
X83470000Y-39415750D03*
X86010000Y-44855750D03*
X86010000Y-39415750D03*
X88550000Y-44855750D03*
X88550000Y-39415750D03*
X91090000Y-44855750D03*
X91090000Y-39415750D03*
X93630000Y-44855750D03*
X93630000Y-39415750D03*
%TD*%
D10*
%TO.C,R3*%
X52500000Y-77037500D03*
X52500000Y-79962500D03*
%TD*%
M02*
