M48
; DRILL file {KiCad 8.0.4} date 2024-09-11T16:26:28-0400
; FORMAT={-:-/ absolute / inch / decimal}
; #@! TF.CreationDate,2024-09-11T16:26:28-04:00
; #@! TF.GenerationSoftware,Kicad,Pcbnew,8.0.4
; #@! TF.FileFunction,Plated,1,2,PTH
FMAT,2
INCH
; #@! TA.AperFunction,Plated,PTH,ViaDrill
T1C0.0118
; #@! TA.AperFunction,Plated,PTH,ComponentDrill
T2C0.0287
; #@! TA.AperFunction,Plated,PTH,ComponentDrill
T3C0.0420
; #@! TA.AperFunction,Plated,PTH,ComponentDrill
T4C0.0512
; #@! TA.AperFunction,Plated,PTH,ComponentDrill
T5C0.0591
; #@! TA.AperFunction,Plated,PTH,ComponentDrill
T6C0.1063
; #@! TA.AperFunction,Plated,PTH,ComponentDrill
T7C0.1083
%
G90
G05
T1
X6.1713Y-5.4331
X6.2205Y-5.4921
X6.7126Y-3.248
X6.8504Y-5.4331
X6.8504Y-5.4921
X7.4213Y-3.5827
X7.4213Y-3.622
X7.4803Y-8.0217
T2
X5.4134Y-11.9488
X5.4134Y-12.0079
X5.4134Y-12.0669
X5.4134Y-12.126
X5.4134Y-12.185
X5.4134Y-12.2441
X5.4528Y-3.1102
X5.4528Y-3.1693
X5.4528Y-3.2283
X5.4528Y-3.2874
X5.4528Y-3.3465
X5.4528Y-3.4055
X5.9173Y-11.9488
X5.9173Y-12.0079
X5.9173Y-12.0669
X5.9173Y-12.126
X5.9173Y-12.185
X5.9173Y-12.2441
X5.9567Y-3.1102
X5.9567Y-3.1693
X5.9567Y-3.2283
X5.9567Y-3.2874
X5.9567Y-3.3465
X5.9567Y-3.4055
X6.4213Y-11.9488
X6.4213Y-12.0079
X6.4213Y-12.0669
X6.4213Y-12.126
X6.4213Y-12.185
X6.4213Y-12.2441
X6.4606Y-3.1102
X6.4606Y-3.1693
X6.4606Y-3.2283
X6.4606Y-3.2874
X6.4606Y-3.3465
X6.4606Y-3.4055
X6.9252Y-11.9488
X6.9252Y-12.0079
X6.9252Y-12.0669
X6.9252Y-12.126
X6.9252Y-12.185
X6.9252Y-12.2441
X6.9646Y-3.1102
X6.9646Y-3.1693
X6.9646Y-3.2283
X6.9646Y-3.2874
X6.9646Y-3.3465
X6.9646Y-3.4055
X7.4291Y-11.9488
X7.4291Y-12.0079
X7.4291Y-12.0669
X7.4291Y-12.126
X7.4291Y-12.185
X7.4291Y-12.2441
X7.4685Y-3.1102
X7.4685Y-3.1693
X7.4685Y-3.2283
X7.4685Y-3.2874
X7.4685Y-3.3465
X7.4685Y-3.4055
X7.9331Y-5.7283
X7.9331Y-5.7874
X7.9331Y-5.8465
X7.9331Y-11.9488
X7.9331Y-12.0079
X7.9331Y-12.0669
X7.9331Y-12.126
X7.9331Y-12.185
X7.9331Y-12.2441
X7.935Y-3.7008
X7.935Y-3.7598
X7.935Y-3.8189
X7.935Y-4.0551
X7.935Y-4.1142
X7.935Y-4.1732
X7.935Y-5.374
X7.935Y-5.4331
X7.935Y-5.4921
X7.9724Y-3.1102
X7.9724Y-3.1693
X7.9724Y-3.2283
X7.9724Y-3.2874
X7.9724Y-3.3465
X7.9724Y-3.4055
T3
X6.1449Y-8.0118
X6.2449Y-7.4118
X6.2449Y-8.0118
X6.3449Y-7.4118
X6.3449Y-8.0118
X6.9449Y-7.4118
X6.9449Y-8.0118
X7.1449Y-7.4118
X7.1449Y-8.0118
T4
X7.5907Y-7.3228
X7.5907Y-7.5197
T6
X7.5984Y-8.3465
X7.7953Y-8.3465
T7
X5.6908Y-4.7244
X5.6908Y-7.0079
X7.62Y-4.7244
X7.62Y-7.0079
T5
G00X6.3209Y-8.5925
M15
G01X6.3209Y-8.376
M16
G05
G00X6.6949Y-8.5925
M15
G01X6.6949Y-8.376
M16
G05
G00X7.0689Y-8.5925
M15
G01X7.0689Y-8.376
M16
G05
M30
