%TF.GenerationSoftware,KiCad,Pcbnew,8.0.4*%
%TF.CreationDate,2024-09-11T16:26:26-04:00*%
%TF.ProjectId,power_carrier,706f7765-725f-4636-9172-726965722e6b,rev?*%
%TF.SameCoordinates,Original*%
%TF.FileFunction,Copper,L1,Top*%
%TF.FilePolarity,Positive*%
%FSLAX46Y46*%
G04 Gerber Fmt 4.6, Leading zero omitted, Abs format (unit mm)*
G04 Created by KiCad (PCBNEW 8.0.4) date 2024-09-11 16:26:26*
%MOMM*%
%LPD*%
G01*
G04 APERTURE LIST*
G04 Aperture macros list*
%AMRoundRect*
0 Rectangle with rounded corners*
0 $1 Rounding radius*
0 $2 $3 $4 $5 $6 $7 $8 $9 X,Y pos of 4 corners*
0 Add a 4 corners polygon primitive as box body*
4,1,4,$2,$3,$4,$5,$6,$7,$8,$9,$2,$3,0*
0 Add four circle primitives for the rounded corners*
1,1,$1+$1,$2,$3*
1,1,$1+$1,$4,$5*
1,1,$1+$1,$6,$7*
1,1,$1+$1,$8,$9*
0 Add four rect primitives between the rounded corners*
20,1,$1+$1,$2,$3,$4,$5,0*
20,1,$1+$1,$4,$5,$6,$7,0*
20,1,$1+$1,$6,$7,$8,$9,0*
20,1,$1+$1,$8,$9,$2,$3,0*%
G04 Aperture macros list end*
%TA.AperFunction,ComponentPad*%
%ADD10O,5.000000X11.000000*%
%TD*%
%TA.AperFunction,ComponentPad*%
%ADD11RoundRect,0.250000X0.615000X-0.265000X0.615000X0.265000X-0.615000X0.265000X-0.615000X-0.265000X0*%
%TD*%
%TA.AperFunction,ComponentPad*%
%ADD12O,1.730000X1.030000*%
%TD*%
%TA.AperFunction,ComponentPad*%
%ADD13RoundRect,0.250000X-0.615000X0.265000X-0.615000X-0.265000X0.615000X-0.265000X0.615000X0.265000X0*%
%TD*%
%TA.AperFunction,ComponentPad*%
%ADD14R,3.800000X3.800000*%
%TD*%
%TA.AperFunction,ComponentPad*%
%ADD15C,3.800000*%
%TD*%
%TA.AperFunction,SMDPad,CuDef*%
%ADD16RoundRect,0.250000X-0.625000X0.375000X-0.625000X-0.375000X0.625000X-0.375000X0.625000X0.375000X0*%
%TD*%
%TA.AperFunction,ComponentPad*%
%ADD17C,6.200000*%
%TD*%
%TA.AperFunction,ComponentPad*%
%ADD18R,2.600000X2.600000*%
%TD*%
%TA.AperFunction,ComponentPad*%
%ADD19C,2.600000*%
%TD*%
%TA.AperFunction,ComponentPad*%
%ADD20C,1.574800*%
%TD*%
%TA.AperFunction,SMDPad,CuDef*%
%ADD21RoundRect,0.250000X-0.625000X0.312500X-0.625000X-0.312500X0.625000X-0.312500X0.625000X0.312500X0*%
%TD*%
%TA.AperFunction,ViaPad*%
%ADD22C,0.600000*%
%TD*%
%TA.AperFunction,Conductor*%
%ADD23C,0.500000*%
%TD*%
%TA.AperFunction,Conductor*%
%ADD24C,1.250000*%
%TD*%
%TA.AperFunction,Conductor*%
%ADD25C,8.000000*%
%TD*%
%TA.AperFunction,Conductor*%
%ADD26C,1.000000*%
%TD*%
%TA.AperFunction,Conductor*%
%ADD27C,4.500000*%
%TD*%
%TA.AperFunction,Conductor*%
%ADD28C,3.000000*%
%TD*%
G04 APERTURE END LIST*
D10*
%TO.P,SW1,1,A*%
%TO.N,Net-(J4-+)*%
X160550000Y-215500000D03*
%TO.P,SW1,2,B*%
%TO.N,+BATT*%
X170050000Y-215500000D03*
%TO.P,SW1,3*%
%TO.N,N/C*%
X179550000Y-215500000D03*
%TD*%
D11*
%TO.P,J20,1,Pin_1*%
%TO.N,/CAN3 HIGH*%
X201550000Y-139500000D03*
D12*
%TO.P,J20,2,Pin_2*%
%TO.N,/CAN3 LOW*%
X201550000Y-138000000D03*
%TO.P,J20,3,Pin_3*%
%TO.N,GND*%
X201550000Y-136500000D03*
%TD*%
D13*
%TO.P,J16,1,Pin_1*%
%TO.N,/CAN2 LOW*%
X202500000Y-79000000D03*
D12*
%TO.P,J16,2,Pin_2*%
%TO.N,/CAN2 HIGH*%
X202500000Y-80500000D03*
%TO.P,J16,3,Pin_3*%
%TO.N,GND*%
X202500000Y-82000000D03*
%TO.P,J16,4,Pin_4*%
X202500000Y-83500000D03*
%TO.P,J16,5,Pin_5*%
%TO.N,+BATT*%
X202500000Y-85000000D03*
%TO.P,J16,6,Pin_6*%
X202500000Y-86500000D03*
%TD*%
D14*
%TO.P,J4,1,-*%
%TO.N,GND*%
X193000000Y-212000000D03*
D15*
%TO.P,J4,2,+*%
%TO.N,Net-(J4-+)*%
X198000000Y-212000000D03*
%TD*%
D11*
%TO.P,J1,1,Pin_1*%
%TO.N,/CAN1 HIGH*%
X201550000Y-97000000D03*
D12*
%TO.P,J1,2,Pin_2*%
%TO.N,/CAN1 LOW*%
X201550000Y-95500000D03*
%TO.P,J1,3,Pin_3*%
%TO.N,GND*%
X201550000Y-94000000D03*
%TD*%
D16*
%TO.P,D1,1,K*%
%TO.N,Net-(D1-K)*%
X198000000Y-200800000D03*
%TO.P,D1,2,A*%
%TO.N,+BATT*%
X198000000Y-203600000D03*
%TD*%
D11*
%TO.P,J8,1,Pin_1*%
%TO.N,/CAN4 LOW*%
X175900000Y-311000000D03*
D12*
%TO.P,J8,2,Pin_2*%
%TO.N,/CAN4 HIGH*%
X175900000Y-309500000D03*
%TO.P,J8,3,Pin_3*%
%TO.N,GND*%
X175900000Y-308000000D03*
%TO.P,J8,4,Pin_4*%
X175900000Y-306500000D03*
%TO.P,J8,5,Pin_5*%
%TO.N,+BATT*%
X175900000Y-305000000D03*
%TO.P,J8,6,Pin_6*%
X175900000Y-303500000D03*
%TD*%
D17*
%TO.P,SBC1,S1*%
%TO.N,N/C*%
X144547500Y-178000000D03*
%TO.P,SBC1,S2*%
X144547500Y-120000000D03*
%TO.P,SBC1,S3*%
X193547500Y-120000000D03*
%TO.P,SBC1,S4*%
X193547500Y-178000000D03*
%TD*%
D18*
%TO.P,J3,1,Pin_1*%
%TO.N,/ISO 5vDC GND*%
X192805000Y-191000000D03*
D19*
%TO.P,J3,2,Pin_2*%
%TO.N,/ISO 5vDC+*%
X192805000Y-186000000D03*
%TD*%
D11*
%TO.P,J7,1,Pin_1*%
%TO.N,/CAN3 LOW*%
X163100000Y-311000000D03*
D12*
%TO.P,J7,2,Pin_2*%
%TO.N,/CAN3 HIGH*%
X163100000Y-309500000D03*
%TO.P,J7,3,Pin_3*%
%TO.N,GND*%
X163100000Y-308000000D03*
%TO.P,J7,4,Pin_4*%
X163100000Y-306500000D03*
%TO.P,J7,5,Pin_5*%
%TO.N,+BATT*%
X163100000Y-305000000D03*
%TO.P,J7,6,Pin_6*%
X163100000Y-303500000D03*
%TD*%
D20*
%TO.P,U1,1,RC*%
%TO.N,unconnected-(U1-RC-Pad1)*%
X156080000Y-203500000D03*
%TO.P,U1,2,-VIN*%
%TO.N,GND*%
X158620000Y-203500000D03*
%TO.P,U1,3,-VIN*%
X161160000Y-203500000D03*
%TO.P,U1,9,NC*%
%TO.N,unconnected-(U1-NC-Pad9)*%
X176400000Y-203500000D03*
%TO.P,U1,11,NC*%
%TO.N,unconnected-(U1-NC-Pad11)*%
X181480000Y-203500000D03*
%TO.P,U1,14,+VOUT*%
%TO.N,/ISO 5vDC GND*%
X181480000Y-188260000D03*
%TO.P,U1,16,-VOUT*%
%TO.N,/ISO 5vDC+*%
X176400000Y-188260000D03*
%TO.P,U1,22,+VIN*%
%TO.N,+BATT*%
X161160000Y-188260000D03*
%TO.P,U1,23,+VIN*%
X158620000Y-188260000D03*
%TD*%
D11*
%TO.P,J2,1,Pin_1*%
%TO.N,/CAN2 HIGH*%
X201550000Y-106000000D03*
D12*
%TO.P,J2,2,Pin_2*%
%TO.N,/CAN2 LOW*%
X201550000Y-104500000D03*
%TO.P,J2,3,Pin_3*%
%TO.N,GND*%
X201550000Y-103000000D03*
%TD*%
D11*
%TO.P,J21,1,Pin_1*%
%TO.N,/CAN4 HIGH*%
X201500000Y-148500000D03*
D12*
%TO.P,J21,2,Pin_2*%
%TO.N,/CAN4 LOW*%
X201500000Y-147000000D03*
%TO.P,J21,3,Pin_3*%
%TO.N,GND*%
X201500000Y-145500000D03*
%TD*%
D13*
%TO.P,J15,1,Pin_1*%
%TO.N,/CAN2 LOW*%
X189700000Y-79000000D03*
D12*
%TO.P,J15,2,Pin_2*%
%TO.N,/CAN2 HIGH*%
X189700000Y-80500000D03*
%TO.P,J15,3,Pin_3*%
%TO.N,GND*%
X189700000Y-82000000D03*
%TO.P,J15,4,Pin_4*%
X189700000Y-83500000D03*
%TO.P,J15,5,Pin_5*%
%TO.N,+BATT*%
X189700000Y-85000000D03*
%TO.P,J15,6,Pin_6*%
X189700000Y-86500000D03*
%TD*%
D13*
%TO.P,J13,1,Pin_1*%
%TO.N,/CAN1 LOW*%
X164100000Y-79000000D03*
D12*
%TO.P,J13,2,Pin_2*%
%TO.N,/CAN1 HIGH*%
X164100000Y-80500000D03*
%TO.P,J13,3,Pin_3*%
%TO.N,GND*%
X164100000Y-82000000D03*
%TO.P,J13,4,Pin_4*%
X164100000Y-83500000D03*
%TO.P,J13,5,Pin_5*%
%TO.N,+BATT*%
X164100000Y-85000000D03*
%TO.P,J13,6,Pin_6*%
X164100000Y-86500000D03*
%TD*%
D13*
%TO.P,J12,1,Pin_1*%
%TO.N,/CAN1 LOW*%
X151300000Y-79000000D03*
D12*
%TO.P,J12,2,Pin_2*%
%TO.N,/CAN1 HIGH*%
X151300000Y-80500000D03*
%TO.P,J12,3,Pin_3*%
%TO.N,GND*%
X151300000Y-82000000D03*
%TO.P,J12,4,Pin_4*%
X151300000Y-83500000D03*
%TO.P,J12,5,Pin_5*%
%TO.N,+BATT*%
X151300000Y-85000000D03*
%TO.P,J12,6,Pin_6*%
X151300000Y-86500000D03*
%TD*%
D11*
%TO.P,J5,1,Pin_1*%
%TO.N,/CAN3 LOW*%
X137500000Y-311000000D03*
D12*
%TO.P,J5,2,Pin_2*%
%TO.N,/CAN3 HIGH*%
X137500000Y-309500000D03*
%TO.P,J5,3,Pin_3*%
%TO.N,GND*%
X137500000Y-308000000D03*
%TO.P,J5,4,Pin_4*%
X137500000Y-306500000D03*
%TO.P,J5,5,Pin_5*%
%TO.N,+BATT*%
X137500000Y-305000000D03*
%TO.P,J5,6,Pin_6*%
X137500000Y-303500000D03*
%TD*%
D21*
%TO.P,R1,1*%
%TO.N,Net-(D1-K)*%
X193500000Y-200737500D03*
%TO.P,R1,2*%
%TO.N,GND*%
X193500000Y-203662500D03*
%TD*%
D13*
%TO.P,J14,1,Pin_1*%
%TO.N,/CAN2 LOW*%
X176900000Y-79000000D03*
D12*
%TO.P,J14,2,Pin_2*%
%TO.N,/CAN2 HIGH*%
X176900000Y-80500000D03*
%TO.P,J14,3,Pin_3*%
%TO.N,GND*%
X176900000Y-82000000D03*
%TO.P,J14,4,Pin_4*%
X176900000Y-83500000D03*
%TO.P,J14,5,Pin_5*%
%TO.N,+BATT*%
X176900000Y-85000000D03*
%TO.P,J14,6,Pin_6*%
X176900000Y-86500000D03*
%TD*%
D11*
%TO.P,J6,1,Pin_1*%
%TO.N,/CAN3 LOW*%
X150300000Y-311000000D03*
D12*
%TO.P,J6,2,Pin_2*%
%TO.N,/CAN3 HIGH*%
X150300000Y-309500000D03*
%TO.P,J6,3,Pin_3*%
%TO.N,GND*%
X150300000Y-308000000D03*
%TO.P,J6,4,Pin_4*%
X150300000Y-306500000D03*
%TO.P,J6,5,Pin_5*%
%TO.N,+BATT*%
X150300000Y-305000000D03*
%TO.P,J6,6,Pin_6*%
X150300000Y-303500000D03*
%TD*%
D13*
%TO.P,J11,1,Pin_1*%
%TO.N,/CAN1 LOW*%
X138500000Y-79000000D03*
D12*
%TO.P,J11,2,Pin_2*%
%TO.N,/CAN1 HIGH*%
X138500000Y-80500000D03*
%TO.P,J11,3,Pin_3*%
%TO.N,GND*%
X138500000Y-82000000D03*
%TO.P,J11,4,Pin_4*%
X138500000Y-83500000D03*
%TO.P,J11,5,Pin_5*%
%TO.N,+BATT*%
X138500000Y-85000000D03*
%TO.P,J11,6,Pin_6*%
X138500000Y-86500000D03*
%TD*%
D11*
%TO.P,J10,1,Pin_1*%
%TO.N,/CAN4 LOW*%
X201500000Y-311000000D03*
D12*
%TO.P,J10,2,Pin_2*%
%TO.N,/CAN4 HIGH*%
X201500000Y-309500000D03*
%TO.P,J10,3,Pin_3*%
%TO.N,GND*%
X201500000Y-308000000D03*
%TO.P,J10,4,Pin_4*%
X201500000Y-306500000D03*
%TO.P,J10,5,Pin_5*%
%TO.N,+BATT*%
X201500000Y-305000000D03*
%TO.P,J10,6,Pin_6*%
X201500000Y-303500000D03*
%TD*%
D11*
%TO.P,J9,1,Pin_1*%
%TO.N,/CAN4 LOW*%
X188700000Y-311000000D03*
D12*
%TO.P,J9,2,Pin_2*%
%TO.N,/CAN4 HIGH*%
X188700000Y-309500000D03*
%TO.P,J9,3,Pin_3*%
%TO.N,GND*%
X188700000Y-308000000D03*
%TO.P,J9,4,Pin_4*%
X188700000Y-306500000D03*
%TO.P,J9,5,Pin_5*%
%TO.N,+BATT*%
X188700000Y-305000000D03*
%TO.P,J9,6,Pin_6*%
X188700000Y-303500000D03*
%TD*%
D22*
%TO.N,GND*%
X190000000Y-203750000D03*
%TO.N,/CAN1 HIGH*%
X188500000Y-92000000D03*
%TO.N,/CAN1 LOW*%
X170500000Y-82500000D03*
X188500000Y-91000000D03*
%TO.N,/CAN3 LOW*%
X156750000Y-138000000D03*
X174000000Y-138000000D03*
%TO.N,/CAN3 HIGH*%
X158000000Y-139500000D03*
X174000000Y-139500000D03*
%TD*%
D23*
%TO.N,/CAN2 LOW*%
X201550000Y-104500000D02*
X203000000Y-104500000D01*
X203500000Y-79000000D02*
X202500000Y-79000000D01*
X203000000Y-104500000D02*
X205250000Y-102250000D01*
X205250000Y-80750000D02*
X203500000Y-79000000D01*
X176900000Y-79000000D02*
X202500000Y-79000000D01*
X205250000Y-102250000D02*
X205250000Y-80750000D01*
%TO.N,GND*%
X190087500Y-203662500D02*
X190000000Y-203750000D01*
X193500000Y-203662500D02*
X190087500Y-203662500D01*
%TO.N,/CAN1 HIGH*%
X188500000Y-92000000D02*
X195500000Y-92000000D01*
X200500000Y-97000000D02*
X201550000Y-97000000D01*
X195500000Y-92000000D02*
X200500000Y-97000000D01*
X138500000Y-80500000D02*
X164100000Y-80500000D01*
D24*
%TO.N,+BATT*%
X169500000Y-86500000D02*
X158500000Y-86500000D01*
D25*
X170000000Y-274000000D02*
X157000000Y-287000000D01*
D24*
X202500000Y-86500000D02*
X183000000Y-86500000D01*
D25*
X157000000Y-287000000D02*
X157000000Y-303500000D01*
X183000000Y-99000000D02*
X183000000Y-86500000D01*
X170050000Y-215500000D02*
X170050000Y-205336751D01*
D26*
X198000000Y-203600000D02*
X192300000Y-209300000D01*
D24*
X183000000Y-303500000D02*
X196000000Y-303500000D01*
X201500000Y-305000000D02*
X170500000Y-305000000D01*
D25*
X169000000Y-113000000D02*
X169000000Y-111000000D01*
D24*
X145500000Y-303500000D02*
X157000000Y-303500000D01*
X157000000Y-303500000D02*
X183000000Y-303500000D01*
X196000000Y-303500000D02*
X201500000Y-303500000D01*
X138500000Y-85000000D02*
X170000000Y-85000000D01*
X158500000Y-86500000D02*
X144500000Y-86500000D01*
D26*
X192300000Y-209300000D02*
X176250000Y-209300000D01*
D25*
X170050000Y-205336751D02*
X161160000Y-196446751D01*
X169000000Y-113000000D02*
X169000000Y-177000000D01*
D24*
X183000000Y-86500000D02*
X181500000Y-86500000D01*
D25*
X161160000Y-196446751D02*
X161160000Y-188260000D01*
X169000000Y-113000000D02*
X183000000Y-99000000D01*
X161160000Y-196446751D02*
X153053249Y-196446751D01*
D24*
X170500000Y-305000000D02*
X137500000Y-305000000D01*
D25*
X170000000Y-260500000D02*
X170000000Y-274000000D01*
D24*
X144500000Y-86500000D02*
X138500000Y-86500000D01*
D25*
X170000000Y-274000000D02*
X183000000Y-287000000D01*
X149500000Y-240000000D02*
X170000000Y-260500000D01*
D24*
X181500000Y-86500000D02*
X169500000Y-86500000D01*
X170000000Y-85000000D02*
X202500000Y-85000000D01*
D25*
X149500000Y-200000000D02*
X149500000Y-240000000D01*
D24*
X137500000Y-303500000D02*
X145500000Y-303500000D01*
D25*
X158500000Y-100500000D02*
X158500000Y-86500000D01*
X183000000Y-287000000D02*
X183000000Y-303500000D01*
X153053249Y-196446751D02*
X149500000Y-200000000D01*
D26*
X176250000Y-209300000D02*
X170050000Y-215500000D01*
D25*
X169000000Y-111000000D02*
X158500000Y-100500000D01*
X169000000Y-177000000D02*
X161160000Y-184840000D01*
X161160000Y-184840000D02*
X161160000Y-188260000D01*
D23*
%TO.N,/CAN2 HIGH*%
X204000000Y-100500000D02*
X204000000Y-81500000D01*
X200685000Y-106000000D02*
X200235000Y-105550000D01*
X200235000Y-101765000D02*
X201500000Y-100500000D01*
X200235000Y-105550000D02*
X200235000Y-101765000D01*
X201500000Y-100500000D02*
X204000000Y-100500000D01*
X176900000Y-80500000D02*
X202500000Y-80500000D01*
X201550000Y-106000000D02*
X200685000Y-106000000D01*
X203000000Y-80500000D02*
X202500000Y-80500000D01*
X204000000Y-81500000D02*
X203000000Y-80500000D01*
D26*
%TO.N,Net-(D1-K)*%
X198000000Y-200800000D02*
X193562500Y-200800000D01*
X193562500Y-200800000D02*
X193500000Y-200737500D01*
D25*
%TO.N,Net-(J4-+)*%
X166500000Y-226500000D02*
X160550000Y-220550000D01*
X198000000Y-219500000D02*
X191000000Y-226500000D01*
X160550000Y-220550000D02*
X160550000Y-215500000D01*
D27*
X198000000Y-212000000D02*
X198000000Y-219500000D01*
D25*
X191000000Y-226500000D02*
X166500000Y-226500000D01*
D23*
%TO.N,/CAN1 LOW*%
X196000000Y-91000000D02*
X200500000Y-95500000D01*
X188500000Y-91000000D02*
X196000000Y-91000000D01*
X169000000Y-79000000D02*
X164100000Y-79000000D01*
X170500000Y-80500000D02*
X169000000Y-79000000D01*
X138500000Y-79000000D02*
X164100000Y-79000000D01*
X200500000Y-95500000D02*
X201550000Y-95500000D01*
X170500000Y-82500000D02*
X170500000Y-80500000D01*
%TO.N,/CAN3 LOW*%
X134500000Y-300500000D02*
X134500000Y-309500000D01*
X156750000Y-179250000D02*
X143000000Y-193000000D01*
X137500000Y-311000000D02*
X163100000Y-311000000D01*
X201550000Y-138000000D02*
X174000000Y-138000000D01*
X143000000Y-292000000D02*
X134500000Y-300500000D01*
X136000000Y-311000000D02*
X137500000Y-311000000D01*
X143000000Y-193000000D02*
X143000000Y-292000000D01*
X156750000Y-138000000D02*
X156750000Y-179250000D01*
X134500000Y-309500000D02*
X136000000Y-311000000D01*
%TO.N,/CAN3 HIGH*%
X144000000Y-292500000D02*
X135500000Y-301000000D01*
X144000000Y-193500000D02*
X144000000Y-292500000D01*
X136000000Y-309500000D02*
X137500000Y-309500000D01*
X158000000Y-139500000D02*
X158000000Y-179500000D01*
X137500000Y-309500000D02*
X163100000Y-309500000D01*
X158000000Y-179500000D02*
X144000000Y-193500000D01*
X135500000Y-309000000D02*
X136000000Y-309500000D01*
X135500000Y-301000000D02*
X135500000Y-309000000D01*
X201550000Y-139500000D02*
X174000000Y-139500000D01*
%TO.N,/CAN4 LOW*%
X201000000Y-207500000D02*
X204000000Y-210500000D01*
X201000000Y-186500000D02*
X201000000Y-207500000D01*
X204000000Y-210500000D02*
X204000000Y-234000000D01*
X202365000Y-311000000D02*
X201500000Y-311000000D01*
X201500000Y-311000000D02*
X175900000Y-311000000D01*
X201500000Y-147000000D02*
X202000000Y-147000000D01*
X196500000Y-280000000D02*
X204500000Y-288000000D01*
X204500000Y-308865000D02*
X202365000Y-311000000D01*
X204500000Y-183000000D02*
X201000000Y-186500000D01*
X202000000Y-147000000D02*
X204500000Y-149500000D01*
X204500000Y-288000000D02*
X204500000Y-308865000D01*
X204500000Y-149500000D02*
X204500000Y-183000000D01*
X204000000Y-234000000D02*
X196500000Y-241500000D01*
X196500000Y-241500000D02*
X196500000Y-280000000D01*
%TO.N,/CAN4 HIGH*%
X175900000Y-309500000D02*
X201500000Y-309500000D01*
X195500000Y-280500000D02*
X203500000Y-288500000D01*
X203500000Y-150500000D02*
X203500000Y-182000000D01*
X203000000Y-233500000D02*
X195500000Y-241000000D01*
X203000000Y-211000000D02*
X203000000Y-233500000D01*
X195500000Y-241000000D02*
X195500000Y-280500000D01*
X201500000Y-148500000D02*
X203500000Y-150500000D01*
X203500000Y-182000000D02*
X200000000Y-185500000D01*
X201850000Y-309500000D02*
X201500000Y-309500000D01*
X200000000Y-185500000D02*
X200000000Y-208000000D01*
X203500000Y-288500000D02*
X203500000Y-307850000D01*
X203500000Y-307850000D02*
X201850000Y-309500000D01*
X200000000Y-208000000D02*
X203000000Y-211000000D01*
D28*
%TO.N,/ISO 5vDC GND*%
X186000000Y-191000000D02*
X192805000Y-191000000D01*
X181480000Y-188260000D02*
X183260000Y-188260000D01*
X183260000Y-188260000D02*
X186000000Y-191000000D01*
%TO.N,/ISO 5vDC+*%
X176400000Y-188260000D02*
X176400000Y-185100000D01*
X192000000Y-183500000D02*
X192805000Y-184305000D01*
X176400000Y-185100000D02*
X178000000Y-183500000D01*
X178000000Y-183500000D02*
X192000000Y-183500000D01*
X192805000Y-184305000D02*
X192805000Y-186000000D01*
%TD*%
%TA.AperFunction,Conductor*%
%TO.N,+BATT*%
G36*
X204003736Y-75500726D02*
G01*
X204293796Y-75518271D01*
X204308659Y-75520076D01*
X204590798Y-75571780D01*
X204605335Y-75575363D01*
X204879172Y-75660695D01*
X204893163Y-75666000D01*
X205154743Y-75783727D01*
X205167989Y-75790680D01*
X205413465Y-75939075D01*
X205425776Y-75947573D01*
X205651573Y-76124473D01*
X205662781Y-76134403D01*
X205865596Y-76337218D01*
X205875526Y-76348426D01*
X205995481Y-76501538D01*
X206052422Y-76574217D01*
X206060928Y-76586540D01*
X206209316Y-76832004D01*
X206216275Y-76845263D01*
X206333997Y-77106831D01*
X206339306Y-77120832D01*
X206424635Y-77394663D01*
X206428219Y-77409201D01*
X206479923Y-77691340D01*
X206481728Y-77706205D01*
X206489098Y-77828033D01*
X206498562Y-77984501D01*
X206499274Y-77996263D01*
X206499500Y-78003750D01*
X206499500Y-311996249D01*
X206499274Y-312003736D01*
X206481728Y-312293794D01*
X206479923Y-312308659D01*
X206428219Y-312590798D01*
X206424635Y-312605336D01*
X206339306Y-312879167D01*
X206333997Y-312893168D01*
X206216275Y-313154736D01*
X206209316Y-313167995D01*
X206060928Y-313413459D01*
X206052422Y-313425782D01*
X205875526Y-313651573D01*
X205865596Y-313662781D01*
X205662781Y-313865596D01*
X205651573Y-313875526D01*
X205425782Y-314052422D01*
X205413459Y-314060928D01*
X205167995Y-314209316D01*
X205154736Y-314216275D01*
X204893168Y-314333997D01*
X204879167Y-314339306D01*
X204605336Y-314424635D01*
X204590798Y-314428219D01*
X204308659Y-314479923D01*
X204293794Y-314481728D01*
X204003736Y-314499274D01*
X203996249Y-314499500D01*
X136003752Y-314499500D01*
X135996265Y-314499274D01*
X135706205Y-314481728D01*
X135691340Y-314479923D01*
X135409202Y-314428219D01*
X135394664Y-314424635D01*
X135120833Y-314339306D01*
X135106832Y-314333997D01*
X134845263Y-314216274D01*
X134832004Y-314209315D01*
X134586540Y-314060928D01*
X134574217Y-314052422D01*
X134348426Y-313875526D01*
X134337218Y-313865596D01*
X134134403Y-313662781D01*
X134124473Y-313651573D01*
X133947573Y-313425776D01*
X133939075Y-313413465D01*
X133790683Y-313167994D01*
X133783725Y-313154736D01*
X133666000Y-312893162D01*
X133660695Y-312879171D01*
X133575363Y-312605334D01*
X133571780Y-312590797D01*
X133520076Y-312308659D01*
X133518271Y-312293794D01*
X133500726Y-312003735D01*
X133500500Y-311996248D01*
X133500500Y-309573920D01*
X133749499Y-309573920D01*
X133778340Y-309718907D01*
X133778343Y-309718917D01*
X133834914Y-309855492D01*
X133867812Y-309904727D01*
X133867813Y-309904730D01*
X133917046Y-309978414D01*
X133917052Y-309978421D01*
X135521580Y-311582948D01*
X135521584Y-311582951D01*
X135644498Y-311665080D01*
X135644511Y-311665087D01*
X135781082Y-311721656D01*
X135781087Y-311721658D01*
X135781091Y-311721658D01*
X135781092Y-311721659D01*
X135926079Y-311750500D01*
X135926082Y-311750500D01*
X136073917Y-311750500D01*
X136257770Y-311750500D01*
X136324809Y-311770185D01*
X136345451Y-311786819D01*
X136416344Y-311857712D01*
X136565666Y-311949814D01*
X136732203Y-312004999D01*
X136834991Y-312015500D01*
X138165008Y-312015499D01*
X138267797Y-312004999D01*
X138434334Y-311949814D01*
X138583656Y-311857712D01*
X138654549Y-311786819D01*
X138715872Y-311753334D01*
X138742230Y-311750500D01*
X149057770Y-311750500D01*
X149124809Y-311770185D01*
X149145451Y-311786819D01*
X149216344Y-311857712D01*
X149365666Y-311949814D01*
X149532203Y-312004999D01*
X149634991Y-312015500D01*
X150965008Y-312015499D01*
X151067797Y-312004999D01*
X151234334Y-311949814D01*
X151383656Y-311857712D01*
X151454549Y-311786819D01*
X151515872Y-311753334D01*
X151542230Y-311750500D01*
X161857770Y-311750500D01*
X161924809Y-311770185D01*
X161945451Y-311786819D01*
X162016344Y-311857712D01*
X162165666Y-311949814D01*
X162332203Y-312004999D01*
X162434991Y-312015500D01*
X163765008Y-312015499D01*
X163867797Y-312004999D01*
X164034334Y-311949814D01*
X164183656Y-311857712D01*
X164307712Y-311733656D01*
X164399814Y-311584334D01*
X164454999Y-311417797D01*
X164465500Y-311315009D01*
X164465499Y-310684992D01*
X164454999Y-310582203D01*
X164399814Y-310415666D01*
X164307712Y-310266344D01*
X164290690Y-310249322D01*
X164257205Y-310187999D01*
X164262189Y-310118307D01*
X164275269Y-310092750D01*
X164275270Y-310092749D01*
X164349925Y-309981020D01*
X164351005Y-309978414D01*
X164426473Y-309796215D01*
X164426475Y-309796211D01*
X164465500Y-309600018D01*
X164465500Y-309399982D01*
X164426475Y-309203789D01*
X164376819Y-309083907D01*
X164349928Y-309018986D01*
X164349921Y-309018973D01*
X164238792Y-308852657D01*
X164238787Y-308852652D01*
X164223816Y-308837681D01*
X164190331Y-308776361D01*
X164195314Y-308706669D01*
X164223816Y-308662318D01*
X164238791Y-308647344D01*
X164349925Y-308481020D01*
X164426475Y-308296211D01*
X164465500Y-308100018D01*
X164465500Y-307899982D01*
X164426475Y-307703789D01*
X164426473Y-307703784D01*
X164349928Y-307518986D01*
X164349921Y-307518973D01*
X164238792Y-307352657D01*
X164238787Y-307352652D01*
X164223816Y-307337681D01*
X164190331Y-307276361D01*
X164195314Y-307206669D01*
X164223816Y-307162318D01*
X164238791Y-307147344D01*
X164349925Y-306981020D01*
X164426475Y-306796211D01*
X164465500Y-306600018D01*
X164465500Y-306399982D01*
X164426475Y-306203789D01*
X164426473Y-306203784D01*
X164349928Y-306018986D01*
X164349921Y-306018973D01*
X164238791Y-305852656D01*
X164238788Y-305852652D01*
X164097347Y-305711211D01*
X164097343Y-305711208D01*
X163931026Y-305600078D01*
X163931013Y-305600071D01*
X163746215Y-305523526D01*
X163746203Y-305523523D01*
X163550022Y-305484500D01*
X163550018Y-305484500D01*
X162649982Y-305484500D01*
X162649977Y-305484500D01*
X162453796Y-305523523D01*
X162453784Y-305523526D01*
X162268986Y-305600071D01*
X162268973Y-305600078D01*
X162102656Y-305711208D01*
X162102652Y-305711211D01*
X161961211Y-305852652D01*
X161961208Y-305852656D01*
X161850078Y-306018973D01*
X161850071Y-306018986D01*
X161773526Y-306203784D01*
X161773523Y-306203796D01*
X161734500Y-306399977D01*
X161734500Y-306600022D01*
X161773523Y-306796203D01*
X161773526Y-306796215D01*
X161850071Y-306981013D01*
X161850078Y-306981026D01*
X161961208Y-307147343D01*
X161961211Y-307147347D01*
X161976183Y-307162319D01*
X162009668Y-307223642D01*
X162004684Y-307293334D01*
X161976183Y-307337681D01*
X161961211Y-307352652D01*
X161961208Y-307352656D01*
X161850078Y-307518973D01*
X161850071Y-307518986D01*
X161773526Y-307703784D01*
X161773523Y-307703796D01*
X161734500Y-307899977D01*
X161734500Y-308100022D01*
X161773523Y-308296203D01*
X161773526Y-308296215D01*
X161850071Y-308481013D01*
X161850081Y-308481031D01*
X161900581Y-308556610D01*
X161921459Y-308623287D01*
X161902974Y-308690667D01*
X161850995Y-308737357D01*
X161797479Y-308749500D01*
X151602521Y-308749500D01*
X151535482Y-308729815D01*
X151489727Y-308677011D01*
X151479783Y-308607853D01*
X151499419Y-308556610D01*
X151549918Y-308481031D01*
X151549921Y-308481026D01*
X151549925Y-308481020D01*
X151626475Y-308296211D01*
X151665500Y-308100018D01*
X151665500Y-307899982D01*
X151626475Y-307703789D01*
X151626473Y-307703784D01*
X151549928Y-307518986D01*
X151549921Y-307518973D01*
X151438792Y-307352657D01*
X151438787Y-307352652D01*
X151423816Y-307337681D01*
X151390331Y-307276361D01*
X151395314Y-307206669D01*
X151423816Y-307162318D01*
X151438791Y-307147344D01*
X151549925Y-306981020D01*
X151626475Y-306796211D01*
X151665500Y-306600018D01*
X151665500Y-306399982D01*
X151626475Y-306203789D01*
X151626473Y-306203784D01*
X151549928Y-306018986D01*
X151549921Y-306018973D01*
X151438791Y-305852656D01*
X151438788Y-305852652D01*
X151297347Y-305711211D01*
X151297343Y-305711208D01*
X151131026Y-305600078D01*
X151131013Y-305600071D01*
X150946215Y-305523526D01*
X150946203Y-305523523D01*
X150750022Y-305484500D01*
X150750018Y-305484500D01*
X149849982Y-305484500D01*
X149849977Y-305484500D01*
X149653796Y-305523523D01*
X149653784Y-305523526D01*
X149468986Y-305600071D01*
X149468973Y-305600078D01*
X149302656Y-305711208D01*
X149302652Y-305711211D01*
X149161211Y-305852652D01*
X149161208Y-305852656D01*
X149050078Y-306018973D01*
X149050071Y-306018986D01*
X148973526Y-306203784D01*
X148973523Y-306203796D01*
X148934500Y-306399977D01*
X148934500Y-306600022D01*
X148973523Y-306796203D01*
X148973526Y-306796215D01*
X149050071Y-306981013D01*
X149050078Y-306981026D01*
X149161208Y-307147343D01*
X149161211Y-307147347D01*
X149176183Y-307162319D01*
X149209668Y-307223642D01*
X149204684Y-307293334D01*
X149176183Y-307337681D01*
X149161211Y-307352652D01*
X149161208Y-307352656D01*
X149050078Y-307518973D01*
X149050071Y-307518986D01*
X148973526Y-307703784D01*
X148973523Y-307703796D01*
X148934500Y-307899977D01*
X148934500Y-308100022D01*
X148973523Y-308296203D01*
X148973526Y-308296215D01*
X149050071Y-308481013D01*
X149050081Y-308481031D01*
X149100581Y-308556610D01*
X149121459Y-308623287D01*
X149102974Y-308690667D01*
X149050995Y-308737357D01*
X148997479Y-308749500D01*
X138802521Y-308749500D01*
X138735482Y-308729815D01*
X138689727Y-308677011D01*
X138679783Y-308607853D01*
X138699419Y-308556610D01*
X138749918Y-308481031D01*
X138749921Y-308481026D01*
X138749925Y-308481020D01*
X138826475Y-308296211D01*
X138865500Y-308100018D01*
X138865500Y-307899982D01*
X138826475Y-307703789D01*
X138826473Y-307703784D01*
X138749928Y-307518986D01*
X138749921Y-307518973D01*
X138638792Y-307352657D01*
X138638787Y-307352652D01*
X138623816Y-307337681D01*
X138590331Y-307276361D01*
X138595314Y-307206669D01*
X138623816Y-307162318D01*
X138638791Y-307147344D01*
X138749925Y-306981020D01*
X138826475Y-306796211D01*
X138865500Y-306600018D01*
X138865500Y-306399982D01*
X138826475Y-306203789D01*
X138826473Y-306203784D01*
X138749928Y-306018986D01*
X138749921Y-306018973D01*
X138638791Y-305852656D01*
X138638788Y-305852652D01*
X138497347Y-305711211D01*
X138497343Y-305711208D01*
X138331026Y-305600078D01*
X138331013Y-305600071D01*
X138146215Y-305523526D01*
X138146203Y-305523523D01*
X137950022Y-305484500D01*
X137950018Y-305484500D01*
X137049982Y-305484500D01*
X137049977Y-305484500D01*
X136853796Y-305523523D01*
X136853784Y-305523526D01*
X136668986Y-305600071D01*
X136668973Y-305600078D01*
X136502656Y-305711208D01*
X136502652Y-305711211D01*
X136462181Y-305751683D01*
X136400858Y-305785168D01*
X136331166Y-305780184D01*
X136275233Y-305738312D01*
X136250816Y-305672848D01*
X136250500Y-305664002D01*
X136250500Y-301362229D01*
X136270185Y-301295190D01*
X136286819Y-301274548D01*
X144582948Y-292978419D01*
X144582951Y-292978416D01*
X144665084Y-292855495D01*
X144721658Y-292718913D01*
X144750500Y-292573918D01*
X144750500Y-292426083D01*
X144750500Y-220350951D01*
X156049499Y-220350951D01*
X156049499Y-220746497D01*
X156079915Y-221094143D01*
X156079915Y-221094144D01*
X156083751Y-221137994D01*
X156083751Y-221137998D01*
X156127794Y-221387776D01*
X156151993Y-221525015D01*
X156253707Y-221904616D01*
X156376629Y-222242341D01*
X156388124Y-222273921D01*
X156554195Y-222630062D01*
X156554207Y-222630086D01*
X156750695Y-222970412D01*
X156750704Y-222970427D01*
X156976115Y-223292347D01*
X157228724Y-223593393D01*
X157508574Y-223873244D01*
X157508619Y-223873287D01*
X163177026Y-229541694D01*
X163177039Y-229541708D01*
X163178722Y-229543391D01*
X163456609Y-229821278D01*
X163563738Y-229911170D01*
X163757652Y-230073884D01*
X163757658Y-230073888D01*
X163757659Y-230073889D01*
X164079579Y-230299301D01*
X164398555Y-230483461D01*
X164419913Y-230495792D01*
X164419928Y-230495800D01*
X164419937Y-230495804D01*
X164776093Y-230661882D01*
X165145384Y-230796293D01*
X165145390Y-230796294D01*
X165145394Y-230796296D01*
X165248764Y-230823993D01*
X165524985Y-230898007D01*
X165912007Y-230966249D01*
X166303502Y-231000500D01*
X166303503Y-231000501D01*
X166303504Y-231000501D01*
X166699285Y-231000501D01*
X166699329Y-231000500D01*
X190800671Y-231000500D01*
X190800715Y-231000501D01*
X190803504Y-231000501D01*
X191196497Y-231000501D01*
X191196497Y-231000500D01*
X191587993Y-230966249D01*
X191975015Y-230898007D01*
X192354616Y-230796293D01*
X192723908Y-230661881D01*
X193080080Y-230495796D01*
X193420421Y-230299300D01*
X193742341Y-230073889D01*
X194043391Y-229821278D01*
X194321278Y-229543391D01*
X194321280Y-229543387D01*
X194324887Y-229539781D01*
X194324898Y-229539768D01*
X201321278Y-222543390D01*
X201573889Y-222242341D01*
X201799300Y-221920421D01*
X201995796Y-221580080D01*
X202013117Y-221542933D01*
X202059290Y-221490494D01*
X202126483Y-221471342D01*
X202193364Y-221491557D01*
X202238699Y-221544722D01*
X202249500Y-221595338D01*
X202249500Y-233137769D01*
X202229815Y-233204808D01*
X202213181Y-233225450D01*
X194917050Y-240521580D01*
X194917044Y-240521588D01*
X194867812Y-240595268D01*
X194867813Y-240595269D01*
X194834921Y-240644496D01*
X194834914Y-240644508D01*
X194778342Y-240781086D01*
X194778340Y-240781092D01*
X194749500Y-240926079D01*
X194749500Y-240926082D01*
X194749500Y-280573918D01*
X194749500Y-280573920D01*
X194749499Y-280573920D01*
X194778340Y-280718907D01*
X194778343Y-280718917D01*
X194834914Y-280855492D01*
X194867812Y-280904727D01*
X194867813Y-280904730D01*
X194917046Y-280978414D01*
X194917052Y-280978421D01*
X202713181Y-288774548D01*
X202746666Y-288835871D01*
X202749500Y-288862229D01*
X202749500Y-305664002D01*
X202729815Y-305731041D01*
X202677011Y-305776796D01*
X202607853Y-305786740D01*
X202544297Y-305757715D01*
X202537819Y-305751683D01*
X202497347Y-305711211D01*
X202497343Y-305711208D01*
X202331026Y-305600078D01*
X202331013Y-305600071D01*
X202146215Y-305523526D01*
X202146203Y-305523523D01*
X201950022Y-305484500D01*
X201950018Y-305484500D01*
X201049982Y-305484500D01*
X201049977Y-305484500D01*
X200853796Y-305523523D01*
X200853784Y-305523526D01*
X200668986Y-305600071D01*
X200668973Y-305600078D01*
X200502656Y-305711208D01*
X200502652Y-305711211D01*
X200361211Y-305852652D01*
X200361208Y-305852656D01*
X200250078Y-306018973D01*
X200250071Y-306018986D01*
X200173526Y-306203784D01*
X200173523Y-306203796D01*
X200134500Y-306399977D01*
X200134500Y-306600022D01*
X200173523Y-306796203D01*
X200173526Y-306796215D01*
X200250071Y-306981013D01*
X200250078Y-306981026D01*
X200361208Y-307147343D01*
X200361211Y-307147347D01*
X200376183Y-307162319D01*
X200409668Y-307223642D01*
X200404684Y-307293334D01*
X200376183Y-307337681D01*
X200361211Y-307352652D01*
X200361208Y-307352656D01*
X200250078Y-307518973D01*
X200250071Y-307518986D01*
X200173526Y-307703784D01*
X200173523Y-307703796D01*
X200134500Y-307899977D01*
X200134500Y-308100022D01*
X200173523Y-308296203D01*
X200173526Y-308296215D01*
X200250071Y-308481013D01*
X200250081Y-308481031D01*
X200300581Y-308556610D01*
X200321459Y-308623287D01*
X200302974Y-308690667D01*
X200250995Y-308737357D01*
X200197479Y-308749500D01*
X190002521Y-308749500D01*
X189935482Y-308729815D01*
X189889727Y-308677011D01*
X189879783Y-308607853D01*
X189899419Y-308556610D01*
X189949918Y-308481031D01*
X189949921Y-308481026D01*
X189949925Y-308481020D01*
X190026475Y-308296211D01*
X190065500Y-308100018D01*
X190065500Y-307899982D01*
X190026475Y-307703789D01*
X190026473Y-307703784D01*
X189949928Y-307518986D01*
X189949921Y-307518973D01*
X189838792Y-307352657D01*
X189838787Y-307352652D01*
X189823816Y-307337681D01*
X189790331Y-307276361D01*
X189795314Y-307206669D01*
X189823816Y-307162318D01*
X189838791Y-307147344D01*
X189949925Y-306981020D01*
X190026475Y-306796211D01*
X190065500Y-306600018D01*
X190065500Y-306399982D01*
X190026475Y-306203789D01*
X190026473Y-306203784D01*
X189949928Y-306018986D01*
X189949921Y-306018973D01*
X189838791Y-305852656D01*
X189838788Y-305852652D01*
X189697347Y-305711211D01*
X189697343Y-305711208D01*
X189531026Y-305600078D01*
X189531013Y-305600071D01*
X189346215Y-305523526D01*
X189346203Y-305523523D01*
X189150022Y-305484500D01*
X189150018Y-305484500D01*
X188249982Y-305484500D01*
X188249977Y-305484500D01*
X188053796Y-305523523D01*
X188053784Y-305523526D01*
X187868986Y-305600071D01*
X187868973Y-305600078D01*
X187702656Y-305711208D01*
X187702652Y-305711211D01*
X187561211Y-305852652D01*
X187561208Y-305852656D01*
X187450078Y-306018973D01*
X187450071Y-306018986D01*
X187373526Y-306203784D01*
X187373523Y-306203796D01*
X187334500Y-306399977D01*
X187334500Y-306600022D01*
X187373523Y-306796203D01*
X187373526Y-306796215D01*
X187450071Y-306981013D01*
X187450078Y-306981026D01*
X187561208Y-307147343D01*
X187561211Y-307147347D01*
X187576183Y-307162319D01*
X187609668Y-307223642D01*
X187604684Y-307293334D01*
X187576183Y-307337681D01*
X187561211Y-307352652D01*
X187561208Y-307352656D01*
X187450078Y-307518973D01*
X187450071Y-307518986D01*
X187373526Y-307703784D01*
X187373523Y-307703796D01*
X187334500Y-307899977D01*
X187334500Y-308100022D01*
X187373523Y-308296203D01*
X187373526Y-308296215D01*
X187450071Y-308481013D01*
X187450081Y-308481031D01*
X187500581Y-308556610D01*
X187521459Y-308623287D01*
X187502974Y-308690667D01*
X187450995Y-308737357D01*
X187397479Y-308749500D01*
X177202521Y-308749500D01*
X177135482Y-308729815D01*
X177089727Y-308677011D01*
X177079783Y-308607853D01*
X177099419Y-308556610D01*
X177149918Y-308481031D01*
X177149921Y-308481026D01*
X177149925Y-308481020D01*
X177226475Y-308296211D01*
X177265500Y-308100018D01*
X177265500Y-307899982D01*
X177226475Y-307703789D01*
X177226473Y-307703784D01*
X177149928Y-307518986D01*
X177149921Y-307518973D01*
X177038792Y-307352657D01*
X177038787Y-307352652D01*
X177023816Y-307337681D01*
X176990331Y-307276361D01*
X176995314Y-307206669D01*
X177023816Y-307162318D01*
X177038791Y-307147344D01*
X177149925Y-306981020D01*
X177226475Y-306796211D01*
X177265500Y-306600018D01*
X177265500Y-306399982D01*
X177226475Y-306203789D01*
X177226473Y-306203784D01*
X177149928Y-306018986D01*
X177149921Y-306018973D01*
X177038791Y-305852656D01*
X177038788Y-305852652D01*
X176897347Y-305711211D01*
X176897343Y-305711208D01*
X176731026Y-305600078D01*
X176731013Y-305600071D01*
X176546215Y-305523526D01*
X176546203Y-305523523D01*
X176350022Y-305484500D01*
X176350018Y-305484500D01*
X175449982Y-305484500D01*
X175449977Y-305484500D01*
X175253796Y-305523523D01*
X175253784Y-305523526D01*
X175068986Y-305600071D01*
X175068973Y-305600078D01*
X174902656Y-305711208D01*
X174902652Y-305711211D01*
X174761211Y-305852652D01*
X174761208Y-305852656D01*
X174650078Y-306018973D01*
X174650071Y-306018986D01*
X174573526Y-306203784D01*
X174573523Y-306203796D01*
X174534500Y-306399977D01*
X174534500Y-306600022D01*
X174573523Y-306796203D01*
X174573526Y-306796215D01*
X174650071Y-306981013D01*
X174650078Y-306981026D01*
X174761208Y-307147343D01*
X174761211Y-307147347D01*
X174776183Y-307162319D01*
X174809668Y-307223642D01*
X174804684Y-307293334D01*
X174776183Y-307337681D01*
X174761211Y-307352652D01*
X174761208Y-307352656D01*
X174650078Y-307518973D01*
X174650071Y-307518986D01*
X174573526Y-307703784D01*
X174573523Y-307703796D01*
X174534500Y-307899977D01*
X174534500Y-308100022D01*
X174573523Y-308296203D01*
X174573526Y-308296215D01*
X174650071Y-308481013D01*
X174650078Y-308481026D01*
X174761208Y-308647343D01*
X174761211Y-308647347D01*
X174776183Y-308662319D01*
X174809668Y-308723642D01*
X174804684Y-308793334D01*
X174776183Y-308837681D01*
X174761211Y-308852652D01*
X174761208Y-308852656D01*
X174650078Y-309018973D01*
X174650071Y-309018986D01*
X174573526Y-309203784D01*
X174573523Y-309203796D01*
X174534500Y-309399977D01*
X174534500Y-309600022D01*
X174573523Y-309796203D01*
X174573526Y-309796215D01*
X174650071Y-309981013D01*
X174650078Y-309981026D01*
X174724729Y-310092749D01*
X174745607Y-310159427D01*
X174727122Y-310226807D01*
X174709312Y-310249317D01*
X174692293Y-310266337D01*
X174692289Y-310266342D01*
X174692288Y-310266344D01*
X174651287Y-310332816D01*
X174600187Y-310415663D01*
X174600186Y-310415666D01*
X174545001Y-310582203D01*
X174545001Y-310582204D01*
X174545000Y-310582204D01*
X174534500Y-310684983D01*
X174534500Y-311315001D01*
X174534501Y-311315019D01*
X174545000Y-311417796D01*
X174545001Y-311417799D01*
X174599727Y-311582948D01*
X174600186Y-311584334D01*
X174692288Y-311733656D01*
X174816344Y-311857712D01*
X174965666Y-311949814D01*
X175132203Y-312004999D01*
X175234991Y-312015500D01*
X176565008Y-312015499D01*
X176667797Y-312004999D01*
X176834334Y-311949814D01*
X176983656Y-311857712D01*
X177054549Y-311786819D01*
X177115872Y-311753334D01*
X177142230Y-311750500D01*
X187457770Y-311750500D01*
X187524809Y-311770185D01*
X187545451Y-311786819D01*
X187616344Y-311857712D01*
X187765666Y-311949814D01*
X187932203Y-312004999D01*
X188034991Y-312015500D01*
X189365008Y-312015499D01*
X189467797Y-312004999D01*
X189634334Y-311949814D01*
X189783656Y-311857712D01*
X189854549Y-311786819D01*
X189915872Y-311753334D01*
X189942230Y-311750500D01*
X200257770Y-311750500D01*
X200324809Y-311770185D01*
X200345451Y-311786819D01*
X200416344Y-311857712D01*
X200565666Y-311949814D01*
X200732203Y-312004999D01*
X200834991Y-312015500D01*
X202165008Y-312015499D01*
X202267797Y-312004999D01*
X202434334Y-311949814D01*
X202583656Y-311857712D01*
X202707712Y-311733656D01*
X202756513Y-311654534D01*
X202793159Y-311616530D01*
X202843416Y-311582952D01*
X205082952Y-309343416D01*
X205147011Y-309247543D01*
X205165084Y-309220495D01*
X205221658Y-309083913D01*
X205250500Y-308938918D01*
X205250500Y-287926082D01*
X205250500Y-287926079D01*
X205221659Y-287781092D01*
X205221658Y-287781091D01*
X205221658Y-287781087D01*
X205221656Y-287781082D01*
X205165087Y-287644511D01*
X205165080Y-287644498D01*
X205082952Y-287521585D01*
X205082951Y-287521584D01*
X204978416Y-287417049D01*
X197286819Y-279725451D01*
X197253334Y-279664128D01*
X197250500Y-279637770D01*
X197250500Y-275000000D01*
X201619533Y-275000000D01*
X201639375Y-275290099D01*
X201639376Y-275290101D01*
X201698532Y-275574782D01*
X201698537Y-275574798D01*
X201795910Y-275848776D01*
X201795909Y-275848776D01*
X201929688Y-276106957D01*
X201929692Y-276106963D01*
X202097367Y-276344505D01*
X202097371Y-276344509D01*
X202097373Y-276344512D01*
X202295843Y-276557022D01*
X202295848Y-276557026D01*
X202295850Y-276557028D01*
X202521395Y-276740522D01*
X202521398Y-276740524D01*
X202521402Y-276740527D01*
X202651740Y-276819787D01*
X202769848Y-276891611D01*
X203036545Y-277007454D01*
X203036550Y-277007456D01*
X203316544Y-277085906D01*
X203569801Y-277120715D01*
X203604611Y-277125500D01*
X203604612Y-277125500D01*
X203895389Y-277125500D01*
X203926445Y-277121231D01*
X204183456Y-277085906D01*
X204463450Y-277007456D01*
X204730153Y-276891610D01*
X204978598Y-276740527D01*
X205204157Y-276557022D01*
X205402627Y-276344512D01*
X205570312Y-276106956D01*
X205704088Y-275848780D01*
X205704088Y-275848779D01*
X205704090Y-275848776D01*
X205801462Y-275574798D01*
X205801467Y-275574782D01*
X205836495Y-275406216D01*
X205860624Y-275290099D01*
X205880467Y-275000000D01*
X205860624Y-274709901D01*
X205836495Y-274593784D01*
X205801467Y-274425217D01*
X205801462Y-274425201D01*
X205704089Y-274151223D01*
X205704090Y-274151223D01*
X205570311Y-273893042D01*
X205570307Y-273893036D01*
X205402632Y-273655494D01*
X205402628Y-273655490D01*
X205402627Y-273655488D01*
X205204157Y-273442978D01*
X205204150Y-273442973D01*
X205204149Y-273442971D01*
X204978604Y-273259477D01*
X204978593Y-273259470D01*
X204730151Y-273108388D01*
X204463454Y-272992545D01*
X204183462Y-272914095D01*
X204183457Y-272914094D01*
X204183456Y-272914094D01*
X204039422Y-272894297D01*
X203895389Y-272874500D01*
X203895388Y-272874500D01*
X203604612Y-272874500D01*
X203604611Y-272874500D01*
X203316544Y-272914094D01*
X203316537Y-272914095D01*
X203036545Y-272992545D01*
X202769848Y-273108388D01*
X202521406Y-273259470D01*
X202521395Y-273259477D01*
X202295850Y-273442971D01*
X202097367Y-273655494D01*
X201929692Y-273893036D01*
X201929688Y-273893042D01*
X201795909Y-274151223D01*
X201698537Y-274425201D01*
X201698532Y-274425217D01*
X201639376Y-274709898D01*
X201639375Y-274709900D01*
X201619533Y-275000000D01*
X197250500Y-275000000D01*
X197250500Y-244363160D01*
X199499500Y-244363160D01*
X199499500Y-265636839D01*
X199536765Y-265907964D01*
X199536766Y-265907970D01*
X199610602Y-266171493D01*
X199719633Y-266422509D01*
X199861829Y-266656341D01*
X200034542Y-266868634D01*
X200234560Y-267055439D01*
X200458135Y-267213255D01*
X200458141Y-267213259D01*
X200458143Y-267213260D01*
X200701136Y-267339169D01*
X200701139Y-267339170D01*
X200959004Y-267430816D01*
X200959020Y-267430821D01*
X201149255Y-267470351D01*
X201226960Y-267486498D01*
X201226961Y-267486499D01*
X201244441Y-267487694D01*
X201500000Y-267505175D01*
X201773038Y-267486499D01*
X201893620Y-267461441D01*
X202040979Y-267430821D01*
X202040985Y-267430818D01*
X202040990Y-267430818D01*
X202298864Y-267339169D01*
X202541857Y-267213260D01*
X202765442Y-267055437D01*
X202965454Y-266868638D01*
X203138168Y-266656345D01*
X203280365Y-266422511D01*
X203389398Y-266171492D01*
X203463235Y-265907965D01*
X203500500Y-265636838D01*
X203500500Y-265500000D01*
X203500500Y-265434108D01*
X203500500Y-244434108D01*
X203500500Y-244363162D01*
X203463235Y-244092035D01*
X203389398Y-243828508D01*
X203334614Y-243702382D01*
X203280366Y-243577490D01*
X203138170Y-243343658D01*
X202965457Y-243131365D01*
X202765439Y-242944560D01*
X202541864Y-242786744D01*
X202541858Y-242786740D01*
X202298860Y-242660829D01*
X202040995Y-242569183D01*
X202040979Y-242569178D01*
X201773040Y-242513501D01*
X201773038Y-242513500D01*
X201500000Y-242494825D01*
X201226961Y-242513500D01*
X201226959Y-242513501D01*
X200959020Y-242569178D01*
X200959004Y-242569183D01*
X200701139Y-242660829D01*
X200458141Y-242786740D01*
X200458135Y-242786744D01*
X200234560Y-242944560D01*
X200034542Y-243131365D01*
X199861829Y-243343658D01*
X199719633Y-243577490D01*
X199610602Y-243828506D01*
X199536766Y-244092029D01*
X199536765Y-244092035D01*
X199499500Y-244363160D01*
X197250500Y-244363160D01*
X197250500Y-241862230D01*
X197270185Y-241795191D01*
X197286819Y-241774549D01*
X198539788Y-240521580D01*
X204582952Y-234478416D01*
X204632186Y-234404729D01*
X204665084Y-234355495D01*
X204688518Y-234298920D01*
X204721659Y-234218912D01*
X204750500Y-234073917D01*
X204750500Y-233926082D01*
X204750500Y-210426082D01*
X204744763Y-210397241D01*
X204721659Y-210281088D01*
X204667408Y-210150117D01*
X204665764Y-210145522D01*
X204582954Y-210021588D01*
X204582953Y-210021587D01*
X204582951Y-210021584D01*
X204478416Y-209917049D01*
X201786819Y-207225451D01*
X201753334Y-207164128D01*
X201750500Y-207137770D01*
X201750500Y-196243796D01*
X201770185Y-196176757D01*
X201822989Y-196131002D01*
X201892147Y-196121058D01*
X201955703Y-196150083D01*
X201975801Y-196172284D01*
X202097373Y-196344512D01*
X202295843Y-196557022D01*
X202295848Y-196557026D01*
X202295850Y-196557028D01*
X202521395Y-196740522D01*
X202521398Y-196740524D01*
X202521402Y-196740527D01*
X202651740Y-196819787D01*
X202769848Y-196891611D01*
X203036545Y-197007454D01*
X203036550Y-197007456D01*
X203316544Y-197085906D01*
X203569801Y-197120715D01*
X203604611Y-197125500D01*
X203604612Y-197125500D01*
X203895389Y-197125500D01*
X203926445Y-197121231D01*
X204183456Y-197085906D01*
X204463450Y-197007456D01*
X204730153Y-196891610D01*
X204978598Y-196740527D01*
X205204157Y-196557022D01*
X205402627Y-196344512D01*
X205570312Y-196106956D01*
X205704088Y-195848780D01*
X205704088Y-195848779D01*
X205704090Y-195848776D01*
X205801462Y-195574798D01*
X205801467Y-195574782D01*
X205836495Y-195406216D01*
X205860624Y-195290099D01*
X205880467Y-195000000D01*
X205860624Y-194709901D01*
X205836495Y-194593784D01*
X205801467Y-194425217D01*
X205801462Y-194425201D01*
X205704089Y-194151223D01*
X205704090Y-194151223D01*
X205570311Y-193893042D01*
X205570307Y-193893036D01*
X205402632Y-193655494D01*
X205402628Y-193655490D01*
X205402627Y-193655488D01*
X205204157Y-193442978D01*
X205204150Y-193442973D01*
X205204149Y-193442971D01*
X204978604Y-193259477D01*
X204978593Y-193259470D01*
X204730151Y-193108388D01*
X204463454Y-192992545D01*
X204183462Y-192914095D01*
X204183457Y-192914094D01*
X204183456Y-192914094D01*
X204039422Y-192894297D01*
X203895389Y-192874500D01*
X203895388Y-192874500D01*
X203604612Y-192874500D01*
X203604611Y-192874500D01*
X203316544Y-192914094D01*
X203316537Y-192914095D01*
X203036545Y-192992545D01*
X202769848Y-193108388D01*
X202521406Y-193259470D01*
X202521395Y-193259477D01*
X202295850Y-193442971D01*
X202097367Y-193655494D01*
X201975804Y-193827711D01*
X201921062Y-193871129D01*
X201851537Y-193878058D01*
X201789302Y-193846300D01*
X201754117Y-193785936D01*
X201750500Y-193756203D01*
X201750500Y-186862229D01*
X201770185Y-186795190D01*
X201786819Y-186774548D01*
X205082948Y-183478419D01*
X205082951Y-183478416D01*
X205165084Y-183355495D01*
X205221658Y-183218913D01*
X205238602Y-183133730D01*
X205250500Y-183073918D01*
X205250500Y-149426082D01*
X205250500Y-149426079D01*
X205221659Y-149281092D01*
X205221658Y-149281091D01*
X205221658Y-149281087D01*
X205202012Y-149233657D01*
X205165085Y-149144507D01*
X205124881Y-149084336D01*
X205103090Y-149051724D01*
X205082952Y-149021584D01*
X202868298Y-146806930D01*
X202834813Y-146745607D01*
X202834376Y-146743511D01*
X202826475Y-146703789D01*
X202795855Y-146629865D01*
X202749928Y-146518986D01*
X202749921Y-146518973D01*
X202638792Y-146352657D01*
X202638787Y-146352652D01*
X202623816Y-146337681D01*
X202590331Y-146276361D01*
X202595314Y-146206669D01*
X202623816Y-146162318D01*
X202638791Y-146147344D01*
X202749925Y-145981020D01*
X202826475Y-145796211D01*
X202865500Y-145600018D01*
X202865500Y-145399982D01*
X202826475Y-145203789D01*
X202826473Y-145203784D01*
X202749928Y-145018986D01*
X202749921Y-145018973D01*
X202638791Y-144852656D01*
X202638788Y-144852652D01*
X202497347Y-144711211D01*
X202497343Y-144711208D01*
X202331026Y-144600078D01*
X202331013Y-144600071D01*
X202146215Y-144523526D01*
X202146203Y-144523523D01*
X201950022Y-144484500D01*
X201950018Y-144484500D01*
X201049982Y-144484500D01*
X201049977Y-144484500D01*
X200853796Y-144523523D01*
X200853784Y-144523526D01*
X200668986Y-144600071D01*
X200668973Y-144600078D01*
X200502656Y-144711208D01*
X200502652Y-144711211D01*
X200361211Y-144852652D01*
X200361208Y-144852656D01*
X200250078Y-145018973D01*
X200250071Y-145018986D01*
X200173526Y-145203784D01*
X200173523Y-145203796D01*
X200134500Y-145399977D01*
X200134500Y-145600022D01*
X200173523Y-145796203D01*
X200173526Y-145796215D01*
X200250071Y-145981013D01*
X200250078Y-145981026D01*
X200361208Y-146147343D01*
X200361211Y-146147347D01*
X200376183Y-146162319D01*
X200409668Y-146223642D01*
X200404684Y-146293334D01*
X200376183Y-146337681D01*
X200361211Y-146352652D01*
X200361208Y-146352656D01*
X200250078Y-146518973D01*
X200250071Y-146518986D01*
X200173526Y-146703784D01*
X200173523Y-146703796D01*
X200134500Y-146899977D01*
X200134500Y-147100022D01*
X200173523Y-147296203D01*
X200173526Y-147296215D01*
X200250071Y-147481013D01*
X200250078Y-147481026D01*
X200324729Y-147592749D01*
X200345607Y-147659427D01*
X200327122Y-147726807D01*
X200309312Y-147749317D01*
X200292293Y-147766337D01*
X200292289Y-147766342D01*
X200292288Y-147766344D01*
X200251287Y-147832816D01*
X200200187Y-147915663D01*
X200200186Y-147915666D01*
X200145001Y-148082203D01*
X200145001Y-148082204D01*
X200145000Y-148082204D01*
X200134500Y-148184983D01*
X200134500Y-148815001D01*
X200134501Y-148815019D01*
X200145000Y-148917796D01*
X200145001Y-148917799D01*
X200189380Y-149051724D01*
X200200186Y-149084334D01*
X200292288Y-149233656D01*
X200416344Y-149357712D01*
X200565666Y-149449814D01*
X200732203Y-149504999D01*
X200834991Y-149515500D01*
X201402769Y-149515499D01*
X201469808Y-149535183D01*
X201490450Y-149551818D01*
X202713181Y-150774548D01*
X202746666Y-150835871D01*
X202749500Y-150862229D01*
X202749500Y-181637769D01*
X202729815Y-181704808D01*
X202713181Y-181725450D01*
X199417050Y-185021580D01*
X199417044Y-185021588D01*
X199367812Y-185095268D01*
X199367813Y-185095269D01*
X199334921Y-185144496D01*
X199334914Y-185144508D01*
X199278342Y-185281086D01*
X199278340Y-185281092D01*
X199249500Y-185426079D01*
X199249500Y-199706239D01*
X199229815Y-199773278D01*
X199177011Y-199819033D01*
X199107853Y-199828977D01*
X199060404Y-199811778D01*
X198944334Y-199740186D01*
X198777797Y-199685001D01*
X198777795Y-199685000D01*
X198675010Y-199674500D01*
X197324998Y-199674500D01*
X197324981Y-199674501D01*
X197222203Y-199685000D01*
X197222200Y-199685001D01*
X197055668Y-199740185D01*
X197055659Y-199740189D01*
X196989432Y-199781039D01*
X196924336Y-199799500D01*
X194575664Y-199799500D01*
X194510568Y-199781039D01*
X194444340Y-199740189D01*
X194444335Y-199740187D01*
X194444334Y-199740186D01*
X194277797Y-199685001D01*
X194277795Y-199685000D01*
X194175010Y-199674500D01*
X192824998Y-199674500D01*
X192824981Y-199674501D01*
X192722203Y-199685000D01*
X192722200Y-199685001D01*
X192555668Y-199740185D01*
X192555663Y-199740187D01*
X192406342Y-199832289D01*
X192282289Y-199956342D01*
X192190187Y-200105663D01*
X192190186Y-200105666D01*
X192135001Y-200272203D01*
X192135001Y-200272204D01*
X192135000Y-200272204D01*
X192124500Y-200374983D01*
X192124500Y-201100001D01*
X192124501Y-201100019D01*
X192135000Y-201202796D01*
X192135001Y-201202799D01*
X192190185Y-201369331D01*
X192190186Y-201369334D01*
X192282288Y-201518656D01*
X192406344Y-201642712D01*
X192555666Y-201734814D01*
X192722203Y-201789999D01*
X192824991Y-201800500D01*
X193453956Y-201800499D01*
X193453970Y-201800500D01*
X193463959Y-201800500D01*
X193661040Y-201800500D01*
X196924336Y-201800500D01*
X196989432Y-201818961D01*
X197055659Y-201859810D01*
X197055660Y-201859810D01*
X197055666Y-201859814D01*
X197222203Y-201914999D01*
X197324991Y-201925500D01*
X198675008Y-201925499D01*
X198777797Y-201914999D01*
X198944334Y-201859814D01*
X199060404Y-201788221D01*
X199127795Y-201769781D01*
X199194459Y-201790703D01*
X199239229Y-201844345D01*
X199249500Y-201893760D01*
X199249500Y-208073918D01*
X199249500Y-208073920D01*
X199249499Y-208073920D01*
X199278340Y-208218907D01*
X199278343Y-208218917D01*
X199334914Y-208355492D01*
X199367812Y-208404727D01*
X199367813Y-208404730D01*
X199417046Y-208478414D01*
X199417052Y-208478421D01*
X202213181Y-211274548D01*
X202246666Y-211335871D01*
X202249500Y-211362229D01*
X202249500Y-217404661D01*
X202229815Y-217471700D01*
X202177011Y-217517455D01*
X202107853Y-217527399D01*
X202044297Y-217498374D01*
X202013118Y-217457066D01*
X201995800Y-217419929D01*
X201995792Y-217419913D01*
X201983455Y-217398546D01*
X201799300Y-217079579D01*
X201573889Y-216757659D01*
X201573888Y-216757658D01*
X201573884Y-216757652D01*
X201321275Y-216456607D01*
X201043392Y-216178724D01*
X200794794Y-215970124D01*
X200756092Y-215911953D01*
X200750500Y-215875135D01*
X200750500Y-211845532D01*
X200750499Y-211845528D01*
X200715913Y-211538562D01*
X200715910Y-211538544D01*
X200675667Y-211362229D01*
X200647168Y-211237364D01*
X200545135Y-210945771D01*
X200411095Y-210667435D01*
X200246735Y-210405857D01*
X200054120Y-210164326D01*
X199835674Y-209945880D01*
X199799522Y-209917050D01*
X199740213Y-209869752D01*
X199594143Y-209753265D01*
X199369677Y-209612224D01*
X199332562Y-209588903D01*
X199054236Y-209454868D01*
X199054222Y-209454862D01*
X198762647Y-209352835D01*
X198762635Y-209352831D01*
X198461455Y-209284089D01*
X198461437Y-209284086D01*
X198154471Y-209249500D01*
X198154465Y-209249500D01*
X197845535Y-209249500D01*
X197845528Y-209249500D01*
X197538562Y-209284086D01*
X197538544Y-209284089D01*
X197237364Y-209352831D01*
X197237352Y-209352835D01*
X196945777Y-209454862D01*
X196945763Y-209454868D01*
X196667437Y-209588903D01*
X196405858Y-209753264D01*
X196164326Y-209945879D01*
X195945879Y-210164326D01*
X195753264Y-210405858D01*
X195629493Y-210602839D01*
X195577158Y-210649130D01*
X195508105Y-210659778D01*
X195444256Y-210631403D01*
X195405884Y-210573014D01*
X195400499Y-210536867D01*
X195400499Y-210052129D01*
X195400498Y-210052123D01*
X195400497Y-210052116D01*
X195394091Y-209992517D01*
X195376696Y-209945879D01*
X195343797Y-209857671D01*
X195343793Y-209857664D01*
X195257547Y-209742455D01*
X195257544Y-209742452D01*
X195142335Y-209656206D01*
X195142328Y-209656202D01*
X195007482Y-209605908D01*
X195007483Y-209605908D01*
X194947883Y-209599501D01*
X194947881Y-209599500D01*
X194947873Y-209599500D01*
X194947864Y-209599500D01*
X191052129Y-209599500D01*
X191052123Y-209599501D01*
X190992516Y-209605908D01*
X190857671Y-209656202D01*
X190857664Y-209656206D01*
X190742455Y-209742452D01*
X190742452Y-209742455D01*
X190656206Y-209857664D01*
X190656202Y-209857671D01*
X190605908Y-209992517D01*
X190599830Y-210049054D01*
X190599501Y-210052123D01*
X190599500Y-210052135D01*
X190599500Y-213947870D01*
X190599501Y-213947876D01*
X190605908Y-214007483D01*
X190656202Y-214142328D01*
X190656206Y-214142335D01*
X190742452Y-214257544D01*
X190742455Y-214257547D01*
X190857664Y-214343793D01*
X190857671Y-214343797D01*
X190992517Y-214394091D01*
X190992516Y-214394091D01*
X190998525Y-214394737D01*
X191052127Y-214400500D01*
X194947872Y-214400499D01*
X195007483Y-214394091D01*
X195082167Y-214366236D01*
X195151859Y-214361252D01*
X195213182Y-214394737D01*
X195246666Y-214456061D01*
X195249500Y-214482418D01*
X195249500Y-215875135D01*
X195229815Y-215942174D01*
X195205206Y-215970124D01*
X194956607Y-216178724D01*
X189172151Y-221963181D01*
X189110828Y-221996666D01*
X189084470Y-221999500D01*
X168415530Y-221999500D01*
X168348491Y-221979815D01*
X168327849Y-221963181D01*
X165086819Y-218722151D01*
X165053334Y-218660828D01*
X165050500Y-218634470D01*
X165050500Y-215303503D01*
X165050499Y-215303502D01*
X165016249Y-214912007D01*
X164948007Y-214524985D01*
X164846293Y-214145384D01*
X164711881Y-213776092D01*
X164711876Y-213776083D01*
X164711875Y-213776078D01*
X164545804Y-213419937D01*
X164545792Y-213419913D01*
X164533455Y-213398546D01*
X164349300Y-213079579D01*
X164123889Y-212757659D01*
X164123888Y-212757658D01*
X164123884Y-212757652D01*
X163871275Y-212456606D01*
X163746160Y-212331491D01*
X176549500Y-212331491D01*
X176549500Y-218668508D01*
X176587231Y-219003381D01*
X176587233Y-219003397D01*
X176662223Y-219331953D01*
X176662227Y-219331965D01*
X176773532Y-219650054D01*
X176919752Y-219953683D01*
X176919754Y-219953686D01*
X177099054Y-220239039D01*
X177309175Y-220502523D01*
X177547477Y-220740825D01*
X177810961Y-220950946D01*
X178096314Y-221130246D01*
X178399949Y-221276469D01*
X178638848Y-221360063D01*
X178718034Y-221387772D01*
X178718046Y-221387776D01*
X179046606Y-221462767D01*
X179381492Y-221500499D01*
X179381493Y-221500500D01*
X179381496Y-221500500D01*
X179718507Y-221500500D01*
X179718507Y-221500499D01*
X180053394Y-221462767D01*
X180381954Y-221387776D01*
X180700051Y-221276469D01*
X181003686Y-221130246D01*
X181289039Y-220950946D01*
X181552523Y-220740825D01*
X181790825Y-220502523D01*
X182000946Y-220239039D01*
X182180246Y-219953686D01*
X182326469Y-219650051D01*
X182437776Y-219331954D01*
X182512767Y-219003394D01*
X182550500Y-218668504D01*
X182550500Y-212331496D01*
X182512767Y-211996606D01*
X182437776Y-211668046D01*
X182326469Y-211349949D01*
X182180246Y-211046314D01*
X182000946Y-210760961D01*
X181790825Y-210497477D01*
X181552523Y-210259175D01*
X181289039Y-210049054D01*
X181003686Y-209869754D01*
X181003683Y-209869752D01*
X180700054Y-209723532D01*
X180381965Y-209612227D01*
X180381953Y-209612223D01*
X180053397Y-209537233D01*
X180053381Y-209537231D01*
X179718508Y-209499500D01*
X179718504Y-209499500D01*
X179381496Y-209499500D01*
X179381491Y-209499500D01*
X179046618Y-209537231D01*
X179046602Y-209537233D01*
X178718046Y-209612223D01*
X178718034Y-209612227D01*
X178399945Y-209723532D01*
X178096316Y-209869752D01*
X177810962Y-210049053D01*
X177547477Y-210259174D01*
X177309174Y-210497477D01*
X177099053Y-210760962D01*
X176919752Y-211046316D01*
X176773532Y-211349945D01*
X176662227Y-211668034D01*
X176662223Y-211668046D01*
X176587233Y-211996602D01*
X176587231Y-211996618D01*
X176549500Y-212331491D01*
X163746160Y-212331491D01*
X163593410Y-212178740D01*
X163593397Y-212178728D01*
X163593391Y-212178722D01*
X163564973Y-212154876D01*
X163526273Y-212096706D01*
X163521461Y-212073771D01*
X163512769Y-211996622D01*
X163512768Y-211996616D01*
X163512767Y-211996606D01*
X163437776Y-211668046D01*
X163326469Y-211349949D01*
X163180246Y-211046314D01*
X163000946Y-210760961D01*
X162790825Y-210497477D01*
X162552523Y-210259175D01*
X162289039Y-210049054D01*
X162003686Y-209869754D01*
X162003683Y-209869752D01*
X161700054Y-209723532D01*
X161381965Y-209612227D01*
X161381953Y-209612223D01*
X161053397Y-209537233D01*
X161053381Y-209537231D01*
X160718508Y-209499500D01*
X160718504Y-209499500D01*
X160381496Y-209499500D01*
X160381491Y-209499500D01*
X160046618Y-209537231D01*
X160046602Y-209537233D01*
X159718046Y-209612223D01*
X159718034Y-209612227D01*
X159399945Y-209723532D01*
X159096316Y-209869752D01*
X158810962Y-210049053D01*
X158547477Y-210259174D01*
X158309174Y-210497477D01*
X158099053Y-210760962D01*
X157919752Y-211046316D01*
X157773532Y-211349945D01*
X157662227Y-211668034D01*
X157662223Y-211668046D01*
X157587233Y-211996602D01*
X157587231Y-211996616D01*
X157578537Y-212073774D01*
X157551470Y-212138188D01*
X157535025Y-212154876D01*
X157506629Y-212178704D01*
X157506600Y-212178730D01*
X157228724Y-212456606D01*
X156976115Y-212757652D01*
X156750704Y-213079572D01*
X156750695Y-213079587D01*
X156554207Y-213419913D01*
X156554195Y-213419937D01*
X156388124Y-213776078D01*
X156254817Y-214142335D01*
X156253707Y-214145384D01*
X156206502Y-214321555D01*
X156151993Y-214524983D01*
X156151991Y-214524994D01*
X156083751Y-214912000D01*
X156083751Y-214912004D01*
X156049500Y-215303499D01*
X156049500Y-220350901D01*
X156049499Y-220350951D01*
X144750500Y-220350951D01*
X144750500Y-203499999D01*
X154787180Y-203499999D01*
X154787180Y-203500000D01*
X154806820Y-203724491D01*
X154806821Y-203724498D01*
X154865145Y-203942165D01*
X154865149Y-203942176D01*
X154960382Y-204146404D01*
X154960385Y-204146410D01*
X155089643Y-204331011D01*
X155248988Y-204490356D01*
X155248991Y-204490358D01*
X155433590Y-204619615D01*
X155519798Y-204659814D01*
X155637823Y-204714850D01*
X155637825Y-204714850D01*
X155637830Y-204714853D01*
X155855504Y-204773179D01*
X156035100Y-204788891D01*
X156079999Y-204792820D01*
X156080000Y-204792820D01*
X156080001Y-204792820D01*
X156117416Y-204789546D01*
X156304496Y-204773179D01*
X156522170Y-204714853D01*
X156726410Y-204619615D01*
X156911009Y-204490358D01*
X157070358Y-204331009D01*
X157199615Y-204146410D01*
X157237618Y-204064912D01*
X157283790Y-204012472D01*
X157350983Y-203993320D01*
X157417865Y-204013535D01*
X157462382Y-204064912D01*
X157500382Y-204146404D01*
X157500385Y-204146410D01*
X157629643Y-204331011D01*
X157788988Y-204490356D01*
X157788991Y-204490358D01*
X157973590Y-204619615D01*
X158059798Y-204659814D01*
X158177823Y-204714850D01*
X158177825Y-204714850D01*
X158177830Y-204714853D01*
X158395504Y-204773179D01*
X158575100Y-204788891D01*
X158619999Y-204792820D01*
X158620000Y-204792820D01*
X158620001Y-204792820D01*
X158657416Y-204789546D01*
X158844496Y-204773179D01*
X159062170Y-204714853D01*
X159266410Y-204619615D01*
X159451009Y-204490358D01*
X159610358Y-204331009D01*
X159739615Y-204146410D01*
X159777618Y-204064912D01*
X159823790Y-204012472D01*
X159890983Y-203993320D01*
X159957865Y-204013535D01*
X160002382Y-204064912D01*
X160040382Y-204146404D01*
X160040385Y-204146410D01*
X160169643Y-204331011D01*
X160328988Y-204490356D01*
X160328991Y-204490358D01*
X160513590Y-204619615D01*
X160599798Y-204659814D01*
X160717823Y-204714850D01*
X160717825Y-204714850D01*
X160717830Y-204714853D01*
X160935504Y-204773179D01*
X161115100Y-204788891D01*
X161159999Y-204792820D01*
X161160000Y-204792820D01*
X161160001Y-204792820D01*
X161197416Y-204789546D01*
X161384496Y-204773179D01*
X161602170Y-204714853D01*
X161806410Y-204619615D01*
X161991009Y-204490358D01*
X162150358Y-204331009D01*
X162279615Y-204146410D01*
X162374853Y-203942170D01*
X162433179Y-203724496D01*
X162452820Y-203500000D01*
X162452820Y-203499999D01*
X175107180Y-203499999D01*
X175107180Y-203500000D01*
X175126820Y-203724491D01*
X175126821Y-203724498D01*
X175185145Y-203942165D01*
X175185149Y-203942176D01*
X175280382Y-204146404D01*
X175280385Y-204146410D01*
X175409643Y-204331011D01*
X175568988Y-204490356D01*
X175568991Y-204490358D01*
X175753590Y-204619615D01*
X175839798Y-204659814D01*
X175957823Y-204714850D01*
X175957825Y-204714850D01*
X175957830Y-204714853D01*
X176175504Y-204773179D01*
X176355100Y-204788891D01*
X176399999Y-204792820D01*
X176400000Y-204792820D01*
X176400001Y-204792820D01*
X176437416Y-204789546D01*
X176624496Y-204773179D01*
X176842170Y-204714853D01*
X177046410Y-204619615D01*
X177231009Y-204490358D01*
X177390358Y-204331009D01*
X177519615Y-204146410D01*
X177614853Y-203942170D01*
X177673179Y-203724496D01*
X177692820Y-203500000D01*
X177692820Y-203499999D01*
X180187180Y-203499999D01*
X180187180Y-203500000D01*
X180206820Y-203724491D01*
X180206821Y-203724498D01*
X180265145Y-203942165D01*
X180265149Y-203942176D01*
X180360382Y-204146404D01*
X180360385Y-204146410D01*
X180489643Y-204331011D01*
X180648988Y-204490356D01*
X180648991Y-204490358D01*
X180833590Y-204619615D01*
X180919798Y-204659814D01*
X181037823Y-204714850D01*
X181037825Y-204714850D01*
X181037830Y-204714853D01*
X181255504Y-204773179D01*
X181435100Y-204788891D01*
X181479999Y-204792820D01*
X181480000Y-204792820D01*
X181480001Y-204792820D01*
X181517416Y-204789546D01*
X181704496Y-204773179D01*
X181922170Y-204714853D01*
X182126410Y-204619615D01*
X182311009Y-204490358D01*
X182470358Y-204331009D01*
X182599615Y-204146410D01*
X182694853Y-203942170D01*
X182746346Y-203749996D01*
X189194435Y-203749996D01*
X189194435Y-203750003D01*
X189214630Y-203929249D01*
X189214631Y-203929254D01*
X189274211Y-204099523D01*
X189370184Y-204252262D01*
X189497738Y-204379816D01*
X189650478Y-204475789D01*
X189692114Y-204490358D01*
X189820745Y-204535368D01*
X189820750Y-204535369D01*
X189999996Y-204555565D01*
X190000000Y-204555565D01*
X190000004Y-204555565D01*
X190179249Y-204535369D01*
X190179252Y-204535368D01*
X190179255Y-204535368D01*
X190349522Y-204475789D01*
X190419202Y-204432005D01*
X190485174Y-204413000D01*
X192200270Y-204413000D01*
X192267309Y-204432685D01*
X192287951Y-204449319D01*
X192406344Y-204567712D01*
X192555666Y-204659814D01*
X192722203Y-204714999D01*
X192824991Y-204725500D01*
X194175008Y-204725499D01*
X194277797Y-204714999D01*
X194444334Y-204659814D01*
X194593656Y-204567712D01*
X194717712Y-204443656D01*
X194809814Y-204294334D01*
X194864999Y-204127797D01*
X194875500Y-204025009D01*
X194875499Y-203299992D01*
X194864999Y-203197203D01*
X194809814Y-203030666D01*
X194717712Y-202881344D01*
X194593656Y-202757288D01*
X194444334Y-202665186D01*
X194277797Y-202610001D01*
X194277795Y-202610000D01*
X194175010Y-202599500D01*
X192824998Y-202599500D01*
X192824981Y-202599501D01*
X192722203Y-202610000D01*
X192722200Y-202610001D01*
X192555668Y-202665185D01*
X192555663Y-202665187D01*
X192406342Y-202757289D01*
X192287951Y-202875681D01*
X192226628Y-202909166D01*
X192200270Y-202912000D01*
X190013576Y-202912000D01*
X189984742Y-202917734D01*
X189984743Y-202917735D01*
X189868593Y-202940839D01*
X189868587Y-202940841D01*
X189828584Y-202957411D01*
X189788580Y-202973981D01*
X189780158Y-202977469D01*
X189762164Y-202984922D01*
X189755673Y-202987400D01*
X189650474Y-203024212D01*
X189497737Y-203120184D01*
X189370184Y-203247737D01*
X189274211Y-203400476D01*
X189214631Y-203570745D01*
X189214630Y-203570750D01*
X189194435Y-203749996D01*
X182746346Y-203749996D01*
X182753179Y-203724496D01*
X182772820Y-203500000D01*
X182753179Y-203275504D01*
X182694853Y-203057830D01*
X182599615Y-202853590D01*
X182470358Y-202668991D01*
X182470356Y-202668988D01*
X182311011Y-202509643D01*
X182126410Y-202380385D01*
X182126404Y-202380382D01*
X181922176Y-202285149D01*
X181922165Y-202285145D01*
X181704498Y-202226821D01*
X181704491Y-202226820D01*
X181480001Y-202207180D01*
X181479999Y-202207180D01*
X181255508Y-202226820D01*
X181255501Y-202226821D01*
X181037834Y-202285145D01*
X181037823Y-202285149D01*
X180833595Y-202380382D01*
X180833589Y-202380385D01*
X180648988Y-202509643D01*
X180489643Y-202668988D01*
X180360385Y-202853589D01*
X180360382Y-202853595D01*
X180265149Y-203057823D01*
X180265145Y-203057834D01*
X180206821Y-203275501D01*
X180206820Y-203275508D01*
X180187180Y-203499999D01*
X177692820Y-203499999D01*
X177673179Y-203275504D01*
X177614853Y-203057830D01*
X177519615Y-202853590D01*
X177390358Y-202668991D01*
X177390356Y-202668988D01*
X177231011Y-202509643D01*
X177046410Y-202380385D01*
X177046404Y-202380382D01*
X176842176Y-202285149D01*
X176842165Y-202285145D01*
X176624498Y-202226821D01*
X176624491Y-202226820D01*
X176400001Y-202207180D01*
X176399999Y-202207180D01*
X176175508Y-202226820D01*
X176175501Y-202226821D01*
X175957834Y-202285145D01*
X175957823Y-202285149D01*
X175753595Y-202380382D01*
X175753589Y-202380385D01*
X175568988Y-202509643D01*
X175409643Y-202668988D01*
X175280385Y-202853589D01*
X175280382Y-202853595D01*
X175185149Y-203057823D01*
X175185145Y-203057834D01*
X175126821Y-203275501D01*
X175126820Y-203275508D01*
X175107180Y-203499999D01*
X162452820Y-203499999D01*
X162433179Y-203275504D01*
X162374853Y-203057830D01*
X162279615Y-202853590D01*
X162150358Y-202668991D01*
X162150356Y-202668988D01*
X161991011Y-202509643D01*
X161806410Y-202380385D01*
X161806404Y-202380382D01*
X161602176Y-202285149D01*
X161602165Y-202285145D01*
X161384498Y-202226821D01*
X161384491Y-202226820D01*
X161160001Y-202207180D01*
X161159999Y-202207180D01*
X160935508Y-202226820D01*
X160935501Y-202226821D01*
X160717834Y-202285145D01*
X160717823Y-202285149D01*
X160513595Y-202380382D01*
X160513589Y-202380385D01*
X160328988Y-202509643D01*
X160169643Y-202668988D01*
X160040385Y-202853589D01*
X160040384Y-202853591D01*
X160002382Y-202935088D01*
X159956210Y-202987527D01*
X159889016Y-203006679D01*
X159822135Y-202986463D01*
X159777618Y-202935088D01*
X159739615Y-202853591D01*
X159739614Y-202853589D01*
X159610356Y-202668988D01*
X159451011Y-202509643D01*
X159266410Y-202380385D01*
X159266404Y-202380382D01*
X159062176Y-202285149D01*
X159062165Y-202285145D01*
X158844498Y-202226821D01*
X158844491Y-202226820D01*
X158620001Y-202207180D01*
X158619999Y-202207180D01*
X158395508Y-202226820D01*
X158395501Y-202226821D01*
X158177834Y-202285145D01*
X158177823Y-202285149D01*
X157973595Y-202380382D01*
X157973589Y-202380385D01*
X157788988Y-202509643D01*
X157629643Y-202668988D01*
X157500385Y-202853589D01*
X157500384Y-202853591D01*
X157462382Y-202935088D01*
X157416210Y-202987527D01*
X157349016Y-203006679D01*
X157282135Y-202986463D01*
X157237618Y-202935088D01*
X157199615Y-202853591D01*
X157199614Y-202853589D01*
X157070356Y-202668988D01*
X156911011Y-202509643D01*
X156726410Y-202380385D01*
X156726404Y-202380382D01*
X156522176Y-202285149D01*
X156522165Y-202285145D01*
X156304498Y-202226821D01*
X156304491Y-202226820D01*
X156080001Y-202207180D01*
X156079999Y-202207180D01*
X155855508Y-202226820D01*
X155855501Y-202226821D01*
X155637834Y-202285145D01*
X155637823Y-202285149D01*
X155433595Y-202380382D01*
X155433589Y-202380385D01*
X155248988Y-202509643D01*
X155089643Y-202668988D01*
X154960385Y-202853589D01*
X154960382Y-202853595D01*
X154865149Y-203057823D01*
X154865145Y-203057834D01*
X154806821Y-203275501D01*
X154806820Y-203275508D01*
X154787180Y-203499999D01*
X144750500Y-203499999D01*
X144750500Y-195000000D01*
X167869533Y-195000000D01*
X167889375Y-195290099D01*
X167889376Y-195290101D01*
X167948532Y-195574782D01*
X167948537Y-195574798D01*
X168045910Y-195848776D01*
X168045909Y-195848776D01*
X168179688Y-196106957D01*
X168179692Y-196106963D01*
X168347367Y-196344505D01*
X168347371Y-196344509D01*
X168347373Y-196344512D01*
X168545843Y-196557022D01*
X168545848Y-196557026D01*
X168545850Y-196557028D01*
X168771395Y-196740522D01*
X168771398Y-196740524D01*
X168771402Y-196740527D01*
X168901740Y-196819787D01*
X169019848Y-196891611D01*
X169286545Y-197007454D01*
X169286550Y-197007456D01*
X169566544Y-197085906D01*
X169819801Y-197120715D01*
X169854611Y-197125500D01*
X169854612Y-197125500D01*
X170145389Y-197125500D01*
X170176445Y-197121231D01*
X170433456Y-197085906D01*
X170713450Y-197007456D01*
X170980153Y-196891610D01*
X171228598Y-196740527D01*
X171454157Y-196557022D01*
X171652627Y-196344512D01*
X171820312Y-196106956D01*
X171954088Y-195848780D01*
X171954088Y-195848779D01*
X171954090Y-195848776D01*
X172051462Y-195574798D01*
X172051467Y-195574782D01*
X172086495Y-195406216D01*
X172110624Y-195290099D01*
X172130467Y-195000000D01*
X172110624Y-194709901D01*
X172086495Y-194593784D01*
X172051467Y-194425217D01*
X172051462Y-194425201D01*
X171954089Y-194151223D01*
X171954090Y-194151223D01*
X171820311Y-193893042D01*
X171820307Y-193893036D01*
X171652632Y-193655494D01*
X171652628Y-193655490D01*
X171652627Y-193655488D01*
X171454157Y-193442978D01*
X171454150Y-193442973D01*
X171454149Y-193442971D01*
X171228604Y-193259477D01*
X171228593Y-193259470D01*
X170980151Y-193108388D01*
X170713454Y-192992545D01*
X170433462Y-192914095D01*
X170433457Y-192914094D01*
X170433456Y-192914094D01*
X170289422Y-192894297D01*
X170145389Y-192874500D01*
X170145388Y-192874500D01*
X169854612Y-192874500D01*
X169854611Y-192874500D01*
X169566544Y-192914094D01*
X169566537Y-192914095D01*
X169286545Y-192992545D01*
X169019848Y-193108388D01*
X168771406Y-193259470D01*
X168771395Y-193259477D01*
X168545850Y-193442971D01*
X168347367Y-193655494D01*
X168179692Y-193893036D01*
X168179688Y-193893042D01*
X168045909Y-194151223D01*
X167948537Y-194425201D01*
X167948532Y-194425217D01*
X167889376Y-194709898D01*
X167889375Y-194709900D01*
X167869533Y-195000000D01*
X144750500Y-195000000D01*
X144750500Y-193862230D01*
X144770185Y-193795191D01*
X144786819Y-193774549D01*
X153592496Y-184968872D01*
X174399500Y-184968872D01*
X174399500Y-188391127D01*
X174426123Y-188593339D01*
X174433730Y-188651116D01*
X174501602Y-188904418D01*
X174501605Y-188904428D01*
X174601953Y-189146690D01*
X174601958Y-189146700D01*
X174733075Y-189373803D01*
X174892718Y-189581851D01*
X174892726Y-189581860D01*
X175078140Y-189767274D01*
X175078148Y-189767281D01*
X175286196Y-189926924D01*
X175513299Y-190058041D01*
X175513309Y-190058046D01*
X175755571Y-190158394D01*
X175755581Y-190158398D01*
X176008884Y-190226270D01*
X176268880Y-190260500D01*
X176268887Y-190260500D01*
X176531113Y-190260500D01*
X176531120Y-190260500D01*
X176791116Y-190226270D01*
X177044419Y-190158398D01*
X177286697Y-190058043D01*
X177513803Y-189926924D01*
X177721851Y-189767282D01*
X177721855Y-189767277D01*
X177721860Y-189767274D01*
X177907274Y-189581860D01*
X177907277Y-189581855D01*
X177907282Y-189581851D01*
X178066924Y-189373803D01*
X178198043Y-189146697D01*
X178298398Y-188904419D01*
X178366270Y-188651116D01*
X178400500Y-188391120D01*
X178400500Y-188128872D01*
X179479500Y-188128872D01*
X179479500Y-188391127D01*
X179506123Y-188593339D01*
X179513730Y-188651116D01*
X179581602Y-188904418D01*
X179581605Y-188904428D01*
X179681953Y-189146690D01*
X179681958Y-189146700D01*
X179813075Y-189373803D01*
X179972718Y-189581851D01*
X179972726Y-189581860D01*
X180158140Y-189767274D01*
X180158148Y-189767281D01*
X180366196Y-189926924D01*
X180593299Y-190058041D01*
X180593309Y-190058046D01*
X180835571Y-190158394D01*
X180835581Y-190158398D01*
X181088884Y-190226270D01*
X181348880Y-190260500D01*
X182380004Y-190260500D01*
X182447043Y-190280185D01*
X182467685Y-190296819D01*
X184678141Y-192507276D01*
X184678146Y-192507280D01*
X184678149Y-192507283D01*
X184696783Y-192521581D01*
X184723824Y-192542330D01*
X184723825Y-192542332D01*
X184886197Y-192666924D01*
X185019344Y-192743796D01*
X185113299Y-192798041D01*
X185113300Y-192798041D01*
X185113303Y-192798043D01*
X185355581Y-192898398D01*
X185608884Y-192966271D01*
X185738882Y-192983385D01*
X185868880Y-193000500D01*
X185868887Y-193000500D01*
X192936113Y-193000500D01*
X192936120Y-193000500D01*
X193196116Y-192966270D01*
X193449419Y-192898398D01*
X193662979Y-192809937D01*
X193710432Y-192800499D01*
X194152871Y-192800499D01*
X194152872Y-192800499D01*
X194212483Y-192794091D01*
X194347331Y-192743796D01*
X194462546Y-192657546D01*
X194548796Y-192542331D01*
X194599091Y-192407483D01*
X194605500Y-192347873D01*
X194605499Y-191905429D01*
X194614938Y-191857977D01*
X194703398Y-191644419D01*
X194771270Y-191391116D01*
X194805500Y-191131120D01*
X194805500Y-190868880D01*
X194771270Y-190608884D01*
X194703398Y-190355581D01*
X194621722Y-190158397D01*
X194614938Y-190142019D01*
X194605499Y-190094566D01*
X194605499Y-189652129D01*
X194605498Y-189652123D01*
X194599091Y-189592516D01*
X194548797Y-189457671D01*
X194548793Y-189457664D01*
X194462547Y-189342455D01*
X194462544Y-189342452D01*
X194347335Y-189256206D01*
X194347328Y-189256202D01*
X194212482Y-189205908D01*
X194212483Y-189205908D01*
X194152883Y-189199501D01*
X194152881Y-189199500D01*
X194152873Y-189199500D01*
X194152865Y-189199500D01*
X193710430Y-189199500D01*
X193662977Y-189190061D01*
X193449419Y-189101602D01*
X193196116Y-189033730D01*
X193138339Y-189026123D01*
X192936127Y-188999500D01*
X192936120Y-188999500D01*
X186879996Y-188999500D01*
X186812957Y-188979815D01*
X186792315Y-188963181D01*
X184581856Y-186752721D01*
X184581849Y-186752715D01*
X184440714Y-186644419D01*
X184440712Y-186644417D01*
X184373802Y-186593075D01*
X184146700Y-186461958D01*
X184146690Y-186461954D01*
X183904419Y-186361602D01*
X183651116Y-186293729D01*
X183651115Y-186293728D01*
X183651112Y-186293728D01*
X183521118Y-186276615D01*
X183391127Y-186259500D01*
X183391120Y-186259500D01*
X181348880Y-186259500D01*
X181348872Y-186259500D01*
X181117772Y-186289926D01*
X181088884Y-186293730D01*
X180835581Y-186361602D01*
X180835571Y-186361605D01*
X180593309Y-186461953D01*
X180593299Y-186461958D01*
X180366196Y-186593075D01*
X180158148Y-186752718D01*
X179972718Y-186938148D01*
X179813075Y-187146196D01*
X179681958Y-187373299D01*
X179681953Y-187373309D01*
X179581605Y-187615571D01*
X179581602Y-187615581D01*
X179513730Y-187868885D01*
X179479500Y-188128872D01*
X178400500Y-188128872D01*
X178400500Y-185979996D01*
X178420185Y-185912957D01*
X178436819Y-185892315D01*
X178792315Y-185536819D01*
X178853638Y-185503334D01*
X178879996Y-185500500D01*
X190680500Y-185500500D01*
X190747539Y-185520185D01*
X190793294Y-185572989D01*
X190804500Y-185624500D01*
X190804500Y-186131127D01*
X190831123Y-186333339D01*
X190838730Y-186391116D01*
X190906602Y-186644418D01*
X190906602Y-186644419D01*
X191006953Y-186886690D01*
X191006958Y-186886700D01*
X191138075Y-187113803D01*
X191297718Y-187321851D01*
X191297726Y-187321860D01*
X191483140Y-187507274D01*
X191483148Y-187507281D01*
X191691196Y-187666924D01*
X191918299Y-187798041D01*
X191918309Y-187798046D01*
X192089330Y-187868885D01*
X192160581Y-187898398D01*
X192413884Y-187966270D01*
X192673880Y-188000500D01*
X192673887Y-188000500D01*
X192936113Y-188000500D01*
X192936120Y-188000500D01*
X193196116Y-187966270D01*
X193449419Y-187898398D01*
X193691697Y-187798043D01*
X193918803Y-187666924D01*
X194126851Y-187507282D01*
X194126855Y-187507277D01*
X194126860Y-187507274D01*
X194312274Y-187321860D01*
X194312277Y-187321855D01*
X194312282Y-187321851D01*
X194471924Y-187113803D01*
X194603043Y-186886697D01*
X194703398Y-186644419D01*
X194771270Y-186391116D01*
X194805500Y-186131120D01*
X194805500Y-184173880D01*
X194780791Y-183986198D01*
X194771271Y-183913884D01*
X194703398Y-183660581D01*
X194603043Y-183418303D01*
X194566784Y-183355501D01*
X194535871Y-183301957D01*
X194471924Y-183191197D01*
X194381934Y-183073920D01*
X194381931Y-183073917D01*
X194312284Y-182983150D01*
X194312278Y-182983143D01*
X193321856Y-181992721D01*
X193321849Y-181992715D01*
X193204131Y-181902388D01*
X193204130Y-181902387D01*
X193113805Y-181833077D01*
X193081260Y-181814287D01*
X193033045Y-181763719D01*
X193019823Y-181695112D01*
X193045791Y-181630247D01*
X193102706Y-181589719D01*
X193162663Y-181584428D01*
X193170629Y-181585690D01*
X193453282Y-181600503D01*
X193547499Y-181605441D01*
X193547500Y-181605441D01*
X193547501Y-181605441D01*
X193567252Y-181604405D01*
X193924371Y-181585690D01*
X194297113Y-181526653D01*
X194661643Y-181428978D01*
X195013965Y-181293734D01*
X195350221Y-181122403D01*
X195666725Y-180916863D01*
X195960011Y-180679365D01*
X196226865Y-180412511D01*
X196464363Y-180119225D01*
X196669903Y-179802721D01*
X196841234Y-179466465D01*
X196976478Y-179114143D01*
X197074153Y-178749613D01*
X197133190Y-178376871D01*
X197152941Y-178000000D01*
X197133190Y-177623129D01*
X197074153Y-177250387D01*
X196976478Y-176885857D01*
X196841234Y-176533535D01*
X196669903Y-176197280D01*
X196464363Y-175880775D01*
X196226865Y-175587489D01*
X195960011Y-175320635D01*
X195666725Y-175083137D01*
X195666723Y-175083135D01*
X195350225Y-174877599D01*
X195013968Y-174706267D01*
X194661647Y-174571023D01*
X194297114Y-174473347D01*
X194297107Y-174473346D01*
X193924372Y-174414310D01*
X193547501Y-174394559D01*
X193547499Y-174394559D01*
X193170627Y-174414310D01*
X192797892Y-174473346D01*
X192797885Y-174473347D01*
X192433352Y-174571023D01*
X192081031Y-174706267D01*
X191744775Y-174877599D01*
X191428276Y-175083135D01*
X191134993Y-175320631D01*
X191134985Y-175320638D01*
X190868138Y-175587485D01*
X190868131Y-175587493D01*
X190630635Y-175880776D01*
X190425099Y-176197275D01*
X190253767Y-176533531D01*
X190118523Y-176885852D01*
X190020847Y-177250385D01*
X190020846Y-177250392D01*
X189961810Y-177623127D01*
X189942059Y-177999999D01*
X189942059Y-178000000D01*
X189961810Y-178376872D01*
X190020846Y-178749607D01*
X190020847Y-178749614D01*
X190118523Y-179114147D01*
X190253767Y-179466468D01*
X190425099Y-179802725D01*
X190630635Y-180119223D01*
X190630637Y-180119225D01*
X190868135Y-180412511D01*
X191134989Y-180679365D01*
X191134993Y-180679368D01*
X191428276Y-180916864D01*
X191744774Y-181122400D01*
X191744779Y-181122403D01*
X192024671Y-181265015D01*
X192075467Y-181312989D01*
X192092262Y-181380810D01*
X192069725Y-181446945D01*
X192015010Y-181490397D01*
X191968376Y-181499500D01*
X177868872Y-181499500D01*
X177721768Y-181518868D01*
X177721767Y-181518868D01*
X177608888Y-181533728D01*
X177355580Y-181601602D01*
X177113314Y-181701951D01*
X177113299Y-181701958D01*
X176886201Y-181833072D01*
X176836689Y-181871064D01*
X176795868Y-181902388D01*
X176678150Y-181992715D01*
X176678143Y-181992721D01*
X174892721Y-183778143D01*
X174892715Y-183778150D01*
X174806036Y-183891115D01*
X174806035Y-183891116D01*
X174733075Y-183986196D01*
X174641727Y-184144419D01*
X174601958Y-184213299D01*
X174601954Y-184213309D01*
X174501602Y-184455580D01*
X174433728Y-184708887D01*
X174424585Y-184778342D01*
X174424585Y-184778343D01*
X174399500Y-184968872D01*
X153592496Y-184968872D01*
X158582947Y-179978421D01*
X158582952Y-179978416D01*
X158651717Y-179875500D01*
X158665084Y-179855495D01*
X158721658Y-179718913D01*
X158750500Y-179573918D01*
X158750500Y-139799972D01*
X158757458Y-139759017D01*
X158785368Y-139679254D01*
X158785369Y-139679249D01*
X158805565Y-139500003D01*
X158805565Y-139499996D01*
X158785369Y-139320750D01*
X158785368Y-139320745D01*
X158725788Y-139150476D01*
X158629815Y-138997737D01*
X158502262Y-138870184D01*
X158349523Y-138774211D01*
X158179254Y-138714631D01*
X158179249Y-138714630D01*
X158000004Y-138694435D01*
X157999996Y-138694435D01*
X157820750Y-138714630D01*
X157820742Y-138714632D01*
X157665454Y-138768970D01*
X157595676Y-138772531D01*
X157535048Y-138737802D01*
X157502821Y-138675809D01*
X157500500Y-138651928D01*
X157500500Y-138299972D01*
X157507458Y-138259017D01*
X157535368Y-138179254D01*
X157535369Y-138179249D01*
X157555565Y-138000003D01*
X157555565Y-137999996D01*
X173194435Y-137999996D01*
X173194435Y-138000003D01*
X173214630Y-138179249D01*
X173214631Y-138179254D01*
X173274211Y-138349523D01*
X173356832Y-138481013D01*
X173370184Y-138502262D01*
X173497738Y-138629816D01*
X173521913Y-138645006D01*
X173568204Y-138697341D01*
X173578852Y-138766395D01*
X173550477Y-138830243D01*
X173521913Y-138854994D01*
X173497737Y-138870184D01*
X173370184Y-138997737D01*
X173274211Y-139150476D01*
X173214631Y-139320745D01*
X173214630Y-139320750D01*
X173194435Y-139499996D01*
X173194435Y-139500003D01*
X173214630Y-139679249D01*
X173214631Y-139679254D01*
X173274211Y-139849523D01*
X173317111Y-139917797D01*
X173370184Y-140002262D01*
X173497738Y-140129816D01*
X173650478Y-140225789D01*
X173820745Y-140285368D01*
X173820750Y-140285369D01*
X173999996Y-140305565D01*
X174000000Y-140305565D01*
X174000004Y-140305565D01*
X174179249Y-140285369D01*
X174179252Y-140285368D01*
X174179255Y-140285368D01*
X174259017Y-140257457D01*
X174299972Y-140250500D01*
X200307770Y-140250500D01*
X200374809Y-140270185D01*
X200395451Y-140286819D01*
X200466344Y-140357712D01*
X200615666Y-140449814D01*
X200782203Y-140504999D01*
X200884991Y-140515500D01*
X202215008Y-140515499D01*
X202317797Y-140504999D01*
X202484334Y-140449814D01*
X202633656Y-140357712D01*
X202757712Y-140233656D01*
X202849814Y-140084334D01*
X202904999Y-139917797D01*
X202915500Y-139815009D01*
X202915499Y-139184992D01*
X202911973Y-139150478D01*
X202904999Y-139082203D01*
X202904998Y-139082200D01*
X202877010Y-138997738D01*
X202849814Y-138915666D01*
X202757712Y-138766344D01*
X202740690Y-138749322D01*
X202707205Y-138687999D01*
X202712189Y-138618307D01*
X202725269Y-138592750D01*
X202799925Y-138481020D01*
X202876475Y-138296211D01*
X202915500Y-138100018D01*
X202915500Y-137899982D01*
X202876475Y-137703789D01*
X202854392Y-137650476D01*
X202799928Y-137518986D01*
X202799921Y-137518973D01*
X202688792Y-137352657D01*
X202688791Y-137352656D01*
X202673816Y-137337681D01*
X202640331Y-137276361D01*
X202645314Y-137206669D01*
X202673816Y-137162318D01*
X202688791Y-137147344D01*
X202799925Y-136981020D01*
X202876475Y-136796211D01*
X202915500Y-136600018D01*
X202915500Y-136399982D01*
X202876475Y-136203789D01*
X202876473Y-136203784D01*
X202799928Y-136018986D01*
X202799921Y-136018973D01*
X202688791Y-135852656D01*
X202688788Y-135852652D01*
X202547347Y-135711211D01*
X202547343Y-135711208D01*
X202381026Y-135600078D01*
X202381013Y-135600071D01*
X202196215Y-135523526D01*
X202196203Y-135523523D01*
X202000022Y-135484500D01*
X202000018Y-135484500D01*
X201099982Y-135484500D01*
X201099977Y-135484500D01*
X200903796Y-135523523D01*
X200903784Y-135523526D01*
X200718986Y-135600071D01*
X200718973Y-135600078D01*
X200552656Y-135711208D01*
X200552652Y-135711211D01*
X200411211Y-135852652D01*
X200411208Y-135852656D01*
X200300078Y-136018973D01*
X200300071Y-136018986D01*
X200223526Y-136203784D01*
X200223523Y-136203796D01*
X200184500Y-136399977D01*
X200184500Y-136600022D01*
X200223523Y-136796203D01*
X200223526Y-136796215D01*
X200300071Y-136981013D01*
X200300081Y-136981031D01*
X200350581Y-137056610D01*
X200371459Y-137123287D01*
X200352974Y-137190667D01*
X200300995Y-137237357D01*
X200247479Y-137249500D01*
X174299972Y-137249500D01*
X174259017Y-137242542D01*
X174179254Y-137214631D01*
X174179249Y-137214630D01*
X174000004Y-137194435D01*
X173999996Y-137194435D01*
X173820750Y-137214630D01*
X173820745Y-137214631D01*
X173650476Y-137274211D01*
X173497737Y-137370184D01*
X173370184Y-137497737D01*
X173274211Y-137650476D01*
X173214631Y-137820745D01*
X173214630Y-137820750D01*
X173194435Y-137999996D01*
X157555565Y-137999996D01*
X157535369Y-137820750D01*
X157535368Y-137820745D01*
X157494443Y-137703789D01*
X157475789Y-137650478D01*
X157379816Y-137497738D01*
X157252262Y-137370184D01*
X157224368Y-137352657D01*
X157099523Y-137274211D01*
X156929254Y-137214631D01*
X156929249Y-137214630D01*
X156750004Y-137194435D01*
X156749996Y-137194435D01*
X156570750Y-137214630D01*
X156570745Y-137214631D01*
X156400476Y-137274211D01*
X156247737Y-137370184D01*
X156120184Y-137497737D01*
X156024211Y-137650476D01*
X155964631Y-137820745D01*
X155964630Y-137820750D01*
X155944435Y-137999996D01*
X155944435Y-138000003D01*
X155964630Y-138179249D01*
X155964631Y-138179254D01*
X155992542Y-138259017D01*
X155999500Y-138299972D01*
X155999500Y-178887770D01*
X155979815Y-178954809D01*
X155963181Y-178975451D01*
X142417050Y-192521581D01*
X142417048Y-192521584D01*
X142403186Y-192542331D01*
X142403184Y-192542332D01*
X142403184Y-192542333D01*
X142334916Y-192644503D01*
X142334914Y-192644506D01*
X142278343Y-192781082D01*
X142278340Y-192781092D01*
X142249500Y-192926079D01*
X142249500Y-291637769D01*
X142229815Y-291704808D01*
X142213181Y-291725450D01*
X133917050Y-300021580D01*
X133917044Y-300021588D01*
X133867812Y-300095268D01*
X133867813Y-300095269D01*
X133834921Y-300144496D01*
X133834914Y-300144508D01*
X133778342Y-300281086D01*
X133778340Y-300281092D01*
X133749500Y-300426079D01*
X133749500Y-300426082D01*
X133749500Y-309573918D01*
X133749500Y-309573920D01*
X133749499Y-309573920D01*
X133500500Y-309573920D01*
X133500500Y-275000000D01*
X134119533Y-275000000D01*
X134139375Y-275290099D01*
X134139376Y-275290101D01*
X134198532Y-275574782D01*
X134198537Y-275574798D01*
X134295910Y-275848776D01*
X134295909Y-275848776D01*
X134429688Y-276106957D01*
X134429692Y-276106963D01*
X134597367Y-276344505D01*
X134597371Y-276344509D01*
X134597373Y-276344512D01*
X134795843Y-276557022D01*
X134795848Y-276557026D01*
X134795850Y-276557028D01*
X135021395Y-276740522D01*
X135021398Y-276740524D01*
X135021402Y-276740527D01*
X135151740Y-276819787D01*
X135269848Y-276891611D01*
X135536545Y-277007454D01*
X135536550Y-277007456D01*
X135816544Y-277085906D01*
X136069801Y-277120715D01*
X136104611Y-277125500D01*
X136104612Y-277125500D01*
X136395389Y-277125500D01*
X136426445Y-277121231D01*
X136683456Y-277085906D01*
X136963450Y-277007456D01*
X137230153Y-276891610D01*
X137478598Y-276740527D01*
X137704157Y-276557022D01*
X137902627Y-276344512D01*
X138070312Y-276106956D01*
X138204088Y-275848780D01*
X138204088Y-275848779D01*
X138204090Y-275848776D01*
X138301462Y-275574798D01*
X138301467Y-275574782D01*
X138336495Y-275406216D01*
X138360624Y-275290099D01*
X138380467Y-275000000D01*
X138360624Y-274709901D01*
X138336495Y-274593784D01*
X138301467Y-274425217D01*
X138301462Y-274425201D01*
X138204089Y-274151223D01*
X138204090Y-274151223D01*
X138070311Y-273893042D01*
X138070307Y-273893036D01*
X137902632Y-273655494D01*
X137902628Y-273655490D01*
X137902627Y-273655488D01*
X137704157Y-273442978D01*
X137704150Y-273442973D01*
X137704149Y-273442971D01*
X137478604Y-273259477D01*
X137478593Y-273259470D01*
X137230151Y-273108388D01*
X136963454Y-272992545D01*
X136683462Y-272914095D01*
X136683457Y-272914094D01*
X136683456Y-272914094D01*
X136539422Y-272894297D01*
X136395389Y-272874500D01*
X136395388Y-272874500D01*
X136104612Y-272874500D01*
X136104611Y-272874500D01*
X135816544Y-272914094D01*
X135816537Y-272914095D01*
X135536545Y-272992545D01*
X135269848Y-273108388D01*
X135021406Y-273259470D01*
X135021395Y-273259477D01*
X134795850Y-273442971D01*
X134597367Y-273655494D01*
X134429692Y-273893036D01*
X134429688Y-273893042D01*
X134295909Y-274151223D01*
X134198537Y-274425201D01*
X134198532Y-274425217D01*
X134139376Y-274709898D01*
X134139375Y-274709900D01*
X134119533Y-275000000D01*
X133500500Y-275000000D01*
X133500500Y-244363160D01*
X136499500Y-244363160D01*
X136499500Y-265636839D01*
X136536765Y-265907964D01*
X136536766Y-265907970D01*
X136610602Y-266171493D01*
X136719633Y-266422509D01*
X136861829Y-266656341D01*
X137034542Y-266868634D01*
X137234560Y-267055439D01*
X137458135Y-267213255D01*
X137458141Y-267213259D01*
X137458143Y-267213260D01*
X137701136Y-267339169D01*
X137701139Y-267339170D01*
X137959004Y-267430816D01*
X137959020Y-267430821D01*
X138149255Y-267470351D01*
X138226960Y-267486498D01*
X138226961Y-267486499D01*
X138244441Y-267487694D01*
X138500000Y-267505175D01*
X138773038Y-267486499D01*
X138893620Y-267461441D01*
X139040979Y-267430821D01*
X139040985Y-267430818D01*
X139040990Y-267430818D01*
X139298864Y-267339169D01*
X139541857Y-267213260D01*
X139765442Y-267055437D01*
X139965454Y-266868638D01*
X140138168Y-266656345D01*
X140280365Y-266422511D01*
X140389398Y-266171492D01*
X140463235Y-265907965D01*
X140500500Y-265636838D01*
X140500500Y-265500000D01*
X140500500Y-265434108D01*
X140500500Y-244434108D01*
X140500500Y-244363162D01*
X140463235Y-244092035D01*
X140389398Y-243828508D01*
X140334614Y-243702382D01*
X140280366Y-243577490D01*
X140138170Y-243343658D01*
X139965457Y-243131365D01*
X139765439Y-242944560D01*
X139541864Y-242786744D01*
X139541858Y-242786740D01*
X139298860Y-242660829D01*
X139040995Y-242569183D01*
X139040979Y-242569178D01*
X138773040Y-242513501D01*
X138773038Y-242513500D01*
X138500000Y-242494825D01*
X138226961Y-242513500D01*
X138226959Y-242513501D01*
X137959020Y-242569178D01*
X137959004Y-242569183D01*
X137701139Y-242660829D01*
X137458141Y-242786740D01*
X137458135Y-242786744D01*
X137234560Y-242944560D01*
X137034542Y-243131365D01*
X136861829Y-243343658D01*
X136719633Y-243577490D01*
X136610602Y-243828506D01*
X136536766Y-244092029D01*
X136536765Y-244092035D01*
X136499500Y-244363160D01*
X133500500Y-244363160D01*
X133500500Y-195000000D01*
X134119533Y-195000000D01*
X134139375Y-195290099D01*
X134139376Y-195290101D01*
X134198532Y-195574782D01*
X134198537Y-195574798D01*
X134295910Y-195848776D01*
X134295909Y-195848776D01*
X134429688Y-196106957D01*
X134429692Y-196106963D01*
X134597367Y-196344505D01*
X134597371Y-196344509D01*
X134597373Y-196344512D01*
X134795843Y-196557022D01*
X134795848Y-196557026D01*
X134795850Y-196557028D01*
X135021395Y-196740522D01*
X135021398Y-196740524D01*
X135021402Y-196740527D01*
X135151740Y-196819787D01*
X135269848Y-196891611D01*
X135536545Y-197007454D01*
X135536550Y-197007456D01*
X135816544Y-197085906D01*
X136069801Y-197120715D01*
X136104611Y-197125500D01*
X136104612Y-197125500D01*
X136395389Y-197125500D01*
X136426445Y-197121231D01*
X136683456Y-197085906D01*
X136963450Y-197007456D01*
X137230153Y-196891610D01*
X137478598Y-196740527D01*
X137704157Y-196557022D01*
X137902627Y-196344512D01*
X138070312Y-196106956D01*
X138204088Y-195848780D01*
X138204088Y-195848779D01*
X138204090Y-195848776D01*
X138301462Y-195574798D01*
X138301467Y-195574782D01*
X138336495Y-195406216D01*
X138360624Y-195290099D01*
X138380467Y-195000000D01*
X138360624Y-194709901D01*
X138336495Y-194593784D01*
X138301467Y-194425217D01*
X138301462Y-194425201D01*
X138204089Y-194151223D01*
X138204090Y-194151223D01*
X138070311Y-193893042D01*
X138070307Y-193893036D01*
X137902632Y-193655494D01*
X137902628Y-193655490D01*
X137902627Y-193655488D01*
X137704157Y-193442978D01*
X137704150Y-193442973D01*
X137704149Y-193442971D01*
X137478604Y-193259477D01*
X137478593Y-193259470D01*
X137230151Y-193108388D01*
X136963454Y-192992545D01*
X136683462Y-192914095D01*
X136683457Y-192914094D01*
X136683456Y-192914094D01*
X136539422Y-192894297D01*
X136395389Y-192874500D01*
X136395388Y-192874500D01*
X136104612Y-192874500D01*
X136104611Y-192874500D01*
X135816544Y-192914094D01*
X135816537Y-192914095D01*
X135536545Y-192992545D01*
X135269848Y-193108388D01*
X135021406Y-193259470D01*
X135021395Y-193259477D01*
X134795850Y-193442971D01*
X134597367Y-193655494D01*
X134429692Y-193893036D01*
X134429688Y-193893042D01*
X134295909Y-194151223D01*
X134198537Y-194425201D01*
X134198532Y-194425217D01*
X134139376Y-194709898D01*
X134139375Y-194709900D01*
X134119533Y-195000000D01*
X133500500Y-195000000D01*
X133500500Y-177999999D01*
X140942059Y-177999999D01*
X140942059Y-178000000D01*
X140961810Y-178376872D01*
X141020846Y-178749607D01*
X141020847Y-178749614D01*
X141118523Y-179114147D01*
X141253767Y-179466468D01*
X141425099Y-179802725D01*
X141630635Y-180119223D01*
X141630637Y-180119225D01*
X141868135Y-180412511D01*
X142134989Y-180679365D01*
X142134993Y-180679368D01*
X142428276Y-180916864D01*
X142744774Y-181122400D01*
X142744779Y-181122403D01*
X143081035Y-181293734D01*
X143433357Y-181428978D01*
X143797887Y-181526653D01*
X144170629Y-181585690D01*
X144526655Y-181604348D01*
X144547499Y-181605441D01*
X144547500Y-181605441D01*
X144547501Y-181605441D01*
X144567252Y-181604405D01*
X144924371Y-181585690D01*
X145297113Y-181526653D01*
X145661643Y-181428978D01*
X146013965Y-181293734D01*
X146350221Y-181122403D01*
X146666725Y-180916863D01*
X146960011Y-180679365D01*
X147226865Y-180412511D01*
X147464363Y-180119225D01*
X147669903Y-179802721D01*
X147841234Y-179466465D01*
X147976478Y-179114143D01*
X148074153Y-178749613D01*
X148133190Y-178376871D01*
X148152941Y-178000000D01*
X148133190Y-177623129D01*
X148074153Y-177250387D01*
X147976478Y-176885857D01*
X147841234Y-176533535D01*
X147669903Y-176197280D01*
X147464363Y-175880775D01*
X147226865Y-175587489D01*
X146960011Y-175320635D01*
X146666725Y-175083137D01*
X146666723Y-175083135D01*
X146350225Y-174877599D01*
X146013968Y-174706267D01*
X145661647Y-174571023D01*
X145297114Y-174473347D01*
X145297107Y-174473346D01*
X144924372Y-174414310D01*
X144547501Y-174394559D01*
X144547499Y-174394559D01*
X144170627Y-174414310D01*
X143797892Y-174473346D01*
X143797885Y-174473347D01*
X143433352Y-174571023D01*
X143081031Y-174706267D01*
X142744775Y-174877599D01*
X142428276Y-175083135D01*
X142134993Y-175320631D01*
X142134985Y-175320638D01*
X141868138Y-175587485D01*
X141868131Y-175587493D01*
X141630635Y-175880776D01*
X141425099Y-176197275D01*
X141253767Y-176533531D01*
X141118523Y-176885852D01*
X141020847Y-177250385D01*
X141020846Y-177250392D01*
X140961810Y-177623127D01*
X140942059Y-177999999D01*
X133500500Y-177999999D01*
X133500500Y-119999999D01*
X140942059Y-119999999D01*
X140942059Y-120000000D01*
X140961810Y-120376872D01*
X141020846Y-120749607D01*
X141020847Y-120749614D01*
X141118523Y-121114147D01*
X141253767Y-121466468D01*
X141425099Y-121802725D01*
X141630635Y-122119223D01*
X141630637Y-122119225D01*
X141868135Y-122412511D01*
X142134989Y-122679365D01*
X142134993Y-122679368D01*
X142428276Y-122916864D01*
X142744774Y-123122400D01*
X142744779Y-123122403D01*
X143081035Y-123293734D01*
X143433357Y-123428978D01*
X143797887Y-123526653D01*
X144170629Y-123585690D01*
X144526655Y-123604348D01*
X144547499Y-123605441D01*
X144547500Y-123605441D01*
X144547501Y-123605441D01*
X144567252Y-123604405D01*
X144924371Y-123585690D01*
X145297113Y-123526653D01*
X145661643Y-123428978D01*
X146013965Y-123293734D01*
X146350221Y-123122403D01*
X146666725Y-122916863D01*
X146960011Y-122679365D01*
X147226865Y-122412511D01*
X147464363Y-122119225D01*
X147669903Y-121802721D01*
X147841234Y-121466465D01*
X147976478Y-121114143D01*
X148074153Y-120749613D01*
X148133190Y-120376871D01*
X148152941Y-120000000D01*
X148152941Y-119999999D01*
X189942059Y-119999999D01*
X189942059Y-120000000D01*
X189961810Y-120376872D01*
X190020846Y-120749607D01*
X190020847Y-120749614D01*
X190118523Y-121114147D01*
X190253767Y-121466468D01*
X190425099Y-121802725D01*
X190630635Y-122119223D01*
X190630637Y-122119225D01*
X190868135Y-122412511D01*
X191134989Y-122679365D01*
X191134993Y-122679368D01*
X191428276Y-122916864D01*
X191744774Y-123122400D01*
X191744779Y-123122403D01*
X192081035Y-123293734D01*
X192433357Y-123428978D01*
X192797887Y-123526653D01*
X193170629Y-123585690D01*
X193526655Y-123604348D01*
X193547499Y-123605441D01*
X193547500Y-123605441D01*
X193547501Y-123605441D01*
X193567252Y-123604405D01*
X193924371Y-123585690D01*
X194297113Y-123526653D01*
X194661643Y-123428978D01*
X195013965Y-123293734D01*
X195350221Y-123122403D01*
X195666725Y-122916863D01*
X195960011Y-122679365D01*
X196226865Y-122412511D01*
X196464363Y-122119225D01*
X196669903Y-121802721D01*
X196841234Y-121466465D01*
X196976478Y-121114143D01*
X197074153Y-120749613D01*
X197133190Y-120376871D01*
X197152941Y-120000000D01*
X197133190Y-119623129D01*
X197074153Y-119250387D01*
X196976478Y-118885857D01*
X196841234Y-118533535D01*
X196669903Y-118197280D01*
X196464363Y-117880775D01*
X196226865Y-117587489D01*
X195960011Y-117320635D01*
X195719039Y-117125500D01*
X195666723Y-117083135D01*
X195350225Y-116877599D01*
X195013968Y-116706267D01*
X194661647Y-116571023D01*
X194297114Y-116473347D01*
X194297107Y-116473346D01*
X193924372Y-116414310D01*
X193547501Y-116394559D01*
X193547499Y-116394559D01*
X193170627Y-116414310D01*
X192797892Y-116473346D01*
X192797885Y-116473347D01*
X192433352Y-116571023D01*
X192081031Y-116706267D01*
X191744775Y-116877599D01*
X191428276Y-117083135D01*
X191134993Y-117320631D01*
X191134985Y-117320638D01*
X190868138Y-117587485D01*
X190868131Y-117587493D01*
X190630635Y-117880776D01*
X190425099Y-118197275D01*
X190253767Y-118533531D01*
X190118523Y-118885852D01*
X190020847Y-119250385D01*
X190020846Y-119250392D01*
X189961810Y-119623127D01*
X189942059Y-119999999D01*
X148152941Y-119999999D01*
X148133190Y-119623129D01*
X148074153Y-119250387D01*
X147976478Y-118885857D01*
X147841234Y-118533535D01*
X147669903Y-118197280D01*
X147464363Y-117880775D01*
X147226865Y-117587489D01*
X146960011Y-117320635D01*
X146719039Y-117125500D01*
X146666723Y-117083135D01*
X146350225Y-116877599D01*
X146013968Y-116706267D01*
X145661647Y-116571023D01*
X145297114Y-116473347D01*
X145297107Y-116473346D01*
X144924372Y-116414310D01*
X144547501Y-116394559D01*
X144547499Y-116394559D01*
X144170627Y-116414310D01*
X143797892Y-116473346D01*
X143797885Y-116473347D01*
X143433352Y-116571023D01*
X143081031Y-116706267D01*
X142744775Y-116877599D01*
X142428276Y-117083135D01*
X142134993Y-117320631D01*
X142134985Y-117320638D01*
X141868138Y-117587485D01*
X141868131Y-117587493D01*
X141630635Y-117880776D01*
X141425099Y-118197275D01*
X141253767Y-118533531D01*
X141118523Y-118885852D01*
X141020847Y-119250385D01*
X141020846Y-119250392D01*
X140961810Y-119623127D01*
X140942059Y-119999999D01*
X133500500Y-119999999D01*
X133500500Y-115000000D01*
X134119533Y-115000000D01*
X134139375Y-115290099D01*
X134139376Y-115290101D01*
X134198532Y-115574782D01*
X134198537Y-115574798D01*
X134295910Y-115848776D01*
X134295909Y-115848776D01*
X134429688Y-116106957D01*
X134429692Y-116106963D01*
X134597367Y-116344505D01*
X134597371Y-116344509D01*
X134597373Y-116344512D01*
X134795843Y-116557022D01*
X134795848Y-116557026D01*
X134795850Y-116557028D01*
X135021395Y-116740522D01*
X135021398Y-116740524D01*
X135021402Y-116740527D01*
X135151740Y-116819787D01*
X135269848Y-116891611D01*
X135536545Y-117007454D01*
X135536550Y-117007456D01*
X135816544Y-117085906D01*
X136069801Y-117120715D01*
X136104611Y-117125500D01*
X136104612Y-117125500D01*
X136395389Y-117125500D01*
X136426445Y-117121231D01*
X136683456Y-117085906D01*
X136963450Y-117007456D01*
X137230153Y-116891610D01*
X137478598Y-116740527D01*
X137704157Y-116557022D01*
X137902627Y-116344512D01*
X138070312Y-116106956D01*
X138204088Y-115848780D01*
X138204088Y-115848779D01*
X138204090Y-115848776D01*
X138301462Y-115574798D01*
X138301467Y-115574782D01*
X138336495Y-115406216D01*
X138360624Y-115290099D01*
X138380467Y-115000000D01*
X201619533Y-115000000D01*
X201639375Y-115290099D01*
X201639376Y-115290101D01*
X201698532Y-115574782D01*
X201698537Y-115574798D01*
X201795910Y-115848776D01*
X201795909Y-115848776D01*
X201929688Y-116106957D01*
X201929692Y-116106963D01*
X202097367Y-116344505D01*
X202097371Y-116344509D01*
X202097373Y-116344512D01*
X202295843Y-116557022D01*
X202295848Y-116557026D01*
X202295850Y-116557028D01*
X202521395Y-116740522D01*
X202521398Y-116740524D01*
X202521402Y-116740527D01*
X202651740Y-116819787D01*
X202769848Y-116891611D01*
X203036545Y-117007454D01*
X203036550Y-117007456D01*
X203316544Y-117085906D01*
X203569801Y-117120715D01*
X203604611Y-117125500D01*
X203604612Y-117125500D01*
X203895389Y-117125500D01*
X203926445Y-117121231D01*
X204183456Y-117085906D01*
X204463450Y-117007456D01*
X204730153Y-116891610D01*
X204978598Y-116740527D01*
X205204157Y-116557022D01*
X205402627Y-116344512D01*
X205570312Y-116106956D01*
X205704088Y-115848780D01*
X205704088Y-115848779D01*
X205704090Y-115848776D01*
X205801462Y-115574798D01*
X205801467Y-115574782D01*
X205836495Y-115406216D01*
X205860624Y-115290099D01*
X205880467Y-115000000D01*
X205860624Y-114709901D01*
X205836495Y-114593784D01*
X205801467Y-114425217D01*
X205801462Y-114425201D01*
X205704089Y-114151223D01*
X205704090Y-114151223D01*
X205570311Y-113893042D01*
X205570307Y-113893036D01*
X205402632Y-113655494D01*
X205402628Y-113655490D01*
X205402627Y-113655488D01*
X205204157Y-113442978D01*
X205204150Y-113442973D01*
X205204149Y-113442971D01*
X204978604Y-113259477D01*
X204978593Y-113259470D01*
X204730151Y-113108388D01*
X204463454Y-112992545D01*
X204183462Y-112914095D01*
X204183457Y-112914094D01*
X204183456Y-112914094D01*
X204039422Y-112894297D01*
X203895389Y-112874500D01*
X203895388Y-112874500D01*
X203604612Y-112874500D01*
X203604611Y-112874500D01*
X203316544Y-112914094D01*
X203316537Y-112914095D01*
X203036545Y-112992545D01*
X202769848Y-113108388D01*
X202521406Y-113259470D01*
X202521395Y-113259477D01*
X202295850Y-113442971D01*
X202097367Y-113655494D01*
X201929692Y-113893036D01*
X201929688Y-113893042D01*
X201795909Y-114151223D01*
X201698537Y-114425201D01*
X201698532Y-114425217D01*
X201639376Y-114709898D01*
X201639375Y-114709900D01*
X201619533Y-115000000D01*
X138380467Y-115000000D01*
X138360624Y-114709901D01*
X138336495Y-114593784D01*
X138301467Y-114425217D01*
X138301462Y-114425201D01*
X138204089Y-114151223D01*
X138204090Y-114151223D01*
X138070311Y-113893042D01*
X138070307Y-113893036D01*
X137902632Y-113655494D01*
X137902628Y-113655490D01*
X137902627Y-113655488D01*
X137704157Y-113442978D01*
X137704150Y-113442973D01*
X137704149Y-113442971D01*
X137478604Y-113259477D01*
X137478593Y-113259470D01*
X137230151Y-113108388D01*
X136963454Y-112992545D01*
X136683462Y-112914095D01*
X136683457Y-112914094D01*
X136683456Y-112914094D01*
X136539422Y-112894297D01*
X136395389Y-112874500D01*
X136395388Y-112874500D01*
X136104612Y-112874500D01*
X136104611Y-112874500D01*
X135816544Y-112914094D01*
X135816537Y-112914095D01*
X135536545Y-112992545D01*
X135269848Y-113108388D01*
X135021406Y-113259470D01*
X135021395Y-113259477D01*
X134795850Y-113442971D01*
X134597367Y-113655494D01*
X134429692Y-113893036D01*
X134429688Y-113893042D01*
X134295909Y-114151223D01*
X134198537Y-114425201D01*
X134198532Y-114425217D01*
X134139376Y-114709898D01*
X134139375Y-114709900D01*
X134119533Y-115000000D01*
X133500500Y-115000000D01*
X133500500Y-90999996D01*
X187694435Y-90999996D01*
X187694435Y-91000003D01*
X187714630Y-91179249D01*
X187714633Y-91179262D01*
X187774209Y-91349520D01*
X187827309Y-91434029D01*
X187846309Y-91501266D01*
X187827309Y-91565971D01*
X187774209Y-91650479D01*
X187714633Y-91820737D01*
X187714630Y-91820750D01*
X187694435Y-91999996D01*
X187694435Y-92000003D01*
X187714630Y-92179249D01*
X187714631Y-92179254D01*
X187774211Y-92349523D01*
X187870184Y-92502262D01*
X187997738Y-92629816D01*
X188150478Y-92725789D01*
X188320745Y-92785368D01*
X188320750Y-92785369D01*
X188499996Y-92805565D01*
X188500000Y-92805565D01*
X188500004Y-92805565D01*
X188679249Y-92785369D01*
X188679252Y-92785368D01*
X188679255Y-92785368D01*
X188759017Y-92757457D01*
X188799972Y-92750500D01*
X195137770Y-92750500D01*
X195204809Y-92770185D01*
X195225451Y-92786819D01*
X200021586Y-97582954D01*
X200051058Y-97602645D01*
X200095270Y-97632186D01*
X200144505Y-97665084D01*
X200144506Y-97665084D01*
X200144507Y-97665085D01*
X200144509Y-97665086D01*
X200281082Y-97721656D01*
X200281087Y-97721658D01*
X200305615Y-97726537D01*
X200367525Y-97758921D01*
X200369105Y-97760473D01*
X200466344Y-97857712D01*
X200615666Y-97949814D01*
X200782203Y-98004999D01*
X200884991Y-98015500D01*
X202215008Y-98015499D01*
X202317797Y-98004999D01*
X202484334Y-97949814D01*
X202633656Y-97857712D01*
X202757712Y-97733656D01*
X202849814Y-97584334D01*
X202904999Y-97417797D01*
X202915500Y-97315009D01*
X202915499Y-96684992D01*
X202904999Y-96582203D01*
X202849814Y-96415666D01*
X202757712Y-96266344D01*
X202740690Y-96249322D01*
X202707205Y-96187999D01*
X202712189Y-96118307D01*
X202725269Y-96092750D01*
X202799925Y-95981020D01*
X202876475Y-95796211D01*
X202915500Y-95600018D01*
X202915500Y-95399982D01*
X202876475Y-95203789D01*
X202876473Y-95203784D01*
X202799928Y-95018986D01*
X202799921Y-95018973D01*
X202688792Y-94852657D01*
X202688791Y-94852656D01*
X202673816Y-94837681D01*
X202640331Y-94776361D01*
X202645314Y-94706669D01*
X202673816Y-94662318D01*
X202688791Y-94647344D01*
X202799925Y-94481020D01*
X202876475Y-94296211D01*
X202915500Y-94100018D01*
X202915500Y-93899982D01*
X202876475Y-93703789D01*
X202876473Y-93703784D01*
X202799928Y-93518986D01*
X202799921Y-93518973D01*
X202688791Y-93352656D01*
X202688788Y-93352652D01*
X202547347Y-93211211D01*
X202547343Y-93211208D01*
X202381026Y-93100078D01*
X202381013Y-93100071D01*
X202196215Y-93023526D01*
X202196203Y-93023523D01*
X202000022Y-92984500D01*
X202000018Y-92984500D01*
X201099982Y-92984500D01*
X201099977Y-92984500D01*
X200903796Y-93023523D01*
X200903784Y-93023526D01*
X200718986Y-93100071D01*
X200718973Y-93100078D01*
X200552656Y-93211208D01*
X200552652Y-93211211D01*
X200411211Y-93352652D01*
X200411208Y-93352656D01*
X200300078Y-93518973D01*
X200300071Y-93518986D01*
X200223526Y-93703784D01*
X200223523Y-93703796D01*
X200192735Y-93858578D01*
X200160350Y-93920489D01*
X200099635Y-93955063D01*
X200029865Y-93951324D01*
X199983437Y-93922068D01*
X196478421Y-90417052D01*
X196478414Y-90417046D01*
X196404729Y-90367812D01*
X196404729Y-90367813D01*
X196355491Y-90334913D01*
X196218917Y-90278343D01*
X196218907Y-90278340D01*
X196073920Y-90249500D01*
X196073918Y-90249500D01*
X188799972Y-90249500D01*
X188759017Y-90242542D01*
X188679254Y-90214631D01*
X188679249Y-90214630D01*
X188500004Y-90194435D01*
X188499996Y-90194435D01*
X188320750Y-90214630D01*
X188320745Y-90214631D01*
X188150476Y-90274211D01*
X187997737Y-90370184D01*
X187870184Y-90497737D01*
X187774211Y-90650476D01*
X187714631Y-90820745D01*
X187714630Y-90820750D01*
X187694435Y-90999996D01*
X133500500Y-90999996D01*
X133500500Y-78684983D01*
X137134500Y-78684983D01*
X137134500Y-79315001D01*
X137134501Y-79315019D01*
X137145000Y-79417796D01*
X137145001Y-79417799D01*
X137200185Y-79584331D01*
X137200187Y-79584336D01*
X137292289Y-79733657D01*
X137309309Y-79750677D01*
X137342794Y-79812000D01*
X137337810Y-79881692D01*
X137324730Y-79907248D01*
X137250081Y-80018968D01*
X137250071Y-80018986D01*
X137173526Y-80203784D01*
X137173523Y-80203796D01*
X137134500Y-80399977D01*
X137134500Y-80600022D01*
X137173523Y-80796203D01*
X137173526Y-80796215D01*
X137250071Y-80981013D01*
X137250078Y-80981026D01*
X137361208Y-81147343D01*
X137361211Y-81147347D01*
X137376183Y-81162319D01*
X137409668Y-81223642D01*
X137404684Y-81293334D01*
X137376183Y-81337681D01*
X137361211Y-81352652D01*
X137361208Y-81352656D01*
X137250078Y-81518973D01*
X137250071Y-81518986D01*
X137173526Y-81703784D01*
X137173523Y-81703796D01*
X137134500Y-81899977D01*
X137134500Y-82100022D01*
X137173523Y-82296203D01*
X137173526Y-82296215D01*
X137250071Y-82481013D01*
X137250078Y-82481026D01*
X137361208Y-82647343D01*
X137361211Y-82647347D01*
X137376183Y-82662319D01*
X137409668Y-82723642D01*
X137404684Y-82793334D01*
X137376183Y-82837681D01*
X137361211Y-82852652D01*
X137361208Y-82852656D01*
X137250078Y-83018973D01*
X137250071Y-83018986D01*
X137173526Y-83203784D01*
X137173523Y-83203796D01*
X137134500Y-83399977D01*
X137134500Y-83600022D01*
X137173523Y-83796203D01*
X137173526Y-83796215D01*
X137250071Y-83981013D01*
X137250078Y-83981026D01*
X137361208Y-84147343D01*
X137361211Y-84147347D01*
X137502652Y-84288788D01*
X137502656Y-84288791D01*
X137668973Y-84399921D01*
X137668986Y-84399928D01*
X137853784Y-84476473D01*
X137853789Y-84476475D01*
X138049977Y-84515499D01*
X138049981Y-84515500D01*
X138049982Y-84515500D01*
X138950019Y-84515500D01*
X138950020Y-84515499D01*
X139146211Y-84476475D01*
X139331020Y-84399925D01*
X139497344Y-84288791D01*
X139638791Y-84147344D01*
X139749925Y-83981020D01*
X139826475Y-83796211D01*
X139865500Y-83600018D01*
X139865500Y-83399982D01*
X139826475Y-83203789D01*
X139795834Y-83129815D01*
X139749928Y-83018986D01*
X139749921Y-83018973D01*
X139638792Y-82852657D01*
X139635657Y-82849522D01*
X139623816Y-82837681D01*
X139590331Y-82776361D01*
X139595314Y-82706669D01*
X139623816Y-82662318D01*
X139638791Y-82647344D01*
X139749925Y-82481020D01*
X139826475Y-82296211D01*
X139865500Y-82100018D01*
X139865500Y-81899982D01*
X139826475Y-81703789D01*
X139826473Y-81703784D01*
X139749928Y-81518986D01*
X139749918Y-81518968D01*
X139699419Y-81443390D01*
X139678541Y-81376713D01*
X139697026Y-81309333D01*
X139749005Y-81262643D01*
X139802521Y-81250500D01*
X149997479Y-81250500D01*
X150064518Y-81270185D01*
X150110273Y-81322989D01*
X150120217Y-81392147D01*
X150100581Y-81443390D01*
X150050081Y-81518968D01*
X150050071Y-81518986D01*
X149973526Y-81703784D01*
X149973523Y-81703796D01*
X149934500Y-81899977D01*
X149934500Y-82100022D01*
X149973523Y-82296203D01*
X149973526Y-82296215D01*
X150050071Y-82481013D01*
X150050078Y-82481026D01*
X150161208Y-82647343D01*
X150161211Y-82647347D01*
X150176183Y-82662319D01*
X150209668Y-82723642D01*
X150204684Y-82793334D01*
X150176183Y-82837681D01*
X150161211Y-82852652D01*
X150161208Y-82852656D01*
X150050078Y-83018973D01*
X150050071Y-83018986D01*
X149973526Y-83203784D01*
X149973523Y-83203796D01*
X149934500Y-83399977D01*
X149934500Y-83600022D01*
X149973523Y-83796203D01*
X149973526Y-83796215D01*
X150050071Y-83981013D01*
X150050078Y-83981026D01*
X150161208Y-84147343D01*
X150161211Y-84147347D01*
X150302652Y-84288788D01*
X150302656Y-84288791D01*
X150468973Y-84399921D01*
X150468986Y-84399928D01*
X150653784Y-84476473D01*
X150653789Y-84476475D01*
X150849977Y-84515499D01*
X150849981Y-84515500D01*
X150849982Y-84515500D01*
X151750019Y-84515500D01*
X151750020Y-84515499D01*
X151946211Y-84476475D01*
X152131020Y-84399925D01*
X152297344Y-84288791D01*
X152438791Y-84147344D01*
X152549925Y-83981020D01*
X152626475Y-83796211D01*
X152665500Y-83600018D01*
X152665500Y-83399982D01*
X152626475Y-83203789D01*
X152595834Y-83129815D01*
X152549928Y-83018986D01*
X152549921Y-83018973D01*
X152438792Y-82852657D01*
X152435657Y-82849522D01*
X152423816Y-82837681D01*
X152390331Y-82776361D01*
X152395314Y-82706669D01*
X152423816Y-82662318D01*
X152438791Y-82647344D01*
X152549925Y-82481020D01*
X152626475Y-82296211D01*
X152665500Y-82100018D01*
X152665500Y-81899982D01*
X152626475Y-81703789D01*
X152626473Y-81703784D01*
X152549928Y-81518986D01*
X152549918Y-81518968D01*
X152499419Y-81443390D01*
X152478541Y-81376713D01*
X152497026Y-81309333D01*
X152549005Y-81262643D01*
X152602521Y-81250500D01*
X162797479Y-81250500D01*
X162864518Y-81270185D01*
X162910273Y-81322989D01*
X162920217Y-81392147D01*
X162900581Y-81443390D01*
X162850081Y-81518968D01*
X162850071Y-81518986D01*
X162773526Y-81703784D01*
X162773523Y-81703796D01*
X162734500Y-81899977D01*
X162734500Y-82100022D01*
X162773523Y-82296203D01*
X162773526Y-82296215D01*
X162850071Y-82481013D01*
X162850078Y-82481026D01*
X162961208Y-82647343D01*
X162961211Y-82647347D01*
X162976183Y-82662319D01*
X163009668Y-82723642D01*
X163004684Y-82793334D01*
X162976183Y-82837681D01*
X162961211Y-82852652D01*
X162961208Y-82852656D01*
X162850078Y-83018973D01*
X162850071Y-83018986D01*
X162773526Y-83203784D01*
X162773523Y-83203796D01*
X162734500Y-83399977D01*
X162734500Y-83600022D01*
X162773523Y-83796203D01*
X162773526Y-83796215D01*
X162850071Y-83981013D01*
X162850078Y-83981026D01*
X162961208Y-84147343D01*
X162961211Y-84147347D01*
X163102652Y-84288788D01*
X163102656Y-84288791D01*
X163268973Y-84399921D01*
X163268986Y-84399928D01*
X163453784Y-84476473D01*
X163453789Y-84476475D01*
X163649977Y-84515499D01*
X163649981Y-84515500D01*
X163649982Y-84515500D01*
X164550019Y-84515500D01*
X164550020Y-84515499D01*
X164746211Y-84476475D01*
X164931020Y-84399925D01*
X165097344Y-84288791D01*
X165238791Y-84147344D01*
X165349925Y-83981020D01*
X165426475Y-83796211D01*
X165465500Y-83600018D01*
X165465500Y-83399982D01*
X165426475Y-83203789D01*
X165395834Y-83129815D01*
X165349928Y-83018986D01*
X165349921Y-83018973D01*
X165238792Y-82852657D01*
X165235657Y-82849522D01*
X165223816Y-82837681D01*
X165190331Y-82776361D01*
X165195314Y-82706669D01*
X165223816Y-82662318D01*
X165238791Y-82647344D01*
X165349925Y-82481020D01*
X165426475Y-82296211D01*
X165465500Y-82100018D01*
X165465500Y-81899982D01*
X165426475Y-81703789D01*
X165426473Y-81703784D01*
X165349928Y-81518986D01*
X165349921Y-81518973D01*
X165238792Y-81352657D01*
X165238787Y-81352652D01*
X165223816Y-81337681D01*
X165190331Y-81276361D01*
X165195314Y-81206669D01*
X165223816Y-81162318D01*
X165238791Y-81147344D01*
X165349925Y-80981020D01*
X165426475Y-80796211D01*
X165465500Y-80600018D01*
X165465500Y-80399982D01*
X165426475Y-80203789D01*
X165426473Y-80203784D01*
X165349928Y-80018986D01*
X165349918Y-80018968D01*
X165299419Y-79943390D01*
X165278541Y-79876713D01*
X165297026Y-79809333D01*
X165349005Y-79762643D01*
X165402521Y-79750500D01*
X168637770Y-79750500D01*
X168704809Y-79770185D01*
X168725451Y-79786819D01*
X169713181Y-80774548D01*
X169746666Y-80835871D01*
X169749500Y-80862229D01*
X169749500Y-82200028D01*
X169742542Y-82240982D01*
X169714631Y-82320747D01*
X169694435Y-82499996D01*
X169694435Y-82500003D01*
X169714630Y-82679249D01*
X169714631Y-82679254D01*
X169774211Y-82849523D01*
X169870184Y-83002262D01*
X169997738Y-83129816D01*
X170150478Y-83225789D01*
X170320745Y-83285368D01*
X170320750Y-83285369D01*
X170499996Y-83305565D01*
X170500000Y-83305565D01*
X170500004Y-83305565D01*
X170679249Y-83285369D01*
X170679252Y-83285368D01*
X170679255Y-83285368D01*
X170849522Y-83225789D01*
X171002262Y-83129816D01*
X171129816Y-83002262D01*
X171225789Y-82849522D01*
X171285368Y-82679255D01*
X171285369Y-82679249D01*
X171305565Y-82500003D01*
X171305565Y-82499996D01*
X171285368Y-82320747D01*
X171285368Y-82320745D01*
X171257458Y-82240982D01*
X171250500Y-82200028D01*
X171250500Y-80426079D01*
X171221659Y-80281092D01*
X171221658Y-80281091D01*
X171221658Y-80281087D01*
X171189643Y-80203796D01*
X171165087Y-80144511D01*
X171165080Y-80144498D01*
X171082952Y-80021585D01*
X171080335Y-80018968D01*
X170978416Y-79917049D01*
X170978415Y-79917048D01*
X170645698Y-79584331D01*
X169746352Y-78684983D01*
X175534500Y-78684983D01*
X175534500Y-79315001D01*
X175534501Y-79315019D01*
X175545000Y-79417796D01*
X175545001Y-79417799D01*
X175600185Y-79584331D01*
X175600187Y-79584336D01*
X175692289Y-79733657D01*
X175709309Y-79750677D01*
X175742794Y-79812000D01*
X175737810Y-79881692D01*
X175724730Y-79907248D01*
X175650081Y-80018968D01*
X175650071Y-80018986D01*
X175573526Y-80203784D01*
X175573523Y-80203796D01*
X175534500Y-80399977D01*
X175534500Y-80600022D01*
X175573523Y-80796203D01*
X175573526Y-80796215D01*
X175650071Y-80981013D01*
X175650078Y-80981026D01*
X175761208Y-81147343D01*
X175761211Y-81147347D01*
X175776183Y-81162319D01*
X175809668Y-81223642D01*
X175804684Y-81293334D01*
X175776183Y-81337681D01*
X175761211Y-81352652D01*
X175761208Y-81352656D01*
X175650078Y-81518973D01*
X175650071Y-81518986D01*
X175573526Y-81703784D01*
X175573523Y-81703796D01*
X175534500Y-81899977D01*
X175534500Y-82100022D01*
X175573523Y-82296203D01*
X175573526Y-82296215D01*
X175650071Y-82481013D01*
X175650078Y-82481026D01*
X175761208Y-82647343D01*
X175761211Y-82647347D01*
X175776183Y-82662319D01*
X175809668Y-82723642D01*
X175804684Y-82793334D01*
X175776183Y-82837681D01*
X175761211Y-82852652D01*
X175761208Y-82852656D01*
X175650078Y-83018973D01*
X175650071Y-83018986D01*
X175573526Y-83203784D01*
X175573523Y-83203796D01*
X175534500Y-83399977D01*
X175534500Y-83600022D01*
X175573523Y-83796203D01*
X175573526Y-83796215D01*
X175650071Y-83981013D01*
X175650078Y-83981026D01*
X175761208Y-84147343D01*
X175761211Y-84147347D01*
X175902652Y-84288788D01*
X175902656Y-84288791D01*
X176068973Y-84399921D01*
X176068986Y-84399928D01*
X176253784Y-84476473D01*
X176253789Y-84476475D01*
X176449977Y-84515499D01*
X176449981Y-84515500D01*
X176449982Y-84515500D01*
X177350019Y-84515500D01*
X177350020Y-84515499D01*
X177546211Y-84476475D01*
X177731020Y-84399925D01*
X177897344Y-84288791D01*
X178038791Y-84147344D01*
X178149925Y-83981020D01*
X178226475Y-83796211D01*
X178265500Y-83600018D01*
X178265500Y-83399982D01*
X178226475Y-83203789D01*
X178195834Y-83129815D01*
X178149928Y-83018986D01*
X178149921Y-83018973D01*
X178038792Y-82852657D01*
X178035657Y-82849522D01*
X178023816Y-82837681D01*
X177990331Y-82776361D01*
X177995314Y-82706669D01*
X178023816Y-82662318D01*
X178038791Y-82647344D01*
X178149925Y-82481020D01*
X178226475Y-82296211D01*
X178265500Y-82100018D01*
X178265500Y-81899982D01*
X178226475Y-81703789D01*
X178226473Y-81703784D01*
X178149928Y-81518986D01*
X178149918Y-81518968D01*
X178099419Y-81443390D01*
X178078541Y-81376713D01*
X178097026Y-81309333D01*
X178149005Y-81262643D01*
X178202521Y-81250500D01*
X188397479Y-81250500D01*
X188464518Y-81270185D01*
X188510273Y-81322989D01*
X188520217Y-81392147D01*
X188500581Y-81443390D01*
X188450081Y-81518968D01*
X188450071Y-81518986D01*
X188373526Y-81703784D01*
X188373523Y-81703796D01*
X188334500Y-81899977D01*
X188334500Y-82100022D01*
X188373523Y-82296203D01*
X188373526Y-82296215D01*
X188450071Y-82481013D01*
X188450078Y-82481026D01*
X188561208Y-82647343D01*
X188561211Y-82647347D01*
X188576183Y-82662319D01*
X188609668Y-82723642D01*
X188604684Y-82793334D01*
X188576183Y-82837681D01*
X188561211Y-82852652D01*
X188561208Y-82852656D01*
X188450078Y-83018973D01*
X188450071Y-83018986D01*
X188373526Y-83203784D01*
X188373523Y-83203796D01*
X188334500Y-83399977D01*
X188334500Y-83600022D01*
X188373523Y-83796203D01*
X188373526Y-83796215D01*
X188450071Y-83981013D01*
X188450078Y-83981026D01*
X188561208Y-84147343D01*
X188561211Y-84147347D01*
X188702652Y-84288788D01*
X188702656Y-84288791D01*
X188868973Y-84399921D01*
X188868986Y-84399928D01*
X189053784Y-84476473D01*
X189053789Y-84476475D01*
X189249977Y-84515499D01*
X189249981Y-84515500D01*
X189249982Y-84515500D01*
X190150019Y-84515500D01*
X190150020Y-84515499D01*
X190346211Y-84476475D01*
X190531020Y-84399925D01*
X190697344Y-84288791D01*
X190838791Y-84147344D01*
X190949925Y-83981020D01*
X191026475Y-83796211D01*
X191065500Y-83600018D01*
X191065500Y-83399982D01*
X191026475Y-83203789D01*
X190995834Y-83129815D01*
X190949928Y-83018986D01*
X190949921Y-83018973D01*
X190838792Y-82852657D01*
X190835657Y-82849522D01*
X190823816Y-82837681D01*
X190790331Y-82776361D01*
X190795314Y-82706669D01*
X190823816Y-82662318D01*
X190838791Y-82647344D01*
X190949925Y-82481020D01*
X191026475Y-82296211D01*
X191065500Y-82100018D01*
X191065500Y-81899982D01*
X191026475Y-81703789D01*
X191026473Y-81703784D01*
X190949928Y-81518986D01*
X190949918Y-81518968D01*
X190899419Y-81443390D01*
X190878541Y-81376713D01*
X190897026Y-81309333D01*
X190949005Y-81262643D01*
X191002521Y-81250500D01*
X201197479Y-81250500D01*
X201264518Y-81270185D01*
X201310273Y-81322989D01*
X201320217Y-81392147D01*
X201300581Y-81443390D01*
X201250081Y-81518968D01*
X201250071Y-81518986D01*
X201173526Y-81703784D01*
X201173523Y-81703796D01*
X201134500Y-81899977D01*
X201134500Y-82100022D01*
X201173523Y-82296203D01*
X201173526Y-82296215D01*
X201250071Y-82481013D01*
X201250078Y-82481026D01*
X201361208Y-82647343D01*
X201361211Y-82647347D01*
X201376183Y-82662319D01*
X201409668Y-82723642D01*
X201404684Y-82793334D01*
X201376183Y-82837681D01*
X201361211Y-82852652D01*
X201361208Y-82852656D01*
X201250078Y-83018973D01*
X201250071Y-83018986D01*
X201173526Y-83203784D01*
X201173523Y-83203796D01*
X201134500Y-83399977D01*
X201134500Y-83600022D01*
X201173523Y-83796203D01*
X201173526Y-83796215D01*
X201250071Y-83981013D01*
X201250078Y-83981026D01*
X201361208Y-84147343D01*
X201361211Y-84147347D01*
X201502652Y-84288788D01*
X201502656Y-84288791D01*
X201668973Y-84399921D01*
X201668986Y-84399928D01*
X201853784Y-84476473D01*
X201853789Y-84476475D01*
X202049977Y-84515499D01*
X202049981Y-84515500D01*
X202049982Y-84515500D01*
X202950019Y-84515500D01*
X202950020Y-84515499D01*
X202994812Y-84506589D01*
X203101309Y-84485407D01*
X203170900Y-84491634D01*
X203226078Y-84534497D01*
X203249322Y-84600387D01*
X203249500Y-84607024D01*
X203249500Y-99625500D01*
X203229815Y-99692539D01*
X203177011Y-99738294D01*
X203125500Y-99749500D01*
X201426080Y-99749500D01*
X201281092Y-99778340D01*
X201281082Y-99778343D01*
X201144511Y-99834912D01*
X201144498Y-99834919D01*
X201021584Y-99917048D01*
X201021580Y-99917051D01*
X199652050Y-101286580D01*
X199652044Y-101286588D01*
X199602812Y-101360268D01*
X199602813Y-101360269D01*
X199569921Y-101409496D01*
X199569914Y-101409508D01*
X199513342Y-101546086D01*
X199513340Y-101546092D01*
X199484500Y-101691079D01*
X199484500Y-101691082D01*
X199484500Y-105623918D01*
X199484500Y-105623920D01*
X199484499Y-105623920D01*
X199513340Y-105768907D01*
X199513343Y-105768917D01*
X199569914Y-105905492D01*
X199602812Y-105954727D01*
X199602813Y-105954730D01*
X199652046Y-106028414D01*
X199652052Y-106028421D01*
X200102049Y-106478416D01*
X200206584Y-106582951D01*
X200208654Y-106584334D01*
X200256837Y-106616529D01*
X200293484Y-106654534D01*
X200342285Y-106733652D01*
X200342288Y-106733656D01*
X200466344Y-106857712D01*
X200615666Y-106949814D01*
X200782203Y-107004999D01*
X200884991Y-107015500D01*
X202215008Y-107015499D01*
X202317797Y-107004999D01*
X202484334Y-106949814D01*
X202633656Y-106857712D01*
X202757712Y-106733656D01*
X202849814Y-106584334D01*
X202904999Y-106417797D01*
X202915500Y-106315009D01*
X202915499Y-105684992D01*
X202909260Y-105623920D01*
X202904999Y-105582203D01*
X202904998Y-105582200D01*
X202849814Y-105415666D01*
X202849812Y-105415663D01*
X202849097Y-105413504D01*
X202846695Y-105343676D01*
X202882427Y-105283634D01*
X202944947Y-105252441D01*
X202966803Y-105250500D01*
X203073920Y-105250500D01*
X203171462Y-105231096D01*
X203218913Y-105221658D01*
X203355495Y-105165084D01*
X203404729Y-105132186D01*
X203478416Y-105082952D01*
X205832952Y-102728415D01*
X205860205Y-102687627D01*
X205915084Y-102605495D01*
X205964308Y-102486658D01*
X205971659Y-102468912D01*
X206000500Y-102323917D01*
X206000500Y-102176082D01*
X206000500Y-80676082D01*
X206000500Y-80676079D01*
X205980178Y-80573918D01*
X205980178Y-80573917D01*
X205971659Y-80531088D01*
X205928164Y-80426083D01*
X205928162Y-80426079D01*
X205915086Y-80394509D01*
X205915085Y-80394507D01*
X205882186Y-80345270D01*
X205882185Y-80345268D01*
X205832956Y-80271589D01*
X205832952Y-80271584D01*
X203978421Y-78417052D01*
X203978414Y-78417046D01*
X203904729Y-78367812D01*
X203904729Y-78367813D01*
X203855495Y-78334916D01*
X203743059Y-78288343D01*
X203702832Y-78261464D01*
X203583657Y-78142289D01*
X203583656Y-78142288D01*
X203434334Y-78050186D01*
X203267797Y-77995001D01*
X203267795Y-77995000D01*
X203165010Y-77984500D01*
X201834998Y-77984500D01*
X201834981Y-77984501D01*
X201732203Y-77995000D01*
X201732200Y-77995001D01*
X201565668Y-78050185D01*
X201565663Y-78050187D01*
X201416342Y-78142289D01*
X201345451Y-78213181D01*
X201284128Y-78246666D01*
X201257770Y-78249500D01*
X190942230Y-78249500D01*
X190875191Y-78229815D01*
X190854549Y-78213181D01*
X190783657Y-78142289D01*
X190783656Y-78142288D01*
X190634334Y-78050186D01*
X190467797Y-77995001D01*
X190467795Y-77995000D01*
X190365010Y-77984500D01*
X189034998Y-77984500D01*
X189034981Y-77984501D01*
X188932203Y-77995000D01*
X188932200Y-77995001D01*
X188765668Y-78050185D01*
X188765663Y-78050187D01*
X188616342Y-78142289D01*
X188545451Y-78213181D01*
X188484128Y-78246666D01*
X188457770Y-78249500D01*
X178142230Y-78249500D01*
X178075191Y-78229815D01*
X178054549Y-78213181D01*
X177983657Y-78142289D01*
X177983656Y-78142288D01*
X177834334Y-78050186D01*
X177667797Y-77995001D01*
X177667795Y-77995000D01*
X177565010Y-77984500D01*
X176234998Y-77984500D01*
X176234981Y-77984501D01*
X176132203Y-77995000D01*
X176132200Y-77995001D01*
X175965668Y-78050185D01*
X175965663Y-78050187D01*
X175816342Y-78142289D01*
X175692289Y-78266342D01*
X175600187Y-78415663D01*
X175600185Y-78415668D01*
X175572349Y-78499670D01*
X175545001Y-78582203D01*
X175545001Y-78582204D01*
X175545000Y-78582204D01*
X175534500Y-78684983D01*
X169746352Y-78684983D01*
X169478421Y-78417052D01*
X169478414Y-78417046D01*
X169404729Y-78367812D01*
X169404729Y-78367813D01*
X169355491Y-78334913D01*
X169218917Y-78278343D01*
X169218907Y-78278340D01*
X169073920Y-78249500D01*
X169073918Y-78249500D01*
X165342230Y-78249500D01*
X165275191Y-78229815D01*
X165254549Y-78213181D01*
X165183657Y-78142289D01*
X165183656Y-78142288D01*
X165034334Y-78050186D01*
X164867797Y-77995001D01*
X164867795Y-77995000D01*
X164765010Y-77984500D01*
X163434998Y-77984500D01*
X163434981Y-77984501D01*
X163332203Y-77995000D01*
X163332200Y-77995001D01*
X163165668Y-78050185D01*
X163165663Y-78050187D01*
X163016342Y-78142289D01*
X162945451Y-78213181D01*
X162884128Y-78246666D01*
X162857770Y-78249500D01*
X152542230Y-78249500D01*
X152475191Y-78229815D01*
X152454549Y-78213181D01*
X152383657Y-78142289D01*
X152383656Y-78142288D01*
X152234334Y-78050186D01*
X152067797Y-77995001D01*
X152067795Y-77995000D01*
X151965010Y-77984500D01*
X150634998Y-77984500D01*
X150634981Y-77984501D01*
X150532203Y-77995000D01*
X150532200Y-77995001D01*
X150365668Y-78050185D01*
X150365663Y-78050187D01*
X150216342Y-78142289D01*
X150145451Y-78213181D01*
X150084128Y-78246666D01*
X150057770Y-78249500D01*
X139742230Y-78249500D01*
X139675191Y-78229815D01*
X139654549Y-78213181D01*
X139583657Y-78142289D01*
X139583656Y-78142288D01*
X139434334Y-78050186D01*
X139267797Y-77995001D01*
X139267795Y-77995000D01*
X139165010Y-77984500D01*
X137834998Y-77984500D01*
X137834981Y-77984501D01*
X137732203Y-77995000D01*
X137732200Y-77995001D01*
X137565668Y-78050185D01*
X137565663Y-78050187D01*
X137416342Y-78142289D01*
X137292289Y-78266342D01*
X137200187Y-78415663D01*
X137200185Y-78415668D01*
X137172349Y-78499670D01*
X137145001Y-78582203D01*
X137145001Y-78582204D01*
X137145000Y-78582204D01*
X137134500Y-78684983D01*
X133500500Y-78684983D01*
X133500500Y-78003750D01*
X133500726Y-77996263D01*
X133500802Y-77995000D01*
X133518271Y-77706201D01*
X133520076Y-77691340D01*
X133571780Y-77409202D01*
X133575364Y-77394664D01*
X133660696Y-77120823D01*
X133665998Y-77106842D01*
X133783728Y-76845256D01*
X133790679Y-76832011D01*
X133939080Y-76586526D01*
X133947567Y-76574230D01*
X134124480Y-76348417D01*
X134134395Y-76337226D01*
X134337226Y-76134395D01*
X134348417Y-76124480D01*
X134574230Y-75947567D01*
X134586526Y-75939080D01*
X134832011Y-75790679D01*
X134845256Y-75783728D01*
X135106842Y-75665998D01*
X135120823Y-75660696D01*
X135394669Y-75575362D01*
X135409198Y-75571780D01*
X135691344Y-75520075D01*
X135706201Y-75518271D01*
X135996265Y-75500726D01*
X136003752Y-75500500D01*
X136065893Y-75500500D01*
X203934108Y-75500500D01*
X203996249Y-75500500D01*
X204003736Y-75500726D01*
G37*
%TD.AperFunction*%
%TD*%
M02*
