%TF.GenerationSoftware,KiCad,Pcbnew,8.0.4*%
%TF.CreationDate,2024-09-11T16:00:19-04:00*%
%TF.ProjectId,power_carrier,706f7765-725f-4636-9172-726965722e6b,rev?*%
%TF.SameCoordinates,Original*%
%TF.FileFunction,Drillmap*%
%TF.FilePolarity,Positive*%
%FSLAX45Y45*%
G04 Gerber Fmt 4.5, Leading zero omitted, Abs format (unit mm)*
G04 Created by KiCad (PCBNEW 8.0.4) date 2024-09-11 16:00:19*
%MOMM*%
%LPD*%
G01*
G04 APERTURE LIST*
%ADD10C,0.200000*%
%ADD11C,0.100000*%
%ADD12C,0.106680*%
%ADD13C,0.130000*%
%ADD14C,0.150000*%
%ADD15C,0.270000*%
%ADD16C,0.275000*%
G04 APERTURE END LIST*
D10*
X14000000Y-24450000D02*
X14000000Y-26550000D01*
X13787500Y-11500000D02*
G75*
G02*
X13462500Y-11500000I-162500J0D01*
G01*
X13462500Y-11500000D02*
G75*
G02*
X13787500Y-11500000I162500J0D01*
G01*
X14000000Y-26550000D02*
G75*
G02*
X13700000Y-26550000I-150000J0D01*
G01*
X13600000Y-31500000D02*
X20400000Y-31500000D01*
X20700000Y-7800000D02*
X20700000Y-31200000D01*
X13700000Y-24450000D02*
G75*
G02*
X14000000Y-24450000I150000J0D01*
G01*
X20537500Y-19500000D02*
G75*
G02*
X20212500Y-19500000I-162500J0D01*
G01*
X20212500Y-19500000D02*
G75*
G02*
X20537500Y-19500000I162500J0D01*
G01*
X13787500Y-19500000D02*
G75*
G02*
X13462500Y-19500000I-162500J0D01*
G01*
X13462500Y-19500000D02*
G75*
G02*
X13787500Y-19500000I162500J0D01*
G01*
X13787500Y-27500000D02*
G75*
G02*
X13462500Y-27500000I-162500J0D01*
G01*
X13462500Y-27500000D02*
G75*
G02*
X13787500Y-27500000I162500J0D01*
G01*
X20700000Y-31200000D02*
G75*
G02*
X20400000Y-31500000I-300000J0D01*
G01*
X13700000Y-24450000D02*
X13700000Y-26550000D01*
X20300000Y-24450000D02*
X20300000Y-26550000D01*
X20300000Y-26550000D02*
G75*
G02*
X20000000Y-26550000I-150000J0D01*
G01*
X13600000Y-7500000D02*
X20400000Y-7500000D01*
X20400000Y-7500000D02*
G75*
G02*
X20700000Y-7800000I0J-300000D01*
G01*
X20537500Y-27500000D02*
G75*
G02*
X20212500Y-27500000I-162500J0D01*
G01*
X20212500Y-27500000D02*
G75*
G02*
X20537500Y-27500000I162500J0D01*
G01*
X20000000Y-24450000D02*
G75*
G02*
X20300000Y-24450000I150000J0D01*
G01*
X13600000Y-31500000D02*
G75*
G02*
X13300000Y-31200000I0J300000D01*
G01*
X13300000Y-7800000D02*
G75*
G02*
X13600000Y-7500000I300000J0D01*
G01*
X13300000Y-7800000D02*
X13300000Y-31200000D01*
X17162500Y-19500000D02*
G75*
G02*
X16837500Y-19500000I-162500J0D01*
G01*
X16837500Y-19500000D02*
G75*
G02*
X17162500Y-19500000I162500J0D01*
G01*
X20537500Y-11500000D02*
G75*
G02*
X20212500Y-11500000I-162500J0D01*
G01*
X20212500Y-11500000D02*
G75*
G02*
X20537500Y-11500000I162500J0D01*
G01*
X20000000Y-24450000D02*
X20000000Y-26550000D01*
D11*
X15660000Y-13785000D02*
X15690000Y-13815000D01*
X15690000Y-13785000D02*
X15660000Y-13815000D01*
X15785000Y-13935000D02*
X15815000Y-13965000D01*
X15815000Y-13935000D02*
X15785000Y-13965000D01*
X17035000Y-8235000D02*
X17065000Y-8265000D01*
X17065000Y-8235000D02*
X17035000Y-8265000D01*
X17385000Y-13785000D02*
X17415000Y-13815000D01*
X17415000Y-13785000D02*
X17385000Y-13815000D01*
X17385000Y-13935000D02*
X17415000Y-13965000D01*
X17415000Y-13935000D02*
X17385000Y-13965000D01*
X18835000Y-9085000D02*
X18865000Y-9115000D01*
X18865000Y-9085000D02*
X18835000Y-9115000D01*
X18835000Y-9185000D02*
X18865000Y-9215000D01*
X18865000Y-9185000D02*
X18835000Y-9215000D01*
X18985000Y-20360000D02*
X19015000Y-20390000D01*
X19015000Y-20360000D02*
X18985000Y-20390000D01*
X13786500Y-30350000D02*
G75*
G02*
X13713500Y-30350000I-36500J0D01*
G01*
X13713500Y-30350000D02*
G75*
G02*
X13786500Y-30350000I36500J0D01*
G01*
X13786500Y-30500000D02*
G75*
G02*
X13713500Y-30500000I-36500J0D01*
G01*
X13713500Y-30500000D02*
G75*
G02*
X13786500Y-30500000I36500J0D01*
G01*
X13786500Y-30650000D02*
G75*
G02*
X13713500Y-30650000I-36500J0D01*
G01*
X13713500Y-30650000D02*
G75*
G02*
X13786500Y-30650000I36500J0D01*
G01*
X13786500Y-30800000D02*
G75*
G02*
X13713500Y-30800000I-36500J0D01*
G01*
X13713500Y-30800000D02*
G75*
G02*
X13786500Y-30800000I36500J0D01*
G01*
X13786500Y-30950000D02*
G75*
G02*
X13713500Y-30950000I-36500J0D01*
G01*
X13713500Y-30950000D02*
G75*
G02*
X13786500Y-30950000I36500J0D01*
G01*
X13786500Y-31100000D02*
G75*
G02*
X13713500Y-31100000I-36500J0D01*
G01*
X13713500Y-31100000D02*
G75*
G02*
X13786500Y-31100000I36500J0D01*
G01*
X13886500Y-7900000D02*
G75*
G02*
X13813500Y-7900000I-36500J0D01*
G01*
X13813500Y-7900000D02*
G75*
G02*
X13886500Y-7900000I36500J0D01*
G01*
X13886500Y-8050000D02*
G75*
G02*
X13813500Y-8050000I-36500J0D01*
G01*
X13813500Y-8050000D02*
G75*
G02*
X13886500Y-8050000I36500J0D01*
G01*
X13886500Y-8200000D02*
G75*
G02*
X13813500Y-8200000I-36500J0D01*
G01*
X13813500Y-8200000D02*
G75*
G02*
X13886500Y-8200000I36500J0D01*
G01*
X13886500Y-8350000D02*
G75*
G02*
X13813500Y-8350000I-36500J0D01*
G01*
X13813500Y-8350000D02*
G75*
G02*
X13886500Y-8350000I36500J0D01*
G01*
X13886500Y-8500000D02*
G75*
G02*
X13813500Y-8500000I-36500J0D01*
G01*
X13813500Y-8500000D02*
G75*
G02*
X13886500Y-8500000I36500J0D01*
G01*
X13886500Y-8650000D02*
G75*
G02*
X13813500Y-8650000I-36500J0D01*
G01*
X13813500Y-8650000D02*
G75*
G02*
X13886500Y-8650000I36500J0D01*
G01*
X15066500Y-30350000D02*
G75*
G02*
X14993500Y-30350000I-36500J0D01*
G01*
X14993500Y-30350000D02*
G75*
G02*
X15066500Y-30350000I36500J0D01*
G01*
X15066500Y-30500000D02*
G75*
G02*
X14993500Y-30500000I-36500J0D01*
G01*
X14993500Y-30500000D02*
G75*
G02*
X15066500Y-30500000I36500J0D01*
G01*
X15066500Y-30650000D02*
G75*
G02*
X14993500Y-30650000I-36500J0D01*
G01*
X14993500Y-30650000D02*
G75*
G02*
X15066500Y-30650000I36500J0D01*
G01*
X15066500Y-30800000D02*
G75*
G02*
X14993500Y-30800000I-36500J0D01*
G01*
X14993500Y-30800000D02*
G75*
G02*
X15066500Y-30800000I36500J0D01*
G01*
X15066500Y-30950000D02*
G75*
G02*
X14993500Y-30950000I-36500J0D01*
G01*
X14993500Y-30950000D02*
G75*
G02*
X15066500Y-30950000I36500J0D01*
G01*
X15066500Y-31100000D02*
G75*
G02*
X14993500Y-31100000I-36500J0D01*
G01*
X14993500Y-31100000D02*
G75*
G02*
X15066500Y-31100000I36500J0D01*
G01*
X15166500Y-7900000D02*
G75*
G02*
X15093500Y-7900000I-36500J0D01*
G01*
X15093500Y-7900000D02*
G75*
G02*
X15166500Y-7900000I36500J0D01*
G01*
X15166500Y-8050000D02*
G75*
G02*
X15093500Y-8050000I-36500J0D01*
G01*
X15093500Y-8050000D02*
G75*
G02*
X15166500Y-8050000I36500J0D01*
G01*
X15166500Y-8200000D02*
G75*
G02*
X15093500Y-8200000I-36500J0D01*
G01*
X15093500Y-8200000D02*
G75*
G02*
X15166500Y-8200000I36500J0D01*
G01*
X15166500Y-8350000D02*
G75*
G02*
X15093500Y-8350000I-36500J0D01*
G01*
X15093500Y-8350000D02*
G75*
G02*
X15166500Y-8350000I36500J0D01*
G01*
X15166500Y-8500000D02*
G75*
G02*
X15093500Y-8500000I-36500J0D01*
G01*
X15093500Y-8500000D02*
G75*
G02*
X15166500Y-8500000I36500J0D01*
G01*
X15166500Y-8650000D02*
G75*
G02*
X15093500Y-8650000I-36500J0D01*
G01*
X15093500Y-8650000D02*
G75*
G02*
X15166500Y-8650000I36500J0D01*
G01*
X16346500Y-30350000D02*
G75*
G02*
X16273500Y-30350000I-36500J0D01*
G01*
X16273500Y-30350000D02*
G75*
G02*
X16346500Y-30350000I36500J0D01*
G01*
X16346500Y-30500000D02*
G75*
G02*
X16273500Y-30500000I-36500J0D01*
G01*
X16273500Y-30500000D02*
G75*
G02*
X16346500Y-30500000I36500J0D01*
G01*
X16346500Y-30650000D02*
G75*
G02*
X16273500Y-30650000I-36500J0D01*
G01*
X16273500Y-30650000D02*
G75*
G02*
X16346500Y-30650000I36500J0D01*
G01*
X16346500Y-30800000D02*
G75*
G02*
X16273500Y-30800000I-36500J0D01*
G01*
X16273500Y-30800000D02*
G75*
G02*
X16346500Y-30800000I36500J0D01*
G01*
X16346500Y-30950000D02*
G75*
G02*
X16273500Y-30950000I-36500J0D01*
G01*
X16273500Y-30950000D02*
G75*
G02*
X16346500Y-30950000I36500J0D01*
G01*
X16346500Y-31100000D02*
G75*
G02*
X16273500Y-31100000I-36500J0D01*
G01*
X16273500Y-31100000D02*
G75*
G02*
X16346500Y-31100000I36500J0D01*
G01*
X16446500Y-7900000D02*
G75*
G02*
X16373500Y-7900000I-36500J0D01*
G01*
X16373500Y-7900000D02*
G75*
G02*
X16446500Y-7900000I36500J0D01*
G01*
X16446500Y-8050000D02*
G75*
G02*
X16373500Y-8050000I-36500J0D01*
G01*
X16373500Y-8050000D02*
G75*
G02*
X16446500Y-8050000I36500J0D01*
G01*
X16446500Y-8200000D02*
G75*
G02*
X16373500Y-8200000I-36500J0D01*
G01*
X16373500Y-8200000D02*
G75*
G02*
X16446500Y-8200000I36500J0D01*
G01*
X16446500Y-8350000D02*
G75*
G02*
X16373500Y-8350000I-36500J0D01*
G01*
X16373500Y-8350000D02*
G75*
G02*
X16446500Y-8350000I36500J0D01*
G01*
X16446500Y-8500000D02*
G75*
G02*
X16373500Y-8500000I-36500J0D01*
G01*
X16373500Y-8500000D02*
G75*
G02*
X16446500Y-8500000I36500J0D01*
G01*
X16446500Y-8650000D02*
G75*
G02*
X16373500Y-8650000I-36500J0D01*
G01*
X16373500Y-8650000D02*
G75*
G02*
X16446500Y-8650000I36500J0D01*
G01*
X17626500Y-30350000D02*
G75*
G02*
X17553500Y-30350000I-36500J0D01*
G01*
X17553500Y-30350000D02*
G75*
G02*
X17626500Y-30350000I36500J0D01*
G01*
X17626500Y-30500000D02*
G75*
G02*
X17553500Y-30500000I-36500J0D01*
G01*
X17553500Y-30500000D02*
G75*
G02*
X17626500Y-30500000I36500J0D01*
G01*
X17626500Y-30650000D02*
G75*
G02*
X17553500Y-30650000I-36500J0D01*
G01*
X17553500Y-30650000D02*
G75*
G02*
X17626500Y-30650000I36500J0D01*
G01*
X17626500Y-30800000D02*
G75*
G02*
X17553500Y-30800000I-36500J0D01*
G01*
X17553500Y-30800000D02*
G75*
G02*
X17626500Y-30800000I36500J0D01*
G01*
X17626500Y-30950000D02*
G75*
G02*
X17553500Y-30950000I-36500J0D01*
G01*
X17553500Y-30950000D02*
G75*
G02*
X17626500Y-30950000I36500J0D01*
G01*
X17626500Y-31100000D02*
G75*
G02*
X17553500Y-31100000I-36500J0D01*
G01*
X17553500Y-31100000D02*
G75*
G02*
X17626500Y-31100000I36500J0D01*
G01*
X17726500Y-7900000D02*
G75*
G02*
X17653500Y-7900000I-36500J0D01*
G01*
X17653500Y-7900000D02*
G75*
G02*
X17726500Y-7900000I36500J0D01*
G01*
X17726500Y-8050000D02*
G75*
G02*
X17653500Y-8050000I-36500J0D01*
G01*
X17653500Y-8050000D02*
G75*
G02*
X17726500Y-8050000I36500J0D01*
G01*
X17726500Y-8200000D02*
G75*
G02*
X17653500Y-8200000I-36500J0D01*
G01*
X17653500Y-8200000D02*
G75*
G02*
X17726500Y-8200000I36500J0D01*
G01*
X17726500Y-8350000D02*
G75*
G02*
X17653500Y-8350000I-36500J0D01*
G01*
X17653500Y-8350000D02*
G75*
G02*
X17726500Y-8350000I36500J0D01*
G01*
X17726500Y-8500000D02*
G75*
G02*
X17653500Y-8500000I-36500J0D01*
G01*
X17653500Y-8500000D02*
G75*
G02*
X17726500Y-8500000I36500J0D01*
G01*
X17726500Y-8650000D02*
G75*
G02*
X17653500Y-8650000I-36500J0D01*
G01*
X17653500Y-8650000D02*
G75*
G02*
X17726500Y-8650000I36500J0D01*
G01*
X18906500Y-30350000D02*
G75*
G02*
X18833500Y-30350000I-36500J0D01*
G01*
X18833500Y-30350000D02*
G75*
G02*
X18906500Y-30350000I36500J0D01*
G01*
X18906500Y-30500000D02*
G75*
G02*
X18833500Y-30500000I-36500J0D01*
G01*
X18833500Y-30500000D02*
G75*
G02*
X18906500Y-30500000I36500J0D01*
G01*
X18906500Y-30650000D02*
G75*
G02*
X18833500Y-30650000I-36500J0D01*
G01*
X18833500Y-30650000D02*
G75*
G02*
X18906500Y-30650000I36500J0D01*
G01*
X18906500Y-30800000D02*
G75*
G02*
X18833500Y-30800000I-36500J0D01*
G01*
X18833500Y-30800000D02*
G75*
G02*
X18906500Y-30800000I36500J0D01*
G01*
X18906500Y-30950000D02*
G75*
G02*
X18833500Y-30950000I-36500J0D01*
G01*
X18833500Y-30950000D02*
G75*
G02*
X18906500Y-30950000I36500J0D01*
G01*
X18906500Y-31100000D02*
G75*
G02*
X18833500Y-31100000I-36500J0D01*
G01*
X18833500Y-31100000D02*
G75*
G02*
X18906500Y-31100000I36500J0D01*
G01*
X19006500Y-7900000D02*
G75*
G02*
X18933500Y-7900000I-36500J0D01*
G01*
X18933500Y-7900000D02*
G75*
G02*
X19006500Y-7900000I36500J0D01*
G01*
X19006500Y-8050000D02*
G75*
G02*
X18933500Y-8050000I-36500J0D01*
G01*
X18933500Y-8050000D02*
G75*
G02*
X19006500Y-8050000I36500J0D01*
G01*
X19006500Y-8200000D02*
G75*
G02*
X18933500Y-8200000I-36500J0D01*
G01*
X18933500Y-8200000D02*
G75*
G02*
X19006500Y-8200000I36500J0D01*
G01*
X19006500Y-8350000D02*
G75*
G02*
X18933500Y-8350000I-36500J0D01*
G01*
X18933500Y-8350000D02*
G75*
G02*
X19006500Y-8350000I36500J0D01*
G01*
X19006500Y-8500000D02*
G75*
G02*
X18933500Y-8500000I-36500J0D01*
G01*
X18933500Y-8500000D02*
G75*
G02*
X19006500Y-8500000I36500J0D01*
G01*
X19006500Y-8650000D02*
G75*
G02*
X18933500Y-8650000I-36500J0D01*
G01*
X18933500Y-8650000D02*
G75*
G02*
X19006500Y-8650000I36500J0D01*
G01*
X20186500Y-14550000D02*
G75*
G02*
X20113500Y-14550000I-36500J0D01*
G01*
X20113500Y-14550000D02*
G75*
G02*
X20186500Y-14550000I36500J0D01*
G01*
X20186500Y-14700000D02*
G75*
G02*
X20113500Y-14700000I-36500J0D01*
G01*
X20113500Y-14700000D02*
G75*
G02*
X20186500Y-14700000I36500J0D01*
G01*
X20186500Y-14850000D02*
G75*
G02*
X20113500Y-14850000I-36500J0D01*
G01*
X20113500Y-14850000D02*
G75*
G02*
X20186500Y-14850000I36500J0D01*
G01*
X20186500Y-30350000D02*
G75*
G02*
X20113500Y-30350000I-36500J0D01*
G01*
X20113500Y-30350000D02*
G75*
G02*
X20186500Y-30350000I36500J0D01*
G01*
X20186500Y-30500000D02*
G75*
G02*
X20113500Y-30500000I-36500J0D01*
G01*
X20113500Y-30500000D02*
G75*
G02*
X20186500Y-30500000I36500J0D01*
G01*
X20186500Y-30650000D02*
G75*
G02*
X20113500Y-30650000I-36500J0D01*
G01*
X20113500Y-30650000D02*
G75*
G02*
X20186500Y-30650000I36500J0D01*
G01*
X20186500Y-30800000D02*
G75*
G02*
X20113500Y-30800000I-36500J0D01*
G01*
X20113500Y-30800000D02*
G75*
G02*
X20186500Y-30800000I36500J0D01*
G01*
X20186500Y-30950000D02*
G75*
G02*
X20113500Y-30950000I-36500J0D01*
G01*
X20113500Y-30950000D02*
G75*
G02*
X20186500Y-30950000I36500J0D01*
G01*
X20186500Y-31100000D02*
G75*
G02*
X20113500Y-31100000I-36500J0D01*
G01*
X20113500Y-31100000D02*
G75*
G02*
X20186500Y-31100000I36500J0D01*
G01*
X20191500Y-9400000D02*
G75*
G02*
X20118500Y-9400000I-36500J0D01*
G01*
X20118500Y-9400000D02*
G75*
G02*
X20191500Y-9400000I36500J0D01*
G01*
X20191500Y-9550000D02*
G75*
G02*
X20118500Y-9550000I-36500J0D01*
G01*
X20118500Y-9550000D02*
G75*
G02*
X20191500Y-9550000I36500J0D01*
G01*
X20191500Y-9700000D02*
G75*
G02*
X20118500Y-9700000I-36500J0D01*
G01*
X20118500Y-9700000D02*
G75*
G02*
X20191500Y-9700000I36500J0D01*
G01*
X20191500Y-10300000D02*
G75*
G02*
X20118500Y-10300000I-36500J0D01*
G01*
X20118500Y-10300000D02*
G75*
G02*
X20191500Y-10300000I36500J0D01*
G01*
X20191500Y-10450000D02*
G75*
G02*
X20118500Y-10450000I-36500J0D01*
G01*
X20118500Y-10450000D02*
G75*
G02*
X20191500Y-10450000I36500J0D01*
G01*
X20191500Y-10600000D02*
G75*
G02*
X20118500Y-10600000I-36500J0D01*
G01*
X20118500Y-10600000D02*
G75*
G02*
X20191500Y-10600000I36500J0D01*
G01*
X20191500Y-13650000D02*
G75*
G02*
X20118500Y-13650000I-36500J0D01*
G01*
X20118500Y-13650000D02*
G75*
G02*
X20191500Y-13650000I36500J0D01*
G01*
X20191500Y-13800000D02*
G75*
G02*
X20118500Y-13800000I-36500J0D01*
G01*
X20118500Y-13800000D02*
G75*
G02*
X20191500Y-13800000I36500J0D01*
G01*
X20191500Y-13950000D02*
G75*
G02*
X20118500Y-13950000I-36500J0D01*
G01*
X20118500Y-13950000D02*
G75*
G02*
X20191500Y-13950000I36500J0D01*
G01*
X20286500Y-7900000D02*
G75*
G02*
X20213500Y-7900000I-36500J0D01*
G01*
X20213500Y-7900000D02*
G75*
G02*
X20286500Y-7900000I36500J0D01*
G01*
X20286500Y-8050000D02*
G75*
G02*
X20213500Y-8050000I-36500J0D01*
G01*
X20213500Y-8050000D02*
G75*
G02*
X20286500Y-8050000I36500J0D01*
G01*
X20286500Y-8200000D02*
G75*
G02*
X20213500Y-8200000I-36500J0D01*
G01*
X20213500Y-8200000D02*
G75*
G02*
X20286500Y-8200000I36500J0D01*
G01*
X20286500Y-8350000D02*
G75*
G02*
X20213500Y-8350000I-36500J0D01*
G01*
X20213500Y-8350000D02*
G75*
G02*
X20286500Y-8350000I36500J0D01*
G01*
X20286500Y-8500000D02*
G75*
G02*
X20213500Y-8500000I-36500J0D01*
G01*
X20213500Y-8500000D02*
G75*
G02*
X20286500Y-8500000I36500J0D01*
G01*
X20286500Y-8650000D02*
G75*
G02*
X20213500Y-8650000I-36500J0D01*
G01*
X20213500Y-8650000D02*
G75*
G02*
X20286500Y-8650000I36500J0D01*
G01*
D12*
X15608000Y-20296660D02*
X15608000Y-20403340D01*
X15554660Y-20350000D02*
X15661340Y-20350000D01*
X15862000Y-18772660D02*
X15862000Y-18879340D01*
X15808660Y-18826000D02*
X15915340Y-18826000D01*
X15862000Y-20296660D02*
X15862000Y-20403340D01*
X15808660Y-20350000D02*
X15915340Y-20350000D01*
X16116000Y-18772660D02*
X16116000Y-18879340D01*
X16062660Y-18826000D02*
X16169340Y-18826000D01*
X16116000Y-20296660D02*
X16116000Y-20403340D01*
X16062660Y-20350000D02*
X16169340Y-20350000D01*
X17640000Y-18772660D02*
X17640000Y-18879340D01*
X17586660Y-18826000D02*
X17693340Y-18826000D01*
X17640000Y-20296660D02*
X17640000Y-20403340D01*
X17586660Y-20350000D02*
X17693340Y-20350000D01*
X18148000Y-18772660D02*
X18148000Y-18879340D01*
X18094660Y-18826000D02*
X18201340Y-18826000D01*
X18148000Y-20296660D02*
X18148000Y-20403340D01*
X18094660Y-20350000D02*
X18201340Y-20350000D01*
D13*
X19326462Y-18645962D02*
X19326462Y-18554038D01*
X19234538Y-18554038D01*
X19234538Y-18645962D01*
X19326462Y-18645962D01*
X19326462Y-19145962D02*
X19326462Y-19054038D01*
X19234538Y-19054038D01*
X19234538Y-19145962D01*
X19326462Y-19145962D01*
D14*
X16055000Y-21625000D02*
X16130000Y-21550000D01*
X16055000Y-21475000D01*
X15980000Y-21550000D01*
X16055000Y-21625000D01*
D11*
X16130000Y-21825000D02*
X16130000Y-21275000D01*
X15980000Y-21275000D02*
G75*
G02*
X16130000Y-21275000I75000J0D01*
G01*
X15980000Y-21275000D02*
X15980000Y-21825000D01*
X15980000Y-21825000D02*
G75*
G03*
X16130000Y-21825000I75000J0D01*
G01*
D14*
X17005000Y-21625000D02*
X17080000Y-21550000D01*
X17005000Y-21475000D01*
X16930000Y-21550000D01*
X17005000Y-21625000D01*
D11*
X17080000Y-21825000D02*
X17080000Y-21275000D01*
X16930000Y-21275000D02*
G75*
G02*
X17080000Y-21275000I75000J0D01*
G01*
X16930000Y-21275000D02*
X16930000Y-21825000D01*
X16930000Y-21825000D02*
G75*
G03*
X17080000Y-21825000I75000J0D01*
G01*
D14*
X17955000Y-21625000D02*
X18030000Y-21550000D01*
X17955000Y-21475000D01*
X17880000Y-21550000D01*
X17955000Y-21625000D01*
D11*
X18030000Y-21825000D02*
X18030000Y-21275000D01*
X17880000Y-21275000D02*
G75*
G02*
X18030000Y-21275000I75000J0D01*
G01*
X17880000Y-21275000D02*
X17880000Y-21825000D01*
X17880000Y-21825000D02*
G75*
G03*
X18030000Y-21825000I75000J0D01*
G01*
D15*
X19165000Y-21065000D02*
X19435000Y-21335000D01*
X19435000Y-21065000D02*
X19165000Y-21335000D01*
X19435000Y-21200000D02*
G75*
G02*
X19165000Y-21200000I-135000J0D01*
G01*
X19165000Y-21200000D02*
G75*
G02*
X19435000Y-21200000I135000J0D01*
G01*
X19665000Y-21065000D02*
X19935000Y-21335000D01*
X19935000Y-21065000D02*
X19665000Y-21335000D01*
X19935000Y-21200000D02*
G75*
G02*
X19665000Y-21200000I-135000J0D01*
G01*
X19665000Y-21200000D02*
G75*
G02*
X19935000Y-21200000I135000J0D01*
G01*
D16*
X14317250Y-11862500D02*
X14592250Y-12137500D01*
X14592250Y-11862500D02*
X14317250Y-12137500D01*
X14454750Y-11862500D02*
X14454750Y-12137500D01*
X14317250Y-12000000D02*
X14592250Y-12000000D01*
X14317250Y-17662500D02*
X14592250Y-17937500D01*
X14592250Y-17662500D02*
X14317250Y-17937500D01*
X14454750Y-17662500D02*
X14454750Y-17937500D01*
X14317250Y-17800000D02*
X14592250Y-17800000D01*
X19217250Y-11862500D02*
X19492250Y-12137500D01*
X19492250Y-11862500D02*
X19217250Y-12137500D01*
X19354750Y-11862500D02*
X19354750Y-12137500D01*
X19217250Y-12000000D02*
X19492250Y-12000000D01*
X19217250Y-17662500D02*
X19492250Y-17937500D01*
X19492250Y-17662500D02*
X19217250Y-17937500D01*
X19354750Y-17662500D02*
X19354750Y-17937500D01*
X19217250Y-17800000D02*
X19492250Y-17800000D01*
D10*
X13550777Y-31821484D02*
X13550777Y-31621484D01*
X13550777Y-31621484D02*
X13598396Y-31621484D01*
X13598396Y-31621484D02*
X13626967Y-31631008D01*
X13626967Y-31631008D02*
X13646015Y-31650055D01*
X13646015Y-31650055D02*
X13655539Y-31669103D01*
X13655539Y-31669103D02*
X13665062Y-31707198D01*
X13665062Y-31707198D02*
X13665062Y-31735769D01*
X13665062Y-31735769D02*
X13655539Y-31773865D01*
X13655539Y-31773865D02*
X13646015Y-31792912D01*
X13646015Y-31792912D02*
X13626967Y-31811960D01*
X13626967Y-31811960D02*
X13598396Y-31821484D01*
X13598396Y-31821484D02*
X13550777Y-31821484D01*
X13750777Y-31821484D02*
X13750777Y-31688150D01*
X13750777Y-31726246D02*
X13760301Y-31707198D01*
X13760301Y-31707198D02*
X13769824Y-31697674D01*
X13769824Y-31697674D02*
X13788872Y-31688150D01*
X13788872Y-31688150D02*
X13807920Y-31688150D01*
X13874586Y-31821484D02*
X13874586Y-31688150D01*
X13874586Y-31621484D02*
X13865062Y-31631008D01*
X13865062Y-31631008D02*
X13874586Y-31640531D01*
X13874586Y-31640531D02*
X13884110Y-31631008D01*
X13884110Y-31631008D02*
X13874586Y-31621484D01*
X13874586Y-31621484D02*
X13874586Y-31640531D01*
X13998396Y-31821484D02*
X13979348Y-31811960D01*
X13979348Y-31811960D02*
X13969824Y-31792912D01*
X13969824Y-31792912D02*
X13969824Y-31621484D01*
X14103158Y-31821484D02*
X14084110Y-31811960D01*
X14084110Y-31811960D02*
X14074586Y-31792912D01*
X14074586Y-31792912D02*
X14074586Y-31621484D01*
X14331729Y-31821484D02*
X14331729Y-31621484D01*
X14331729Y-31621484D02*
X14398396Y-31764341D01*
X14398396Y-31764341D02*
X14465062Y-31621484D01*
X14465062Y-31621484D02*
X14465062Y-31821484D01*
X14646015Y-31821484D02*
X14646015Y-31716722D01*
X14646015Y-31716722D02*
X14636491Y-31697674D01*
X14636491Y-31697674D02*
X14617443Y-31688150D01*
X14617443Y-31688150D02*
X14579348Y-31688150D01*
X14579348Y-31688150D02*
X14560301Y-31697674D01*
X14646015Y-31811960D02*
X14626967Y-31821484D01*
X14626967Y-31821484D02*
X14579348Y-31821484D01*
X14579348Y-31821484D02*
X14560301Y-31811960D01*
X14560301Y-31811960D02*
X14550777Y-31792912D01*
X14550777Y-31792912D02*
X14550777Y-31773865D01*
X14550777Y-31773865D02*
X14560301Y-31754817D01*
X14560301Y-31754817D02*
X14579348Y-31745293D01*
X14579348Y-31745293D02*
X14626967Y-31745293D01*
X14626967Y-31745293D02*
X14646015Y-31735769D01*
X14741253Y-31688150D02*
X14741253Y-31888150D01*
X14741253Y-31697674D02*
X14760301Y-31688150D01*
X14760301Y-31688150D02*
X14798396Y-31688150D01*
X14798396Y-31688150D02*
X14817443Y-31697674D01*
X14817443Y-31697674D02*
X14826967Y-31707198D01*
X14826967Y-31707198D02*
X14836491Y-31726246D01*
X14836491Y-31726246D02*
X14836491Y-31783388D01*
X14836491Y-31783388D02*
X14826967Y-31802436D01*
X14826967Y-31802436D02*
X14817443Y-31811960D01*
X14817443Y-31811960D02*
X14798396Y-31821484D01*
X14798396Y-31821484D02*
X14760301Y-31821484D01*
X14760301Y-31821484D02*
X14741253Y-31811960D01*
X14922205Y-31802436D02*
X14931729Y-31811960D01*
X14931729Y-31811960D02*
X14922205Y-31821484D01*
X14922205Y-31821484D02*
X14912682Y-31811960D01*
X14912682Y-31811960D02*
X14922205Y-31802436D01*
X14922205Y-31802436D02*
X14922205Y-31821484D01*
X14922205Y-31697674D02*
X14931729Y-31707198D01*
X14931729Y-31707198D02*
X14922205Y-31716722D01*
X14922205Y-31716722D02*
X14912682Y-31707198D01*
X14912682Y-31707198D02*
X14922205Y-31697674D01*
X14922205Y-31697674D02*
X14922205Y-31716722D01*
D11*
X13260000Y-32135000D02*
X13290000Y-32165000D01*
X13290000Y-32135000D02*
X13260000Y-32165000D01*
D10*
X13588872Y-32041484D02*
X13607920Y-32041484D01*
X13607920Y-32041484D02*
X13626967Y-32051008D01*
X13626967Y-32051008D02*
X13636491Y-32060531D01*
X13636491Y-32060531D02*
X13646015Y-32079579D01*
X13646015Y-32079579D02*
X13655539Y-32117674D01*
X13655539Y-32117674D02*
X13655539Y-32165293D01*
X13655539Y-32165293D02*
X13646015Y-32203388D01*
X13646015Y-32203388D02*
X13636491Y-32222436D01*
X13636491Y-32222436D02*
X13626967Y-32231960D01*
X13626967Y-32231960D02*
X13607920Y-32241484D01*
X13607920Y-32241484D02*
X13588872Y-32241484D01*
X13588872Y-32241484D02*
X13569824Y-32231960D01*
X13569824Y-32231960D02*
X13560301Y-32222436D01*
X13560301Y-32222436D02*
X13550777Y-32203388D01*
X13550777Y-32203388D02*
X13541253Y-32165293D01*
X13541253Y-32165293D02*
X13541253Y-32117674D01*
X13541253Y-32117674D02*
X13550777Y-32079579D01*
X13550777Y-32079579D02*
X13560301Y-32060531D01*
X13560301Y-32060531D02*
X13569824Y-32051008D01*
X13569824Y-32051008D02*
X13588872Y-32041484D01*
X13741253Y-32222436D02*
X13750777Y-32231960D01*
X13750777Y-32231960D02*
X13741253Y-32241484D01*
X13741253Y-32241484D02*
X13731729Y-32231960D01*
X13731729Y-32231960D02*
X13741253Y-32222436D01*
X13741253Y-32222436D02*
X13741253Y-32241484D01*
X13817443Y-32041484D02*
X13941253Y-32041484D01*
X13941253Y-32041484D02*
X13874586Y-32117674D01*
X13874586Y-32117674D02*
X13903158Y-32117674D01*
X13903158Y-32117674D02*
X13922205Y-32127198D01*
X13922205Y-32127198D02*
X13931729Y-32136722D01*
X13931729Y-32136722D02*
X13941253Y-32155769D01*
X13941253Y-32155769D02*
X13941253Y-32203388D01*
X13941253Y-32203388D02*
X13931729Y-32222436D01*
X13931729Y-32222436D02*
X13922205Y-32231960D01*
X13922205Y-32231960D02*
X13903158Y-32241484D01*
X13903158Y-32241484D02*
X13846015Y-32241484D01*
X13846015Y-32241484D02*
X13826967Y-32231960D01*
X13826967Y-32231960D02*
X13817443Y-32222436D01*
X14065062Y-32041484D02*
X14084110Y-32041484D01*
X14084110Y-32041484D02*
X14103158Y-32051008D01*
X14103158Y-32051008D02*
X14112682Y-32060531D01*
X14112682Y-32060531D02*
X14122205Y-32079579D01*
X14122205Y-32079579D02*
X14131729Y-32117674D01*
X14131729Y-32117674D02*
X14131729Y-32165293D01*
X14131729Y-32165293D02*
X14122205Y-32203388D01*
X14122205Y-32203388D02*
X14112682Y-32222436D01*
X14112682Y-32222436D02*
X14103158Y-32231960D01*
X14103158Y-32231960D02*
X14084110Y-32241484D01*
X14084110Y-32241484D02*
X14065062Y-32241484D01*
X14065062Y-32241484D02*
X14046015Y-32231960D01*
X14046015Y-32231960D02*
X14036491Y-32222436D01*
X14036491Y-32222436D02*
X14026967Y-32203388D01*
X14026967Y-32203388D02*
X14017443Y-32165293D01*
X14017443Y-32165293D02*
X14017443Y-32117674D01*
X14017443Y-32117674D02*
X14026967Y-32079579D01*
X14026967Y-32079579D02*
X14036491Y-32060531D01*
X14036491Y-32060531D02*
X14046015Y-32051008D01*
X14046015Y-32051008D02*
X14065062Y-32041484D01*
X14255539Y-32041484D02*
X14274586Y-32041484D01*
X14274586Y-32041484D02*
X14293634Y-32051008D01*
X14293634Y-32051008D02*
X14303158Y-32060531D01*
X14303158Y-32060531D02*
X14312682Y-32079579D01*
X14312682Y-32079579D02*
X14322205Y-32117674D01*
X14322205Y-32117674D02*
X14322205Y-32165293D01*
X14322205Y-32165293D02*
X14312682Y-32203388D01*
X14312682Y-32203388D02*
X14303158Y-32222436D01*
X14303158Y-32222436D02*
X14293634Y-32231960D01*
X14293634Y-32231960D02*
X14274586Y-32241484D01*
X14274586Y-32241484D02*
X14255539Y-32241484D01*
X14255539Y-32241484D02*
X14236491Y-32231960D01*
X14236491Y-32231960D02*
X14226967Y-32222436D01*
X14226967Y-32222436D02*
X14217443Y-32203388D01*
X14217443Y-32203388D02*
X14207920Y-32165293D01*
X14207920Y-32165293D02*
X14207920Y-32117674D01*
X14207920Y-32117674D02*
X14217443Y-32079579D01*
X14217443Y-32079579D02*
X14226967Y-32060531D01*
X14226967Y-32060531D02*
X14236491Y-32051008D01*
X14236491Y-32051008D02*
X14255539Y-32041484D01*
X14407920Y-32241484D02*
X14407920Y-32108150D01*
X14407920Y-32127198D02*
X14417443Y-32117674D01*
X14417443Y-32117674D02*
X14436491Y-32108150D01*
X14436491Y-32108150D02*
X14465063Y-32108150D01*
X14465063Y-32108150D02*
X14484110Y-32117674D01*
X14484110Y-32117674D02*
X14493634Y-32136722D01*
X14493634Y-32136722D02*
X14493634Y-32241484D01*
X14493634Y-32136722D02*
X14503158Y-32117674D01*
X14503158Y-32117674D02*
X14522205Y-32108150D01*
X14522205Y-32108150D02*
X14550777Y-32108150D01*
X14550777Y-32108150D02*
X14569824Y-32117674D01*
X14569824Y-32117674D02*
X14579348Y-32136722D01*
X14579348Y-32136722D02*
X14579348Y-32241484D01*
X14674586Y-32241484D02*
X14674586Y-32108150D01*
X14674586Y-32127198D02*
X14684110Y-32117674D01*
X14684110Y-32117674D02*
X14703158Y-32108150D01*
X14703158Y-32108150D02*
X14731729Y-32108150D01*
X14731729Y-32108150D02*
X14750777Y-32117674D01*
X14750777Y-32117674D02*
X14760301Y-32136722D01*
X14760301Y-32136722D02*
X14760301Y-32241484D01*
X14760301Y-32136722D02*
X14769824Y-32117674D01*
X14769824Y-32117674D02*
X14788872Y-32108150D01*
X14788872Y-32108150D02*
X14817443Y-32108150D01*
X14817443Y-32108150D02*
X14836491Y-32117674D01*
X14836491Y-32117674D02*
X14846015Y-32136722D01*
X14846015Y-32136722D02*
X14846015Y-32241484D01*
X15236491Y-32031960D02*
X15065063Y-32289103D01*
X15493634Y-32041484D02*
X15512682Y-32041484D01*
X15512682Y-32041484D02*
X15531729Y-32051008D01*
X15531729Y-32051008D02*
X15541253Y-32060531D01*
X15541253Y-32060531D02*
X15550777Y-32079579D01*
X15550777Y-32079579D02*
X15560301Y-32117674D01*
X15560301Y-32117674D02*
X15560301Y-32165293D01*
X15560301Y-32165293D02*
X15550777Y-32203388D01*
X15550777Y-32203388D02*
X15541253Y-32222436D01*
X15541253Y-32222436D02*
X15531729Y-32231960D01*
X15531729Y-32231960D02*
X15512682Y-32241484D01*
X15512682Y-32241484D02*
X15493634Y-32241484D01*
X15493634Y-32241484D02*
X15474586Y-32231960D01*
X15474586Y-32231960D02*
X15465063Y-32222436D01*
X15465063Y-32222436D02*
X15455539Y-32203388D01*
X15455539Y-32203388D02*
X15446015Y-32165293D01*
X15446015Y-32165293D02*
X15446015Y-32117674D01*
X15446015Y-32117674D02*
X15455539Y-32079579D01*
X15455539Y-32079579D02*
X15465063Y-32060531D01*
X15465063Y-32060531D02*
X15474586Y-32051008D01*
X15474586Y-32051008D02*
X15493634Y-32041484D01*
X15646015Y-32222436D02*
X15655539Y-32231960D01*
X15655539Y-32231960D02*
X15646015Y-32241484D01*
X15646015Y-32241484D02*
X15636491Y-32231960D01*
X15636491Y-32231960D02*
X15646015Y-32222436D01*
X15646015Y-32222436D02*
X15646015Y-32241484D01*
X15779348Y-32041484D02*
X15798396Y-32041484D01*
X15798396Y-32041484D02*
X15817444Y-32051008D01*
X15817444Y-32051008D02*
X15826967Y-32060531D01*
X15826967Y-32060531D02*
X15836491Y-32079579D01*
X15836491Y-32079579D02*
X15846015Y-32117674D01*
X15846015Y-32117674D02*
X15846015Y-32165293D01*
X15846015Y-32165293D02*
X15836491Y-32203388D01*
X15836491Y-32203388D02*
X15826967Y-32222436D01*
X15826967Y-32222436D02*
X15817444Y-32231960D01*
X15817444Y-32231960D02*
X15798396Y-32241484D01*
X15798396Y-32241484D02*
X15779348Y-32241484D01*
X15779348Y-32241484D02*
X15760301Y-32231960D01*
X15760301Y-32231960D02*
X15750777Y-32222436D01*
X15750777Y-32222436D02*
X15741253Y-32203388D01*
X15741253Y-32203388D02*
X15731729Y-32165293D01*
X15731729Y-32165293D02*
X15731729Y-32117674D01*
X15731729Y-32117674D02*
X15741253Y-32079579D01*
X15741253Y-32079579D02*
X15750777Y-32060531D01*
X15750777Y-32060531D02*
X15760301Y-32051008D01*
X15760301Y-32051008D02*
X15779348Y-32041484D01*
X16036491Y-32241484D02*
X15922206Y-32241484D01*
X15979348Y-32241484D02*
X15979348Y-32041484D01*
X15979348Y-32041484D02*
X15960301Y-32070055D01*
X15960301Y-32070055D02*
X15941253Y-32089103D01*
X15941253Y-32089103D02*
X15922206Y-32098627D01*
X16226967Y-32241484D02*
X16112682Y-32241484D01*
X16169825Y-32241484D02*
X16169825Y-32041484D01*
X16169825Y-32041484D02*
X16150777Y-32070055D01*
X16150777Y-32070055D02*
X16131729Y-32089103D01*
X16131729Y-32089103D02*
X16112682Y-32098627D01*
X16341253Y-32127198D02*
X16322206Y-32117674D01*
X16322206Y-32117674D02*
X16312682Y-32108150D01*
X16312682Y-32108150D02*
X16303158Y-32089103D01*
X16303158Y-32089103D02*
X16303158Y-32079579D01*
X16303158Y-32079579D02*
X16312682Y-32060531D01*
X16312682Y-32060531D02*
X16322206Y-32051008D01*
X16322206Y-32051008D02*
X16341253Y-32041484D01*
X16341253Y-32041484D02*
X16379348Y-32041484D01*
X16379348Y-32041484D02*
X16398396Y-32051008D01*
X16398396Y-32051008D02*
X16407920Y-32060531D01*
X16407920Y-32060531D02*
X16417444Y-32079579D01*
X16417444Y-32079579D02*
X16417444Y-32089103D01*
X16417444Y-32089103D02*
X16407920Y-32108150D01*
X16407920Y-32108150D02*
X16398396Y-32117674D01*
X16398396Y-32117674D02*
X16379348Y-32127198D01*
X16379348Y-32127198D02*
X16341253Y-32127198D01*
X16341253Y-32127198D02*
X16322206Y-32136722D01*
X16322206Y-32136722D02*
X16312682Y-32146246D01*
X16312682Y-32146246D02*
X16303158Y-32165293D01*
X16303158Y-32165293D02*
X16303158Y-32203388D01*
X16303158Y-32203388D02*
X16312682Y-32222436D01*
X16312682Y-32222436D02*
X16322206Y-32231960D01*
X16322206Y-32231960D02*
X16341253Y-32241484D01*
X16341253Y-32241484D02*
X16379348Y-32241484D01*
X16379348Y-32241484D02*
X16398396Y-32231960D01*
X16398396Y-32231960D02*
X16407920Y-32222436D01*
X16407920Y-32222436D02*
X16417444Y-32203388D01*
X16417444Y-32203388D02*
X16417444Y-32165293D01*
X16417444Y-32165293D02*
X16407920Y-32146246D01*
X16407920Y-32146246D02*
X16398396Y-32136722D01*
X16398396Y-32136722D02*
X16379348Y-32127198D01*
X16493634Y-32041484D02*
X16493634Y-32079579D01*
X16569825Y-32041484D02*
X16569825Y-32079579D01*
X16865063Y-32317674D02*
X16855539Y-32308150D01*
X16855539Y-32308150D02*
X16836491Y-32279579D01*
X16836491Y-32279579D02*
X16826968Y-32260531D01*
X16826968Y-32260531D02*
X16817444Y-32231960D01*
X16817444Y-32231960D02*
X16807920Y-32184341D01*
X16807920Y-32184341D02*
X16807920Y-32146246D01*
X16807920Y-32146246D02*
X16817444Y-32098627D01*
X16817444Y-32098627D02*
X16826968Y-32070055D01*
X16826968Y-32070055D02*
X16836491Y-32051008D01*
X16836491Y-32051008D02*
X16855539Y-32022436D01*
X16855539Y-32022436D02*
X16865063Y-32012912D01*
X16969825Y-32127198D02*
X16950777Y-32117674D01*
X16950777Y-32117674D02*
X16941253Y-32108150D01*
X16941253Y-32108150D02*
X16931730Y-32089103D01*
X16931730Y-32089103D02*
X16931730Y-32079579D01*
X16931730Y-32079579D02*
X16941253Y-32060531D01*
X16941253Y-32060531D02*
X16950777Y-32051008D01*
X16950777Y-32051008D02*
X16969825Y-32041484D01*
X16969825Y-32041484D02*
X17007920Y-32041484D01*
X17007920Y-32041484D02*
X17026968Y-32051008D01*
X17026968Y-32051008D02*
X17036491Y-32060531D01*
X17036491Y-32060531D02*
X17046015Y-32079579D01*
X17046015Y-32079579D02*
X17046015Y-32089103D01*
X17046015Y-32089103D02*
X17036491Y-32108150D01*
X17036491Y-32108150D02*
X17026968Y-32117674D01*
X17026968Y-32117674D02*
X17007920Y-32127198D01*
X17007920Y-32127198D02*
X16969825Y-32127198D01*
X16969825Y-32127198D02*
X16950777Y-32136722D01*
X16950777Y-32136722D02*
X16941253Y-32146246D01*
X16941253Y-32146246D02*
X16931730Y-32165293D01*
X16931730Y-32165293D02*
X16931730Y-32203388D01*
X16931730Y-32203388D02*
X16941253Y-32222436D01*
X16941253Y-32222436D02*
X16950777Y-32231960D01*
X16950777Y-32231960D02*
X16969825Y-32241484D01*
X16969825Y-32241484D02*
X17007920Y-32241484D01*
X17007920Y-32241484D02*
X17026968Y-32231960D01*
X17026968Y-32231960D02*
X17036491Y-32222436D01*
X17036491Y-32222436D02*
X17046015Y-32203388D01*
X17046015Y-32203388D02*
X17046015Y-32165293D01*
X17046015Y-32165293D02*
X17036491Y-32146246D01*
X17036491Y-32146246D02*
X17026968Y-32136722D01*
X17026968Y-32136722D02*
X17007920Y-32127198D01*
X17284111Y-32241484D02*
X17284111Y-32041484D01*
X17369825Y-32241484D02*
X17369825Y-32136722D01*
X17369825Y-32136722D02*
X17360301Y-32117674D01*
X17360301Y-32117674D02*
X17341253Y-32108150D01*
X17341253Y-32108150D02*
X17312682Y-32108150D01*
X17312682Y-32108150D02*
X17293634Y-32117674D01*
X17293634Y-32117674D02*
X17284111Y-32127198D01*
X17493634Y-32241484D02*
X17474587Y-32231960D01*
X17474587Y-32231960D02*
X17465063Y-32222436D01*
X17465063Y-32222436D02*
X17455539Y-32203388D01*
X17455539Y-32203388D02*
X17455539Y-32146246D01*
X17455539Y-32146246D02*
X17465063Y-32127198D01*
X17465063Y-32127198D02*
X17474587Y-32117674D01*
X17474587Y-32117674D02*
X17493634Y-32108150D01*
X17493634Y-32108150D02*
X17522206Y-32108150D01*
X17522206Y-32108150D02*
X17541253Y-32117674D01*
X17541253Y-32117674D02*
X17550777Y-32127198D01*
X17550777Y-32127198D02*
X17560301Y-32146246D01*
X17560301Y-32146246D02*
X17560301Y-32203388D01*
X17560301Y-32203388D02*
X17550777Y-32222436D01*
X17550777Y-32222436D02*
X17541253Y-32231960D01*
X17541253Y-32231960D02*
X17522206Y-32241484D01*
X17522206Y-32241484D02*
X17493634Y-32241484D01*
X17674587Y-32241484D02*
X17655539Y-32231960D01*
X17655539Y-32231960D02*
X17646015Y-32212912D01*
X17646015Y-32212912D02*
X17646015Y-32041484D01*
X17826968Y-32231960D02*
X17807920Y-32241484D01*
X17807920Y-32241484D02*
X17769825Y-32241484D01*
X17769825Y-32241484D02*
X17750777Y-32231960D01*
X17750777Y-32231960D02*
X17741253Y-32212912D01*
X17741253Y-32212912D02*
X17741253Y-32136722D01*
X17741253Y-32136722D02*
X17750777Y-32117674D01*
X17750777Y-32117674D02*
X17769825Y-32108150D01*
X17769825Y-32108150D02*
X17807920Y-32108150D01*
X17807920Y-32108150D02*
X17826968Y-32117674D01*
X17826968Y-32117674D02*
X17836492Y-32136722D01*
X17836492Y-32136722D02*
X17836492Y-32155769D01*
X17836492Y-32155769D02*
X17741253Y-32174817D01*
X17912682Y-32231960D02*
X17931730Y-32241484D01*
X17931730Y-32241484D02*
X17969825Y-32241484D01*
X17969825Y-32241484D02*
X17988873Y-32231960D01*
X17988873Y-32231960D02*
X17998396Y-32212912D01*
X17998396Y-32212912D02*
X17998396Y-32203388D01*
X17998396Y-32203388D02*
X17988873Y-32184341D01*
X17988873Y-32184341D02*
X17969825Y-32174817D01*
X17969825Y-32174817D02*
X17941253Y-32174817D01*
X17941253Y-32174817D02*
X17922206Y-32165293D01*
X17922206Y-32165293D02*
X17912682Y-32146246D01*
X17912682Y-32146246D02*
X17912682Y-32136722D01*
X17912682Y-32136722D02*
X17922206Y-32117674D01*
X17922206Y-32117674D02*
X17941253Y-32108150D01*
X17941253Y-32108150D02*
X17969825Y-32108150D01*
X17969825Y-32108150D02*
X17988873Y-32117674D01*
X18065063Y-32317674D02*
X18074587Y-32308150D01*
X18074587Y-32308150D02*
X18093634Y-32279579D01*
X18093634Y-32279579D02*
X18103158Y-32260531D01*
X18103158Y-32260531D02*
X18112682Y-32231960D01*
X18112682Y-32231960D02*
X18122206Y-32184341D01*
X18122206Y-32184341D02*
X18122206Y-32146246D01*
X18122206Y-32146246D02*
X18112682Y-32098627D01*
X18112682Y-32098627D02*
X18103158Y-32070055D01*
X18103158Y-32070055D02*
X18093634Y-32051008D01*
X18093634Y-32051008D02*
X18074587Y-32022436D01*
X18074587Y-32022436D02*
X18065063Y-32012912D01*
D11*
X13290000Y-32414000D02*
G75*
G02*
X13217000Y-32414000I-36500J0D01*
G01*
X13217000Y-32414000D02*
G75*
G02*
X13290000Y-32414000I36500J0D01*
G01*
D10*
X13588872Y-32305484D02*
X13607920Y-32305484D01*
X13607920Y-32305484D02*
X13626967Y-32315008D01*
X13626967Y-32315008D02*
X13636491Y-32324531D01*
X13636491Y-32324531D02*
X13646015Y-32343579D01*
X13646015Y-32343579D02*
X13655539Y-32381674D01*
X13655539Y-32381674D02*
X13655539Y-32429293D01*
X13655539Y-32429293D02*
X13646015Y-32467388D01*
X13646015Y-32467388D02*
X13636491Y-32486436D01*
X13636491Y-32486436D02*
X13626967Y-32495960D01*
X13626967Y-32495960D02*
X13607920Y-32505484D01*
X13607920Y-32505484D02*
X13588872Y-32505484D01*
X13588872Y-32505484D02*
X13569824Y-32495960D01*
X13569824Y-32495960D02*
X13560301Y-32486436D01*
X13560301Y-32486436D02*
X13550777Y-32467388D01*
X13550777Y-32467388D02*
X13541253Y-32429293D01*
X13541253Y-32429293D02*
X13541253Y-32381674D01*
X13541253Y-32381674D02*
X13550777Y-32343579D01*
X13550777Y-32343579D02*
X13560301Y-32324531D01*
X13560301Y-32324531D02*
X13569824Y-32315008D01*
X13569824Y-32315008D02*
X13588872Y-32305484D01*
X13741253Y-32486436D02*
X13750777Y-32495960D01*
X13750777Y-32495960D02*
X13741253Y-32505484D01*
X13741253Y-32505484D02*
X13731729Y-32495960D01*
X13731729Y-32495960D02*
X13741253Y-32486436D01*
X13741253Y-32486436D02*
X13741253Y-32505484D01*
X13817443Y-32305484D02*
X13950777Y-32305484D01*
X13950777Y-32305484D02*
X13865062Y-32505484D01*
X14007920Y-32305484D02*
X14131729Y-32305484D01*
X14131729Y-32305484D02*
X14065062Y-32381674D01*
X14065062Y-32381674D02*
X14093634Y-32381674D01*
X14093634Y-32381674D02*
X14112682Y-32391198D01*
X14112682Y-32391198D02*
X14122205Y-32400722D01*
X14122205Y-32400722D02*
X14131729Y-32419769D01*
X14131729Y-32419769D02*
X14131729Y-32467388D01*
X14131729Y-32467388D02*
X14122205Y-32486436D01*
X14122205Y-32486436D02*
X14112682Y-32495960D01*
X14112682Y-32495960D02*
X14093634Y-32505484D01*
X14093634Y-32505484D02*
X14036491Y-32505484D01*
X14036491Y-32505484D02*
X14017443Y-32495960D01*
X14017443Y-32495960D02*
X14007920Y-32486436D01*
X14255539Y-32305484D02*
X14274586Y-32305484D01*
X14274586Y-32305484D02*
X14293634Y-32315008D01*
X14293634Y-32315008D02*
X14303158Y-32324531D01*
X14303158Y-32324531D02*
X14312682Y-32343579D01*
X14312682Y-32343579D02*
X14322205Y-32381674D01*
X14322205Y-32381674D02*
X14322205Y-32429293D01*
X14322205Y-32429293D02*
X14312682Y-32467388D01*
X14312682Y-32467388D02*
X14303158Y-32486436D01*
X14303158Y-32486436D02*
X14293634Y-32495960D01*
X14293634Y-32495960D02*
X14274586Y-32505484D01*
X14274586Y-32505484D02*
X14255539Y-32505484D01*
X14255539Y-32505484D02*
X14236491Y-32495960D01*
X14236491Y-32495960D02*
X14226967Y-32486436D01*
X14226967Y-32486436D02*
X14217443Y-32467388D01*
X14217443Y-32467388D02*
X14207920Y-32429293D01*
X14207920Y-32429293D02*
X14207920Y-32381674D01*
X14207920Y-32381674D02*
X14217443Y-32343579D01*
X14217443Y-32343579D02*
X14226967Y-32324531D01*
X14226967Y-32324531D02*
X14236491Y-32315008D01*
X14236491Y-32315008D02*
X14255539Y-32305484D01*
X14407920Y-32505484D02*
X14407920Y-32372150D01*
X14407920Y-32391198D02*
X14417443Y-32381674D01*
X14417443Y-32381674D02*
X14436491Y-32372150D01*
X14436491Y-32372150D02*
X14465063Y-32372150D01*
X14465063Y-32372150D02*
X14484110Y-32381674D01*
X14484110Y-32381674D02*
X14493634Y-32400722D01*
X14493634Y-32400722D02*
X14493634Y-32505484D01*
X14493634Y-32400722D02*
X14503158Y-32381674D01*
X14503158Y-32381674D02*
X14522205Y-32372150D01*
X14522205Y-32372150D02*
X14550777Y-32372150D01*
X14550777Y-32372150D02*
X14569824Y-32381674D01*
X14569824Y-32381674D02*
X14579348Y-32400722D01*
X14579348Y-32400722D02*
X14579348Y-32505484D01*
X14674586Y-32505484D02*
X14674586Y-32372150D01*
X14674586Y-32391198D02*
X14684110Y-32381674D01*
X14684110Y-32381674D02*
X14703158Y-32372150D01*
X14703158Y-32372150D02*
X14731729Y-32372150D01*
X14731729Y-32372150D02*
X14750777Y-32381674D01*
X14750777Y-32381674D02*
X14760301Y-32400722D01*
X14760301Y-32400722D02*
X14760301Y-32505484D01*
X14760301Y-32400722D02*
X14769824Y-32381674D01*
X14769824Y-32381674D02*
X14788872Y-32372150D01*
X14788872Y-32372150D02*
X14817443Y-32372150D01*
X14817443Y-32372150D02*
X14836491Y-32381674D01*
X14836491Y-32381674D02*
X14846015Y-32400722D01*
X14846015Y-32400722D02*
X14846015Y-32505484D01*
X15236491Y-32295960D02*
X15065063Y-32553103D01*
X15493634Y-32305484D02*
X15512682Y-32305484D01*
X15512682Y-32305484D02*
X15531729Y-32315008D01*
X15531729Y-32315008D02*
X15541253Y-32324531D01*
X15541253Y-32324531D02*
X15550777Y-32343579D01*
X15550777Y-32343579D02*
X15560301Y-32381674D01*
X15560301Y-32381674D02*
X15560301Y-32429293D01*
X15560301Y-32429293D02*
X15550777Y-32467388D01*
X15550777Y-32467388D02*
X15541253Y-32486436D01*
X15541253Y-32486436D02*
X15531729Y-32495960D01*
X15531729Y-32495960D02*
X15512682Y-32505484D01*
X15512682Y-32505484D02*
X15493634Y-32505484D01*
X15493634Y-32505484D02*
X15474586Y-32495960D01*
X15474586Y-32495960D02*
X15465063Y-32486436D01*
X15465063Y-32486436D02*
X15455539Y-32467388D01*
X15455539Y-32467388D02*
X15446015Y-32429293D01*
X15446015Y-32429293D02*
X15446015Y-32381674D01*
X15446015Y-32381674D02*
X15455539Y-32343579D01*
X15455539Y-32343579D02*
X15465063Y-32324531D01*
X15465063Y-32324531D02*
X15474586Y-32315008D01*
X15474586Y-32315008D02*
X15493634Y-32305484D01*
X15646015Y-32486436D02*
X15655539Y-32495960D01*
X15655539Y-32495960D02*
X15646015Y-32505484D01*
X15646015Y-32505484D02*
X15636491Y-32495960D01*
X15636491Y-32495960D02*
X15646015Y-32486436D01*
X15646015Y-32486436D02*
X15646015Y-32505484D01*
X15779348Y-32305484D02*
X15798396Y-32305484D01*
X15798396Y-32305484D02*
X15817444Y-32315008D01*
X15817444Y-32315008D02*
X15826967Y-32324531D01*
X15826967Y-32324531D02*
X15836491Y-32343579D01*
X15836491Y-32343579D02*
X15846015Y-32381674D01*
X15846015Y-32381674D02*
X15846015Y-32429293D01*
X15846015Y-32429293D02*
X15836491Y-32467388D01*
X15836491Y-32467388D02*
X15826967Y-32486436D01*
X15826967Y-32486436D02*
X15817444Y-32495960D01*
X15817444Y-32495960D02*
X15798396Y-32505484D01*
X15798396Y-32505484D02*
X15779348Y-32505484D01*
X15779348Y-32505484D02*
X15760301Y-32495960D01*
X15760301Y-32495960D02*
X15750777Y-32486436D01*
X15750777Y-32486436D02*
X15741253Y-32467388D01*
X15741253Y-32467388D02*
X15731729Y-32429293D01*
X15731729Y-32429293D02*
X15731729Y-32381674D01*
X15731729Y-32381674D02*
X15741253Y-32343579D01*
X15741253Y-32343579D02*
X15750777Y-32324531D01*
X15750777Y-32324531D02*
X15760301Y-32315008D01*
X15760301Y-32315008D02*
X15779348Y-32305484D01*
X15922206Y-32324531D02*
X15931729Y-32315008D01*
X15931729Y-32315008D02*
X15950777Y-32305484D01*
X15950777Y-32305484D02*
X15998396Y-32305484D01*
X15998396Y-32305484D02*
X16017444Y-32315008D01*
X16017444Y-32315008D02*
X16026967Y-32324531D01*
X16026967Y-32324531D02*
X16036491Y-32343579D01*
X16036491Y-32343579D02*
X16036491Y-32362627D01*
X16036491Y-32362627D02*
X16026967Y-32391198D01*
X16026967Y-32391198D02*
X15912682Y-32505484D01*
X15912682Y-32505484D02*
X16036491Y-32505484D01*
X16150777Y-32391198D02*
X16131729Y-32381674D01*
X16131729Y-32381674D02*
X16122206Y-32372150D01*
X16122206Y-32372150D02*
X16112682Y-32353103D01*
X16112682Y-32353103D02*
X16112682Y-32343579D01*
X16112682Y-32343579D02*
X16122206Y-32324531D01*
X16122206Y-32324531D02*
X16131729Y-32315008D01*
X16131729Y-32315008D02*
X16150777Y-32305484D01*
X16150777Y-32305484D02*
X16188872Y-32305484D01*
X16188872Y-32305484D02*
X16207920Y-32315008D01*
X16207920Y-32315008D02*
X16217444Y-32324531D01*
X16217444Y-32324531D02*
X16226967Y-32343579D01*
X16226967Y-32343579D02*
X16226967Y-32353103D01*
X16226967Y-32353103D02*
X16217444Y-32372150D01*
X16217444Y-32372150D02*
X16207920Y-32381674D01*
X16207920Y-32381674D02*
X16188872Y-32391198D01*
X16188872Y-32391198D02*
X16150777Y-32391198D01*
X16150777Y-32391198D02*
X16131729Y-32400722D01*
X16131729Y-32400722D02*
X16122206Y-32410246D01*
X16122206Y-32410246D02*
X16112682Y-32429293D01*
X16112682Y-32429293D02*
X16112682Y-32467388D01*
X16112682Y-32467388D02*
X16122206Y-32486436D01*
X16122206Y-32486436D02*
X16131729Y-32495960D01*
X16131729Y-32495960D02*
X16150777Y-32505484D01*
X16150777Y-32505484D02*
X16188872Y-32505484D01*
X16188872Y-32505484D02*
X16207920Y-32495960D01*
X16207920Y-32495960D02*
X16217444Y-32486436D01*
X16217444Y-32486436D02*
X16226967Y-32467388D01*
X16226967Y-32467388D02*
X16226967Y-32429293D01*
X16226967Y-32429293D02*
X16217444Y-32410246D01*
X16217444Y-32410246D02*
X16207920Y-32400722D01*
X16207920Y-32400722D02*
X16188872Y-32391198D01*
X16293634Y-32305484D02*
X16426967Y-32305484D01*
X16426967Y-32305484D02*
X16341253Y-32505484D01*
X16493634Y-32305484D02*
X16493634Y-32343579D01*
X16569825Y-32305484D02*
X16569825Y-32343579D01*
X16865063Y-32581674D02*
X16855539Y-32572150D01*
X16855539Y-32572150D02*
X16836491Y-32543579D01*
X16836491Y-32543579D02*
X16826968Y-32524531D01*
X16826968Y-32524531D02*
X16817444Y-32495960D01*
X16817444Y-32495960D02*
X16807920Y-32448341D01*
X16807920Y-32448341D02*
X16807920Y-32410246D01*
X16807920Y-32410246D02*
X16817444Y-32362627D01*
X16817444Y-32362627D02*
X16826968Y-32334055D01*
X16826968Y-32334055D02*
X16836491Y-32315008D01*
X16836491Y-32315008D02*
X16855539Y-32286436D01*
X16855539Y-32286436D02*
X16865063Y-32276912D01*
X16969825Y-32391198D02*
X16950777Y-32381674D01*
X16950777Y-32381674D02*
X16941253Y-32372150D01*
X16941253Y-32372150D02*
X16931730Y-32353103D01*
X16931730Y-32353103D02*
X16931730Y-32343579D01*
X16931730Y-32343579D02*
X16941253Y-32324531D01*
X16941253Y-32324531D02*
X16950777Y-32315008D01*
X16950777Y-32315008D02*
X16969825Y-32305484D01*
X16969825Y-32305484D02*
X17007920Y-32305484D01*
X17007920Y-32305484D02*
X17026968Y-32315008D01*
X17026968Y-32315008D02*
X17036491Y-32324531D01*
X17036491Y-32324531D02*
X17046015Y-32343579D01*
X17046015Y-32343579D02*
X17046015Y-32353103D01*
X17046015Y-32353103D02*
X17036491Y-32372150D01*
X17036491Y-32372150D02*
X17026968Y-32381674D01*
X17026968Y-32381674D02*
X17007920Y-32391198D01*
X17007920Y-32391198D02*
X16969825Y-32391198D01*
X16969825Y-32391198D02*
X16950777Y-32400722D01*
X16950777Y-32400722D02*
X16941253Y-32410246D01*
X16941253Y-32410246D02*
X16931730Y-32429293D01*
X16931730Y-32429293D02*
X16931730Y-32467388D01*
X16931730Y-32467388D02*
X16941253Y-32486436D01*
X16941253Y-32486436D02*
X16950777Y-32495960D01*
X16950777Y-32495960D02*
X16969825Y-32505484D01*
X16969825Y-32505484D02*
X17007920Y-32505484D01*
X17007920Y-32505484D02*
X17026968Y-32495960D01*
X17026968Y-32495960D02*
X17036491Y-32486436D01*
X17036491Y-32486436D02*
X17046015Y-32467388D01*
X17046015Y-32467388D02*
X17046015Y-32429293D01*
X17046015Y-32429293D02*
X17036491Y-32410246D01*
X17036491Y-32410246D02*
X17026968Y-32400722D01*
X17026968Y-32400722D02*
X17007920Y-32391198D01*
X17217444Y-32372150D02*
X17217444Y-32505484D01*
X17169825Y-32295960D02*
X17122206Y-32438817D01*
X17122206Y-32438817D02*
X17246015Y-32438817D01*
X17474587Y-32505484D02*
X17474587Y-32305484D01*
X17560301Y-32505484D02*
X17560301Y-32400722D01*
X17560301Y-32400722D02*
X17550777Y-32381674D01*
X17550777Y-32381674D02*
X17531730Y-32372150D01*
X17531730Y-32372150D02*
X17503158Y-32372150D01*
X17503158Y-32372150D02*
X17484111Y-32381674D01*
X17484111Y-32381674D02*
X17474587Y-32391198D01*
X17684111Y-32505484D02*
X17665063Y-32495960D01*
X17665063Y-32495960D02*
X17655539Y-32486436D01*
X17655539Y-32486436D02*
X17646015Y-32467388D01*
X17646015Y-32467388D02*
X17646015Y-32410246D01*
X17646015Y-32410246D02*
X17655539Y-32391198D01*
X17655539Y-32391198D02*
X17665063Y-32381674D01*
X17665063Y-32381674D02*
X17684111Y-32372150D01*
X17684111Y-32372150D02*
X17712682Y-32372150D01*
X17712682Y-32372150D02*
X17731730Y-32381674D01*
X17731730Y-32381674D02*
X17741253Y-32391198D01*
X17741253Y-32391198D02*
X17750777Y-32410246D01*
X17750777Y-32410246D02*
X17750777Y-32467388D01*
X17750777Y-32467388D02*
X17741253Y-32486436D01*
X17741253Y-32486436D02*
X17731730Y-32495960D01*
X17731730Y-32495960D02*
X17712682Y-32505484D01*
X17712682Y-32505484D02*
X17684111Y-32505484D01*
X17865063Y-32505484D02*
X17846015Y-32495960D01*
X17846015Y-32495960D02*
X17836492Y-32476912D01*
X17836492Y-32476912D02*
X17836492Y-32305484D01*
X18017444Y-32495960D02*
X17998396Y-32505484D01*
X17998396Y-32505484D02*
X17960301Y-32505484D01*
X17960301Y-32505484D02*
X17941253Y-32495960D01*
X17941253Y-32495960D02*
X17931730Y-32476912D01*
X17931730Y-32476912D02*
X17931730Y-32400722D01*
X17931730Y-32400722D02*
X17941253Y-32381674D01*
X17941253Y-32381674D02*
X17960301Y-32372150D01*
X17960301Y-32372150D02*
X17998396Y-32372150D01*
X17998396Y-32372150D02*
X18017444Y-32381674D01*
X18017444Y-32381674D02*
X18026968Y-32400722D01*
X18026968Y-32400722D02*
X18026968Y-32419769D01*
X18026968Y-32419769D02*
X17931730Y-32438817D01*
X18103158Y-32495960D02*
X18122206Y-32505484D01*
X18122206Y-32505484D02*
X18160301Y-32505484D01*
X18160301Y-32505484D02*
X18179349Y-32495960D01*
X18179349Y-32495960D02*
X18188873Y-32476912D01*
X18188873Y-32476912D02*
X18188873Y-32467388D01*
X18188873Y-32467388D02*
X18179349Y-32448341D01*
X18179349Y-32448341D02*
X18160301Y-32438817D01*
X18160301Y-32438817D02*
X18131730Y-32438817D01*
X18131730Y-32438817D02*
X18112682Y-32429293D01*
X18112682Y-32429293D02*
X18103158Y-32410246D01*
X18103158Y-32410246D02*
X18103158Y-32400722D01*
X18103158Y-32400722D02*
X18112682Y-32381674D01*
X18112682Y-32381674D02*
X18131730Y-32372150D01*
X18131730Y-32372150D02*
X18160301Y-32372150D01*
X18160301Y-32372150D02*
X18179349Y-32381674D01*
X18255539Y-32581674D02*
X18265063Y-32572150D01*
X18265063Y-32572150D02*
X18284111Y-32543579D01*
X18284111Y-32543579D02*
X18293634Y-32524531D01*
X18293634Y-32524531D02*
X18303158Y-32495960D01*
X18303158Y-32495960D02*
X18312682Y-32448341D01*
X18312682Y-32448341D02*
X18312682Y-32410246D01*
X18312682Y-32410246D02*
X18303158Y-32362627D01*
X18303158Y-32362627D02*
X18293634Y-32334055D01*
X18293634Y-32334055D02*
X18284111Y-32315008D01*
X18284111Y-32315008D02*
X18265063Y-32286436D01*
X18265063Y-32286436D02*
X18255539Y-32276912D01*
D12*
X13236660Y-32624660D02*
X13236660Y-32731340D01*
X13183320Y-32678000D02*
X13290000Y-32678000D01*
D10*
X13655539Y-32769484D02*
X13541253Y-32769484D01*
X13598396Y-32769484D02*
X13598396Y-32569484D01*
X13598396Y-32569484D02*
X13579348Y-32598055D01*
X13579348Y-32598055D02*
X13560301Y-32617103D01*
X13560301Y-32617103D02*
X13541253Y-32626627D01*
X13741253Y-32750436D02*
X13750777Y-32759960D01*
X13750777Y-32759960D02*
X13741253Y-32769484D01*
X13741253Y-32769484D02*
X13731729Y-32759960D01*
X13731729Y-32759960D02*
X13741253Y-32750436D01*
X13741253Y-32750436D02*
X13741253Y-32769484D01*
X13874586Y-32569484D02*
X13893634Y-32569484D01*
X13893634Y-32569484D02*
X13912682Y-32579008D01*
X13912682Y-32579008D02*
X13922205Y-32588531D01*
X13922205Y-32588531D02*
X13931729Y-32607579D01*
X13931729Y-32607579D02*
X13941253Y-32645674D01*
X13941253Y-32645674D02*
X13941253Y-32693293D01*
X13941253Y-32693293D02*
X13931729Y-32731388D01*
X13931729Y-32731388D02*
X13922205Y-32750436D01*
X13922205Y-32750436D02*
X13912682Y-32759960D01*
X13912682Y-32759960D02*
X13893634Y-32769484D01*
X13893634Y-32769484D02*
X13874586Y-32769484D01*
X13874586Y-32769484D02*
X13855539Y-32759960D01*
X13855539Y-32759960D02*
X13846015Y-32750436D01*
X13846015Y-32750436D02*
X13836491Y-32731388D01*
X13836491Y-32731388D02*
X13826967Y-32693293D01*
X13826967Y-32693293D02*
X13826967Y-32645674D01*
X13826967Y-32645674D02*
X13836491Y-32607579D01*
X13836491Y-32607579D02*
X13846015Y-32588531D01*
X13846015Y-32588531D02*
X13855539Y-32579008D01*
X13855539Y-32579008D02*
X13874586Y-32569484D01*
X14112682Y-32569484D02*
X14074586Y-32569484D01*
X14074586Y-32569484D02*
X14055539Y-32579008D01*
X14055539Y-32579008D02*
X14046015Y-32588531D01*
X14046015Y-32588531D02*
X14026967Y-32617103D01*
X14026967Y-32617103D02*
X14017443Y-32655198D01*
X14017443Y-32655198D02*
X14017443Y-32731388D01*
X14017443Y-32731388D02*
X14026967Y-32750436D01*
X14026967Y-32750436D02*
X14036491Y-32759960D01*
X14036491Y-32759960D02*
X14055539Y-32769484D01*
X14055539Y-32769484D02*
X14093634Y-32769484D01*
X14093634Y-32769484D02*
X14112682Y-32759960D01*
X14112682Y-32759960D02*
X14122205Y-32750436D01*
X14122205Y-32750436D02*
X14131729Y-32731388D01*
X14131729Y-32731388D02*
X14131729Y-32683769D01*
X14131729Y-32683769D02*
X14122205Y-32664722D01*
X14122205Y-32664722D02*
X14112682Y-32655198D01*
X14112682Y-32655198D02*
X14093634Y-32645674D01*
X14093634Y-32645674D02*
X14055539Y-32645674D01*
X14055539Y-32645674D02*
X14036491Y-32655198D01*
X14036491Y-32655198D02*
X14026967Y-32664722D01*
X14026967Y-32664722D02*
X14017443Y-32683769D01*
X14198396Y-32569484D02*
X14331729Y-32569484D01*
X14331729Y-32569484D02*
X14246015Y-32769484D01*
X14407920Y-32769484D02*
X14407920Y-32636150D01*
X14407920Y-32655198D02*
X14417443Y-32645674D01*
X14417443Y-32645674D02*
X14436491Y-32636150D01*
X14436491Y-32636150D02*
X14465063Y-32636150D01*
X14465063Y-32636150D02*
X14484110Y-32645674D01*
X14484110Y-32645674D02*
X14493634Y-32664722D01*
X14493634Y-32664722D02*
X14493634Y-32769484D01*
X14493634Y-32664722D02*
X14503158Y-32645674D01*
X14503158Y-32645674D02*
X14522205Y-32636150D01*
X14522205Y-32636150D02*
X14550777Y-32636150D01*
X14550777Y-32636150D02*
X14569824Y-32645674D01*
X14569824Y-32645674D02*
X14579348Y-32664722D01*
X14579348Y-32664722D02*
X14579348Y-32769484D01*
X14674586Y-32769484D02*
X14674586Y-32636150D01*
X14674586Y-32655198D02*
X14684110Y-32645674D01*
X14684110Y-32645674D02*
X14703158Y-32636150D01*
X14703158Y-32636150D02*
X14731729Y-32636150D01*
X14731729Y-32636150D02*
X14750777Y-32645674D01*
X14750777Y-32645674D02*
X14760301Y-32664722D01*
X14760301Y-32664722D02*
X14760301Y-32769484D01*
X14760301Y-32664722D02*
X14769824Y-32645674D01*
X14769824Y-32645674D02*
X14788872Y-32636150D01*
X14788872Y-32636150D02*
X14817443Y-32636150D01*
X14817443Y-32636150D02*
X14836491Y-32645674D01*
X14836491Y-32645674D02*
X14846015Y-32664722D01*
X14846015Y-32664722D02*
X14846015Y-32769484D01*
X15236491Y-32559960D02*
X15065063Y-32817103D01*
X15493634Y-32569484D02*
X15512682Y-32569484D01*
X15512682Y-32569484D02*
X15531729Y-32579008D01*
X15531729Y-32579008D02*
X15541253Y-32588531D01*
X15541253Y-32588531D02*
X15550777Y-32607579D01*
X15550777Y-32607579D02*
X15560301Y-32645674D01*
X15560301Y-32645674D02*
X15560301Y-32693293D01*
X15560301Y-32693293D02*
X15550777Y-32731388D01*
X15550777Y-32731388D02*
X15541253Y-32750436D01*
X15541253Y-32750436D02*
X15531729Y-32759960D01*
X15531729Y-32759960D02*
X15512682Y-32769484D01*
X15512682Y-32769484D02*
X15493634Y-32769484D01*
X15493634Y-32769484D02*
X15474586Y-32759960D01*
X15474586Y-32759960D02*
X15465063Y-32750436D01*
X15465063Y-32750436D02*
X15455539Y-32731388D01*
X15455539Y-32731388D02*
X15446015Y-32693293D01*
X15446015Y-32693293D02*
X15446015Y-32645674D01*
X15446015Y-32645674D02*
X15455539Y-32607579D01*
X15455539Y-32607579D02*
X15465063Y-32588531D01*
X15465063Y-32588531D02*
X15474586Y-32579008D01*
X15474586Y-32579008D02*
X15493634Y-32569484D01*
X15646015Y-32750436D02*
X15655539Y-32759960D01*
X15655539Y-32759960D02*
X15646015Y-32769484D01*
X15646015Y-32769484D02*
X15636491Y-32759960D01*
X15636491Y-32759960D02*
X15646015Y-32750436D01*
X15646015Y-32750436D02*
X15646015Y-32769484D01*
X15779348Y-32569484D02*
X15798396Y-32569484D01*
X15798396Y-32569484D02*
X15817444Y-32579008D01*
X15817444Y-32579008D02*
X15826967Y-32588531D01*
X15826967Y-32588531D02*
X15836491Y-32607579D01*
X15836491Y-32607579D02*
X15846015Y-32645674D01*
X15846015Y-32645674D02*
X15846015Y-32693293D01*
X15846015Y-32693293D02*
X15836491Y-32731388D01*
X15836491Y-32731388D02*
X15826967Y-32750436D01*
X15826967Y-32750436D02*
X15817444Y-32759960D01*
X15817444Y-32759960D02*
X15798396Y-32769484D01*
X15798396Y-32769484D02*
X15779348Y-32769484D01*
X15779348Y-32769484D02*
X15760301Y-32759960D01*
X15760301Y-32759960D02*
X15750777Y-32750436D01*
X15750777Y-32750436D02*
X15741253Y-32731388D01*
X15741253Y-32731388D02*
X15731729Y-32693293D01*
X15731729Y-32693293D02*
X15731729Y-32645674D01*
X15731729Y-32645674D02*
X15741253Y-32607579D01*
X15741253Y-32607579D02*
X15750777Y-32588531D01*
X15750777Y-32588531D02*
X15760301Y-32579008D01*
X15760301Y-32579008D02*
X15779348Y-32569484D01*
X16017444Y-32636150D02*
X16017444Y-32769484D01*
X15969825Y-32559960D02*
X15922206Y-32702817D01*
X15922206Y-32702817D02*
X16046015Y-32702817D01*
X16112682Y-32588531D02*
X16122206Y-32579008D01*
X16122206Y-32579008D02*
X16141253Y-32569484D01*
X16141253Y-32569484D02*
X16188872Y-32569484D01*
X16188872Y-32569484D02*
X16207920Y-32579008D01*
X16207920Y-32579008D02*
X16217444Y-32588531D01*
X16217444Y-32588531D02*
X16226967Y-32607579D01*
X16226967Y-32607579D02*
X16226967Y-32626627D01*
X16226967Y-32626627D02*
X16217444Y-32655198D01*
X16217444Y-32655198D02*
X16103158Y-32769484D01*
X16103158Y-32769484D02*
X16226967Y-32769484D01*
X16350777Y-32569484D02*
X16369825Y-32569484D01*
X16369825Y-32569484D02*
X16388872Y-32579008D01*
X16388872Y-32579008D02*
X16398396Y-32588531D01*
X16398396Y-32588531D02*
X16407920Y-32607579D01*
X16407920Y-32607579D02*
X16417444Y-32645674D01*
X16417444Y-32645674D02*
X16417444Y-32693293D01*
X16417444Y-32693293D02*
X16407920Y-32731388D01*
X16407920Y-32731388D02*
X16398396Y-32750436D01*
X16398396Y-32750436D02*
X16388872Y-32759960D01*
X16388872Y-32759960D02*
X16369825Y-32769484D01*
X16369825Y-32769484D02*
X16350777Y-32769484D01*
X16350777Y-32769484D02*
X16331729Y-32759960D01*
X16331729Y-32759960D02*
X16322206Y-32750436D01*
X16322206Y-32750436D02*
X16312682Y-32731388D01*
X16312682Y-32731388D02*
X16303158Y-32693293D01*
X16303158Y-32693293D02*
X16303158Y-32645674D01*
X16303158Y-32645674D02*
X16312682Y-32607579D01*
X16312682Y-32607579D02*
X16322206Y-32588531D01*
X16322206Y-32588531D02*
X16331729Y-32579008D01*
X16331729Y-32579008D02*
X16350777Y-32569484D01*
X16493634Y-32569484D02*
X16493634Y-32607579D01*
X16569825Y-32569484D02*
X16569825Y-32607579D01*
X16865063Y-32845674D02*
X16855539Y-32836150D01*
X16855539Y-32836150D02*
X16836491Y-32807579D01*
X16836491Y-32807579D02*
X16826968Y-32788531D01*
X16826968Y-32788531D02*
X16817444Y-32759960D01*
X16817444Y-32759960D02*
X16807920Y-32712341D01*
X16807920Y-32712341D02*
X16807920Y-32674246D01*
X16807920Y-32674246D02*
X16817444Y-32626627D01*
X16817444Y-32626627D02*
X16826968Y-32598055D01*
X16826968Y-32598055D02*
X16836491Y-32579008D01*
X16836491Y-32579008D02*
X16855539Y-32550436D01*
X16855539Y-32550436D02*
X16865063Y-32540912D01*
X16950777Y-32769484D02*
X16988872Y-32769484D01*
X16988872Y-32769484D02*
X17007920Y-32759960D01*
X17007920Y-32759960D02*
X17017444Y-32750436D01*
X17017444Y-32750436D02*
X17036491Y-32721865D01*
X17036491Y-32721865D02*
X17046015Y-32683769D01*
X17046015Y-32683769D02*
X17046015Y-32607579D01*
X17046015Y-32607579D02*
X17036491Y-32588531D01*
X17036491Y-32588531D02*
X17026968Y-32579008D01*
X17026968Y-32579008D02*
X17007920Y-32569484D01*
X17007920Y-32569484D02*
X16969825Y-32569484D01*
X16969825Y-32569484D02*
X16950777Y-32579008D01*
X16950777Y-32579008D02*
X16941253Y-32588531D01*
X16941253Y-32588531D02*
X16931730Y-32607579D01*
X16931730Y-32607579D02*
X16931730Y-32655198D01*
X16931730Y-32655198D02*
X16941253Y-32674246D01*
X16941253Y-32674246D02*
X16950777Y-32683769D01*
X16950777Y-32683769D02*
X16969825Y-32693293D01*
X16969825Y-32693293D02*
X17007920Y-32693293D01*
X17007920Y-32693293D02*
X17026968Y-32683769D01*
X17026968Y-32683769D02*
X17036491Y-32674246D01*
X17036491Y-32674246D02*
X17046015Y-32655198D01*
X17284111Y-32769484D02*
X17284111Y-32569484D01*
X17369825Y-32769484D02*
X17369825Y-32664722D01*
X17369825Y-32664722D02*
X17360301Y-32645674D01*
X17360301Y-32645674D02*
X17341253Y-32636150D01*
X17341253Y-32636150D02*
X17312682Y-32636150D01*
X17312682Y-32636150D02*
X17293634Y-32645674D01*
X17293634Y-32645674D02*
X17284111Y-32655198D01*
X17493634Y-32769484D02*
X17474587Y-32759960D01*
X17474587Y-32759960D02*
X17465063Y-32750436D01*
X17465063Y-32750436D02*
X17455539Y-32731388D01*
X17455539Y-32731388D02*
X17455539Y-32674246D01*
X17455539Y-32674246D02*
X17465063Y-32655198D01*
X17465063Y-32655198D02*
X17474587Y-32645674D01*
X17474587Y-32645674D02*
X17493634Y-32636150D01*
X17493634Y-32636150D02*
X17522206Y-32636150D01*
X17522206Y-32636150D02*
X17541253Y-32645674D01*
X17541253Y-32645674D02*
X17550777Y-32655198D01*
X17550777Y-32655198D02*
X17560301Y-32674246D01*
X17560301Y-32674246D02*
X17560301Y-32731388D01*
X17560301Y-32731388D02*
X17550777Y-32750436D01*
X17550777Y-32750436D02*
X17541253Y-32759960D01*
X17541253Y-32759960D02*
X17522206Y-32769484D01*
X17522206Y-32769484D02*
X17493634Y-32769484D01*
X17674587Y-32769484D02*
X17655539Y-32759960D01*
X17655539Y-32759960D02*
X17646015Y-32740912D01*
X17646015Y-32740912D02*
X17646015Y-32569484D01*
X17826968Y-32759960D02*
X17807920Y-32769484D01*
X17807920Y-32769484D02*
X17769825Y-32769484D01*
X17769825Y-32769484D02*
X17750777Y-32759960D01*
X17750777Y-32759960D02*
X17741253Y-32740912D01*
X17741253Y-32740912D02*
X17741253Y-32664722D01*
X17741253Y-32664722D02*
X17750777Y-32645674D01*
X17750777Y-32645674D02*
X17769825Y-32636150D01*
X17769825Y-32636150D02*
X17807920Y-32636150D01*
X17807920Y-32636150D02*
X17826968Y-32645674D01*
X17826968Y-32645674D02*
X17836492Y-32664722D01*
X17836492Y-32664722D02*
X17836492Y-32683769D01*
X17836492Y-32683769D02*
X17741253Y-32702817D01*
X17912682Y-32759960D02*
X17931730Y-32769484D01*
X17931730Y-32769484D02*
X17969825Y-32769484D01*
X17969825Y-32769484D02*
X17988873Y-32759960D01*
X17988873Y-32759960D02*
X17998396Y-32740912D01*
X17998396Y-32740912D02*
X17998396Y-32731388D01*
X17998396Y-32731388D02*
X17988873Y-32712341D01*
X17988873Y-32712341D02*
X17969825Y-32702817D01*
X17969825Y-32702817D02*
X17941253Y-32702817D01*
X17941253Y-32702817D02*
X17922206Y-32693293D01*
X17922206Y-32693293D02*
X17912682Y-32674246D01*
X17912682Y-32674246D02*
X17912682Y-32664722D01*
X17912682Y-32664722D02*
X17922206Y-32645674D01*
X17922206Y-32645674D02*
X17941253Y-32636150D01*
X17941253Y-32636150D02*
X17969825Y-32636150D01*
X17969825Y-32636150D02*
X17988873Y-32645674D01*
X18065063Y-32845674D02*
X18074587Y-32836150D01*
X18074587Y-32836150D02*
X18093634Y-32807579D01*
X18093634Y-32807579D02*
X18103158Y-32788531D01*
X18103158Y-32788531D02*
X18112682Y-32759960D01*
X18112682Y-32759960D02*
X18122206Y-32712341D01*
X18122206Y-32712341D02*
X18122206Y-32674246D01*
X18122206Y-32674246D02*
X18112682Y-32626627D01*
X18112682Y-32626627D02*
X18103158Y-32598055D01*
X18103158Y-32598055D02*
X18093634Y-32579008D01*
X18093634Y-32579008D02*
X18074587Y-32550436D01*
X18074587Y-32550436D02*
X18065063Y-32540912D01*
D13*
X13270962Y-32987962D02*
X13270962Y-32896038D01*
X13179038Y-32896038D01*
X13179038Y-32987962D01*
X13270962Y-32987962D01*
D10*
X13655539Y-33033484D02*
X13541253Y-33033484D01*
X13598396Y-33033484D02*
X13598396Y-32833484D01*
X13598396Y-32833484D02*
X13579348Y-32862055D01*
X13579348Y-32862055D02*
X13560301Y-32881103D01*
X13560301Y-32881103D02*
X13541253Y-32890627D01*
X13741253Y-33014436D02*
X13750777Y-33023960D01*
X13750777Y-33023960D02*
X13741253Y-33033484D01*
X13741253Y-33033484D02*
X13731729Y-33023960D01*
X13731729Y-33023960D02*
X13741253Y-33014436D01*
X13741253Y-33014436D02*
X13741253Y-33033484D01*
X13817443Y-32833484D02*
X13941253Y-32833484D01*
X13941253Y-32833484D02*
X13874586Y-32909674D01*
X13874586Y-32909674D02*
X13903158Y-32909674D01*
X13903158Y-32909674D02*
X13922205Y-32919198D01*
X13922205Y-32919198D02*
X13931729Y-32928722D01*
X13931729Y-32928722D02*
X13941253Y-32947769D01*
X13941253Y-32947769D02*
X13941253Y-32995388D01*
X13941253Y-32995388D02*
X13931729Y-33014436D01*
X13931729Y-33014436D02*
X13922205Y-33023960D01*
X13922205Y-33023960D02*
X13903158Y-33033484D01*
X13903158Y-33033484D02*
X13846015Y-33033484D01*
X13846015Y-33033484D02*
X13826967Y-33023960D01*
X13826967Y-33023960D02*
X13817443Y-33014436D01*
X14065062Y-32833484D02*
X14084110Y-32833484D01*
X14084110Y-32833484D02*
X14103158Y-32843008D01*
X14103158Y-32843008D02*
X14112682Y-32852531D01*
X14112682Y-32852531D02*
X14122205Y-32871579D01*
X14122205Y-32871579D02*
X14131729Y-32909674D01*
X14131729Y-32909674D02*
X14131729Y-32957293D01*
X14131729Y-32957293D02*
X14122205Y-32995388D01*
X14122205Y-32995388D02*
X14112682Y-33014436D01*
X14112682Y-33014436D02*
X14103158Y-33023960D01*
X14103158Y-33023960D02*
X14084110Y-33033484D01*
X14084110Y-33033484D02*
X14065062Y-33033484D01*
X14065062Y-33033484D02*
X14046015Y-33023960D01*
X14046015Y-33023960D02*
X14036491Y-33014436D01*
X14036491Y-33014436D02*
X14026967Y-32995388D01*
X14026967Y-32995388D02*
X14017443Y-32957293D01*
X14017443Y-32957293D02*
X14017443Y-32909674D01*
X14017443Y-32909674D02*
X14026967Y-32871579D01*
X14026967Y-32871579D02*
X14036491Y-32852531D01*
X14036491Y-32852531D02*
X14046015Y-32843008D01*
X14046015Y-32843008D02*
X14065062Y-32833484D01*
X14255539Y-32833484D02*
X14274586Y-32833484D01*
X14274586Y-32833484D02*
X14293634Y-32843008D01*
X14293634Y-32843008D02*
X14303158Y-32852531D01*
X14303158Y-32852531D02*
X14312682Y-32871579D01*
X14312682Y-32871579D02*
X14322205Y-32909674D01*
X14322205Y-32909674D02*
X14322205Y-32957293D01*
X14322205Y-32957293D02*
X14312682Y-32995388D01*
X14312682Y-32995388D02*
X14303158Y-33014436D01*
X14303158Y-33014436D02*
X14293634Y-33023960D01*
X14293634Y-33023960D02*
X14274586Y-33033484D01*
X14274586Y-33033484D02*
X14255539Y-33033484D01*
X14255539Y-33033484D02*
X14236491Y-33023960D01*
X14236491Y-33023960D02*
X14226967Y-33014436D01*
X14226967Y-33014436D02*
X14217443Y-32995388D01*
X14217443Y-32995388D02*
X14207920Y-32957293D01*
X14207920Y-32957293D02*
X14207920Y-32909674D01*
X14207920Y-32909674D02*
X14217443Y-32871579D01*
X14217443Y-32871579D02*
X14226967Y-32852531D01*
X14226967Y-32852531D02*
X14236491Y-32843008D01*
X14236491Y-32843008D02*
X14255539Y-32833484D01*
X14407920Y-33033484D02*
X14407920Y-32900150D01*
X14407920Y-32919198D02*
X14417443Y-32909674D01*
X14417443Y-32909674D02*
X14436491Y-32900150D01*
X14436491Y-32900150D02*
X14465063Y-32900150D01*
X14465063Y-32900150D02*
X14484110Y-32909674D01*
X14484110Y-32909674D02*
X14493634Y-32928722D01*
X14493634Y-32928722D02*
X14493634Y-33033484D01*
X14493634Y-32928722D02*
X14503158Y-32909674D01*
X14503158Y-32909674D02*
X14522205Y-32900150D01*
X14522205Y-32900150D02*
X14550777Y-32900150D01*
X14550777Y-32900150D02*
X14569824Y-32909674D01*
X14569824Y-32909674D02*
X14579348Y-32928722D01*
X14579348Y-32928722D02*
X14579348Y-33033484D01*
X14674586Y-33033484D02*
X14674586Y-32900150D01*
X14674586Y-32919198D02*
X14684110Y-32909674D01*
X14684110Y-32909674D02*
X14703158Y-32900150D01*
X14703158Y-32900150D02*
X14731729Y-32900150D01*
X14731729Y-32900150D02*
X14750777Y-32909674D01*
X14750777Y-32909674D02*
X14760301Y-32928722D01*
X14760301Y-32928722D02*
X14760301Y-33033484D01*
X14760301Y-32928722D02*
X14769824Y-32909674D01*
X14769824Y-32909674D02*
X14788872Y-32900150D01*
X14788872Y-32900150D02*
X14817443Y-32900150D01*
X14817443Y-32900150D02*
X14836491Y-32909674D01*
X14836491Y-32909674D02*
X14846015Y-32928722D01*
X14846015Y-32928722D02*
X14846015Y-33033484D01*
X15236491Y-32823960D02*
X15065063Y-33081103D01*
X15493634Y-32833484D02*
X15512682Y-32833484D01*
X15512682Y-32833484D02*
X15531729Y-32843008D01*
X15531729Y-32843008D02*
X15541253Y-32852531D01*
X15541253Y-32852531D02*
X15550777Y-32871579D01*
X15550777Y-32871579D02*
X15560301Y-32909674D01*
X15560301Y-32909674D02*
X15560301Y-32957293D01*
X15560301Y-32957293D02*
X15550777Y-32995388D01*
X15550777Y-32995388D02*
X15541253Y-33014436D01*
X15541253Y-33014436D02*
X15531729Y-33023960D01*
X15531729Y-33023960D02*
X15512682Y-33033484D01*
X15512682Y-33033484D02*
X15493634Y-33033484D01*
X15493634Y-33033484D02*
X15474586Y-33023960D01*
X15474586Y-33023960D02*
X15465063Y-33014436D01*
X15465063Y-33014436D02*
X15455539Y-32995388D01*
X15455539Y-32995388D02*
X15446015Y-32957293D01*
X15446015Y-32957293D02*
X15446015Y-32909674D01*
X15446015Y-32909674D02*
X15455539Y-32871579D01*
X15455539Y-32871579D02*
X15465063Y-32852531D01*
X15465063Y-32852531D02*
X15474586Y-32843008D01*
X15474586Y-32843008D02*
X15493634Y-32833484D01*
X15646015Y-33014436D02*
X15655539Y-33023960D01*
X15655539Y-33023960D02*
X15646015Y-33033484D01*
X15646015Y-33033484D02*
X15636491Y-33023960D01*
X15636491Y-33023960D02*
X15646015Y-33014436D01*
X15646015Y-33014436D02*
X15646015Y-33033484D01*
X15779348Y-32833484D02*
X15798396Y-32833484D01*
X15798396Y-32833484D02*
X15817444Y-32843008D01*
X15817444Y-32843008D02*
X15826967Y-32852531D01*
X15826967Y-32852531D02*
X15836491Y-32871579D01*
X15836491Y-32871579D02*
X15846015Y-32909674D01*
X15846015Y-32909674D02*
X15846015Y-32957293D01*
X15846015Y-32957293D02*
X15836491Y-32995388D01*
X15836491Y-32995388D02*
X15826967Y-33014436D01*
X15826967Y-33014436D02*
X15817444Y-33023960D01*
X15817444Y-33023960D02*
X15798396Y-33033484D01*
X15798396Y-33033484D02*
X15779348Y-33033484D01*
X15779348Y-33033484D02*
X15760301Y-33023960D01*
X15760301Y-33023960D02*
X15750777Y-33014436D01*
X15750777Y-33014436D02*
X15741253Y-32995388D01*
X15741253Y-32995388D02*
X15731729Y-32957293D01*
X15731729Y-32957293D02*
X15731729Y-32909674D01*
X15731729Y-32909674D02*
X15741253Y-32871579D01*
X15741253Y-32871579D02*
X15750777Y-32852531D01*
X15750777Y-32852531D02*
X15760301Y-32843008D01*
X15760301Y-32843008D02*
X15779348Y-32833484D01*
X16026967Y-32833484D02*
X15931729Y-32833484D01*
X15931729Y-32833484D02*
X15922206Y-32928722D01*
X15922206Y-32928722D02*
X15931729Y-32919198D01*
X15931729Y-32919198D02*
X15950777Y-32909674D01*
X15950777Y-32909674D02*
X15998396Y-32909674D01*
X15998396Y-32909674D02*
X16017444Y-32919198D01*
X16017444Y-32919198D02*
X16026967Y-32928722D01*
X16026967Y-32928722D02*
X16036491Y-32947769D01*
X16036491Y-32947769D02*
X16036491Y-32995388D01*
X16036491Y-32995388D02*
X16026967Y-33014436D01*
X16026967Y-33014436D02*
X16017444Y-33023960D01*
X16017444Y-33023960D02*
X15998396Y-33033484D01*
X15998396Y-33033484D02*
X15950777Y-33033484D01*
X15950777Y-33033484D02*
X15931729Y-33023960D01*
X15931729Y-33023960D02*
X15922206Y-33014436D01*
X16226967Y-33033484D02*
X16112682Y-33033484D01*
X16169825Y-33033484D02*
X16169825Y-32833484D01*
X16169825Y-32833484D02*
X16150777Y-32862055D01*
X16150777Y-32862055D02*
X16131729Y-32881103D01*
X16131729Y-32881103D02*
X16112682Y-32890627D01*
X16303158Y-32852531D02*
X16312682Y-32843008D01*
X16312682Y-32843008D02*
X16331729Y-32833484D01*
X16331729Y-32833484D02*
X16379348Y-32833484D01*
X16379348Y-32833484D02*
X16398396Y-32843008D01*
X16398396Y-32843008D02*
X16407920Y-32852531D01*
X16407920Y-32852531D02*
X16417444Y-32871579D01*
X16417444Y-32871579D02*
X16417444Y-32890627D01*
X16417444Y-32890627D02*
X16407920Y-32919198D01*
X16407920Y-32919198D02*
X16293634Y-33033484D01*
X16293634Y-33033484D02*
X16417444Y-33033484D01*
X16493634Y-32833484D02*
X16493634Y-32871579D01*
X16569825Y-32833484D02*
X16569825Y-32871579D01*
X16865063Y-33109674D02*
X16855539Y-33100150D01*
X16855539Y-33100150D02*
X16836491Y-33071579D01*
X16836491Y-33071579D02*
X16826968Y-33052531D01*
X16826968Y-33052531D02*
X16817444Y-33023960D01*
X16817444Y-33023960D02*
X16807920Y-32976341D01*
X16807920Y-32976341D02*
X16807920Y-32938246D01*
X16807920Y-32938246D02*
X16817444Y-32890627D01*
X16817444Y-32890627D02*
X16826968Y-32862055D01*
X16826968Y-32862055D02*
X16836491Y-32843008D01*
X16836491Y-32843008D02*
X16855539Y-32814436D01*
X16855539Y-32814436D02*
X16865063Y-32804912D01*
X16931730Y-32852531D02*
X16941253Y-32843008D01*
X16941253Y-32843008D02*
X16960301Y-32833484D01*
X16960301Y-32833484D02*
X17007920Y-32833484D01*
X17007920Y-32833484D02*
X17026968Y-32843008D01*
X17026968Y-32843008D02*
X17036491Y-32852531D01*
X17036491Y-32852531D02*
X17046015Y-32871579D01*
X17046015Y-32871579D02*
X17046015Y-32890627D01*
X17046015Y-32890627D02*
X17036491Y-32919198D01*
X17036491Y-32919198D02*
X16922206Y-33033484D01*
X16922206Y-33033484D02*
X17046015Y-33033484D01*
X17284111Y-33033484D02*
X17284111Y-32833484D01*
X17369825Y-33033484D02*
X17369825Y-32928722D01*
X17369825Y-32928722D02*
X17360301Y-32909674D01*
X17360301Y-32909674D02*
X17341253Y-32900150D01*
X17341253Y-32900150D02*
X17312682Y-32900150D01*
X17312682Y-32900150D02*
X17293634Y-32909674D01*
X17293634Y-32909674D02*
X17284111Y-32919198D01*
X17493634Y-33033484D02*
X17474587Y-33023960D01*
X17474587Y-33023960D02*
X17465063Y-33014436D01*
X17465063Y-33014436D02*
X17455539Y-32995388D01*
X17455539Y-32995388D02*
X17455539Y-32938246D01*
X17455539Y-32938246D02*
X17465063Y-32919198D01*
X17465063Y-32919198D02*
X17474587Y-32909674D01*
X17474587Y-32909674D02*
X17493634Y-32900150D01*
X17493634Y-32900150D02*
X17522206Y-32900150D01*
X17522206Y-32900150D02*
X17541253Y-32909674D01*
X17541253Y-32909674D02*
X17550777Y-32919198D01*
X17550777Y-32919198D02*
X17560301Y-32938246D01*
X17560301Y-32938246D02*
X17560301Y-32995388D01*
X17560301Y-32995388D02*
X17550777Y-33014436D01*
X17550777Y-33014436D02*
X17541253Y-33023960D01*
X17541253Y-33023960D02*
X17522206Y-33033484D01*
X17522206Y-33033484D02*
X17493634Y-33033484D01*
X17674587Y-33033484D02*
X17655539Y-33023960D01*
X17655539Y-33023960D02*
X17646015Y-33004912D01*
X17646015Y-33004912D02*
X17646015Y-32833484D01*
X17826968Y-33023960D02*
X17807920Y-33033484D01*
X17807920Y-33033484D02*
X17769825Y-33033484D01*
X17769825Y-33033484D02*
X17750777Y-33023960D01*
X17750777Y-33023960D02*
X17741253Y-33004912D01*
X17741253Y-33004912D02*
X17741253Y-32928722D01*
X17741253Y-32928722D02*
X17750777Y-32909674D01*
X17750777Y-32909674D02*
X17769825Y-32900150D01*
X17769825Y-32900150D02*
X17807920Y-32900150D01*
X17807920Y-32900150D02*
X17826968Y-32909674D01*
X17826968Y-32909674D02*
X17836492Y-32928722D01*
X17836492Y-32928722D02*
X17836492Y-32947769D01*
X17836492Y-32947769D02*
X17741253Y-32966817D01*
X17912682Y-33023960D02*
X17931730Y-33033484D01*
X17931730Y-33033484D02*
X17969825Y-33033484D01*
X17969825Y-33033484D02*
X17988873Y-33023960D01*
X17988873Y-33023960D02*
X17998396Y-33004912D01*
X17998396Y-33004912D02*
X17998396Y-32995388D01*
X17998396Y-32995388D02*
X17988873Y-32976341D01*
X17988873Y-32976341D02*
X17969825Y-32966817D01*
X17969825Y-32966817D02*
X17941253Y-32966817D01*
X17941253Y-32966817D02*
X17922206Y-32957293D01*
X17922206Y-32957293D02*
X17912682Y-32938246D01*
X17912682Y-32938246D02*
X17912682Y-32928722D01*
X17912682Y-32928722D02*
X17922206Y-32909674D01*
X17922206Y-32909674D02*
X17941253Y-32900150D01*
X17941253Y-32900150D02*
X17969825Y-32900150D01*
X17969825Y-32900150D02*
X17988873Y-32909674D01*
X18065063Y-33109674D02*
X18074587Y-33100150D01*
X18074587Y-33100150D02*
X18093634Y-33071579D01*
X18093634Y-33071579D02*
X18103158Y-33052531D01*
X18103158Y-33052531D02*
X18112682Y-33023960D01*
X18112682Y-33023960D02*
X18122206Y-32976341D01*
X18122206Y-32976341D02*
X18122206Y-32938246D01*
X18122206Y-32938246D02*
X18112682Y-32890627D01*
X18112682Y-32890627D02*
X18103158Y-32862055D01*
X18103158Y-32862055D02*
X18093634Y-32843008D01*
X18093634Y-32843008D02*
X18074587Y-32814436D01*
X18074587Y-32814436D02*
X18065063Y-32804912D01*
D14*
X13215000Y-33281000D02*
X13290000Y-33206000D01*
X13215000Y-33131000D01*
X13140000Y-33206000D01*
X13215000Y-33281000D01*
D10*
X13655539Y-33297484D02*
X13541253Y-33297484D01*
X13598396Y-33297484D02*
X13598396Y-33097484D01*
X13598396Y-33097484D02*
X13579348Y-33126055D01*
X13579348Y-33126055D02*
X13560301Y-33145103D01*
X13560301Y-33145103D02*
X13541253Y-33154627D01*
X13741253Y-33278436D02*
X13750777Y-33287960D01*
X13750777Y-33287960D02*
X13741253Y-33297484D01*
X13741253Y-33297484D02*
X13731729Y-33287960D01*
X13731729Y-33287960D02*
X13741253Y-33278436D01*
X13741253Y-33278436D02*
X13741253Y-33297484D01*
X13931729Y-33097484D02*
X13836491Y-33097484D01*
X13836491Y-33097484D02*
X13826967Y-33192722D01*
X13826967Y-33192722D02*
X13836491Y-33183198D01*
X13836491Y-33183198D02*
X13855539Y-33173674D01*
X13855539Y-33173674D02*
X13903158Y-33173674D01*
X13903158Y-33173674D02*
X13922205Y-33183198D01*
X13922205Y-33183198D02*
X13931729Y-33192722D01*
X13931729Y-33192722D02*
X13941253Y-33211769D01*
X13941253Y-33211769D02*
X13941253Y-33259388D01*
X13941253Y-33259388D02*
X13931729Y-33278436D01*
X13931729Y-33278436D02*
X13922205Y-33287960D01*
X13922205Y-33287960D02*
X13903158Y-33297484D01*
X13903158Y-33297484D02*
X13855539Y-33297484D01*
X13855539Y-33297484D02*
X13836491Y-33287960D01*
X13836491Y-33287960D02*
X13826967Y-33278436D01*
X14065062Y-33097484D02*
X14084110Y-33097484D01*
X14084110Y-33097484D02*
X14103158Y-33107008D01*
X14103158Y-33107008D02*
X14112682Y-33116531D01*
X14112682Y-33116531D02*
X14122205Y-33135579D01*
X14122205Y-33135579D02*
X14131729Y-33173674D01*
X14131729Y-33173674D02*
X14131729Y-33221293D01*
X14131729Y-33221293D02*
X14122205Y-33259388D01*
X14122205Y-33259388D02*
X14112682Y-33278436D01*
X14112682Y-33278436D02*
X14103158Y-33287960D01*
X14103158Y-33287960D02*
X14084110Y-33297484D01*
X14084110Y-33297484D02*
X14065062Y-33297484D01*
X14065062Y-33297484D02*
X14046015Y-33287960D01*
X14046015Y-33287960D02*
X14036491Y-33278436D01*
X14036491Y-33278436D02*
X14026967Y-33259388D01*
X14026967Y-33259388D02*
X14017443Y-33221293D01*
X14017443Y-33221293D02*
X14017443Y-33173674D01*
X14017443Y-33173674D02*
X14026967Y-33135579D01*
X14026967Y-33135579D02*
X14036491Y-33116531D01*
X14036491Y-33116531D02*
X14046015Y-33107008D01*
X14046015Y-33107008D02*
X14065062Y-33097484D01*
X14255539Y-33097484D02*
X14274586Y-33097484D01*
X14274586Y-33097484D02*
X14293634Y-33107008D01*
X14293634Y-33107008D02*
X14303158Y-33116531D01*
X14303158Y-33116531D02*
X14312682Y-33135579D01*
X14312682Y-33135579D02*
X14322205Y-33173674D01*
X14322205Y-33173674D02*
X14322205Y-33221293D01*
X14322205Y-33221293D02*
X14312682Y-33259388D01*
X14312682Y-33259388D02*
X14303158Y-33278436D01*
X14303158Y-33278436D02*
X14293634Y-33287960D01*
X14293634Y-33287960D02*
X14274586Y-33297484D01*
X14274586Y-33297484D02*
X14255539Y-33297484D01*
X14255539Y-33297484D02*
X14236491Y-33287960D01*
X14236491Y-33287960D02*
X14226967Y-33278436D01*
X14226967Y-33278436D02*
X14217443Y-33259388D01*
X14217443Y-33259388D02*
X14207920Y-33221293D01*
X14207920Y-33221293D02*
X14207920Y-33173674D01*
X14207920Y-33173674D02*
X14217443Y-33135579D01*
X14217443Y-33135579D02*
X14226967Y-33116531D01*
X14226967Y-33116531D02*
X14236491Y-33107008D01*
X14236491Y-33107008D02*
X14255539Y-33097484D01*
X14407920Y-33297484D02*
X14407920Y-33164150D01*
X14407920Y-33183198D02*
X14417443Y-33173674D01*
X14417443Y-33173674D02*
X14436491Y-33164150D01*
X14436491Y-33164150D02*
X14465063Y-33164150D01*
X14465063Y-33164150D02*
X14484110Y-33173674D01*
X14484110Y-33173674D02*
X14493634Y-33192722D01*
X14493634Y-33192722D02*
X14493634Y-33297484D01*
X14493634Y-33192722D02*
X14503158Y-33173674D01*
X14503158Y-33173674D02*
X14522205Y-33164150D01*
X14522205Y-33164150D02*
X14550777Y-33164150D01*
X14550777Y-33164150D02*
X14569824Y-33173674D01*
X14569824Y-33173674D02*
X14579348Y-33192722D01*
X14579348Y-33192722D02*
X14579348Y-33297484D01*
X14674586Y-33297484D02*
X14674586Y-33164150D01*
X14674586Y-33183198D02*
X14684110Y-33173674D01*
X14684110Y-33173674D02*
X14703158Y-33164150D01*
X14703158Y-33164150D02*
X14731729Y-33164150D01*
X14731729Y-33164150D02*
X14750777Y-33173674D01*
X14750777Y-33173674D02*
X14760301Y-33192722D01*
X14760301Y-33192722D02*
X14760301Y-33297484D01*
X14760301Y-33192722D02*
X14769824Y-33173674D01*
X14769824Y-33173674D02*
X14788872Y-33164150D01*
X14788872Y-33164150D02*
X14817443Y-33164150D01*
X14817443Y-33164150D02*
X14836491Y-33173674D01*
X14836491Y-33173674D02*
X14846015Y-33192722D01*
X14846015Y-33192722D02*
X14846015Y-33297484D01*
X15236491Y-33087960D02*
X15065063Y-33345103D01*
X15493634Y-33097484D02*
X15512682Y-33097484D01*
X15512682Y-33097484D02*
X15531729Y-33107008D01*
X15531729Y-33107008D02*
X15541253Y-33116531D01*
X15541253Y-33116531D02*
X15550777Y-33135579D01*
X15550777Y-33135579D02*
X15560301Y-33173674D01*
X15560301Y-33173674D02*
X15560301Y-33221293D01*
X15560301Y-33221293D02*
X15550777Y-33259388D01*
X15550777Y-33259388D02*
X15541253Y-33278436D01*
X15541253Y-33278436D02*
X15531729Y-33287960D01*
X15531729Y-33287960D02*
X15512682Y-33297484D01*
X15512682Y-33297484D02*
X15493634Y-33297484D01*
X15493634Y-33297484D02*
X15474586Y-33287960D01*
X15474586Y-33287960D02*
X15465063Y-33278436D01*
X15465063Y-33278436D02*
X15455539Y-33259388D01*
X15455539Y-33259388D02*
X15446015Y-33221293D01*
X15446015Y-33221293D02*
X15446015Y-33173674D01*
X15446015Y-33173674D02*
X15455539Y-33135579D01*
X15455539Y-33135579D02*
X15465063Y-33116531D01*
X15465063Y-33116531D02*
X15474586Y-33107008D01*
X15474586Y-33107008D02*
X15493634Y-33097484D01*
X15646015Y-33278436D02*
X15655539Y-33287960D01*
X15655539Y-33287960D02*
X15646015Y-33297484D01*
X15646015Y-33297484D02*
X15636491Y-33287960D01*
X15636491Y-33287960D02*
X15646015Y-33278436D01*
X15646015Y-33278436D02*
X15646015Y-33297484D01*
X15779348Y-33097484D02*
X15798396Y-33097484D01*
X15798396Y-33097484D02*
X15817444Y-33107008D01*
X15817444Y-33107008D02*
X15826967Y-33116531D01*
X15826967Y-33116531D02*
X15836491Y-33135579D01*
X15836491Y-33135579D02*
X15846015Y-33173674D01*
X15846015Y-33173674D02*
X15846015Y-33221293D01*
X15846015Y-33221293D02*
X15836491Y-33259388D01*
X15836491Y-33259388D02*
X15826967Y-33278436D01*
X15826967Y-33278436D02*
X15817444Y-33287960D01*
X15817444Y-33287960D02*
X15798396Y-33297484D01*
X15798396Y-33297484D02*
X15779348Y-33297484D01*
X15779348Y-33297484D02*
X15760301Y-33287960D01*
X15760301Y-33287960D02*
X15750777Y-33278436D01*
X15750777Y-33278436D02*
X15741253Y-33259388D01*
X15741253Y-33259388D02*
X15731729Y-33221293D01*
X15731729Y-33221293D02*
X15731729Y-33173674D01*
X15731729Y-33173674D02*
X15741253Y-33135579D01*
X15741253Y-33135579D02*
X15750777Y-33116531D01*
X15750777Y-33116531D02*
X15760301Y-33107008D01*
X15760301Y-33107008D02*
X15779348Y-33097484D01*
X16026967Y-33097484D02*
X15931729Y-33097484D01*
X15931729Y-33097484D02*
X15922206Y-33192722D01*
X15922206Y-33192722D02*
X15931729Y-33183198D01*
X15931729Y-33183198D02*
X15950777Y-33173674D01*
X15950777Y-33173674D02*
X15998396Y-33173674D01*
X15998396Y-33173674D02*
X16017444Y-33183198D01*
X16017444Y-33183198D02*
X16026967Y-33192722D01*
X16026967Y-33192722D02*
X16036491Y-33211769D01*
X16036491Y-33211769D02*
X16036491Y-33259388D01*
X16036491Y-33259388D02*
X16026967Y-33278436D01*
X16026967Y-33278436D02*
X16017444Y-33287960D01*
X16017444Y-33287960D02*
X15998396Y-33297484D01*
X15998396Y-33297484D02*
X15950777Y-33297484D01*
X15950777Y-33297484D02*
X15931729Y-33287960D01*
X15931729Y-33287960D02*
X15922206Y-33278436D01*
X16131729Y-33297484D02*
X16169825Y-33297484D01*
X16169825Y-33297484D02*
X16188872Y-33287960D01*
X16188872Y-33287960D02*
X16198396Y-33278436D01*
X16198396Y-33278436D02*
X16217444Y-33249865D01*
X16217444Y-33249865D02*
X16226967Y-33211769D01*
X16226967Y-33211769D02*
X16226967Y-33135579D01*
X16226967Y-33135579D02*
X16217444Y-33116531D01*
X16217444Y-33116531D02*
X16207920Y-33107008D01*
X16207920Y-33107008D02*
X16188872Y-33097484D01*
X16188872Y-33097484D02*
X16150777Y-33097484D01*
X16150777Y-33097484D02*
X16131729Y-33107008D01*
X16131729Y-33107008D02*
X16122206Y-33116531D01*
X16122206Y-33116531D02*
X16112682Y-33135579D01*
X16112682Y-33135579D02*
X16112682Y-33183198D01*
X16112682Y-33183198D02*
X16122206Y-33202246D01*
X16122206Y-33202246D02*
X16131729Y-33211769D01*
X16131729Y-33211769D02*
X16150777Y-33221293D01*
X16150777Y-33221293D02*
X16188872Y-33221293D01*
X16188872Y-33221293D02*
X16207920Y-33211769D01*
X16207920Y-33211769D02*
X16217444Y-33202246D01*
X16217444Y-33202246D02*
X16226967Y-33183198D01*
X16417444Y-33297484D02*
X16303158Y-33297484D01*
X16360301Y-33297484D02*
X16360301Y-33097484D01*
X16360301Y-33097484D02*
X16341253Y-33126055D01*
X16341253Y-33126055D02*
X16322206Y-33145103D01*
X16322206Y-33145103D02*
X16303158Y-33154627D01*
X16493634Y-33097484D02*
X16493634Y-33135579D01*
X16569825Y-33097484D02*
X16569825Y-33135579D01*
X16865063Y-33373674D02*
X16855539Y-33364150D01*
X16855539Y-33364150D02*
X16836491Y-33335579D01*
X16836491Y-33335579D02*
X16826968Y-33316531D01*
X16826968Y-33316531D02*
X16817444Y-33287960D01*
X16817444Y-33287960D02*
X16807920Y-33240341D01*
X16807920Y-33240341D02*
X16807920Y-33202246D01*
X16807920Y-33202246D02*
X16817444Y-33154627D01*
X16817444Y-33154627D02*
X16826968Y-33126055D01*
X16826968Y-33126055D02*
X16836491Y-33107008D01*
X16836491Y-33107008D02*
X16855539Y-33078436D01*
X16855539Y-33078436D02*
X16865063Y-33068912D01*
X16979349Y-33097484D02*
X16998396Y-33097484D01*
X16998396Y-33097484D02*
X17017444Y-33107008D01*
X17017444Y-33107008D02*
X17026968Y-33116531D01*
X17026968Y-33116531D02*
X17036491Y-33135579D01*
X17036491Y-33135579D02*
X17046015Y-33173674D01*
X17046015Y-33173674D02*
X17046015Y-33221293D01*
X17046015Y-33221293D02*
X17036491Y-33259388D01*
X17036491Y-33259388D02*
X17026968Y-33278436D01*
X17026968Y-33278436D02*
X17017444Y-33287960D01*
X17017444Y-33287960D02*
X16998396Y-33297484D01*
X16998396Y-33297484D02*
X16979349Y-33297484D01*
X16979349Y-33297484D02*
X16960301Y-33287960D01*
X16960301Y-33287960D02*
X16950777Y-33278436D01*
X16950777Y-33278436D02*
X16941253Y-33259388D01*
X16941253Y-33259388D02*
X16931730Y-33221293D01*
X16931730Y-33221293D02*
X16931730Y-33173674D01*
X16931730Y-33173674D02*
X16941253Y-33135579D01*
X16941253Y-33135579D02*
X16950777Y-33116531D01*
X16950777Y-33116531D02*
X16960301Y-33107008D01*
X16960301Y-33107008D02*
X16979349Y-33097484D01*
X17284111Y-33297484D02*
X17284111Y-33097484D01*
X17369825Y-33297484D02*
X17369825Y-33192722D01*
X17369825Y-33192722D02*
X17360301Y-33173674D01*
X17360301Y-33173674D02*
X17341253Y-33164150D01*
X17341253Y-33164150D02*
X17312682Y-33164150D01*
X17312682Y-33164150D02*
X17293634Y-33173674D01*
X17293634Y-33173674D02*
X17284111Y-33183198D01*
X17493634Y-33297484D02*
X17474587Y-33287960D01*
X17474587Y-33287960D02*
X17465063Y-33278436D01*
X17465063Y-33278436D02*
X17455539Y-33259388D01*
X17455539Y-33259388D02*
X17455539Y-33202246D01*
X17455539Y-33202246D02*
X17465063Y-33183198D01*
X17465063Y-33183198D02*
X17474587Y-33173674D01*
X17474587Y-33173674D02*
X17493634Y-33164150D01*
X17493634Y-33164150D02*
X17522206Y-33164150D01*
X17522206Y-33164150D02*
X17541253Y-33173674D01*
X17541253Y-33173674D02*
X17550777Y-33183198D01*
X17550777Y-33183198D02*
X17560301Y-33202246D01*
X17560301Y-33202246D02*
X17560301Y-33259388D01*
X17560301Y-33259388D02*
X17550777Y-33278436D01*
X17550777Y-33278436D02*
X17541253Y-33287960D01*
X17541253Y-33287960D02*
X17522206Y-33297484D01*
X17522206Y-33297484D02*
X17493634Y-33297484D01*
X17674587Y-33297484D02*
X17655539Y-33287960D01*
X17655539Y-33287960D02*
X17646015Y-33268912D01*
X17646015Y-33268912D02*
X17646015Y-33097484D01*
X17826968Y-33287960D02*
X17807920Y-33297484D01*
X17807920Y-33297484D02*
X17769825Y-33297484D01*
X17769825Y-33297484D02*
X17750777Y-33287960D01*
X17750777Y-33287960D02*
X17741253Y-33268912D01*
X17741253Y-33268912D02*
X17741253Y-33192722D01*
X17741253Y-33192722D02*
X17750777Y-33173674D01*
X17750777Y-33173674D02*
X17769825Y-33164150D01*
X17769825Y-33164150D02*
X17807920Y-33164150D01*
X17807920Y-33164150D02*
X17826968Y-33173674D01*
X17826968Y-33173674D02*
X17836492Y-33192722D01*
X17836492Y-33192722D02*
X17836492Y-33211769D01*
X17836492Y-33211769D02*
X17741253Y-33230817D01*
X17912682Y-33287960D02*
X17931730Y-33297484D01*
X17931730Y-33297484D02*
X17969825Y-33297484D01*
X17969825Y-33297484D02*
X17988873Y-33287960D01*
X17988873Y-33287960D02*
X17998396Y-33268912D01*
X17998396Y-33268912D02*
X17998396Y-33259388D01*
X17998396Y-33259388D02*
X17988873Y-33240341D01*
X17988873Y-33240341D02*
X17969825Y-33230817D01*
X17969825Y-33230817D02*
X17941253Y-33230817D01*
X17941253Y-33230817D02*
X17922206Y-33221293D01*
X17922206Y-33221293D02*
X17912682Y-33202246D01*
X17912682Y-33202246D02*
X17912682Y-33192722D01*
X17912682Y-33192722D02*
X17922206Y-33173674D01*
X17922206Y-33173674D02*
X17941253Y-33164150D01*
X17941253Y-33164150D02*
X17969825Y-33164150D01*
X17969825Y-33164150D02*
X17988873Y-33173674D01*
X18236492Y-33221293D02*
X18388873Y-33221293D01*
X18312682Y-33297484D02*
X18312682Y-33145103D01*
X18617444Y-33097484D02*
X18741254Y-33097484D01*
X18741254Y-33097484D02*
X18674587Y-33173674D01*
X18674587Y-33173674D02*
X18703158Y-33173674D01*
X18703158Y-33173674D02*
X18722206Y-33183198D01*
X18722206Y-33183198D02*
X18731730Y-33192722D01*
X18731730Y-33192722D02*
X18741254Y-33211769D01*
X18741254Y-33211769D02*
X18741254Y-33259388D01*
X18741254Y-33259388D02*
X18731730Y-33278436D01*
X18731730Y-33278436D02*
X18722206Y-33287960D01*
X18722206Y-33287960D02*
X18703158Y-33297484D01*
X18703158Y-33297484D02*
X18646015Y-33297484D01*
X18646015Y-33297484D02*
X18626968Y-33287960D01*
X18626968Y-33287960D02*
X18617444Y-33278436D01*
X18969825Y-33287960D02*
X18988873Y-33297484D01*
X18988873Y-33297484D02*
X19026968Y-33297484D01*
X19026968Y-33297484D02*
X19046016Y-33287960D01*
X19046016Y-33287960D02*
X19055539Y-33268912D01*
X19055539Y-33268912D02*
X19055539Y-33259388D01*
X19055539Y-33259388D02*
X19046016Y-33240341D01*
X19046016Y-33240341D02*
X19026968Y-33230817D01*
X19026968Y-33230817D02*
X18998396Y-33230817D01*
X18998396Y-33230817D02*
X18979349Y-33221293D01*
X18979349Y-33221293D02*
X18969825Y-33202246D01*
X18969825Y-33202246D02*
X18969825Y-33192722D01*
X18969825Y-33192722D02*
X18979349Y-33173674D01*
X18979349Y-33173674D02*
X18998396Y-33164150D01*
X18998396Y-33164150D02*
X19026968Y-33164150D01*
X19026968Y-33164150D02*
X19046016Y-33173674D01*
X19169825Y-33297484D02*
X19150777Y-33287960D01*
X19150777Y-33287960D02*
X19141254Y-33268912D01*
X19141254Y-33268912D02*
X19141254Y-33097484D01*
X19274587Y-33297484D02*
X19255539Y-33287960D01*
X19255539Y-33287960D02*
X19246016Y-33278436D01*
X19246016Y-33278436D02*
X19236492Y-33259388D01*
X19236492Y-33259388D02*
X19236492Y-33202246D01*
X19236492Y-33202246D02*
X19246016Y-33183198D01*
X19246016Y-33183198D02*
X19255539Y-33173674D01*
X19255539Y-33173674D02*
X19274587Y-33164150D01*
X19274587Y-33164150D02*
X19303158Y-33164150D01*
X19303158Y-33164150D02*
X19322206Y-33173674D01*
X19322206Y-33173674D02*
X19331730Y-33183198D01*
X19331730Y-33183198D02*
X19341254Y-33202246D01*
X19341254Y-33202246D02*
X19341254Y-33259388D01*
X19341254Y-33259388D02*
X19331730Y-33278436D01*
X19331730Y-33278436D02*
X19322206Y-33287960D01*
X19322206Y-33287960D02*
X19303158Y-33297484D01*
X19303158Y-33297484D02*
X19274587Y-33297484D01*
X19398397Y-33164150D02*
X19474587Y-33164150D01*
X19426968Y-33097484D02*
X19426968Y-33268912D01*
X19426968Y-33268912D02*
X19436492Y-33287960D01*
X19436492Y-33287960D02*
X19455539Y-33297484D01*
X19455539Y-33297484D02*
X19474587Y-33297484D01*
X19531730Y-33287960D02*
X19550777Y-33297484D01*
X19550777Y-33297484D02*
X19588873Y-33297484D01*
X19588873Y-33297484D02*
X19607920Y-33287960D01*
X19607920Y-33287960D02*
X19617444Y-33268912D01*
X19617444Y-33268912D02*
X19617444Y-33259388D01*
X19617444Y-33259388D02*
X19607920Y-33240341D01*
X19607920Y-33240341D02*
X19588873Y-33230817D01*
X19588873Y-33230817D02*
X19560301Y-33230817D01*
X19560301Y-33230817D02*
X19541254Y-33221293D01*
X19541254Y-33221293D02*
X19531730Y-33202246D01*
X19531730Y-33202246D02*
X19531730Y-33192722D01*
X19531730Y-33192722D02*
X19541254Y-33173674D01*
X19541254Y-33173674D02*
X19560301Y-33164150D01*
X19560301Y-33164150D02*
X19588873Y-33164150D01*
X19588873Y-33164150D02*
X19607920Y-33173674D01*
X19684111Y-33373674D02*
X19693635Y-33364150D01*
X19693635Y-33364150D02*
X19712682Y-33335579D01*
X19712682Y-33335579D02*
X19722206Y-33316531D01*
X19722206Y-33316531D02*
X19731730Y-33287960D01*
X19731730Y-33287960D02*
X19741254Y-33240341D01*
X19741254Y-33240341D02*
X19741254Y-33202246D01*
X19741254Y-33202246D02*
X19731730Y-33154627D01*
X19731730Y-33154627D02*
X19722206Y-33126055D01*
X19722206Y-33126055D02*
X19712682Y-33107008D01*
X19712682Y-33107008D02*
X19693635Y-33078436D01*
X19693635Y-33078436D02*
X19684111Y-33068912D01*
X13090000Y-33376000D02*
X13290000Y-33576000D01*
X13290000Y-33376000D02*
X13090000Y-33576000D01*
X13290000Y-33476000D02*
G75*
G02*
X13090000Y-33476000I-100000J0D01*
G01*
X13090000Y-33476000D02*
G75*
G02*
X13290000Y-33476000I100000J0D01*
G01*
X13541253Y-33386531D02*
X13550777Y-33377008D01*
X13550777Y-33377008D02*
X13569824Y-33367484D01*
X13569824Y-33367484D02*
X13617443Y-33367484D01*
X13617443Y-33367484D02*
X13636491Y-33377008D01*
X13636491Y-33377008D02*
X13646015Y-33386531D01*
X13646015Y-33386531D02*
X13655539Y-33405579D01*
X13655539Y-33405579D02*
X13655539Y-33424627D01*
X13655539Y-33424627D02*
X13646015Y-33453198D01*
X13646015Y-33453198D02*
X13531729Y-33567484D01*
X13531729Y-33567484D02*
X13655539Y-33567484D01*
X13741253Y-33548436D02*
X13750777Y-33557960D01*
X13750777Y-33557960D02*
X13741253Y-33567484D01*
X13741253Y-33567484D02*
X13731729Y-33557960D01*
X13731729Y-33557960D02*
X13741253Y-33548436D01*
X13741253Y-33548436D02*
X13741253Y-33567484D01*
X13817443Y-33367484D02*
X13950777Y-33367484D01*
X13950777Y-33367484D02*
X13865062Y-33567484D01*
X14065062Y-33367484D02*
X14084110Y-33367484D01*
X14084110Y-33367484D02*
X14103158Y-33377008D01*
X14103158Y-33377008D02*
X14112682Y-33386531D01*
X14112682Y-33386531D02*
X14122205Y-33405579D01*
X14122205Y-33405579D02*
X14131729Y-33443674D01*
X14131729Y-33443674D02*
X14131729Y-33491293D01*
X14131729Y-33491293D02*
X14122205Y-33529388D01*
X14122205Y-33529388D02*
X14112682Y-33548436D01*
X14112682Y-33548436D02*
X14103158Y-33557960D01*
X14103158Y-33557960D02*
X14084110Y-33567484D01*
X14084110Y-33567484D02*
X14065062Y-33567484D01*
X14065062Y-33567484D02*
X14046015Y-33557960D01*
X14046015Y-33557960D02*
X14036491Y-33548436D01*
X14036491Y-33548436D02*
X14026967Y-33529388D01*
X14026967Y-33529388D02*
X14017443Y-33491293D01*
X14017443Y-33491293D02*
X14017443Y-33443674D01*
X14017443Y-33443674D02*
X14026967Y-33405579D01*
X14026967Y-33405579D02*
X14036491Y-33386531D01*
X14036491Y-33386531D02*
X14046015Y-33377008D01*
X14046015Y-33377008D02*
X14065062Y-33367484D01*
X14255539Y-33367484D02*
X14274586Y-33367484D01*
X14274586Y-33367484D02*
X14293634Y-33377008D01*
X14293634Y-33377008D02*
X14303158Y-33386531D01*
X14303158Y-33386531D02*
X14312682Y-33405579D01*
X14312682Y-33405579D02*
X14322205Y-33443674D01*
X14322205Y-33443674D02*
X14322205Y-33491293D01*
X14322205Y-33491293D02*
X14312682Y-33529388D01*
X14312682Y-33529388D02*
X14303158Y-33548436D01*
X14303158Y-33548436D02*
X14293634Y-33557960D01*
X14293634Y-33557960D02*
X14274586Y-33567484D01*
X14274586Y-33567484D02*
X14255539Y-33567484D01*
X14255539Y-33567484D02*
X14236491Y-33557960D01*
X14236491Y-33557960D02*
X14226967Y-33548436D01*
X14226967Y-33548436D02*
X14217443Y-33529388D01*
X14217443Y-33529388D02*
X14207920Y-33491293D01*
X14207920Y-33491293D02*
X14207920Y-33443674D01*
X14207920Y-33443674D02*
X14217443Y-33405579D01*
X14217443Y-33405579D02*
X14226967Y-33386531D01*
X14226967Y-33386531D02*
X14236491Y-33377008D01*
X14236491Y-33377008D02*
X14255539Y-33367484D01*
X14407920Y-33567484D02*
X14407920Y-33434150D01*
X14407920Y-33453198D02*
X14417443Y-33443674D01*
X14417443Y-33443674D02*
X14436491Y-33434150D01*
X14436491Y-33434150D02*
X14465063Y-33434150D01*
X14465063Y-33434150D02*
X14484110Y-33443674D01*
X14484110Y-33443674D02*
X14493634Y-33462722D01*
X14493634Y-33462722D02*
X14493634Y-33567484D01*
X14493634Y-33462722D02*
X14503158Y-33443674D01*
X14503158Y-33443674D02*
X14522205Y-33434150D01*
X14522205Y-33434150D02*
X14550777Y-33434150D01*
X14550777Y-33434150D02*
X14569824Y-33443674D01*
X14569824Y-33443674D02*
X14579348Y-33462722D01*
X14579348Y-33462722D02*
X14579348Y-33567484D01*
X14674586Y-33567484D02*
X14674586Y-33434150D01*
X14674586Y-33453198D02*
X14684110Y-33443674D01*
X14684110Y-33443674D02*
X14703158Y-33434150D01*
X14703158Y-33434150D02*
X14731729Y-33434150D01*
X14731729Y-33434150D02*
X14750777Y-33443674D01*
X14750777Y-33443674D02*
X14760301Y-33462722D01*
X14760301Y-33462722D02*
X14760301Y-33567484D01*
X14760301Y-33462722D02*
X14769824Y-33443674D01*
X14769824Y-33443674D02*
X14788872Y-33434150D01*
X14788872Y-33434150D02*
X14817443Y-33434150D01*
X14817443Y-33434150D02*
X14836491Y-33443674D01*
X14836491Y-33443674D02*
X14846015Y-33462722D01*
X14846015Y-33462722D02*
X14846015Y-33567484D01*
X15236491Y-33357960D02*
X15065063Y-33615103D01*
X15493634Y-33367484D02*
X15512682Y-33367484D01*
X15512682Y-33367484D02*
X15531729Y-33377008D01*
X15531729Y-33377008D02*
X15541253Y-33386531D01*
X15541253Y-33386531D02*
X15550777Y-33405579D01*
X15550777Y-33405579D02*
X15560301Y-33443674D01*
X15560301Y-33443674D02*
X15560301Y-33491293D01*
X15560301Y-33491293D02*
X15550777Y-33529388D01*
X15550777Y-33529388D02*
X15541253Y-33548436D01*
X15541253Y-33548436D02*
X15531729Y-33557960D01*
X15531729Y-33557960D02*
X15512682Y-33567484D01*
X15512682Y-33567484D02*
X15493634Y-33567484D01*
X15493634Y-33567484D02*
X15474586Y-33557960D01*
X15474586Y-33557960D02*
X15465063Y-33548436D01*
X15465063Y-33548436D02*
X15455539Y-33529388D01*
X15455539Y-33529388D02*
X15446015Y-33491293D01*
X15446015Y-33491293D02*
X15446015Y-33443674D01*
X15446015Y-33443674D02*
X15455539Y-33405579D01*
X15455539Y-33405579D02*
X15465063Y-33386531D01*
X15465063Y-33386531D02*
X15474586Y-33377008D01*
X15474586Y-33377008D02*
X15493634Y-33367484D01*
X15646015Y-33548436D02*
X15655539Y-33557960D01*
X15655539Y-33557960D02*
X15646015Y-33567484D01*
X15646015Y-33567484D02*
X15636491Y-33557960D01*
X15636491Y-33557960D02*
X15646015Y-33548436D01*
X15646015Y-33548436D02*
X15646015Y-33567484D01*
X15846015Y-33567484D02*
X15731729Y-33567484D01*
X15788872Y-33567484D02*
X15788872Y-33367484D01*
X15788872Y-33367484D02*
X15769825Y-33396055D01*
X15769825Y-33396055D02*
X15750777Y-33415103D01*
X15750777Y-33415103D02*
X15731729Y-33424627D01*
X15969825Y-33367484D02*
X15988872Y-33367484D01*
X15988872Y-33367484D02*
X16007920Y-33377008D01*
X16007920Y-33377008D02*
X16017444Y-33386531D01*
X16017444Y-33386531D02*
X16026967Y-33405579D01*
X16026967Y-33405579D02*
X16036491Y-33443674D01*
X16036491Y-33443674D02*
X16036491Y-33491293D01*
X16036491Y-33491293D02*
X16026967Y-33529388D01*
X16026967Y-33529388D02*
X16017444Y-33548436D01*
X16017444Y-33548436D02*
X16007920Y-33557960D01*
X16007920Y-33557960D02*
X15988872Y-33567484D01*
X15988872Y-33567484D02*
X15969825Y-33567484D01*
X15969825Y-33567484D02*
X15950777Y-33557960D01*
X15950777Y-33557960D02*
X15941253Y-33548436D01*
X15941253Y-33548436D02*
X15931729Y-33529388D01*
X15931729Y-33529388D02*
X15922206Y-33491293D01*
X15922206Y-33491293D02*
X15922206Y-33443674D01*
X15922206Y-33443674D02*
X15931729Y-33405579D01*
X15931729Y-33405579D02*
X15941253Y-33386531D01*
X15941253Y-33386531D02*
X15950777Y-33377008D01*
X15950777Y-33377008D02*
X15969825Y-33367484D01*
X16207920Y-33367484D02*
X16169825Y-33367484D01*
X16169825Y-33367484D02*
X16150777Y-33377008D01*
X16150777Y-33377008D02*
X16141253Y-33386531D01*
X16141253Y-33386531D02*
X16122206Y-33415103D01*
X16122206Y-33415103D02*
X16112682Y-33453198D01*
X16112682Y-33453198D02*
X16112682Y-33529388D01*
X16112682Y-33529388D02*
X16122206Y-33548436D01*
X16122206Y-33548436D02*
X16131729Y-33557960D01*
X16131729Y-33557960D02*
X16150777Y-33567484D01*
X16150777Y-33567484D02*
X16188872Y-33567484D01*
X16188872Y-33567484D02*
X16207920Y-33557960D01*
X16207920Y-33557960D02*
X16217444Y-33548436D01*
X16217444Y-33548436D02*
X16226967Y-33529388D01*
X16226967Y-33529388D02*
X16226967Y-33481769D01*
X16226967Y-33481769D02*
X16217444Y-33462722D01*
X16217444Y-33462722D02*
X16207920Y-33453198D01*
X16207920Y-33453198D02*
X16188872Y-33443674D01*
X16188872Y-33443674D02*
X16150777Y-33443674D01*
X16150777Y-33443674D02*
X16131729Y-33453198D01*
X16131729Y-33453198D02*
X16122206Y-33462722D01*
X16122206Y-33462722D02*
X16112682Y-33481769D01*
X16293634Y-33367484D02*
X16417444Y-33367484D01*
X16417444Y-33367484D02*
X16350777Y-33443674D01*
X16350777Y-33443674D02*
X16379348Y-33443674D01*
X16379348Y-33443674D02*
X16398396Y-33453198D01*
X16398396Y-33453198D02*
X16407920Y-33462722D01*
X16407920Y-33462722D02*
X16417444Y-33481769D01*
X16417444Y-33481769D02*
X16417444Y-33529388D01*
X16417444Y-33529388D02*
X16407920Y-33548436D01*
X16407920Y-33548436D02*
X16398396Y-33557960D01*
X16398396Y-33557960D02*
X16379348Y-33567484D01*
X16379348Y-33567484D02*
X16322206Y-33567484D01*
X16322206Y-33567484D02*
X16303158Y-33557960D01*
X16303158Y-33557960D02*
X16293634Y-33548436D01*
X16493634Y-33367484D02*
X16493634Y-33405579D01*
X16569825Y-33367484D02*
X16569825Y-33405579D01*
X16865063Y-33643674D02*
X16855539Y-33634150D01*
X16855539Y-33634150D02*
X16836491Y-33605579D01*
X16836491Y-33605579D02*
X16826968Y-33586531D01*
X16826968Y-33586531D02*
X16817444Y-33557960D01*
X16817444Y-33557960D02*
X16807920Y-33510341D01*
X16807920Y-33510341D02*
X16807920Y-33472246D01*
X16807920Y-33472246D02*
X16817444Y-33424627D01*
X16817444Y-33424627D02*
X16826968Y-33396055D01*
X16826968Y-33396055D02*
X16836491Y-33377008D01*
X16836491Y-33377008D02*
X16855539Y-33348436D01*
X16855539Y-33348436D02*
X16865063Y-33338912D01*
X16931730Y-33386531D02*
X16941253Y-33377008D01*
X16941253Y-33377008D02*
X16960301Y-33367484D01*
X16960301Y-33367484D02*
X17007920Y-33367484D01*
X17007920Y-33367484D02*
X17026968Y-33377008D01*
X17026968Y-33377008D02*
X17036491Y-33386531D01*
X17036491Y-33386531D02*
X17046015Y-33405579D01*
X17046015Y-33405579D02*
X17046015Y-33424627D01*
X17046015Y-33424627D02*
X17036491Y-33453198D01*
X17036491Y-33453198D02*
X16922206Y-33567484D01*
X16922206Y-33567484D02*
X17046015Y-33567484D01*
X17284111Y-33567484D02*
X17284111Y-33367484D01*
X17369825Y-33567484D02*
X17369825Y-33462722D01*
X17369825Y-33462722D02*
X17360301Y-33443674D01*
X17360301Y-33443674D02*
X17341253Y-33434150D01*
X17341253Y-33434150D02*
X17312682Y-33434150D01*
X17312682Y-33434150D02*
X17293634Y-33443674D01*
X17293634Y-33443674D02*
X17284111Y-33453198D01*
X17493634Y-33567484D02*
X17474587Y-33557960D01*
X17474587Y-33557960D02*
X17465063Y-33548436D01*
X17465063Y-33548436D02*
X17455539Y-33529388D01*
X17455539Y-33529388D02*
X17455539Y-33472246D01*
X17455539Y-33472246D02*
X17465063Y-33453198D01*
X17465063Y-33453198D02*
X17474587Y-33443674D01*
X17474587Y-33443674D02*
X17493634Y-33434150D01*
X17493634Y-33434150D02*
X17522206Y-33434150D01*
X17522206Y-33434150D02*
X17541253Y-33443674D01*
X17541253Y-33443674D02*
X17550777Y-33453198D01*
X17550777Y-33453198D02*
X17560301Y-33472246D01*
X17560301Y-33472246D02*
X17560301Y-33529388D01*
X17560301Y-33529388D02*
X17550777Y-33548436D01*
X17550777Y-33548436D02*
X17541253Y-33557960D01*
X17541253Y-33557960D02*
X17522206Y-33567484D01*
X17522206Y-33567484D02*
X17493634Y-33567484D01*
X17674587Y-33567484D02*
X17655539Y-33557960D01*
X17655539Y-33557960D02*
X17646015Y-33538912D01*
X17646015Y-33538912D02*
X17646015Y-33367484D01*
X17826968Y-33557960D02*
X17807920Y-33567484D01*
X17807920Y-33567484D02*
X17769825Y-33567484D01*
X17769825Y-33567484D02*
X17750777Y-33557960D01*
X17750777Y-33557960D02*
X17741253Y-33538912D01*
X17741253Y-33538912D02*
X17741253Y-33462722D01*
X17741253Y-33462722D02*
X17750777Y-33443674D01*
X17750777Y-33443674D02*
X17769825Y-33434150D01*
X17769825Y-33434150D02*
X17807920Y-33434150D01*
X17807920Y-33434150D02*
X17826968Y-33443674D01*
X17826968Y-33443674D02*
X17836492Y-33462722D01*
X17836492Y-33462722D02*
X17836492Y-33481769D01*
X17836492Y-33481769D02*
X17741253Y-33500817D01*
X17912682Y-33557960D02*
X17931730Y-33567484D01*
X17931730Y-33567484D02*
X17969825Y-33567484D01*
X17969825Y-33567484D02*
X17988873Y-33557960D01*
X17988873Y-33557960D02*
X17998396Y-33538912D01*
X17998396Y-33538912D02*
X17998396Y-33529388D01*
X17998396Y-33529388D02*
X17988873Y-33510341D01*
X17988873Y-33510341D02*
X17969825Y-33500817D01*
X17969825Y-33500817D02*
X17941253Y-33500817D01*
X17941253Y-33500817D02*
X17922206Y-33491293D01*
X17922206Y-33491293D02*
X17912682Y-33472246D01*
X17912682Y-33472246D02*
X17912682Y-33462722D01*
X17912682Y-33462722D02*
X17922206Y-33443674D01*
X17922206Y-33443674D02*
X17941253Y-33434150D01*
X17941253Y-33434150D02*
X17969825Y-33434150D01*
X17969825Y-33434150D02*
X17988873Y-33443674D01*
X18065063Y-33643674D02*
X18074587Y-33634150D01*
X18074587Y-33634150D02*
X18093634Y-33605579D01*
X18093634Y-33605579D02*
X18103158Y-33586531D01*
X18103158Y-33586531D02*
X18112682Y-33557960D01*
X18112682Y-33557960D02*
X18122206Y-33510341D01*
X18122206Y-33510341D02*
X18122206Y-33472246D01*
X18122206Y-33472246D02*
X18112682Y-33424627D01*
X18112682Y-33424627D02*
X18103158Y-33396055D01*
X18103158Y-33396055D02*
X18093634Y-33377008D01*
X18093634Y-33377008D02*
X18074587Y-33348436D01*
X18074587Y-33348436D02*
X18065063Y-33338912D01*
X13090000Y-33696000D02*
X13290000Y-33896000D01*
X13290000Y-33696000D02*
X13090000Y-33896000D01*
X13190000Y-33696000D02*
X13190000Y-33896000D01*
X13090000Y-33796000D02*
X13290000Y-33796000D01*
X13541253Y-33706531D02*
X13550777Y-33697008D01*
X13550777Y-33697008D02*
X13569824Y-33687484D01*
X13569824Y-33687484D02*
X13617443Y-33687484D01*
X13617443Y-33687484D02*
X13636491Y-33697008D01*
X13636491Y-33697008D02*
X13646015Y-33706531D01*
X13646015Y-33706531D02*
X13655539Y-33725579D01*
X13655539Y-33725579D02*
X13655539Y-33744627D01*
X13655539Y-33744627D02*
X13646015Y-33773198D01*
X13646015Y-33773198D02*
X13531729Y-33887484D01*
X13531729Y-33887484D02*
X13655539Y-33887484D01*
X13741253Y-33868436D02*
X13750777Y-33877960D01*
X13750777Y-33877960D02*
X13741253Y-33887484D01*
X13741253Y-33887484D02*
X13731729Y-33877960D01*
X13731729Y-33877960D02*
X13741253Y-33868436D01*
X13741253Y-33868436D02*
X13741253Y-33887484D01*
X13817443Y-33687484D02*
X13950777Y-33687484D01*
X13950777Y-33687484D02*
X13865062Y-33887484D01*
X14122205Y-33687484D02*
X14026967Y-33687484D01*
X14026967Y-33687484D02*
X14017443Y-33782722D01*
X14017443Y-33782722D02*
X14026967Y-33773198D01*
X14026967Y-33773198D02*
X14046015Y-33763674D01*
X14046015Y-33763674D02*
X14093634Y-33763674D01*
X14093634Y-33763674D02*
X14112682Y-33773198D01*
X14112682Y-33773198D02*
X14122205Y-33782722D01*
X14122205Y-33782722D02*
X14131729Y-33801770D01*
X14131729Y-33801770D02*
X14131729Y-33849389D01*
X14131729Y-33849389D02*
X14122205Y-33868436D01*
X14122205Y-33868436D02*
X14112682Y-33877960D01*
X14112682Y-33877960D02*
X14093634Y-33887484D01*
X14093634Y-33887484D02*
X14046015Y-33887484D01*
X14046015Y-33887484D02*
X14026967Y-33877960D01*
X14026967Y-33877960D02*
X14017443Y-33868436D01*
X14255539Y-33687484D02*
X14274586Y-33687484D01*
X14274586Y-33687484D02*
X14293634Y-33697008D01*
X14293634Y-33697008D02*
X14303158Y-33706531D01*
X14303158Y-33706531D02*
X14312682Y-33725579D01*
X14312682Y-33725579D02*
X14322205Y-33763674D01*
X14322205Y-33763674D02*
X14322205Y-33811293D01*
X14322205Y-33811293D02*
X14312682Y-33849389D01*
X14312682Y-33849389D02*
X14303158Y-33868436D01*
X14303158Y-33868436D02*
X14293634Y-33877960D01*
X14293634Y-33877960D02*
X14274586Y-33887484D01*
X14274586Y-33887484D02*
X14255539Y-33887484D01*
X14255539Y-33887484D02*
X14236491Y-33877960D01*
X14236491Y-33877960D02*
X14226967Y-33868436D01*
X14226967Y-33868436D02*
X14217443Y-33849389D01*
X14217443Y-33849389D02*
X14207920Y-33811293D01*
X14207920Y-33811293D02*
X14207920Y-33763674D01*
X14207920Y-33763674D02*
X14217443Y-33725579D01*
X14217443Y-33725579D02*
X14226967Y-33706531D01*
X14226967Y-33706531D02*
X14236491Y-33697008D01*
X14236491Y-33697008D02*
X14255539Y-33687484D01*
X14407920Y-33887484D02*
X14407920Y-33754150D01*
X14407920Y-33773198D02*
X14417443Y-33763674D01*
X14417443Y-33763674D02*
X14436491Y-33754150D01*
X14436491Y-33754150D02*
X14465063Y-33754150D01*
X14465063Y-33754150D02*
X14484110Y-33763674D01*
X14484110Y-33763674D02*
X14493634Y-33782722D01*
X14493634Y-33782722D02*
X14493634Y-33887484D01*
X14493634Y-33782722D02*
X14503158Y-33763674D01*
X14503158Y-33763674D02*
X14522205Y-33754150D01*
X14522205Y-33754150D02*
X14550777Y-33754150D01*
X14550777Y-33754150D02*
X14569824Y-33763674D01*
X14569824Y-33763674D02*
X14579348Y-33782722D01*
X14579348Y-33782722D02*
X14579348Y-33887484D01*
X14674586Y-33887484D02*
X14674586Y-33754150D01*
X14674586Y-33773198D02*
X14684110Y-33763674D01*
X14684110Y-33763674D02*
X14703158Y-33754150D01*
X14703158Y-33754150D02*
X14731729Y-33754150D01*
X14731729Y-33754150D02*
X14750777Y-33763674D01*
X14750777Y-33763674D02*
X14760301Y-33782722D01*
X14760301Y-33782722D02*
X14760301Y-33887484D01*
X14760301Y-33782722D02*
X14769824Y-33763674D01*
X14769824Y-33763674D02*
X14788872Y-33754150D01*
X14788872Y-33754150D02*
X14817443Y-33754150D01*
X14817443Y-33754150D02*
X14836491Y-33763674D01*
X14836491Y-33763674D02*
X14846015Y-33782722D01*
X14846015Y-33782722D02*
X14846015Y-33887484D01*
X15236491Y-33677960D02*
X15065063Y-33935103D01*
X15493634Y-33687484D02*
X15512682Y-33687484D01*
X15512682Y-33687484D02*
X15531729Y-33697008D01*
X15531729Y-33697008D02*
X15541253Y-33706531D01*
X15541253Y-33706531D02*
X15550777Y-33725579D01*
X15550777Y-33725579D02*
X15560301Y-33763674D01*
X15560301Y-33763674D02*
X15560301Y-33811293D01*
X15560301Y-33811293D02*
X15550777Y-33849389D01*
X15550777Y-33849389D02*
X15541253Y-33868436D01*
X15541253Y-33868436D02*
X15531729Y-33877960D01*
X15531729Y-33877960D02*
X15512682Y-33887484D01*
X15512682Y-33887484D02*
X15493634Y-33887484D01*
X15493634Y-33887484D02*
X15474586Y-33877960D01*
X15474586Y-33877960D02*
X15465063Y-33868436D01*
X15465063Y-33868436D02*
X15455539Y-33849389D01*
X15455539Y-33849389D02*
X15446015Y-33811293D01*
X15446015Y-33811293D02*
X15446015Y-33763674D01*
X15446015Y-33763674D02*
X15455539Y-33725579D01*
X15455539Y-33725579D02*
X15465063Y-33706531D01*
X15465063Y-33706531D02*
X15474586Y-33697008D01*
X15474586Y-33697008D02*
X15493634Y-33687484D01*
X15646015Y-33868436D02*
X15655539Y-33877960D01*
X15655539Y-33877960D02*
X15646015Y-33887484D01*
X15646015Y-33887484D02*
X15636491Y-33877960D01*
X15636491Y-33877960D02*
X15646015Y-33868436D01*
X15646015Y-33868436D02*
X15646015Y-33887484D01*
X15846015Y-33887484D02*
X15731729Y-33887484D01*
X15788872Y-33887484D02*
X15788872Y-33687484D01*
X15788872Y-33687484D02*
X15769825Y-33716055D01*
X15769825Y-33716055D02*
X15750777Y-33735103D01*
X15750777Y-33735103D02*
X15731729Y-33744627D01*
X15969825Y-33687484D02*
X15988872Y-33687484D01*
X15988872Y-33687484D02*
X16007920Y-33697008D01*
X16007920Y-33697008D02*
X16017444Y-33706531D01*
X16017444Y-33706531D02*
X16026967Y-33725579D01*
X16026967Y-33725579D02*
X16036491Y-33763674D01*
X16036491Y-33763674D02*
X16036491Y-33811293D01*
X16036491Y-33811293D02*
X16026967Y-33849389D01*
X16026967Y-33849389D02*
X16017444Y-33868436D01*
X16017444Y-33868436D02*
X16007920Y-33877960D01*
X16007920Y-33877960D02*
X15988872Y-33887484D01*
X15988872Y-33887484D02*
X15969825Y-33887484D01*
X15969825Y-33887484D02*
X15950777Y-33877960D01*
X15950777Y-33877960D02*
X15941253Y-33868436D01*
X15941253Y-33868436D02*
X15931729Y-33849389D01*
X15931729Y-33849389D02*
X15922206Y-33811293D01*
X15922206Y-33811293D02*
X15922206Y-33763674D01*
X15922206Y-33763674D02*
X15931729Y-33725579D01*
X15931729Y-33725579D02*
X15941253Y-33706531D01*
X15941253Y-33706531D02*
X15950777Y-33697008D01*
X15950777Y-33697008D02*
X15969825Y-33687484D01*
X16150777Y-33773198D02*
X16131729Y-33763674D01*
X16131729Y-33763674D02*
X16122206Y-33754150D01*
X16122206Y-33754150D02*
X16112682Y-33735103D01*
X16112682Y-33735103D02*
X16112682Y-33725579D01*
X16112682Y-33725579D02*
X16122206Y-33706531D01*
X16122206Y-33706531D02*
X16131729Y-33697008D01*
X16131729Y-33697008D02*
X16150777Y-33687484D01*
X16150777Y-33687484D02*
X16188872Y-33687484D01*
X16188872Y-33687484D02*
X16207920Y-33697008D01*
X16207920Y-33697008D02*
X16217444Y-33706531D01*
X16217444Y-33706531D02*
X16226967Y-33725579D01*
X16226967Y-33725579D02*
X16226967Y-33735103D01*
X16226967Y-33735103D02*
X16217444Y-33754150D01*
X16217444Y-33754150D02*
X16207920Y-33763674D01*
X16207920Y-33763674D02*
X16188872Y-33773198D01*
X16188872Y-33773198D02*
X16150777Y-33773198D01*
X16150777Y-33773198D02*
X16131729Y-33782722D01*
X16131729Y-33782722D02*
X16122206Y-33792246D01*
X16122206Y-33792246D02*
X16112682Y-33811293D01*
X16112682Y-33811293D02*
X16112682Y-33849389D01*
X16112682Y-33849389D02*
X16122206Y-33868436D01*
X16122206Y-33868436D02*
X16131729Y-33877960D01*
X16131729Y-33877960D02*
X16150777Y-33887484D01*
X16150777Y-33887484D02*
X16188872Y-33887484D01*
X16188872Y-33887484D02*
X16207920Y-33877960D01*
X16207920Y-33877960D02*
X16217444Y-33868436D01*
X16217444Y-33868436D02*
X16226967Y-33849389D01*
X16226967Y-33849389D02*
X16226967Y-33811293D01*
X16226967Y-33811293D02*
X16217444Y-33792246D01*
X16217444Y-33792246D02*
X16207920Y-33782722D01*
X16207920Y-33782722D02*
X16188872Y-33773198D01*
X16293634Y-33687484D02*
X16417444Y-33687484D01*
X16417444Y-33687484D02*
X16350777Y-33763674D01*
X16350777Y-33763674D02*
X16379348Y-33763674D01*
X16379348Y-33763674D02*
X16398396Y-33773198D01*
X16398396Y-33773198D02*
X16407920Y-33782722D01*
X16407920Y-33782722D02*
X16417444Y-33801770D01*
X16417444Y-33801770D02*
X16417444Y-33849389D01*
X16417444Y-33849389D02*
X16407920Y-33868436D01*
X16407920Y-33868436D02*
X16398396Y-33877960D01*
X16398396Y-33877960D02*
X16379348Y-33887484D01*
X16379348Y-33887484D02*
X16322206Y-33887484D01*
X16322206Y-33887484D02*
X16303158Y-33877960D01*
X16303158Y-33877960D02*
X16293634Y-33868436D01*
X16493634Y-33687484D02*
X16493634Y-33725579D01*
X16569825Y-33687484D02*
X16569825Y-33725579D01*
X16865063Y-33963674D02*
X16855539Y-33954150D01*
X16855539Y-33954150D02*
X16836491Y-33925579D01*
X16836491Y-33925579D02*
X16826968Y-33906531D01*
X16826968Y-33906531D02*
X16817444Y-33877960D01*
X16817444Y-33877960D02*
X16807920Y-33830341D01*
X16807920Y-33830341D02*
X16807920Y-33792246D01*
X16807920Y-33792246D02*
X16817444Y-33744627D01*
X16817444Y-33744627D02*
X16826968Y-33716055D01*
X16826968Y-33716055D02*
X16836491Y-33697008D01*
X16836491Y-33697008D02*
X16855539Y-33668436D01*
X16855539Y-33668436D02*
X16865063Y-33658912D01*
X17026968Y-33754150D02*
X17026968Y-33887484D01*
X16979349Y-33677960D02*
X16931730Y-33820817D01*
X16931730Y-33820817D02*
X17055539Y-33820817D01*
X17284111Y-33887484D02*
X17284111Y-33687484D01*
X17369825Y-33887484D02*
X17369825Y-33782722D01*
X17369825Y-33782722D02*
X17360301Y-33763674D01*
X17360301Y-33763674D02*
X17341253Y-33754150D01*
X17341253Y-33754150D02*
X17312682Y-33754150D01*
X17312682Y-33754150D02*
X17293634Y-33763674D01*
X17293634Y-33763674D02*
X17284111Y-33773198D01*
X17493634Y-33887484D02*
X17474587Y-33877960D01*
X17474587Y-33877960D02*
X17465063Y-33868436D01*
X17465063Y-33868436D02*
X17455539Y-33849389D01*
X17455539Y-33849389D02*
X17455539Y-33792246D01*
X17455539Y-33792246D02*
X17465063Y-33773198D01*
X17465063Y-33773198D02*
X17474587Y-33763674D01*
X17474587Y-33763674D02*
X17493634Y-33754150D01*
X17493634Y-33754150D02*
X17522206Y-33754150D01*
X17522206Y-33754150D02*
X17541253Y-33763674D01*
X17541253Y-33763674D02*
X17550777Y-33773198D01*
X17550777Y-33773198D02*
X17560301Y-33792246D01*
X17560301Y-33792246D02*
X17560301Y-33849389D01*
X17560301Y-33849389D02*
X17550777Y-33868436D01*
X17550777Y-33868436D02*
X17541253Y-33877960D01*
X17541253Y-33877960D02*
X17522206Y-33887484D01*
X17522206Y-33887484D02*
X17493634Y-33887484D01*
X17674587Y-33887484D02*
X17655539Y-33877960D01*
X17655539Y-33877960D02*
X17646015Y-33858912D01*
X17646015Y-33858912D02*
X17646015Y-33687484D01*
X17826968Y-33877960D02*
X17807920Y-33887484D01*
X17807920Y-33887484D02*
X17769825Y-33887484D01*
X17769825Y-33887484D02*
X17750777Y-33877960D01*
X17750777Y-33877960D02*
X17741253Y-33858912D01*
X17741253Y-33858912D02*
X17741253Y-33782722D01*
X17741253Y-33782722D02*
X17750777Y-33763674D01*
X17750777Y-33763674D02*
X17769825Y-33754150D01*
X17769825Y-33754150D02*
X17807920Y-33754150D01*
X17807920Y-33754150D02*
X17826968Y-33763674D01*
X17826968Y-33763674D02*
X17836492Y-33782722D01*
X17836492Y-33782722D02*
X17836492Y-33801770D01*
X17836492Y-33801770D02*
X17741253Y-33820817D01*
X17912682Y-33877960D02*
X17931730Y-33887484D01*
X17931730Y-33887484D02*
X17969825Y-33887484D01*
X17969825Y-33887484D02*
X17988873Y-33877960D01*
X17988873Y-33877960D02*
X17998396Y-33858912D01*
X17998396Y-33858912D02*
X17998396Y-33849389D01*
X17998396Y-33849389D02*
X17988873Y-33830341D01*
X17988873Y-33830341D02*
X17969825Y-33820817D01*
X17969825Y-33820817D02*
X17941253Y-33820817D01*
X17941253Y-33820817D02*
X17922206Y-33811293D01*
X17922206Y-33811293D02*
X17912682Y-33792246D01*
X17912682Y-33792246D02*
X17912682Y-33782722D01*
X17912682Y-33782722D02*
X17922206Y-33763674D01*
X17922206Y-33763674D02*
X17941253Y-33754150D01*
X17941253Y-33754150D02*
X17969825Y-33754150D01*
X17969825Y-33754150D02*
X17988873Y-33763674D01*
X18065063Y-33963674D02*
X18074587Y-33954150D01*
X18074587Y-33954150D02*
X18093634Y-33925579D01*
X18093634Y-33925579D02*
X18103158Y-33906531D01*
X18103158Y-33906531D02*
X18112682Y-33877960D01*
X18112682Y-33877960D02*
X18122206Y-33830341D01*
X18122206Y-33830341D02*
X18122206Y-33792246D01*
X18122206Y-33792246D02*
X18112682Y-33744627D01*
X18112682Y-33744627D02*
X18103158Y-33716055D01*
X18103158Y-33716055D02*
X18093634Y-33697008D01*
X18093634Y-33697008D02*
X18074587Y-33668436D01*
X18074587Y-33668436D02*
X18065063Y-33658912D01*
M02*
