%TF.GenerationSoftware,KiCad,Pcbnew,8.0.4*%
%TF.CreationDate,2024-09-07T15:36:48-04:00*%
%TF.ProjectId,aux-board,6175782d-626f-4617-9264-2e6b69636164,rev?*%
%TF.SameCoordinates,Original*%
%TF.FileFunction,Legend,Top*%
%TF.FilePolarity,Positive*%
%FSLAX46Y46*%
G04 Gerber Fmt 4.6, Leading zero omitted, Abs format (unit mm)*
G04 Created by KiCad (PCBNEW 8.0.4) date 2024-09-07 15:36:48*
%MOMM*%
%LPD*%
G01*
G04 APERTURE LIST*
%ADD10C,0.300000*%
%ADD11C,0.150000*%
%ADD12C,0.100000*%
%ADD13C,0.120000*%
%ADD14C,0.050000*%
%ADD15C,0.200000*%
%ADD16C,0.127000*%
G04 APERTURE END LIST*
D10*
X38127742Y-74483082D02*
X38127742Y-75197368D01*
X37699171Y-74340225D02*
X39199171Y-74840225D01*
X39199171Y-74840225D02*
X37699171Y-75340225D01*
X39199171Y-75840224D02*
X37984885Y-75840224D01*
X37984885Y-75840224D02*
X37842028Y-75911653D01*
X37842028Y-75911653D02*
X37770600Y-75983082D01*
X37770600Y-75983082D02*
X37699171Y-76125939D01*
X37699171Y-76125939D02*
X37699171Y-76411653D01*
X37699171Y-76411653D02*
X37770600Y-76554510D01*
X37770600Y-76554510D02*
X37842028Y-76625939D01*
X37842028Y-76625939D02*
X37984885Y-76697367D01*
X37984885Y-76697367D02*
X39199171Y-76697367D01*
X39199171Y-77268796D02*
X37699171Y-78268796D01*
X39199171Y-78268796D02*
X37699171Y-77268796D01*
X106054510Y-93300828D02*
X106054510Y-91800828D01*
X106054510Y-91800828D02*
X106911653Y-93300828D01*
X106911653Y-93300828D02*
X106911653Y-91800828D01*
X107625939Y-92515114D02*
X108125939Y-92515114D01*
X108340225Y-93300828D02*
X107625939Y-93300828D01*
X107625939Y-93300828D02*
X107625939Y-91800828D01*
X107625939Y-91800828D02*
X108340225Y-91800828D01*
X109268797Y-91800828D02*
X109554511Y-91800828D01*
X109554511Y-91800828D02*
X109697368Y-91872257D01*
X109697368Y-91872257D02*
X109840225Y-92015114D01*
X109840225Y-92015114D02*
X109911654Y-92300828D01*
X109911654Y-92300828D02*
X109911654Y-92800828D01*
X109911654Y-92800828D02*
X109840225Y-93086542D01*
X109840225Y-93086542D02*
X109697368Y-93229400D01*
X109697368Y-93229400D02*
X109554511Y-93300828D01*
X109554511Y-93300828D02*
X109268797Y-93300828D01*
X109268797Y-93300828D02*
X109125940Y-93229400D01*
X109125940Y-93229400D02*
X108983082Y-93086542D01*
X108983082Y-93086542D02*
X108911654Y-92800828D01*
X108911654Y-92800828D02*
X108911654Y-92300828D01*
X108911654Y-92300828D02*
X108983082Y-92015114D01*
X108983082Y-92015114D02*
X109125940Y-91872257D01*
X109125940Y-91872257D02*
X109268797Y-91800828D01*
X110840226Y-91800828D02*
X110983083Y-91800828D01*
X110983083Y-91800828D02*
X111125940Y-91872257D01*
X111125940Y-91872257D02*
X111197369Y-91943685D01*
X111197369Y-91943685D02*
X111268797Y-92086542D01*
X111268797Y-92086542D02*
X111340226Y-92372257D01*
X111340226Y-92372257D02*
X111340226Y-92729400D01*
X111340226Y-92729400D02*
X111268797Y-93015114D01*
X111268797Y-93015114D02*
X111197369Y-93157971D01*
X111197369Y-93157971D02*
X111125940Y-93229400D01*
X111125940Y-93229400D02*
X110983083Y-93300828D01*
X110983083Y-93300828D02*
X110840226Y-93300828D01*
X110840226Y-93300828D02*
X110697369Y-93229400D01*
X110697369Y-93229400D02*
X110625940Y-93157971D01*
X110625940Y-93157971D02*
X110554511Y-93015114D01*
X110554511Y-93015114D02*
X110483083Y-92729400D01*
X110483083Y-92729400D02*
X110483083Y-92372257D01*
X110483083Y-92372257D02*
X110554511Y-92086542D01*
X110554511Y-92086542D02*
X110625940Y-91943685D01*
X110625940Y-91943685D02*
X110697369Y-91872257D01*
X110697369Y-91872257D02*
X110840226Y-91800828D01*
X63554510Y-93015114D02*
X63768796Y-93086542D01*
X63768796Y-93086542D02*
X63840225Y-93157971D01*
X63840225Y-93157971D02*
X63911653Y-93300828D01*
X63911653Y-93300828D02*
X63911653Y-93515114D01*
X63911653Y-93515114D02*
X63840225Y-93657971D01*
X63840225Y-93657971D02*
X63768796Y-93729400D01*
X63768796Y-93729400D02*
X63625939Y-93800828D01*
X63625939Y-93800828D02*
X63054510Y-93800828D01*
X63054510Y-93800828D02*
X63054510Y-92300828D01*
X63054510Y-92300828D02*
X63554510Y-92300828D01*
X63554510Y-92300828D02*
X63697368Y-92372257D01*
X63697368Y-92372257D02*
X63768796Y-92443685D01*
X63768796Y-92443685D02*
X63840225Y-92586542D01*
X63840225Y-92586542D02*
X63840225Y-92729400D01*
X63840225Y-92729400D02*
X63768796Y-92872257D01*
X63768796Y-92872257D02*
X63697368Y-92943685D01*
X63697368Y-92943685D02*
X63554510Y-93015114D01*
X63554510Y-93015114D02*
X63054510Y-93015114D01*
X64340225Y-92300828D02*
X65197368Y-92300828D01*
X64768796Y-93800828D02*
X64768796Y-92300828D01*
X65697367Y-93800828D02*
X65697367Y-92300828D01*
X65697367Y-92300828D02*
X66554510Y-93800828D01*
X66554510Y-93800828D02*
X66554510Y-92300828D01*
X67554511Y-92300828D02*
X67697368Y-92300828D01*
X67697368Y-92300828D02*
X67840225Y-92372257D01*
X67840225Y-92372257D02*
X67911654Y-92443685D01*
X67911654Y-92443685D02*
X67983082Y-92586542D01*
X67983082Y-92586542D02*
X68054511Y-92872257D01*
X68054511Y-92872257D02*
X68054511Y-93229400D01*
X68054511Y-93229400D02*
X67983082Y-93515114D01*
X67983082Y-93515114D02*
X67911654Y-93657971D01*
X67911654Y-93657971D02*
X67840225Y-93729400D01*
X67840225Y-93729400D02*
X67697368Y-93800828D01*
X67697368Y-93800828D02*
X67554511Y-93800828D01*
X67554511Y-93800828D02*
X67411654Y-93729400D01*
X67411654Y-93729400D02*
X67340225Y-93657971D01*
X67340225Y-93657971D02*
X67268796Y-93515114D01*
X67268796Y-93515114D02*
X67197368Y-93229400D01*
X67197368Y-93229400D02*
X67197368Y-92872257D01*
X67197368Y-92872257D02*
X67268796Y-92586542D01*
X67268796Y-92586542D02*
X67340225Y-92443685D01*
X67340225Y-92443685D02*
X67411654Y-92372257D01*
X67411654Y-92372257D02*
X67554511Y-92300828D01*
X57372257Y-89159774D02*
X57300828Y-89302632D01*
X57300828Y-89302632D02*
X57300828Y-89516917D01*
X57300828Y-89516917D02*
X57372257Y-89731203D01*
X57372257Y-89731203D02*
X57515114Y-89874060D01*
X57515114Y-89874060D02*
X57657971Y-89945489D01*
X57657971Y-89945489D02*
X57943685Y-90016917D01*
X57943685Y-90016917D02*
X58157971Y-90016917D01*
X58157971Y-90016917D02*
X58443685Y-89945489D01*
X58443685Y-89945489D02*
X58586542Y-89874060D01*
X58586542Y-89874060D02*
X58729400Y-89731203D01*
X58729400Y-89731203D02*
X58800828Y-89516917D01*
X58800828Y-89516917D02*
X58800828Y-89374060D01*
X58800828Y-89374060D02*
X58729400Y-89159774D01*
X58729400Y-89159774D02*
X58657971Y-89088346D01*
X58657971Y-89088346D02*
X58157971Y-89088346D01*
X58157971Y-89088346D02*
X58157971Y-89374060D01*
X58800828Y-88445489D02*
X57300828Y-88445489D01*
X57300828Y-88445489D02*
X58800828Y-87588346D01*
X58800828Y-87588346D02*
X57300828Y-87588346D01*
X58800828Y-86874060D02*
X57300828Y-86874060D01*
X57300828Y-86874060D02*
X57300828Y-86516917D01*
X57300828Y-86516917D02*
X57372257Y-86302631D01*
X57372257Y-86302631D02*
X57515114Y-86159774D01*
X57515114Y-86159774D02*
X57657971Y-86088345D01*
X57657971Y-86088345D02*
X57943685Y-86016917D01*
X57943685Y-86016917D02*
X58157971Y-86016917D01*
X58157971Y-86016917D02*
X58443685Y-86088345D01*
X58443685Y-86088345D02*
X58586542Y-86159774D01*
X58586542Y-86159774D02*
X58729400Y-86302631D01*
X58729400Y-86302631D02*
X58800828Y-86516917D01*
X58800828Y-86516917D02*
X58800828Y-86874060D01*
X44050828Y-89231203D02*
X44050828Y-89945489D01*
X44050828Y-89945489D02*
X44765114Y-90016917D01*
X44765114Y-90016917D02*
X44693685Y-89945489D01*
X44693685Y-89945489D02*
X44622257Y-89802632D01*
X44622257Y-89802632D02*
X44622257Y-89445489D01*
X44622257Y-89445489D02*
X44693685Y-89302632D01*
X44693685Y-89302632D02*
X44765114Y-89231203D01*
X44765114Y-89231203D02*
X44907971Y-89159774D01*
X44907971Y-89159774D02*
X45265114Y-89159774D01*
X45265114Y-89159774D02*
X45407971Y-89231203D01*
X45407971Y-89231203D02*
X45479400Y-89302632D01*
X45479400Y-89302632D02*
X45550828Y-89445489D01*
X45550828Y-89445489D02*
X45550828Y-89802632D01*
X45550828Y-89802632D02*
X45479400Y-89945489D01*
X45479400Y-89945489D02*
X45407971Y-90016917D01*
X44050828Y-88731203D02*
X45550828Y-88231203D01*
X45550828Y-88231203D02*
X44050828Y-87731203D01*
X44979400Y-87231204D02*
X44979400Y-86088347D01*
X45550828Y-86659775D02*
X44407971Y-86659775D01*
X90483082Y-93229400D02*
X90697368Y-93300828D01*
X90697368Y-93300828D02*
X91054510Y-93300828D01*
X91054510Y-93300828D02*
X91197368Y-93229400D01*
X91197368Y-93229400D02*
X91268796Y-93157971D01*
X91268796Y-93157971D02*
X91340225Y-93015114D01*
X91340225Y-93015114D02*
X91340225Y-92872257D01*
X91340225Y-92872257D02*
X91268796Y-92729400D01*
X91268796Y-92729400D02*
X91197368Y-92657971D01*
X91197368Y-92657971D02*
X91054510Y-92586542D01*
X91054510Y-92586542D02*
X90768796Y-92515114D01*
X90768796Y-92515114D02*
X90625939Y-92443685D01*
X90625939Y-92443685D02*
X90554510Y-92372257D01*
X90554510Y-92372257D02*
X90483082Y-92229400D01*
X90483082Y-92229400D02*
X90483082Y-92086542D01*
X90483082Y-92086542D02*
X90554510Y-91943685D01*
X90554510Y-91943685D02*
X90625939Y-91872257D01*
X90625939Y-91872257D02*
X90768796Y-91800828D01*
X90768796Y-91800828D02*
X91125939Y-91800828D01*
X91125939Y-91800828D02*
X91340225Y-91872257D01*
X92840224Y-93300828D02*
X92340224Y-92586542D01*
X91983081Y-93300828D02*
X91983081Y-91800828D01*
X91983081Y-91800828D02*
X92554510Y-91800828D01*
X92554510Y-91800828D02*
X92697367Y-91872257D01*
X92697367Y-91872257D02*
X92768796Y-91943685D01*
X92768796Y-91943685D02*
X92840224Y-92086542D01*
X92840224Y-92086542D02*
X92840224Y-92300828D01*
X92840224Y-92300828D02*
X92768796Y-92443685D01*
X92768796Y-92443685D02*
X92697367Y-92515114D01*
X92697367Y-92515114D02*
X92554510Y-92586542D01*
X92554510Y-92586542D02*
X91983081Y-92586542D01*
X93268796Y-91800828D02*
X93768796Y-93300828D01*
X93768796Y-93300828D02*
X94268796Y-91800828D01*
X113554510Y-93300828D02*
X113554510Y-91800828D01*
X113554510Y-91800828D02*
X114411653Y-93300828D01*
X114411653Y-93300828D02*
X114411653Y-91800828D01*
X115125939Y-92515114D02*
X115625939Y-92515114D01*
X115840225Y-93300828D02*
X115125939Y-93300828D01*
X115125939Y-93300828D02*
X115125939Y-91800828D01*
X115125939Y-91800828D02*
X115840225Y-91800828D01*
X116768797Y-91800828D02*
X117054511Y-91800828D01*
X117054511Y-91800828D02*
X117197368Y-91872257D01*
X117197368Y-91872257D02*
X117340225Y-92015114D01*
X117340225Y-92015114D02*
X117411654Y-92300828D01*
X117411654Y-92300828D02*
X117411654Y-92800828D01*
X117411654Y-92800828D02*
X117340225Y-93086542D01*
X117340225Y-93086542D02*
X117197368Y-93229400D01*
X117197368Y-93229400D02*
X117054511Y-93300828D01*
X117054511Y-93300828D02*
X116768797Y-93300828D01*
X116768797Y-93300828D02*
X116625940Y-93229400D01*
X116625940Y-93229400D02*
X116483082Y-93086542D01*
X116483082Y-93086542D02*
X116411654Y-92800828D01*
X116411654Y-92800828D02*
X116411654Y-92300828D01*
X116411654Y-92300828D02*
X116483082Y-92015114D01*
X116483082Y-92015114D02*
X116625940Y-91872257D01*
X116625940Y-91872257D02*
X116768797Y-91800828D01*
X118840226Y-93300828D02*
X117983083Y-93300828D01*
X118411654Y-93300828D02*
X118411654Y-91800828D01*
X118411654Y-91800828D02*
X118268797Y-92015114D01*
X118268797Y-92015114D02*
X118125940Y-92157971D01*
X118125940Y-92157971D02*
X117983083Y-92229400D01*
X75054510Y-93015114D02*
X75268796Y-93086542D01*
X75268796Y-93086542D02*
X75340225Y-93157971D01*
X75340225Y-93157971D02*
X75411653Y-93300828D01*
X75411653Y-93300828D02*
X75411653Y-93515114D01*
X75411653Y-93515114D02*
X75340225Y-93657971D01*
X75340225Y-93657971D02*
X75268796Y-93729400D01*
X75268796Y-93729400D02*
X75125939Y-93800828D01*
X75125939Y-93800828D02*
X74554510Y-93800828D01*
X74554510Y-93800828D02*
X74554510Y-92300828D01*
X74554510Y-92300828D02*
X75054510Y-92300828D01*
X75054510Y-92300828D02*
X75197368Y-92372257D01*
X75197368Y-92372257D02*
X75268796Y-92443685D01*
X75268796Y-92443685D02*
X75340225Y-92586542D01*
X75340225Y-92586542D02*
X75340225Y-92729400D01*
X75340225Y-92729400D02*
X75268796Y-92872257D01*
X75268796Y-92872257D02*
X75197368Y-92943685D01*
X75197368Y-92943685D02*
X75054510Y-93015114D01*
X75054510Y-93015114D02*
X74554510Y-93015114D01*
X75840225Y-92300828D02*
X76697368Y-92300828D01*
X76268796Y-93800828D02*
X76268796Y-92300828D01*
X77197367Y-93800828D02*
X77197367Y-92300828D01*
X77197367Y-92300828D02*
X78054510Y-93800828D01*
X78054510Y-93800828D02*
X78054510Y-92300828D01*
X79554511Y-93800828D02*
X78697368Y-93800828D01*
X79125939Y-93800828D02*
X79125939Y-92300828D01*
X79125939Y-92300828D02*
X78983082Y-92515114D01*
X78983082Y-92515114D02*
X78840225Y-92657971D01*
X78840225Y-92657971D02*
X78697368Y-92729400D01*
X84483082Y-92872257D02*
X85197368Y-92872257D01*
X84340225Y-93300828D02*
X84840225Y-91800828D01*
X84840225Y-91800828D02*
X85340225Y-93300828D01*
X85840224Y-93300828D02*
X85840224Y-91800828D01*
X85840224Y-91800828D02*
X86197367Y-91800828D01*
X86197367Y-91800828D02*
X86411653Y-91872257D01*
X86411653Y-91872257D02*
X86554510Y-92015114D01*
X86554510Y-92015114D02*
X86625939Y-92157971D01*
X86625939Y-92157971D02*
X86697367Y-92443685D01*
X86697367Y-92443685D02*
X86697367Y-92657971D01*
X86697367Y-92657971D02*
X86625939Y-92943685D01*
X86625939Y-92943685D02*
X86554510Y-93086542D01*
X86554510Y-93086542D02*
X86411653Y-93229400D01*
X86411653Y-93229400D02*
X86197367Y-93300828D01*
X86197367Y-93300828D02*
X85840224Y-93300828D01*
X88197367Y-93157971D02*
X88125939Y-93229400D01*
X88125939Y-93229400D02*
X87911653Y-93300828D01*
X87911653Y-93300828D02*
X87768796Y-93300828D01*
X87768796Y-93300828D02*
X87554510Y-93229400D01*
X87554510Y-93229400D02*
X87411653Y-93086542D01*
X87411653Y-93086542D02*
X87340224Y-92943685D01*
X87340224Y-92943685D02*
X87268796Y-92657971D01*
X87268796Y-92657971D02*
X87268796Y-92443685D01*
X87268796Y-92443685D02*
X87340224Y-92157971D01*
X87340224Y-92157971D02*
X87411653Y-92015114D01*
X87411653Y-92015114D02*
X87554510Y-91872257D01*
X87554510Y-91872257D02*
X87768796Y-91800828D01*
X87768796Y-91800828D02*
X87911653Y-91800828D01*
X87911653Y-91800828D02*
X88125939Y-91872257D01*
X88125939Y-91872257D02*
X88197367Y-91943685D01*
D11*
X41666666Y-71454819D02*
X41666666Y-72169104D01*
X41666666Y-72169104D02*
X41619047Y-72311961D01*
X41619047Y-72311961D02*
X41523809Y-72407200D01*
X41523809Y-72407200D02*
X41380952Y-72454819D01*
X41380952Y-72454819D02*
X41285714Y-72454819D01*
X42047619Y-71454819D02*
X42714285Y-71454819D01*
X42714285Y-71454819D02*
X42285714Y-72454819D01*
X108954819Y-78666666D02*
X108478628Y-78999999D01*
X108954819Y-79238094D02*
X107954819Y-79238094D01*
X107954819Y-79238094D02*
X107954819Y-78857142D01*
X107954819Y-78857142D02*
X108002438Y-78761904D01*
X108002438Y-78761904D02*
X108050057Y-78714285D01*
X108050057Y-78714285D02*
X108145295Y-78666666D01*
X108145295Y-78666666D02*
X108288152Y-78666666D01*
X108288152Y-78666666D02*
X108383390Y-78714285D01*
X108383390Y-78714285D02*
X108431009Y-78761904D01*
X108431009Y-78761904D02*
X108478628Y-78857142D01*
X108478628Y-78857142D02*
X108478628Y-79238094D01*
X108288152Y-77809523D02*
X108954819Y-77809523D01*
X107907200Y-78047618D02*
X108621485Y-78285713D01*
X108621485Y-78285713D02*
X108621485Y-77666666D01*
X105155180Y-59356667D02*
X106155180Y-59356667D01*
X106155180Y-59356667D02*
X105440895Y-59690000D01*
X105440895Y-59690000D02*
X106155180Y-60023333D01*
X106155180Y-60023333D02*
X105155180Y-60023333D01*
X106155180Y-60690000D02*
X106155180Y-60880476D01*
X106155180Y-60880476D02*
X106107561Y-60975714D01*
X106107561Y-60975714D02*
X106012323Y-61070952D01*
X106012323Y-61070952D02*
X105821847Y-61118571D01*
X105821847Y-61118571D02*
X105488514Y-61118571D01*
X105488514Y-61118571D02*
X105298038Y-61070952D01*
X105298038Y-61070952D02*
X105202800Y-60975714D01*
X105202800Y-60975714D02*
X105155180Y-60880476D01*
X105155180Y-60880476D02*
X105155180Y-60690000D01*
X105155180Y-60690000D02*
X105202800Y-60594762D01*
X105202800Y-60594762D02*
X105298038Y-60499524D01*
X105298038Y-60499524D02*
X105488514Y-60451905D01*
X105488514Y-60451905D02*
X105821847Y-60451905D01*
X105821847Y-60451905D02*
X106012323Y-60499524D01*
X106012323Y-60499524D02*
X106107561Y-60594762D01*
X106107561Y-60594762D02*
X106155180Y-60690000D01*
X105155180Y-61547143D02*
X106155180Y-61547143D01*
X106155180Y-61547143D02*
X106155180Y-61785238D01*
X106155180Y-61785238D02*
X106107561Y-61928095D01*
X106107561Y-61928095D02*
X106012323Y-62023333D01*
X106012323Y-62023333D02*
X105917085Y-62070952D01*
X105917085Y-62070952D02*
X105726609Y-62118571D01*
X105726609Y-62118571D02*
X105583752Y-62118571D01*
X105583752Y-62118571D02*
X105393276Y-62070952D01*
X105393276Y-62070952D02*
X105298038Y-62023333D01*
X105298038Y-62023333D02*
X105202800Y-61928095D01*
X105202800Y-61928095D02*
X105155180Y-61785238D01*
X105155180Y-61785238D02*
X105155180Y-61547143D01*
X105155180Y-63070952D02*
X105155180Y-62499524D01*
X105155180Y-62785238D02*
X106155180Y-62785238D01*
X106155180Y-62785238D02*
X106012323Y-62690000D01*
X106012323Y-62690000D02*
X105917085Y-62594762D01*
X105917085Y-62594762D02*
X105869466Y-62499524D01*
D12*
X119030419Y-61061380D02*
X118030419Y-61061380D01*
X118030419Y-61061380D02*
X118030419Y-60823285D01*
X118030419Y-60823285D02*
X118078038Y-60680428D01*
X118078038Y-60680428D02*
X118173276Y-60585190D01*
X118173276Y-60585190D02*
X118268514Y-60537571D01*
X118268514Y-60537571D02*
X118458990Y-60489952D01*
X118458990Y-60489952D02*
X118601847Y-60489952D01*
X118601847Y-60489952D02*
X118792323Y-60537571D01*
X118792323Y-60537571D02*
X118887561Y-60585190D01*
X118887561Y-60585190D02*
X118982800Y-60680428D01*
X118982800Y-60680428D02*
X119030419Y-60823285D01*
X119030419Y-60823285D02*
X119030419Y-61061380D01*
X119030419Y-60061380D02*
X118030419Y-60061380D01*
X118982800Y-59632809D02*
X119030419Y-59489952D01*
X119030419Y-59489952D02*
X119030419Y-59251857D01*
X119030419Y-59251857D02*
X118982800Y-59156619D01*
X118982800Y-59156619D02*
X118935180Y-59109000D01*
X118935180Y-59109000D02*
X118839942Y-59061381D01*
X118839942Y-59061381D02*
X118744704Y-59061381D01*
X118744704Y-59061381D02*
X118649466Y-59109000D01*
X118649466Y-59109000D02*
X118601847Y-59156619D01*
X118601847Y-59156619D02*
X118554228Y-59251857D01*
X118554228Y-59251857D02*
X118506609Y-59442333D01*
X118506609Y-59442333D02*
X118458990Y-59537571D01*
X118458990Y-59537571D02*
X118411371Y-59585190D01*
X118411371Y-59585190D02*
X118316133Y-59632809D01*
X118316133Y-59632809D02*
X118220895Y-59632809D01*
X118220895Y-59632809D02*
X118125657Y-59585190D01*
X118125657Y-59585190D02*
X118078038Y-59537571D01*
X118078038Y-59537571D02*
X118030419Y-59442333D01*
X118030419Y-59442333D02*
X118030419Y-59204238D01*
X118030419Y-59204238D02*
X118078038Y-59061381D01*
X119030419Y-58632809D02*
X118030419Y-58632809D01*
X118030419Y-58632809D02*
X118030419Y-58251857D01*
X118030419Y-58251857D02*
X118078038Y-58156619D01*
X118078038Y-58156619D02*
X118125657Y-58109000D01*
X118125657Y-58109000D02*
X118220895Y-58061381D01*
X118220895Y-58061381D02*
X118363752Y-58061381D01*
X118363752Y-58061381D02*
X118458990Y-58109000D01*
X118458990Y-58109000D02*
X118506609Y-58156619D01*
X118506609Y-58156619D02*
X118554228Y-58251857D01*
X118554228Y-58251857D02*
X118554228Y-58632809D01*
X119030419Y-57109000D02*
X119030419Y-57680428D01*
X119030419Y-57394714D02*
X118030419Y-57394714D01*
X118030419Y-57394714D02*
X118173276Y-57489952D01*
X118173276Y-57489952D02*
X118268514Y-57585190D01*
X118268514Y-57585190D02*
X118316133Y-57680428D01*
D11*
X82454819Y-87833333D02*
X83169104Y-87833333D01*
X83169104Y-87833333D02*
X83311961Y-87880952D01*
X83311961Y-87880952D02*
X83407200Y-87976190D01*
X83407200Y-87976190D02*
X83454819Y-88119047D01*
X83454819Y-88119047D02*
X83454819Y-88214285D01*
X82454819Y-86928571D02*
X82454819Y-87119047D01*
X82454819Y-87119047D02*
X82502438Y-87214285D01*
X82502438Y-87214285D02*
X82550057Y-87261904D01*
X82550057Y-87261904D02*
X82692914Y-87357142D01*
X82692914Y-87357142D02*
X82883390Y-87404761D01*
X82883390Y-87404761D02*
X83264342Y-87404761D01*
X83264342Y-87404761D02*
X83359580Y-87357142D01*
X83359580Y-87357142D02*
X83407200Y-87309523D01*
X83407200Y-87309523D02*
X83454819Y-87214285D01*
X83454819Y-87214285D02*
X83454819Y-87023809D01*
X83454819Y-87023809D02*
X83407200Y-86928571D01*
X83407200Y-86928571D02*
X83359580Y-86880952D01*
X83359580Y-86880952D02*
X83264342Y-86833333D01*
X83264342Y-86833333D02*
X83026247Y-86833333D01*
X83026247Y-86833333D02*
X82931009Y-86880952D01*
X82931009Y-86880952D02*
X82883390Y-86928571D01*
X82883390Y-86928571D02*
X82835771Y-87023809D01*
X82835771Y-87023809D02*
X82835771Y-87214285D01*
X82835771Y-87214285D02*
X82883390Y-87309523D01*
X82883390Y-87309523D02*
X82931009Y-87357142D01*
X82931009Y-87357142D02*
X83026247Y-87404761D01*
X37954819Y-59761904D02*
X38764342Y-59761904D01*
X38764342Y-59761904D02*
X38859580Y-59714285D01*
X38859580Y-59714285D02*
X38907200Y-59666666D01*
X38907200Y-59666666D02*
X38954819Y-59571428D01*
X38954819Y-59571428D02*
X38954819Y-59380952D01*
X38954819Y-59380952D02*
X38907200Y-59285714D01*
X38907200Y-59285714D02*
X38859580Y-59238095D01*
X38859580Y-59238095D02*
X38764342Y-59190476D01*
X38764342Y-59190476D02*
X37954819Y-59190476D01*
X38954819Y-58190476D02*
X38954819Y-58761904D01*
X38954819Y-58476190D02*
X37954819Y-58476190D01*
X37954819Y-58476190D02*
X38097676Y-58571428D01*
X38097676Y-58571428D02*
X38192914Y-58666666D01*
X38192914Y-58666666D02*
X38240533Y-58761904D01*
X88454819Y-87833333D02*
X89169104Y-87833333D01*
X89169104Y-87833333D02*
X89311961Y-87880952D01*
X89311961Y-87880952D02*
X89407200Y-87976190D01*
X89407200Y-87976190D02*
X89454819Y-88119047D01*
X89454819Y-88119047D02*
X89454819Y-88214285D01*
X88454819Y-86880952D02*
X88454819Y-87357142D01*
X88454819Y-87357142D02*
X88931009Y-87404761D01*
X88931009Y-87404761D02*
X88883390Y-87357142D01*
X88883390Y-87357142D02*
X88835771Y-87261904D01*
X88835771Y-87261904D02*
X88835771Y-87023809D01*
X88835771Y-87023809D02*
X88883390Y-86928571D01*
X88883390Y-86928571D02*
X88931009Y-86880952D01*
X88931009Y-86880952D02*
X89026247Y-86833333D01*
X89026247Y-86833333D02*
X89264342Y-86833333D01*
X89264342Y-86833333D02*
X89359580Y-86880952D01*
X89359580Y-86880952D02*
X89407200Y-86928571D01*
X89407200Y-86928571D02*
X89454819Y-87023809D01*
X89454819Y-87023809D02*
X89454819Y-87261904D01*
X89454819Y-87261904D02*
X89407200Y-87357142D01*
X89407200Y-87357142D02*
X89359580Y-87404761D01*
X71634819Y-75166666D02*
X71158628Y-75499999D01*
X71634819Y-75738094D02*
X70634819Y-75738094D01*
X70634819Y-75738094D02*
X70634819Y-75357142D01*
X70634819Y-75357142D02*
X70682438Y-75261904D01*
X70682438Y-75261904D02*
X70730057Y-75214285D01*
X70730057Y-75214285D02*
X70825295Y-75166666D01*
X70825295Y-75166666D02*
X70968152Y-75166666D01*
X70968152Y-75166666D02*
X71063390Y-75214285D01*
X71063390Y-75214285D02*
X71111009Y-75261904D01*
X71111009Y-75261904D02*
X71158628Y-75357142D01*
X71158628Y-75357142D02*
X71158628Y-75738094D01*
X70730057Y-74785713D02*
X70682438Y-74738094D01*
X70682438Y-74738094D02*
X70634819Y-74642856D01*
X70634819Y-74642856D02*
X70634819Y-74404761D01*
X70634819Y-74404761D02*
X70682438Y-74309523D01*
X70682438Y-74309523D02*
X70730057Y-74261904D01*
X70730057Y-74261904D02*
X70825295Y-74214285D01*
X70825295Y-74214285D02*
X70920533Y-74214285D01*
X70920533Y-74214285D02*
X71063390Y-74261904D01*
X71063390Y-74261904D02*
X71634819Y-74833332D01*
X71634819Y-74833332D02*
X71634819Y-74214285D01*
X51166666Y-82394819D02*
X51166666Y-83109104D01*
X51166666Y-83109104D02*
X51119047Y-83251961D01*
X51119047Y-83251961D02*
X51023809Y-83347200D01*
X51023809Y-83347200D02*
X50880952Y-83394819D01*
X50880952Y-83394819D02*
X50785714Y-83394819D01*
X52166666Y-83394819D02*
X51595238Y-83394819D01*
X51880952Y-83394819D02*
X51880952Y-82394819D01*
X51880952Y-82394819D02*
X51785714Y-82537676D01*
X51785714Y-82537676D02*
X51690476Y-82632914D01*
X51690476Y-82632914D02*
X51595238Y-82680533D01*
X64166667Y-87907200D02*
X64309524Y-87954819D01*
X64309524Y-87954819D02*
X64547619Y-87954819D01*
X64547619Y-87954819D02*
X64642857Y-87907200D01*
X64642857Y-87907200D02*
X64690476Y-87859580D01*
X64690476Y-87859580D02*
X64738095Y-87764342D01*
X64738095Y-87764342D02*
X64738095Y-87669104D01*
X64738095Y-87669104D02*
X64690476Y-87573866D01*
X64690476Y-87573866D02*
X64642857Y-87526247D01*
X64642857Y-87526247D02*
X64547619Y-87478628D01*
X64547619Y-87478628D02*
X64357143Y-87431009D01*
X64357143Y-87431009D02*
X64261905Y-87383390D01*
X64261905Y-87383390D02*
X64214286Y-87335771D01*
X64214286Y-87335771D02*
X64166667Y-87240533D01*
X64166667Y-87240533D02*
X64166667Y-87145295D01*
X64166667Y-87145295D02*
X64214286Y-87050057D01*
X64214286Y-87050057D02*
X64261905Y-87002438D01*
X64261905Y-87002438D02*
X64357143Y-86954819D01*
X64357143Y-86954819D02*
X64595238Y-86954819D01*
X64595238Y-86954819D02*
X64738095Y-87002438D01*
X65071429Y-86954819D02*
X65309524Y-87954819D01*
X65309524Y-87954819D02*
X65500000Y-87240533D01*
X65500000Y-87240533D02*
X65690476Y-87954819D01*
X65690476Y-87954819D02*
X65928572Y-86954819D01*
X66833333Y-87954819D02*
X66261905Y-87954819D01*
X66547619Y-87954819D02*
X66547619Y-86954819D01*
X66547619Y-86954819D02*
X66452381Y-87097676D01*
X66452381Y-87097676D02*
X66357143Y-87192914D01*
X66357143Y-87192914D02*
X66261905Y-87240533D01*
X104954819Y-87833333D02*
X105669104Y-87833333D01*
X105669104Y-87833333D02*
X105811961Y-87880952D01*
X105811961Y-87880952D02*
X105907200Y-87976190D01*
X105907200Y-87976190D02*
X105954819Y-88119047D01*
X105954819Y-88119047D02*
X105954819Y-88214285D01*
X104954819Y-87452380D02*
X104954819Y-86833333D01*
X104954819Y-86833333D02*
X105335771Y-87166666D01*
X105335771Y-87166666D02*
X105335771Y-87023809D01*
X105335771Y-87023809D02*
X105383390Y-86928571D01*
X105383390Y-86928571D02*
X105431009Y-86880952D01*
X105431009Y-86880952D02*
X105526247Y-86833333D01*
X105526247Y-86833333D02*
X105764342Y-86833333D01*
X105764342Y-86833333D02*
X105859580Y-86880952D01*
X105859580Y-86880952D02*
X105907200Y-86928571D01*
X105907200Y-86928571D02*
X105954819Y-87023809D01*
X105954819Y-87023809D02*
X105954819Y-87309523D01*
X105954819Y-87309523D02*
X105907200Y-87404761D01*
X105907200Y-87404761D02*
X105859580Y-87452380D01*
X60634819Y-75204166D02*
X60158628Y-75537499D01*
X60634819Y-75775594D02*
X59634819Y-75775594D01*
X59634819Y-75775594D02*
X59634819Y-75394642D01*
X59634819Y-75394642D02*
X59682438Y-75299404D01*
X59682438Y-75299404D02*
X59730057Y-75251785D01*
X59730057Y-75251785D02*
X59825295Y-75204166D01*
X59825295Y-75204166D02*
X59968152Y-75204166D01*
X59968152Y-75204166D02*
X60063390Y-75251785D01*
X60063390Y-75251785D02*
X60111009Y-75299404D01*
X60111009Y-75299404D02*
X60158628Y-75394642D01*
X60158628Y-75394642D02*
X60158628Y-75775594D01*
X60634819Y-74251785D02*
X60634819Y-74823213D01*
X60634819Y-74537499D02*
X59634819Y-74537499D01*
X59634819Y-74537499D02*
X59777676Y-74632737D01*
X59777676Y-74632737D02*
X59872914Y-74727975D01*
X59872914Y-74727975D02*
X59920533Y-74823213D01*
X75166667Y-87907200D02*
X75309524Y-87954819D01*
X75309524Y-87954819D02*
X75547619Y-87954819D01*
X75547619Y-87954819D02*
X75642857Y-87907200D01*
X75642857Y-87907200D02*
X75690476Y-87859580D01*
X75690476Y-87859580D02*
X75738095Y-87764342D01*
X75738095Y-87764342D02*
X75738095Y-87669104D01*
X75738095Y-87669104D02*
X75690476Y-87573866D01*
X75690476Y-87573866D02*
X75642857Y-87526247D01*
X75642857Y-87526247D02*
X75547619Y-87478628D01*
X75547619Y-87478628D02*
X75357143Y-87431009D01*
X75357143Y-87431009D02*
X75261905Y-87383390D01*
X75261905Y-87383390D02*
X75214286Y-87335771D01*
X75214286Y-87335771D02*
X75166667Y-87240533D01*
X75166667Y-87240533D02*
X75166667Y-87145295D01*
X75166667Y-87145295D02*
X75214286Y-87050057D01*
X75214286Y-87050057D02*
X75261905Y-87002438D01*
X75261905Y-87002438D02*
X75357143Y-86954819D01*
X75357143Y-86954819D02*
X75595238Y-86954819D01*
X75595238Y-86954819D02*
X75738095Y-87002438D01*
X76071429Y-86954819D02*
X76309524Y-87954819D01*
X76309524Y-87954819D02*
X76500000Y-87240533D01*
X76500000Y-87240533D02*
X76690476Y-87954819D01*
X76690476Y-87954819D02*
X76928572Y-86954819D01*
X77261905Y-87050057D02*
X77309524Y-87002438D01*
X77309524Y-87002438D02*
X77404762Y-86954819D01*
X77404762Y-86954819D02*
X77642857Y-86954819D01*
X77642857Y-86954819D02*
X77738095Y-87002438D01*
X77738095Y-87002438D02*
X77785714Y-87050057D01*
X77785714Y-87050057D02*
X77833333Y-87145295D01*
X77833333Y-87145295D02*
X77833333Y-87240533D01*
X77833333Y-87240533D02*
X77785714Y-87383390D01*
X77785714Y-87383390D02*
X77214286Y-87954819D01*
X77214286Y-87954819D02*
X77833333Y-87954819D01*
X111954819Y-87833333D02*
X112669104Y-87833333D01*
X112669104Y-87833333D02*
X112811961Y-87880952D01*
X112811961Y-87880952D02*
X112907200Y-87976190D01*
X112907200Y-87976190D02*
X112954819Y-88119047D01*
X112954819Y-88119047D02*
X112954819Y-88214285D01*
X112288152Y-86928571D02*
X112954819Y-86928571D01*
X111907200Y-87166666D02*
X112621485Y-87404761D01*
X112621485Y-87404761D02*
X112621485Y-86785714D01*
X92166666Y-46454819D02*
X92166666Y-47169104D01*
X92166666Y-47169104D02*
X92119047Y-47311961D01*
X92119047Y-47311961D02*
X92023809Y-47407200D01*
X92023809Y-47407200D02*
X91880952Y-47454819D01*
X91880952Y-47454819D02*
X91785714Y-47454819D01*
X92595238Y-46550057D02*
X92642857Y-46502438D01*
X92642857Y-46502438D02*
X92738095Y-46454819D01*
X92738095Y-46454819D02*
X92976190Y-46454819D01*
X92976190Y-46454819D02*
X93071428Y-46502438D01*
X93071428Y-46502438D02*
X93119047Y-46550057D01*
X93119047Y-46550057D02*
X93166666Y-46645295D01*
X93166666Y-46645295D02*
X93166666Y-46740533D01*
X93166666Y-46740533D02*
X93119047Y-46883390D01*
X93119047Y-46883390D02*
X92547619Y-47454819D01*
X92547619Y-47454819D02*
X93166666Y-47454819D01*
X103454819Y-78666666D02*
X102978628Y-78999999D01*
X103454819Y-79238094D02*
X102454819Y-79238094D01*
X102454819Y-79238094D02*
X102454819Y-78857142D01*
X102454819Y-78857142D02*
X102502438Y-78761904D01*
X102502438Y-78761904D02*
X102550057Y-78714285D01*
X102550057Y-78714285D02*
X102645295Y-78666666D01*
X102645295Y-78666666D02*
X102788152Y-78666666D01*
X102788152Y-78666666D02*
X102883390Y-78714285D01*
X102883390Y-78714285D02*
X102931009Y-78761904D01*
X102931009Y-78761904D02*
X102978628Y-78857142D01*
X102978628Y-78857142D02*
X102978628Y-79238094D01*
X102454819Y-78333332D02*
X102454819Y-77714285D01*
X102454819Y-77714285D02*
X102835771Y-78047618D01*
X102835771Y-78047618D02*
X102835771Y-77904761D01*
X102835771Y-77904761D02*
X102883390Y-77809523D01*
X102883390Y-77809523D02*
X102931009Y-77761904D01*
X102931009Y-77761904D02*
X103026247Y-77714285D01*
X103026247Y-77714285D02*
X103264342Y-77714285D01*
X103264342Y-77714285D02*
X103359580Y-77761904D01*
X103359580Y-77761904D02*
X103407200Y-77809523D01*
X103407200Y-77809523D02*
X103454819Y-77904761D01*
X103454819Y-77904761D02*
X103454819Y-78190475D01*
X103454819Y-78190475D02*
X103407200Y-78285713D01*
X103407200Y-78285713D02*
X103359580Y-78333332D01*
D13*
%TO.C,J7*%
X40090000Y-79610000D02*
X43810000Y-79610000D01*
X43810000Y-79610000D02*
X43810000Y-73390000D01*
X43810000Y-73390000D02*
X40090000Y-73390000D01*
X40090000Y-73390000D02*
X40090000Y-79610000D01*
X40090000Y-78300000D02*
X39890000Y-78300000D01*
X39890000Y-78300000D02*
X39890000Y-78600000D01*
X39890000Y-78600000D02*
X40090000Y-78600000D01*
X39990000Y-78300000D02*
X39990000Y-78600000D01*
X40490000Y-79210000D02*
X43410000Y-79210000D01*
X43410000Y-79210000D02*
X43410000Y-73790000D01*
X43410000Y-73790000D02*
X40490000Y-73790000D01*
X40490000Y-73790000D02*
X40490000Y-79210000D01*
X41000000Y-79610000D02*
X41000000Y-79210000D01*
X42000000Y-79610000D02*
X42000000Y-79210000D01*
X41000000Y-73390000D02*
X41000000Y-73790000D01*
X42000000Y-73390000D02*
X42000000Y-73790000D01*
X43410000Y-77350000D02*
X43010000Y-77350000D01*
X43010000Y-77350000D02*
X43010000Y-77150000D01*
X43010000Y-77150000D02*
X43410000Y-77150000D01*
X43410000Y-77250000D02*
X43010000Y-77250000D01*
X43410000Y-75850000D02*
X43010000Y-75850000D01*
X43010000Y-75850000D02*
X43010000Y-75650000D01*
X43010000Y-75650000D02*
X43410000Y-75650000D01*
X43410000Y-75750000D02*
X43010000Y-75750000D01*
X39890000Y-79010000D02*
X39890000Y-79810000D01*
X39890000Y-79810000D02*
X40690000Y-79810000D01*
%TO.C,R4*%
X109590000Y-77772936D02*
X109590000Y-79227064D01*
X111410000Y-77772936D02*
X111410000Y-79227064D01*
%TO.C,MOD1*%
X114270000Y-47855000D02*
X93945000Y-47855000D01*
X93945000Y-74525000D01*
X114270000Y-74525000D01*
X114270000Y-47855000D01*
D14*
%TO.C,DISP1*%
X119335000Y-74095000D02*
X121875000Y-74095000D01*
X44675000Y-81500000D02*
X121875000Y-81500000D01*
X121875000Y-38750000D01*
X44675000Y-38750000D01*
X44675000Y-81500000D01*
X119335000Y-76635000D02*
X121875000Y-76635000D01*
X121875000Y-43615000D01*
X119335000Y-43615000D01*
X119335000Y-76635000D01*
D13*
%TO.C,J6*%
X83890000Y-89300000D02*
X83890000Y-89600000D01*
X83890000Y-89600000D02*
X84090000Y-89600000D01*
X83890000Y-90010000D02*
X83890000Y-90810000D01*
X83890000Y-90810000D02*
X84690000Y-90810000D01*
X83990000Y-89300000D02*
X83990000Y-89600000D01*
X84090000Y-84390000D02*
X84090000Y-90610000D01*
X84090000Y-89300000D02*
X83890000Y-89300000D01*
X84090000Y-90610000D02*
X87810000Y-90610000D01*
X84490000Y-84790000D02*
X84490000Y-90210000D01*
X84490000Y-90210000D02*
X87410000Y-90210000D01*
X85000000Y-84390000D02*
X85000000Y-84790000D01*
X85000000Y-90610000D02*
X85000000Y-90210000D01*
X86000000Y-84390000D02*
X86000000Y-84790000D01*
X86000000Y-90610000D02*
X86000000Y-90210000D01*
X87010000Y-86650000D02*
X87410000Y-86650000D01*
X87010000Y-86850000D02*
X87010000Y-86650000D01*
X87010000Y-88150000D02*
X87410000Y-88150000D01*
X87010000Y-88350000D02*
X87010000Y-88150000D01*
X87410000Y-84790000D02*
X84490000Y-84790000D01*
X87410000Y-86750000D02*
X87010000Y-86750000D01*
X87410000Y-86850000D02*
X87010000Y-86850000D01*
X87410000Y-88250000D02*
X87010000Y-88250000D01*
X87410000Y-88350000D02*
X87010000Y-88350000D01*
X87410000Y-90210000D02*
X87410000Y-84790000D01*
X87810000Y-84390000D02*
X84090000Y-84390000D01*
X87810000Y-90610000D02*
X87810000Y-84390000D01*
%TO.C,U1*%
X37425000Y-47625000D02*
X90575000Y-47625000D01*
X37425000Y-70375000D02*
X37425000Y-47625000D01*
X38540000Y-67950000D02*
X38540000Y-66620000D01*
X38600000Y-50110000D02*
X89400000Y-50110000D01*
X38600000Y-52650000D02*
X38600000Y-50110000D01*
X39870000Y-67950000D02*
X38540000Y-67950000D01*
X41140000Y-65290000D02*
X89460000Y-65290000D01*
X41140000Y-67950000D02*
X41140000Y-65290000D01*
X89400000Y-50110000D02*
X89400000Y-52650000D01*
X89400000Y-52650000D02*
X38600000Y-52650000D01*
X89460000Y-65290000D02*
X89460000Y-67950000D01*
X89460000Y-67950000D02*
X41140000Y-67950000D01*
X90575000Y-47625000D02*
X90575000Y-70375000D01*
X90575000Y-70375000D02*
X37425000Y-70375000D01*
%TO.C,J5*%
X89890000Y-89300000D02*
X89890000Y-89600000D01*
X89890000Y-89600000D02*
X90090000Y-89600000D01*
X89890000Y-90010000D02*
X89890000Y-90810000D01*
X89890000Y-90810000D02*
X90690000Y-90810000D01*
X89990000Y-89300000D02*
X89990000Y-89600000D01*
X90090000Y-84390000D02*
X90090000Y-90610000D01*
X90090000Y-89300000D02*
X89890000Y-89300000D01*
X90090000Y-90610000D02*
X93810000Y-90610000D01*
X90490000Y-84790000D02*
X90490000Y-90210000D01*
X90490000Y-90210000D02*
X93410000Y-90210000D01*
X91000000Y-84390000D02*
X91000000Y-84790000D01*
X91000000Y-90610000D02*
X91000000Y-90210000D01*
X92000000Y-84390000D02*
X92000000Y-84790000D01*
X92000000Y-90610000D02*
X92000000Y-90210000D01*
X93010000Y-86650000D02*
X93410000Y-86650000D01*
X93010000Y-86850000D02*
X93010000Y-86650000D01*
X93010000Y-88150000D02*
X93410000Y-88150000D01*
X93010000Y-88350000D02*
X93010000Y-88150000D01*
X93410000Y-84790000D02*
X90490000Y-84790000D01*
X93410000Y-86750000D02*
X93010000Y-86750000D01*
X93410000Y-86850000D02*
X93010000Y-86850000D01*
X93410000Y-88250000D02*
X93010000Y-88250000D01*
X93410000Y-88350000D02*
X93010000Y-88350000D01*
X93410000Y-90210000D02*
X93410000Y-84790000D01*
X93810000Y-84390000D02*
X90090000Y-84390000D01*
X93810000Y-90610000D02*
X93810000Y-84390000D01*
%TO.C,R2*%
X72090000Y-75727064D02*
X72090000Y-74272936D01*
X73910000Y-75727064D02*
X73910000Y-74272936D01*
%TO.C,J1*%
X46200000Y-92660000D02*
X46200000Y-93300000D01*
X46200000Y-93300000D02*
X46600000Y-93300000D01*
X46440000Y-83940000D02*
X46440000Y-93060000D01*
X46440000Y-83940000D02*
X56560000Y-83940000D01*
X46440000Y-91500000D02*
X56560000Y-91500000D01*
X46440000Y-92600000D02*
X56560000Y-92600000D01*
X46440000Y-93060000D02*
X56560000Y-93060000D01*
X47452000Y-89281000D02*
X47346000Y-89388000D01*
X47718000Y-89547000D02*
X47612000Y-89654000D01*
X50388000Y-86346000D02*
X50281000Y-86453000D01*
X50654000Y-86612000D02*
X50547000Y-86719000D01*
X52742000Y-88992000D02*
X52347000Y-89388000D01*
X52993000Y-89274000D02*
X52613000Y-89654000D01*
X55388000Y-86346000D02*
X55008000Y-86726000D01*
X55654000Y-86612000D02*
X55259000Y-87008000D01*
X56560000Y-83940000D02*
X56560000Y-93060000D01*
X51180000Y-88000000D02*
G75*
G02*
X46820000Y-88000000I-2180000J0D01*
G01*
X46820000Y-88000000D02*
G75*
G02*
X51180000Y-88000000I2180000J0D01*
G01*
X56180000Y-88000000D02*
G75*
G02*
X51820000Y-88000000I-2180000J0D01*
G01*
X51820000Y-88000000D02*
G75*
G02*
X56180000Y-88000000I2180000J0D01*
G01*
%TO.C,SW1*%
X69000000Y-88250000D02*
X69000000Y-86750000D01*
X67750000Y-84250000D02*
X63250000Y-84250000D01*
X63250000Y-90750000D02*
X67750000Y-90750000D01*
X62000000Y-86750000D02*
X62000000Y-88250000D01*
%TO.C,J3*%
X110310000Y-90610000D02*
X110310000Y-84390000D01*
X110310000Y-84390000D02*
X106590000Y-84390000D01*
X109910000Y-90210000D02*
X109910000Y-84790000D01*
X109910000Y-88350000D02*
X109510000Y-88350000D01*
X109910000Y-88250000D02*
X109510000Y-88250000D01*
X109910000Y-86850000D02*
X109510000Y-86850000D01*
X109910000Y-86750000D02*
X109510000Y-86750000D01*
X109910000Y-84790000D02*
X106990000Y-84790000D01*
X109510000Y-88350000D02*
X109510000Y-88150000D01*
X109510000Y-88150000D02*
X109910000Y-88150000D01*
X109510000Y-86850000D02*
X109510000Y-86650000D01*
X109510000Y-86650000D02*
X109910000Y-86650000D01*
X108500000Y-90610000D02*
X108500000Y-90210000D01*
X108500000Y-84390000D02*
X108500000Y-84790000D01*
X107500000Y-90610000D02*
X107500000Y-90210000D01*
X107500000Y-84390000D02*
X107500000Y-84790000D01*
X106990000Y-90210000D02*
X109910000Y-90210000D01*
X106990000Y-84790000D02*
X106990000Y-90210000D01*
X106590000Y-90610000D02*
X110310000Y-90610000D01*
X106590000Y-89300000D02*
X106390000Y-89300000D01*
X106590000Y-84390000D02*
X106590000Y-90610000D01*
X106490000Y-89300000D02*
X106490000Y-89600000D01*
X106390000Y-90810000D02*
X107190000Y-90810000D01*
X106390000Y-90010000D02*
X106390000Y-90810000D01*
X106390000Y-89600000D02*
X106590000Y-89600000D01*
X106390000Y-89300000D02*
X106390000Y-89600000D01*
%TO.C,R1*%
X61090000Y-75764564D02*
X61090000Y-74310436D01*
X62910000Y-75764564D02*
X62910000Y-74310436D01*
%TO.C,SW2*%
X80000000Y-88250000D02*
X80000000Y-86750000D01*
X78750000Y-84250000D02*
X74250000Y-84250000D01*
X74250000Y-90750000D02*
X78750000Y-90750000D01*
X73000000Y-86750000D02*
X73000000Y-88250000D01*
%TO.C,J4*%
X117310000Y-90610000D02*
X117310000Y-84390000D01*
X117310000Y-84390000D02*
X113590000Y-84390000D01*
X116910000Y-90210000D02*
X116910000Y-84790000D01*
X116910000Y-88350000D02*
X116510000Y-88350000D01*
X116910000Y-88250000D02*
X116510000Y-88250000D01*
X116910000Y-86850000D02*
X116510000Y-86850000D01*
X116910000Y-86750000D02*
X116510000Y-86750000D01*
X116910000Y-84790000D02*
X113990000Y-84790000D01*
X116510000Y-88350000D02*
X116510000Y-88150000D01*
X116510000Y-88150000D02*
X116910000Y-88150000D01*
X116510000Y-86850000D02*
X116510000Y-86650000D01*
X116510000Y-86650000D02*
X116910000Y-86650000D01*
X115500000Y-90610000D02*
X115500000Y-90210000D01*
X115500000Y-84390000D02*
X115500000Y-84790000D01*
X114500000Y-90610000D02*
X114500000Y-90210000D01*
X114500000Y-84390000D02*
X114500000Y-84790000D01*
X113990000Y-90210000D02*
X116910000Y-90210000D01*
X113990000Y-84790000D02*
X113990000Y-90210000D01*
X113590000Y-90610000D02*
X117310000Y-90610000D01*
X113590000Y-89300000D02*
X113390000Y-89300000D01*
X113590000Y-84390000D02*
X113590000Y-90610000D01*
X113490000Y-89300000D02*
X113490000Y-89600000D01*
X113390000Y-90810000D02*
X114190000Y-90810000D01*
X113390000Y-90010000D02*
X113390000Y-90810000D01*
X113390000Y-89600000D02*
X113590000Y-89600000D01*
X113390000Y-89300000D02*
X113390000Y-89600000D01*
D15*
%TO.C,J2*%
X44960000Y-46455750D02*
G75*
G02*
X44760000Y-46455750I-100000J0D01*
G01*
X44760000Y-46455750D02*
G75*
G02*
X44960000Y-46455750I100000J0D01*
G01*
D16*
X122000000Y-91635750D02*
G75*
G02*
X119000000Y-94635750I-3000000J0D01*
G01*
X119000000Y-38635750D02*
G75*
G02*
X122000000Y-41635750I0J-3000000D01*
G01*
X40000000Y-94635750D02*
G75*
G02*
X37000000Y-91635750I1J3000001D01*
G01*
X37000000Y-41635750D02*
G75*
G02*
X40000000Y-38635750I3000001J-1D01*
G01*
X122000000Y-91635750D02*
X122000000Y-41635750D01*
X119000000Y-38635750D02*
X40000000Y-38635750D01*
D15*
X94900000Y-44675750D02*
X94900000Y-39595750D01*
X44100000Y-44675750D02*
X44100000Y-39595750D01*
D16*
X40000000Y-94635750D02*
X119000000Y-94635750D01*
X37000000Y-41635750D02*
X37000000Y-91635750D01*
D13*
%TO.C,R3*%
X105910000Y-77772936D02*
X105910000Y-79227064D01*
X104090000Y-77772936D02*
X104090000Y-79227064D01*
%TD*%
M02*
