%TF.GenerationSoftware,KiCad,Pcbnew,8.0.4*%
%TF.CreationDate,2024-09-07T15:36:48-04:00*%
%TF.ProjectId,aux-board,6175782d-626f-4617-9264-2e6b69636164,rev?*%
%TF.SameCoordinates,Original*%
%TF.FileFunction,Copper,L1,Top*%
%TF.FilePolarity,Positive*%
%FSLAX46Y46*%
G04 Gerber Fmt 4.6, Leading zero omitted, Abs format (unit mm)*
G04 Created by KiCad (PCBNEW 8.0.4) date 2024-09-07 15:36:48*
%MOMM*%
%LPD*%
G01*
G04 APERTURE LIST*
G04 Aperture macros list*
%AMRoundRect*
0 Rectangle with rounded corners*
0 $1 Rounding radius*
0 $2 $3 $4 $5 $6 $7 $8 $9 X,Y pos of 4 corners*
0 Add a 4 corners polygon primitive as box body*
4,1,4,$2,$3,$4,$5,$6,$7,$8,$9,$2,$3,0*
0 Add four circle primitives for the rounded corners*
1,1,$1+$1,$2,$3*
1,1,$1+$1,$4,$5*
1,1,$1+$1,$6,$7*
1,1,$1+$1,$8,$9*
0 Add four rect primitives between the rounded corners*
20,1,$1+$1,$2,$3,$4,$5,0*
20,1,$1+$1,$4,$5,$6,$7,0*
20,1,$1+$1,$6,$7,$8,$9,0*
20,1,$1+$1,$8,$9,$2,$3,0*%
G04 Aperture macros list end*
%TA.AperFunction,ComponentPad*%
%ADD10RoundRect,0.250000X0.615000X-0.265000X0.615000X0.265000X-0.615000X0.265000X-0.615000X-0.265000X0*%
%TD*%
%TA.AperFunction,ComponentPad*%
%ADD11O,1.730000X1.030000*%
%TD*%
%TA.AperFunction,SMDPad,CuDef*%
%ADD12RoundRect,0.250000X-0.625000X0.312500X-0.625000X-0.312500X0.625000X-0.312500X0.625000X0.312500X0*%
%TD*%
%TA.AperFunction,ComponentPad*%
%ADD13C,1.524000*%
%TD*%
%TA.AperFunction,ComponentPad*%
%ADD14C,3.500000*%
%TD*%
%TA.AperFunction,ComponentPad*%
%ADD15R,1.700000X1.700000*%
%TD*%
%TA.AperFunction,ComponentPad*%
%ADD16C,1.700000*%
%TD*%
%TA.AperFunction,SMDPad,CuDef*%
%ADD17RoundRect,0.250000X0.625000X-0.312500X0.625000X0.312500X-0.625000X0.312500X-0.625000X-0.312500X0*%
%TD*%
%TA.AperFunction,ComponentPad*%
%ADD18R,2.600000X2.600000*%
%TD*%
%TA.AperFunction,ComponentPad*%
%ADD19C,2.600000*%
%TD*%
%TA.AperFunction,ComponentPad*%
%ADD20C,2.000000*%
%TD*%
%TA.AperFunction,ComponentPad*%
%ADD21C,6.200000*%
%TD*%
%TA.AperFunction,SMDPad,CuDef*%
%ADD22R,1.270000X1.680000*%
%TD*%
G04 APERTURE END LIST*
D10*
%TO.P,J7,1,Pin_1*%
%TO.N,+5V*%
X41500000Y-78000000D03*
D11*
%TO.P,J7,2,Pin_2*%
%TO.N,GPIO-2*%
X41500000Y-76500000D03*
%TO.P,J7,3,Pin_3*%
%TO.N,Net-(J3-Pin_3)*%
X41500000Y-75000000D03*
%TD*%
D12*
%TO.P,R4,1*%
%TO.N,NEO-1*%
X110500000Y-77037500D03*
%TO.P,R4,2*%
%TO.N,Net-(J4-Pin_2)*%
X110500000Y-79962500D03*
%TD*%
D13*
%TO.P,MOD1,1,Vin*%
%TO.N,+5V*%
X95220000Y-54840000D03*
%TO.P,MOD1,2,3vo*%
%TO.N,unconnected-(MOD1-3vo-Pad2)*%
X95220000Y-57380000D03*
%TO.P,MOD1,3,GND*%
%TO.N,GND*%
X95220000Y-59920000D03*
%TO.P,MOD1,4,SDA*%
%TO.N,SDA*%
X95220000Y-62460000D03*
%TO.P,MOD1,5,SCL*%
%TO.N,SCL*%
X95220000Y-65000000D03*
%TO.P,MOD1,6,RST*%
%TO.N,unconnected-(MOD1-RST-Pad6)*%
X95220000Y-67540000D03*
%TO.P,MOD1,7,ADR*%
%TO.N,unconnected-(MOD1-ADR-Pad7)*%
X113000000Y-65000000D03*
%TO.P,MOD1,8,INT*%
%TO.N,unconnected-(MOD1-INT-Pad8)*%
X113000000Y-62460000D03*
%TO.P,MOD1,9,PS1*%
%TO.N,unconnected-(MOD1-PS1-Pad9)*%
X113000000Y-59920000D03*
%TO.P,MOD1,10,PS0*%
%TO.N,unconnected-(MOD1-PS0-Pad10)*%
X113000000Y-57380000D03*
%TD*%
D14*
%TO.P,DISP1,*%
%TO.N,*%
X47750000Y-78475000D03*
X115000000Y-78475000D03*
X115000000Y-41500000D03*
D13*
%TO.P,DISP1,1,VCC*%
%TO.N,+3.3V*%
X120605000Y-75365000D03*
%TO.P,DISP1,2,GND*%
%TO.N,GND*%
X120605000Y-72825000D03*
%TO.P,DISP1,3,CS*%
%TO.N,TFT-CS*%
X120605000Y-70285000D03*
%TO.P,DISP1,4,RESET*%
%TO.N,TFT-RESET*%
X120605000Y-67745000D03*
%TO.P,DISP1,5,DC*%
%TO.N,TFT-DC*%
X120605000Y-65205000D03*
%TO.P,DISP1,6,MOSI*%
%TO.N,TFT-MOSI*%
X120605000Y-62665000D03*
%TO.P,DISP1,7,SCK*%
%TO.N,TFT-SCK*%
X120605000Y-60125000D03*
%TO.P,DISP1,8,LED*%
%TO.N,+3.3V*%
X120605000Y-57585000D03*
%TO.P,DISP1,9,MISO*%
%TO.N,TFT-MISO*%
X120605000Y-55045000D03*
%TO.P,DISP1,10,T_CLK*%
%TO.N,unconnected-(DISP1-T_CLK-Pad10)*%
X120605000Y-52505000D03*
%TO.P,DISP1,11,T_CS*%
%TO.N,unconnected-(DISP1-T_CS-Pad11)*%
X120605000Y-49965000D03*
%TO.P,DISP1,12,T_DIN*%
%TO.N,unconnected-(DISP1-T_DIN-Pad12)*%
X120605000Y-47425000D03*
%TO.P,DISP1,13,T_DO*%
%TO.N,unconnected-(DISP1-T_DO-Pad13)*%
X120605000Y-47425000D03*
%TO.P,DISP1,14,T_IRQ*%
%TO.N,unconnected-(DISP1-T_IRQ-Pad14)*%
X120605000Y-44885000D03*
%TD*%
D10*
%TO.P,J6,1,Pin_1*%
%TO.N,+3.3V*%
X85500000Y-89000000D03*
D11*
%TO.P,J6,2,Pin_2*%
%TO.N,ADC-1*%
X85500000Y-87500000D03*
%TO.P,J6,3,Pin_3*%
%TO.N,GND*%
X85500000Y-86000000D03*
%TD*%
D15*
%TO.P,U1,1,PB12*%
%TO.N,GPIO-0*%
X39870000Y-66620000D03*
D16*
%TO.P,U1,2,PB13*%
%TO.N,GPIO-1*%
X42410000Y-66620000D03*
%TO.P,U1,3,PB14*%
%TO.N,GPIO-2*%
X44950000Y-66620000D03*
%TO.P,U1,4,PB15*%
%TO.N,unconnected-(U1-PB15-Pad4)*%
X47490000Y-66620000D03*
%TO.P,U1,5,PA8*%
%TO.N,RC-PWM-0*%
X50030000Y-66620000D03*
%TO.P,U1,6,PA9*%
%TO.N,Net-(J2-UART0_RX)*%
X52570000Y-66620000D03*
%TO.P,U1,7,PA10*%
%TO.N,Net-(J2-UART0_TX)*%
X55110000Y-66620000D03*
%TO.P,U1,8,PA11*%
%TO.N,unconnected-(U1-PA11-Pad8)*%
X57650000Y-66620000D03*
%TO.P,U1,9,PA12*%
%TO.N,unconnected-(U1-PA12-Pad9)*%
X60190000Y-66620000D03*
%TO.P,U1,10,PA15*%
%TO.N,unconnected-(U1-PA15-Pad10)*%
X62730000Y-66620000D03*
%TO.P,U1,11,PB3*%
%TO.N,unconnected-(U1-PB3-Pad11)*%
X65270000Y-66620000D03*
%TO.P,U1,12,PB4*%
%TO.N,unconnected-(U1-PB4-Pad12)*%
X67810000Y-66620000D03*
%TO.P,U1,13,PB5*%
%TO.N,unconnected-(U1-PB5-Pad13)*%
X70350000Y-66620000D03*
%TO.P,U1,14,PB6*%
%TO.N,SCL*%
X72890000Y-66620000D03*
%TO.P,U1,15,PB7*%
%TO.N,SDA*%
X75430000Y-66620000D03*
%TO.P,U1,16,PB8*%
%TO.N,NEO-0*%
X77970000Y-66620000D03*
%TO.P,U1,17,PB9*%
%TO.N,NEO-1*%
X80510000Y-66620000D03*
%TO.P,U1,18,5V*%
%TO.N,unconnected-(U1-5V-Pad18)*%
X83050000Y-66620000D03*
%TO.P,U1,19,GND*%
%TO.N,GND*%
X85590000Y-66620000D03*
%TO.P,U1,20,3V3*%
%TO.N,unconnected-(U1-3V3-Pad20)*%
X88130000Y-66620000D03*
%TO.P,U1,21,VBat*%
%TO.N,unconnected-(U1-VBat-Pad21)*%
X88130000Y-51380000D03*
%TO.P,U1,22,PC13*%
%TO.N,unconnected-(U1-PC13-Pad22)*%
X85590000Y-51380000D03*
%TO.P,U1,23,PC14*%
%TO.N,unconnected-(U1-PC14-Pad23)*%
X83050000Y-51380000D03*
%TO.P,U1,24,PC15*%
%TO.N,unconnected-(U1-PC15-Pad24)*%
X80510000Y-51380000D03*
%TO.P,U1,25,RES*%
%TO.N,unconnected-(U1-RES-Pad25)*%
X77970000Y-51380000D03*
%TO.P,U1,26,PA0*%
%TO.N,ADC-0*%
X75430000Y-51380000D03*
%TO.P,U1,27,PA1*%
%TO.N,unconnected-(U1-PA1-Pad27)*%
X72890000Y-51380000D03*
%TO.P,U1,28,PA2*%
%TO.N,unconnected-(U1-PA2-Pad28)*%
X70350000Y-51380000D03*
%TO.P,U1,29,PA3*%
%TO.N,unconnected-(U1-PA3-Pad29)*%
X67810000Y-51380000D03*
%TO.P,U1,30,PA4*%
%TO.N,unconnected-(U1-PA4-Pad30)*%
X65270000Y-51380000D03*
%TO.P,U1,31,PA5*%
%TO.N,TFT-SCK*%
X62730000Y-51380000D03*
%TO.P,U1,32,PA6*%
%TO.N,TFT-MISO*%
X60190000Y-51380000D03*
%TO.P,U1,33,PA7*%
%TO.N,TFT-MOSI*%
X57650000Y-51380000D03*
%TO.P,U1,34,PB0*%
%TO.N,TFT-DC*%
X55110000Y-51380000D03*
%TO.P,U1,35,PB1*%
%TO.N,TFT-RESET*%
X52570000Y-51380000D03*
%TO.P,U1,36,PB2*%
%TO.N,TFT-CS*%
X50030000Y-51380000D03*
%TO.P,U1,37,PB10*%
%TO.N,unconnected-(U1-PB10-Pad37)*%
X47490000Y-51380000D03*
%TO.P,U1,38,3V3*%
%TO.N,+3.3V*%
X44950000Y-51380000D03*
%TO.P,U1,39,GND*%
%TO.N,GND*%
X42410000Y-51380000D03*
%TO.P,U1,40,5V*%
%TO.N,+5V*%
X39870000Y-51380000D03*
%TD*%
D10*
%TO.P,J5,1,Pin_1*%
%TO.N,+5V*%
X91500000Y-89000000D03*
D11*
%TO.P,J5,2,Pin_2*%
%TO.N,RC-PWM-0*%
X91500000Y-87500000D03*
%TO.P,J5,3,Pin_3*%
%TO.N,Net-(J3-Pin_3)*%
X91500000Y-86000000D03*
%TD*%
D17*
%TO.P,R2,1*%
%TO.N,BTN-2*%
X73000000Y-76462500D03*
%TO.P,R2,2*%
%TO.N,+3.3V*%
X73000000Y-73537500D03*
%TD*%
D18*
%TO.P,J1,1,Pin_1*%
%TO.N,+5V*%
X49000000Y-88000000D03*
D19*
%TO.P,J1,2,Pin_2*%
%TO.N,GND*%
X54000000Y-88000000D03*
%TD*%
D20*
%TO.P,SW1,2,2*%
%TO.N,GND*%
X68750000Y-89750000D03*
X62250000Y-89750000D03*
%TO.P,SW1,1,1*%
%TO.N,BTN-1*%
X68750000Y-85250000D03*
X62250000Y-85250000D03*
%TD*%
D11*
%TO.P,J3,3,Pin_3*%
%TO.N,Net-(J3-Pin_3)*%
X108000000Y-86000000D03*
%TO.P,J3,2,Pin_2*%
%TO.N,Net-(J3-Pin_2)*%
X108000000Y-87500000D03*
D10*
%TO.P,J3,1,Pin_1*%
%TO.N,+5V*%
X108000000Y-89000000D03*
%TD*%
D17*
%TO.P,R1,1*%
%TO.N,BTN-1*%
X62000000Y-76500000D03*
%TO.P,R1,2*%
%TO.N,+3.3V*%
X62000000Y-73575000D03*
%TD*%
D20*
%TO.P,SW2,2,2*%
%TO.N,GND*%
X73250000Y-85250000D03*
X79750000Y-85250000D03*
%TO.P,SW2,1,1*%
%TO.N,BTN-2*%
X73250000Y-89750000D03*
X79750000Y-89750000D03*
%TD*%
D11*
%TO.P,J4,3,Pin_3*%
%TO.N,Net-(J3-Pin_3)*%
X115000000Y-86000000D03*
%TO.P,J4,2,Pin_2*%
%TO.N,Net-(J4-Pin_2)*%
X115000000Y-87500000D03*
D10*
%TO.P,J4,1,Pin_1*%
%TO.N,+5V*%
X115000000Y-89000000D03*
%TD*%
D21*
%TO.P,J2,S4*%
%TO.N,N/C*%
X40500000Y-91135750D03*
%TO.P,J2,S3*%
X98500000Y-91135750D03*
%TO.P,J2,S2*%
X98500000Y-42135750D03*
%TO.P,J2,S1*%
X40500000Y-42135750D03*
D22*
%TO.P,J2,40,GPIO21*%
%TO.N,unconnected-(J2-GPIO21-Pad40)*%
X93630000Y-39415750D03*
%TO.P,J2,39,GND*%
%TO.N,GND*%
X93630000Y-44855750D03*
%TO.P,J2,38,GPIO20*%
%TO.N,unconnected-(J2-GPIO20-Pad38)*%
X91090000Y-39415750D03*
%TO.P,J2,37,GPIO26*%
%TO.N,unconnected-(J2-GPIO26-Pad37)*%
X91090000Y-44855750D03*
%TO.P,J2,36,GPIO16*%
%TO.N,unconnected-(J2-GPIO16-Pad36)*%
X88550000Y-39415750D03*
%TO.P,J2,35,GPIO19*%
%TO.N,unconnected-(J2-GPIO19-Pad35)*%
X88550000Y-44855750D03*
%TO.P,J2,34,GND*%
%TO.N,GND*%
X86010000Y-39415750D03*
%TO.P,J2,33,GPIO13*%
%TO.N,unconnected-(J2-GPIO13-Pad33)*%
X86010000Y-44855750D03*
%TO.P,J2,32,GPIO12*%
%TO.N,unconnected-(J2-GPIO12-Pad32)*%
X83470000Y-39415750D03*
%TO.P,J2,31,GPIO06*%
%TO.N,unconnected-(J2-GPIO06-Pad31)*%
X83470000Y-44855750D03*
%TO.P,J2,30,GND*%
%TO.N,GND*%
X80930000Y-39415750D03*
%TO.P,J2,29,GPIO05*%
%TO.N,unconnected-(J2-GPIO05-Pad29)*%
X80930000Y-44855750D03*
%TO.P,J2,28,ID_SC*%
%TO.N,unconnected-(J2-ID_SC-Pad28)*%
X78390000Y-39415750D03*
%TO.P,J2,27,ID_SD*%
%TO.N,unconnected-(J2-ID_SD-Pad27)*%
X78390000Y-44855750D03*
%TO.P,J2,26,GPIO07*%
%TO.N,unconnected-(J2-GPIO07-Pad26)*%
X75850000Y-39415750D03*
%TO.P,J2,25,GND*%
%TO.N,GND*%
X75850000Y-44855750D03*
%TO.P,J2,24,GPIO08*%
%TO.N,unconnected-(J2-GPIO08-Pad24)*%
X73310000Y-39415750D03*
%TO.P,J2,23,GPIO11/SPI_CLK*%
%TO.N,unconnected-(J2-GPIO11{slash}SPI_CLK-Pad23)*%
X73310000Y-44855750D03*
%TO.P,J2,22,GPIO25*%
%TO.N,unconnected-(J2-GPIO25-Pad22)*%
X70770000Y-39415750D03*
%TO.P,J2,21,GPIO09/SPI_MISO*%
%TO.N,unconnected-(J2-GPIO09{slash}SPI_MISO-Pad21)*%
X70770000Y-44855750D03*
%TO.P,J2,20,GND*%
%TO.N,GND*%
X68230000Y-39415750D03*
%TO.P,J2,19,GPIO10/SPI_MOSI*%
%TO.N,unconnected-(J2-GPIO10{slash}SPI_MOSI-Pad19)*%
X68230000Y-44855750D03*
%TO.P,J2,18,GPIO24*%
%TO.N,unconnected-(J2-GPIO24-Pad18)*%
X65690000Y-39415750D03*
%TO.P,J2,17,3.3v*%
%TO.N,unconnected-(J2-3.3v-Pad17)*%
X65690000Y-44855750D03*
%TO.P,J2,16,GPIO23*%
%TO.N,unconnected-(J2-GPIO23-Pad16)*%
X63150000Y-39415750D03*
%TO.P,J2,15,GPIO22*%
%TO.N,unconnected-(J2-GPIO22-Pad15)*%
X63150000Y-44855750D03*
%TO.P,J2,14,GND*%
%TO.N,GND*%
X60610000Y-39415750D03*
%TO.P,J2,13,GPIO27*%
%TO.N,GPIO-1*%
X60610000Y-44855750D03*
%TO.P,J2,12,GPIO18*%
%TO.N,unconnected-(J2-GPIO18-Pad12)*%
X58070000Y-39415750D03*
%TO.P,J2,11,GPIO17*%
%TO.N,GPIO-0*%
X58070000Y-44855750D03*
%TO.P,J2,10,UART0_RX*%
%TO.N,Net-(J2-UART0_RX)*%
X55530000Y-39415750D03*
%TO.P,J2,09,GND*%
%TO.N,GND*%
X55530000Y-44855750D03*
%TO.P,J2,08,UART0_TX*%
%TO.N,Net-(J2-UART0_TX)*%
X52990000Y-39415750D03*
%TO.P,J2,07,GPIO04*%
%TO.N,unconnected-(J2-GPIO04-Pad07)*%
X52990000Y-44855750D03*
%TO.P,J2,06,GND*%
%TO.N,GND*%
X50450000Y-39415750D03*
%TO.P,J2,05,GPIO03/SCL*%
%TO.N,unconnected-(J2-GPIO03{slash}SCL-Pad05)*%
X50450000Y-44855750D03*
%TO.P,J2,04,5V_PWR*%
%TO.N,+5V*%
X47910000Y-39415750D03*
%TO.P,J2,03,GPIO02/SDA1*%
%TO.N,unconnected-(J2-GPIO02{slash}SDA1-Pad03)*%
X47910000Y-44855750D03*
%TO.P,J2,02,5V_PWR*%
%TO.N,+5V*%
X45370000Y-39415750D03*
%TO.P,J2,01,3.3v*%
%TO.N,unconnected-(J2-3.3v-Pad01)*%
X45370000Y-44855750D03*
%TD*%
D12*
%TO.P,R3,1*%
%TO.N,NEO-0*%
X105000000Y-77037500D03*
%TO.P,R3,2*%
%TO.N,Net-(J3-Pin_2)*%
X105000000Y-79962500D03*
%TD*%
M02*
