M48
; DRILL file {KiCad 8.0.4} date 2024-09-07T15:36:57-0400
; FORMAT={-:-/ absolute / inch / decimal}
; #@! TF.CreationDate,2024-09-07T15:36:57-04:00
; #@! TF.GenerationSoftware,Kicad,Pcbnew,8.0.4
; #@! TF.FileFunction,Plated,1,2,PTH
FMAT,2
INCH
; #@! TA.AperFunction,Plated,PTH,ComponentDrill
T1C0.0287
; #@! TA.AperFunction,Plated,PTH,ComponentDrill
T2C0.0300
; #@! TA.AperFunction,Plated,PTH,ComponentDrill
T3C0.0394
; #@! TA.AperFunction,Plated,PTH,ComponentDrill
T4C0.0433
; #@! TA.AperFunction,Plated,PTH,ComponentDrill
T5C0.0512
; #@! TA.AperFunction,Plated,PTH,ComponentDrill
T6C0.1083
; #@! TA.AperFunction,Plated,PTH,ComponentDrill
T7C0.1280
%
G90
G05
T1
X1.6339Y-2.9528
X1.6339Y-3.0118
X1.6339Y-3.0709
X3.3661Y-3.3858
X3.3661Y-3.4449
X3.3661Y-3.5039
X3.6024Y-3.3858
X3.6024Y-3.4449
X3.6024Y-3.5039
X4.252Y-3.3858
X4.252Y-3.4449
X4.252Y-3.5039
X4.5276Y-3.3858
X4.5276Y-3.4449
X4.5276Y-3.5039
T2
X3.7488Y-2.1591
X3.7488Y-2.2591
X3.7488Y-2.3591
X3.7488Y-2.4591
X3.7488Y-2.5591
X3.7488Y-2.6591
X4.4488Y-2.2591
X4.4488Y-2.3591
X4.4488Y-2.4591
X4.4488Y-2.5591
X4.7482Y-1.7671
X4.7482Y-1.8671
X4.7482Y-1.8671
X4.7482Y-1.9671
X4.7482Y-2.0671
X4.7482Y-2.1671
X4.7482Y-2.2671
X4.7482Y-2.3671
X4.7482Y-2.4671
X4.7482Y-2.5671
X4.7482Y-2.6671
X4.7482Y-2.7671
X4.7482Y-2.8671
X4.7482Y-2.9671
T3
X1.5697Y-2.0228
X1.5697Y-2.6228
X1.6697Y-2.0228
X1.6697Y-2.6228
X1.7697Y-2.0228
X1.7697Y-2.6228
X1.8697Y-2.0228
X1.8697Y-2.6228
X1.9697Y-2.0228
X1.9697Y-2.6228
X2.0697Y-2.0228
X2.0697Y-2.6228
X2.1697Y-2.0228
X2.1697Y-2.6228
X2.2697Y-2.0228
X2.2697Y-2.6228
X2.3697Y-2.0228
X2.3697Y-2.6228
X2.4697Y-2.0228
X2.4697Y-2.6228
X2.5697Y-2.0228
X2.5697Y-2.6228
X2.6697Y-2.0228
X2.6697Y-2.6228
X2.7697Y-2.0228
X2.7697Y-2.6228
X2.8697Y-2.0228
X2.8697Y-2.6228
X2.9697Y-2.0228
X2.9697Y-2.6228
X3.0697Y-2.0228
X3.0697Y-2.6228
X3.1697Y-2.0228
X3.1697Y-2.6228
X3.2697Y-2.0228
X3.2697Y-2.6228
X3.3697Y-2.0228
X3.3697Y-2.6228
X3.4697Y-2.0228
X3.4697Y-2.6228
T4
X2.4508Y-3.3563
X2.4508Y-3.5335
X2.7067Y-3.3563
X2.7067Y-3.5335
X2.8839Y-3.3563
X2.8839Y-3.5335
X3.1398Y-3.3563
X3.1398Y-3.5335
T5
X1.9291Y-3.4646
X2.126Y-3.4646
T6
X1.5945Y-1.6589
X1.5945Y-3.588
X3.878Y-1.6589
X3.878Y-3.588
T7
X1.8799Y-3.0896
X4.5276Y-1.6339
X4.5276Y-3.0896
M30
