%TF.GenerationSoftware,KiCad,Pcbnew,8.0.4*%
%TF.CreationDate,2024-09-08T12:09:03-04:00*%
%TF.ProjectId,aux-board,6175782d-626f-4617-9264-2e6b69636164,rev?*%
%TF.SameCoordinates,Original*%
%TF.FileFunction,Soldermask,Bot*%
%TF.FilePolarity,Negative*%
%FSLAX46Y46*%
G04 Gerber Fmt 4.6, Leading zero omitted, Abs format (unit mm)*
G04 Created by KiCad (PCBNEW 8.0.4) date 2024-09-08 12:09:03*
%MOMM*%
%LPD*%
G01*
G04 APERTURE LIST*
G04 Aperture macros list*
%AMRoundRect*
0 Rectangle with rounded corners*
0 $1 Rounding radius*
0 $2 $3 $4 $5 $6 $7 $8 $9 X,Y pos of 4 corners*
0 Add a 4 corners polygon primitive as box body*
4,1,4,$2,$3,$4,$5,$6,$7,$8,$9,$2,$3,0*
0 Add four circle primitives for the rounded corners*
1,1,$1+$1,$2,$3*
1,1,$1+$1,$4,$5*
1,1,$1+$1,$6,$7*
1,1,$1+$1,$8,$9*
0 Add four rect primitives between the rounded corners*
20,1,$1+$1,$2,$3,$4,$5,0*
20,1,$1+$1,$4,$5,$6,$7,0*
20,1,$1+$1,$6,$7,$8,$9,0*
20,1,$1+$1,$8,$9,$2,$3,0*%
G04 Aperture macros list end*
%ADD10C,3.500000*%
%ADD11C,1.524000*%
%ADD12R,1.700000X1.700000*%
%ADD13O,1.700000X1.700000*%
%ADD14RoundRect,0.250000X-0.265000X-0.615000X0.265000X-0.615000X0.265000X0.615000X-0.265000X0.615000X0*%
%ADD15O,1.030000X1.730000*%
%ADD16C,1.700000*%
%ADD17RoundRect,0.250000X0.615000X-0.265000X0.615000X0.265000X-0.615000X0.265000X-0.615000X-0.265000X0*%
%ADD18O,1.730000X1.030000*%
%ADD19R,2.600000X2.600000*%
%ADD20C,2.600000*%
%ADD21C,2.000000*%
%ADD22C,0.970000*%
%ADD23C,1.780000*%
%ADD24C,6.404000*%
G04 APERTURE END LIST*
D10*
%TO.C,DISP1*%
X47895000Y-78975000D03*
D11*
X120750000Y-77230000D03*
X120750000Y-74690000D03*
X120750000Y-72150000D03*
X120750000Y-69610000D03*
X120750000Y-67070000D03*
X120750000Y-64530000D03*
X120750000Y-61990000D03*
X120750000Y-59450000D03*
X120750000Y-56910000D03*
X120750000Y-54370000D03*
X120750000Y-51830000D03*
X120750000Y-49290000D03*
X120750000Y-49290000D03*
X120750000Y-46750000D03*
X120750000Y-44210000D03*
%TD*%
D12*
%TO.C,J9*%
X105380000Y-50500000D03*
D13*
X107920000Y-50500000D03*
X110460000Y-50500000D03*
X113000000Y-50500000D03*
X115540000Y-50500000D03*
%TD*%
D12*
%TO.C,J8*%
X71050000Y-76625000D03*
D13*
X68510000Y-76625000D03*
X65970000Y-76625000D03*
X63430000Y-76625000D03*
%TD*%
D14*
%TO.C,J7*%
X39500000Y-75000000D03*
D15*
X41000000Y-75000000D03*
X42500000Y-75000000D03*
%TD*%
D11*
%TO.C,MOD1*%
X113780000Y-74620000D03*
X113780000Y-72080000D03*
X113780000Y-69540000D03*
X113780000Y-67000000D03*
X113780000Y-64460000D03*
X113780000Y-61920000D03*
X96000000Y-64460000D03*
X96000000Y-67000000D03*
X96000000Y-69540000D03*
X96000000Y-72080000D03*
%TD*%
D14*
%TO.C,J6*%
X39500000Y-82750000D03*
D15*
X41000000Y-82750000D03*
X42500000Y-82750000D03*
%TD*%
D16*
%TO.C,U1*%
X39870000Y-51380000D03*
X42410000Y-51380000D03*
X44950000Y-51380000D03*
X47490000Y-51380000D03*
X50030000Y-51380000D03*
X52570000Y-51380000D03*
X55110000Y-51380000D03*
X57650000Y-51380000D03*
X60190000Y-51380000D03*
X62730000Y-51380000D03*
X65270000Y-51380000D03*
X67810000Y-51380000D03*
X70350000Y-51380000D03*
X72890000Y-51380000D03*
X75430000Y-51380000D03*
X77970000Y-51380000D03*
X80510000Y-51380000D03*
X83050000Y-51380000D03*
X85590000Y-51380000D03*
X88130000Y-51380000D03*
X88130000Y-66620000D03*
X85590000Y-66620000D03*
X83050000Y-66620000D03*
X80510000Y-66620000D03*
X77970000Y-66620000D03*
X75430000Y-66620000D03*
X72890000Y-66620000D03*
X70350000Y-66620000D03*
X67810000Y-66620000D03*
X65270000Y-66620000D03*
X62730000Y-66620000D03*
X60190000Y-66620000D03*
X57650000Y-66620000D03*
X55110000Y-66620000D03*
X52570000Y-66620000D03*
X50030000Y-66620000D03*
X47490000Y-66620000D03*
X44950000Y-66620000D03*
X42410000Y-66620000D03*
D12*
X39870000Y-66620000D03*
%TD*%
D17*
%TO.C,J5*%
X46500000Y-89250000D03*
D18*
X46500000Y-87750000D03*
X46500000Y-86250000D03*
%TD*%
D19*
%TO.C,J1*%
X107250000Y-88000000D03*
D20*
X112250000Y-88000000D03*
%TD*%
D21*
%TO.C,SW1*%
X79500000Y-84000000D03*
X79500000Y-90500000D03*
X75000000Y-84000000D03*
X75000000Y-90500000D03*
%TD*%
D17*
%TO.C,J3*%
X52500000Y-89250000D03*
D18*
X52500000Y-87750000D03*
X52500000Y-86250000D03*
%TD*%
D21*
%TO.C,SW2*%
X91500000Y-83750000D03*
X91500000Y-90250000D03*
X87000000Y-83750000D03*
X87000000Y-90250000D03*
%TD*%
D17*
%TO.C,J4*%
X58500000Y-89250000D03*
D18*
X58500000Y-87750000D03*
X58500000Y-86250000D03*
%TD*%
D22*
%TO.C,J2*%
X45370000Y-40865750D03*
X45370000Y-43405750D03*
D23*
X46640000Y-42135750D03*
D22*
X47910000Y-40865750D03*
X47910000Y-43405750D03*
X50450000Y-40865750D03*
X50450000Y-43405750D03*
X52990000Y-40865750D03*
X52990000Y-43405750D03*
X55530000Y-40865750D03*
X55530000Y-43405750D03*
X58070000Y-40865750D03*
X58070000Y-43405750D03*
X60610000Y-40865750D03*
X60610000Y-43405750D03*
X63150000Y-40865750D03*
X63150000Y-43405750D03*
X65690000Y-40865750D03*
X65690000Y-43405750D03*
X68230000Y-40865750D03*
X68230000Y-43405750D03*
X70770000Y-40865750D03*
X70770000Y-43405750D03*
X73310000Y-40865750D03*
X73310000Y-43405750D03*
X75850000Y-40865750D03*
X75850000Y-43405750D03*
X78390000Y-40865750D03*
X78390000Y-43405750D03*
X80930000Y-40865750D03*
X80930000Y-43405750D03*
X83470000Y-40865750D03*
X83470000Y-43405750D03*
X86010000Y-40865750D03*
X86010000Y-43405750D03*
X88550000Y-40865750D03*
X88550000Y-43405750D03*
X91090000Y-40865750D03*
X91090000Y-43405750D03*
D23*
X92360000Y-42135750D03*
D22*
X93630000Y-40865750D03*
X93630000Y-43405750D03*
D24*
X40500000Y-42135750D03*
X98500000Y-42135750D03*
X98500000Y-91135750D03*
X40500000Y-91135750D03*
%TD*%
M02*
