M48
; DRILL file {KiCad 8.0.4} date 2024-09-08T12:09:05-0400
; FORMAT={-:-/ absolute / inch / decimal}
; #@! TF.CreationDate,2024-09-08T12:09:05-04:00
; #@! TF.GenerationSoftware,Kicad,Pcbnew,8.0.4
; #@! TF.FileFunction,NonPlated,1,2,NPTH
FMAT,2
INCH
; #@! TA.AperFunction,NonPlated,NPTH,ComponentDrill
T1C0.0382
; #@! TA.AperFunction,NonPlated,NPTH,ComponentDrill
T2C0.0701
%
G90
G05
T1
X1.7862Y-1.6089
X1.7862Y-1.7089
X1.8862Y-1.6089
X1.8862Y-1.7089
X1.9862Y-1.6089
X1.9862Y-1.7089
X2.0862Y-1.6089
X2.0862Y-1.7089
X2.1862Y-1.6089
X2.1862Y-1.7089
X2.2862Y-1.6089
X2.2862Y-1.7089
X2.3862Y-1.6089
X2.3862Y-1.7089
X2.4862Y-1.6089
X2.4862Y-1.7089
X2.5862Y-1.6089
X2.5862Y-1.7089
X2.6862Y-1.6089
X2.6862Y-1.7089
X2.7862Y-1.6089
X2.7862Y-1.7089
X2.8862Y-1.6089
X2.8862Y-1.7089
X2.9862Y-1.6089
X2.9862Y-1.7089
X3.0862Y-1.6089
X3.0862Y-1.7089
X3.1862Y-1.6089
X3.1862Y-1.7089
X3.2862Y-1.6089
X3.2862Y-1.7089
X3.3862Y-1.6089
X3.3862Y-1.7089
X3.4862Y-1.6089
X3.4862Y-1.7089
X3.5862Y-1.6089
X3.5862Y-1.7089
X3.6862Y-1.6089
X3.6862Y-1.7089
T2
X1.8362Y-1.6589
X3.6362Y-1.6589
M30
