%TF.GenerationSoftware,KiCad,Pcbnew,8.0.4*%
%TF.CreationDate,2024-09-08T12:09:03-04:00*%
%TF.ProjectId,aux-board,6175782d-626f-4617-9264-2e6b69636164,rev?*%
%TF.SameCoordinates,Original*%
%TF.FileFunction,Legend,Bot*%
%TF.FilePolarity,Positive*%
%FSLAX46Y46*%
G04 Gerber Fmt 4.6, Leading zero omitted, Abs format (unit mm)*
G04 Created by KiCad (PCBNEW 8.0.4) date 2024-09-08 12:09:03*
%MOMM*%
%LPD*%
G01*
G04 APERTURE LIST*
%ADD10C,0.250000*%
G04 APERTURE END LIST*
D10*
X88668860Y-54653961D02*
X88085527Y-54653961D01*
X87835527Y-55570628D02*
X88668860Y-55570628D01*
X88668860Y-55570628D02*
X88668860Y-53820628D01*
X88668860Y-53820628D02*
X87835527Y-53820628D01*
X86835527Y-55570628D02*
X87002194Y-55487295D01*
X87002194Y-55487295D02*
X87085527Y-55320628D01*
X87085527Y-55320628D02*
X87085527Y-53820628D01*
X85502193Y-55487295D02*
X85668860Y-55570628D01*
X85668860Y-55570628D02*
X86002193Y-55570628D01*
X86002193Y-55570628D02*
X86168860Y-55487295D01*
X86168860Y-55487295D02*
X86252193Y-55320628D01*
X86252193Y-55320628D02*
X86252193Y-54653961D01*
X86252193Y-54653961D02*
X86168860Y-54487295D01*
X86168860Y-54487295D02*
X86002193Y-54403961D01*
X86002193Y-54403961D02*
X85668860Y-54403961D01*
X85668860Y-54403961D02*
X85502193Y-54487295D01*
X85502193Y-54487295D02*
X85418860Y-54653961D01*
X85418860Y-54653961D02*
X85418860Y-54820628D01*
X85418860Y-54820628D02*
X86252193Y-54987295D01*
X83918860Y-55487295D02*
X84085527Y-55570628D01*
X84085527Y-55570628D02*
X84418860Y-55570628D01*
X84418860Y-55570628D02*
X84585527Y-55487295D01*
X84585527Y-55487295D02*
X84668860Y-55403961D01*
X84668860Y-55403961D02*
X84752193Y-55237295D01*
X84752193Y-55237295D02*
X84752193Y-54737295D01*
X84752193Y-54737295D02*
X84668860Y-54570628D01*
X84668860Y-54570628D02*
X84585527Y-54487295D01*
X84585527Y-54487295D02*
X84418860Y-54403961D01*
X84418860Y-54403961D02*
X84085527Y-54403961D01*
X84085527Y-54403961D02*
X83918860Y-54487295D01*
X83418860Y-54403961D02*
X82752193Y-54403961D01*
X83168860Y-53820628D02*
X83168860Y-55320628D01*
X83168860Y-55320628D02*
X83085527Y-55487295D01*
X83085527Y-55487295D02*
X82918860Y-55570628D01*
X82918860Y-55570628D02*
X82752193Y-55570628D01*
X82168860Y-55570628D02*
X82168860Y-54403961D01*
X82168860Y-54737295D02*
X82085527Y-54570628D01*
X82085527Y-54570628D02*
X82002193Y-54487295D01*
X82002193Y-54487295D02*
X81835527Y-54403961D01*
X81835527Y-54403961D02*
X81668860Y-54403961D01*
X80835527Y-55570628D02*
X81002194Y-55487295D01*
X81002194Y-55487295D02*
X81085527Y-55403961D01*
X81085527Y-55403961D02*
X81168860Y-55237295D01*
X81168860Y-55237295D02*
X81168860Y-54737295D01*
X81168860Y-54737295D02*
X81085527Y-54570628D01*
X81085527Y-54570628D02*
X81002194Y-54487295D01*
X81002194Y-54487295D02*
X80835527Y-54403961D01*
X80835527Y-54403961D02*
X80585527Y-54403961D01*
X80585527Y-54403961D02*
X80418860Y-54487295D01*
X80418860Y-54487295D02*
X80335527Y-54570628D01*
X80335527Y-54570628D02*
X80252194Y-54737295D01*
X80252194Y-54737295D02*
X80252194Y-55237295D01*
X80252194Y-55237295D02*
X80335527Y-55403961D01*
X80335527Y-55403961D02*
X80418860Y-55487295D01*
X80418860Y-55487295D02*
X80585527Y-55570628D01*
X80585527Y-55570628D02*
X80835527Y-55570628D01*
X79502194Y-55570628D02*
X79502194Y-53820628D01*
X79502194Y-53820628D02*
X78835527Y-53820628D01*
X78835527Y-53820628D02*
X78668861Y-53903961D01*
X78668861Y-53903961D02*
X78585527Y-53987295D01*
X78585527Y-53987295D02*
X78502194Y-54153961D01*
X78502194Y-54153961D02*
X78502194Y-54403961D01*
X78502194Y-54403961D02*
X78585527Y-54570628D01*
X78585527Y-54570628D02*
X78668861Y-54653961D01*
X78668861Y-54653961D02*
X78835527Y-54737295D01*
X78835527Y-54737295D02*
X79502194Y-54737295D01*
X77002194Y-54403961D02*
X77002194Y-55570628D01*
X77752194Y-54403961D02*
X77752194Y-55320628D01*
X77752194Y-55320628D02*
X77668861Y-55487295D01*
X77668861Y-55487295D02*
X77502194Y-55570628D01*
X77502194Y-55570628D02*
X77252194Y-55570628D01*
X77252194Y-55570628D02*
X77085527Y-55487295D01*
X77085527Y-55487295D02*
X77002194Y-55403961D01*
X76168861Y-54403961D02*
X76168861Y-56153961D01*
X76168861Y-54487295D02*
X76002194Y-54403961D01*
X76002194Y-54403961D02*
X75668861Y-54403961D01*
X75668861Y-54403961D02*
X75502194Y-54487295D01*
X75502194Y-54487295D02*
X75418861Y-54570628D01*
X75418861Y-54570628D02*
X75335528Y-54737295D01*
X75335528Y-54737295D02*
X75335528Y-55237295D01*
X75335528Y-55237295D02*
X75418861Y-55403961D01*
X75418861Y-55403961D02*
X75502194Y-55487295D01*
X75502194Y-55487295D02*
X75668861Y-55570628D01*
X75668861Y-55570628D02*
X76002194Y-55570628D01*
X76002194Y-55570628D02*
X76168861Y-55487295D01*
X88752193Y-57888030D02*
X87918860Y-57888030D01*
X88918860Y-58388030D02*
X88335527Y-56638030D01*
X88335527Y-56638030D02*
X87752193Y-58388030D01*
X86418860Y-57221363D02*
X86418860Y-58388030D01*
X87168860Y-57221363D02*
X87168860Y-58138030D01*
X87168860Y-58138030D02*
X87085527Y-58304697D01*
X87085527Y-58304697D02*
X86918860Y-58388030D01*
X86918860Y-58388030D02*
X86668860Y-58388030D01*
X86668860Y-58388030D02*
X86502193Y-58304697D01*
X86502193Y-58304697D02*
X86418860Y-58221363D01*
X85752194Y-58388030D02*
X84835527Y-57221363D01*
X85752194Y-57221363D02*
X84835527Y-58388030D01*
X84168860Y-58388030D02*
X84168860Y-57221363D01*
X84168860Y-56638030D02*
X84252193Y-56721363D01*
X84252193Y-56721363D02*
X84168860Y-56804697D01*
X84168860Y-56804697D02*
X84085527Y-56721363D01*
X84085527Y-56721363D02*
X84168860Y-56638030D01*
X84168860Y-56638030D02*
X84168860Y-56804697D01*
X83085527Y-58388030D02*
X83252194Y-58304697D01*
X83252194Y-58304697D02*
X83335527Y-58138030D01*
X83335527Y-58138030D02*
X83335527Y-56638030D01*
X82418860Y-58388030D02*
X82418860Y-57221363D01*
X82418860Y-56638030D02*
X82502193Y-56721363D01*
X82502193Y-56721363D02*
X82418860Y-56804697D01*
X82418860Y-56804697D02*
X82335527Y-56721363D01*
X82335527Y-56721363D02*
X82418860Y-56638030D01*
X82418860Y-56638030D02*
X82418860Y-56804697D01*
X80835527Y-58388030D02*
X80835527Y-57471363D01*
X80835527Y-57471363D02*
X80918860Y-57304697D01*
X80918860Y-57304697D02*
X81085527Y-57221363D01*
X81085527Y-57221363D02*
X81418860Y-57221363D01*
X81418860Y-57221363D02*
X81585527Y-57304697D01*
X80835527Y-58304697D02*
X81002194Y-58388030D01*
X81002194Y-58388030D02*
X81418860Y-58388030D01*
X81418860Y-58388030D02*
X81585527Y-58304697D01*
X81585527Y-58304697D02*
X81668860Y-58138030D01*
X81668860Y-58138030D02*
X81668860Y-57971363D01*
X81668860Y-57971363D02*
X81585527Y-57804697D01*
X81585527Y-57804697D02*
X81418860Y-57721363D01*
X81418860Y-57721363D02*
X81002194Y-57721363D01*
X81002194Y-57721363D02*
X80835527Y-57638030D01*
X80002194Y-58388030D02*
X80002194Y-57221363D01*
X80002194Y-57554697D02*
X79918861Y-57388030D01*
X79918861Y-57388030D02*
X79835527Y-57304697D01*
X79835527Y-57304697D02*
X79668861Y-57221363D01*
X79668861Y-57221363D02*
X79502194Y-57221363D01*
X79085528Y-57221363D02*
X78668861Y-58388030D01*
X78252194Y-57221363D02*
X78668861Y-58388030D01*
X78668861Y-58388030D02*
X78835528Y-58804697D01*
X78835528Y-58804697D02*
X78918861Y-58888030D01*
X78918861Y-58888030D02*
X79085528Y-58971363D01*
X76252195Y-58388030D02*
X76252195Y-56638030D01*
X76252195Y-57471363D02*
X75252195Y-57471363D01*
X75252195Y-58388030D02*
X75252195Y-56638030D01*
X73668862Y-58388030D02*
X73668862Y-57471363D01*
X73668862Y-57471363D02*
X73752195Y-57304697D01*
X73752195Y-57304697D02*
X73918862Y-57221363D01*
X73918862Y-57221363D02*
X74252195Y-57221363D01*
X74252195Y-57221363D02*
X74418862Y-57304697D01*
X73668862Y-58304697D02*
X73835529Y-58388030D01*
X73835529Y-58388030D02*
X74252195Y-58388030D01*
X74252195Y-58388030D02*
X74418862Y-58304697D01*
X74418862Y-58304697D02*
X74502195Y-58138030D01*
X74502195Y-58138030D02*
X74502195Y-57971363D01*
X74502195Y-57971363D02*
X74418862Y-57804697D01*
X74418862Y-57804697D02*
X74252195Y-57721363D01*
X74252195Y-57721363D02*
X73835529Y-57721363D01*
X73835529Y-57721363D02*
X73668862Y-57638030D01*
X73085529Y-57221363D02*
X72418862Y-57221363D01*
X72835529Y-56638030D02*
X72835529Y-58138030D01*
X72835529Y-58138030D02*
X72752196Y-58304697D01*
X72752196Y-58304697D02*
X72585529Y-58388030D01*
X72585529Y-58388030D02*
X72418862Y-58388030D01*
X88668860Y-61205432D02*
X88668860Y-60038765D01*
X88668860Y-60205432D02*
X88585527Y-60122099D01*
X88585527Y-60122099D02*
X88418860Y-60038765D01*
X88418860Y-60038765D02*
X88168860Y-60038765D01*
X88168860Y-60038765D02*
X88002193Y-60122099D01*
X88002193Y-60122099D02*
X87918860Y-60288765D01*
X87918860Y-60288765D02*
X87918860Y-61205432D01*
X87918860Y-60288765D02*
X87835527Y-60122099D01*
X87835527Y-60122099D02*
X87668860Y-60038765D01*
X87668860Y-60038765D02*
X87418860Y-60038765D01*
X87418860Y-60038765D02*
X87252193Y-60122099D01*
X87252193Y-60122099D02*
X87168860Y-60288765D01*
X87168860Y-60288765D02*
X87168860Y-61205432D01*
X85668860Y-61122099D02*
X85835527Y-61205432D01*
X85835527Y-61205432D02*
X86168860Y-61205432D01*
X86168860Y-61205432D02*
X86335527Y-61122099D01*
X86335527Y-61122099D02*
X86418860Y-60955432D01*
X86418860Y-60955432D02*
X86418860Y-60288765D01*
X86418860Y-60288765D02*
X86335527Y-60122099D01*
X86335527Y-60122099D02*
X86168860Y-60038765D01*
X86168860Y-60038765D02*
X85835527Y-60038765D01*
X85835527Y-60038765D02*
X85668860Y-60122099D01*
X85668860Y-60122099D02*
X85585527Y-60288765D01*
X85585527Y-60288765D02*
X85585527Y-60455432D01*
X85585527Y-60455432D02*
X86418860Y-60622099D01*
X85085527Y-60038765D02*
X84418860Y-60038765D01*
X84835527Y-59455432D02*
X84835527Y-60955432D01*
X84835527Y-60955432D02*
X84752194Y-61122099D01*
X84752194Y-61122099D02*
X84585527Y-61205432D01*
X84585527Y-61205432D02*
X84418860Y-61205432D01*
X83085527Y-61205432D02*
X83085527Y-60288765D01*
X83085527Y-60288765D02*
X83168860Y-60122099D01*
X83168860Y-60122099D02*
X83335527Y-60038765D01*
X83335527Y-60038765D02*
X83668860Y-60038765D01*
X83668860Y-60038765D02*
X83835527Y-60122099D01*
X83085527Y-61122099D02*
X83252194Y-61205432D01*
X83252194Y-61205432D02*
X83668860Y-61205432D01*
X83668860Y-61205432D02*
X83835527Y-61122099D01*
X83835527Y-61122099D02*
X83918860Y-60955432D01*
X83918860Y-60955432D02*
X83918860Y-60788765D01*
X83918860Y-60788765D02*
X83835527Y-60622099D01*
X83835527Y-60622099D02*
X83668860Y-60538765D01*
X83668860Y-60538765D02*
X83252194Y-60538765D01*
X83252194Y-60538765D02*
X83085527Y-60455432D01*
X82252194Y-60038765D02*
X82252194Y-61788765D01*
X82252194Y-60122099D02*
X82085527Y-60038765D01*
X82085527Y-60038765D02*
X81752194Y-60038765D01*
X81752194Y-60038765D02*
X81585527Y-60122099D01*
X81585527Y-60122099D02*
X81502194Y-60205432D01*
X81502194Y-60205432D02*
X81418861Y-60372099D01*
X81418861Y-60372099D02*
X81418861Y-60872099D01*
X81418861Y-60872099D02*
X81502194Y-61038765D01*
X81502194Y-61038765D02*
X81585527Y-61122099D01*
X81585527Y-61122099D02*
X81752194Y-61205432D01*
X81752194Y-61205432D02*
X82085527Y-61205432D01*
X82085527Y-61205432D02*
X82252194Y-61122099D01*
X80668861Y-61205432D02*
X80668861Y-59455432D01*
X79918861Y-61205432D02*
X79918861Y-60288765D01*
X79918861Y-60288765D02*
X80002194Y-60122099D01*
X80002194Y-60122099D02*
X80168861Y-60038765D01*
X80168861Y-60038765D02*
X80418861Y-60038765D01*
X80418861Y-60038765D02*
X80585528Y-60122099D01*
X80585528Y-60122099D02*
X80668861Y-60205432D01*
X78335528Y-61205432D02*
X78335528Y-60288765D01*
X78335528Y-60288765D02*
X78418861Y-60122099D01*
X78418861Y-60122099D02*
X78585528Y-60038765D01*
X78585528Y-60038765D02*
X78918861Y-60038765D01*
X78918861Y-60038765D02*
X79085528Y-60122099D01*
X78335528Y-61122099D02*
X78502195Y-61205432D01*
X78502195Y-61205432D02*
X78918861Y-61205432D01*
X78918861Y-61205432D02*
X79085528Y-61122099D01*
X79085528Y-61122099D02*
X79168861Y-60955432D01*
X79168861Y-60955432D02*
X79168861Y-60788765D01*
X79168861Y-60788765D02*
X79085528Y-60622099D01*
X79085528Y-60622099D02*
X78918861Y-60538765D01*
X78918861Y-60538765D02*
X78502195Y-60538765D01*
X78502195Y-60538765D02*
X78335528Y-60455432D01*
X77585528Y-61122099D02*
X77418862Y-61205432D01*
X77418862Y-61205432D02*
X77085528Y-61205432D01*
X77085528Y-61205432D02*
X76918862Y-61122099D01*
X76918862Y-61122099D02*
X76835528Y-60955432D01*
X76835528Y-60955432D02*
X76835528Y-60872099D01*
X76835528Y-60872099D02*
X76918862Y-60705432D01*
X76918862Y-60705432D02*
X77085528Y-60622099D01*
X77085528Y-60622099D02*
X77335528Y-60622099D01*
X77335528Y-60622099D02*
X77502195Y-60538765D01*
X77502195Y-60538765D02*
X77585528Y-60372099D01*
X77585528Y-60372099D02*
X77585528Y-60288765D01*
X77585528Y-60288765D02*
X77502195Y-60122099D01*
X77502195Y-60122099D02*
X77335528Y-60038765D01*
X77335528Y-60038765D02*
X77085528Y-60038765D01*
X77085528Y-60038765D02*
X76918862Y-60122099D01*
X76085528Y-61205432D02*
X76085528Y-60038765D01*
X76085528Y-59455432D02*
X76168861Y-59538765D01*
X76168861Y-59538765D02*
X76085528Y-59622099D01*
X76085528Y-59622099D02*
X76002195Y-59538765D01*
X76002195Y-59538765D02*
X76085528Y-59455432D01*
X76085528Y-59455432D02*
X76085528Y-59622099D01*
X74502195Y-61122099D02*
X74668862Y-61205432D01*
X74668862Y-61205432D02*
X75002195Y-61205432D01*
X75002195Y-61205432D02*
X75168862Y-61122099D01*
X75168862Y-61122099D02*
X75252195Y-61038765D01*
X75252195Y-61038765D02*
X75335528Y-60872099D01*
X75335528Y-60872099D02*
X75335528Y-60372099D01*
X75335528Y-60372099D02*
X75252195Y-60205432D01*
X75252195Y-60205432D02*
X75168862Y-60122099D01*
X75168862Y-60122099D02*
X75002195Y-60038765D01*
X75002195Y-60038765D02*
X74668862Y-60038765D01*
X74668862Y-60038765D02*
X74502195Y-60122099D01*
X73502195Y-61205432D02*
X73668862Y-61122099D01*
X73668862Y-61122099D02*
X73752195Y-60955432D01*
X73752195Y-60955432D02*
X73752195Y-59455432D01*
X72085528Y-61205432D02*
X72085528Y-60288765D01*
X72085528Y-60288765D02*
X72168861Y-60122099D01*
X72168861Y-60122099D02*
X72335528Y-60038765D01*
X72335528Y-60038765D02*
X72668861Y-60038765D01*
X72668861Y-60038765D02*
X72835528Y-60122099D01*
X72085528Y-61122099D02*
X72252195Y-61205432D01*
X72252195Y-61205432D02*
X72668861Y-61205432D01*
X72668861Y-61205432D02*
X72835528Y-61122099D01*
X72835528Y-61122099D02*
X72918861Y-60955432D01*
X72918861Y-60955432D02*
X72918861Y-60788765D01*
X72918861Y-60788765D02*
X72835528Y-60622099D01*
X72835528Y-60622099D02*
X72668861Y-60538765D01*
X72668861Y-60538765D02*
X72252195Y-60538765D01*
X72252195Y-60538765D02*
X72085528Y-60455432D01*
X71252195Y-61205432D02*
X71252195Y-59455432D01*
X71252195Y-60122099D02*
X71085528Y-60038765D01*
X71085528Y-60038765D02*
X70752195Y-60038765D01*
X70752195Y-60038765D02*
X70585528Y-60122099D01*
X70585528Y-60122099D02*
X70502195Y-60205432D01*
X70502195Y-60205432D02*
X70418862Y-60372099D01*
X70418862Y-60372099D02*
X70418862Y-60872099D01*
X70418862Y-60872099D02*
X70502195Y-61038765D01*
X70502195Y-61038765D02*
X70585528Y-61122099D01*
X70585528Y-61122099D02*
X70752195Y-61205432D01*
X70752195Y-61205432D02*
X71085528Y-61205432D01*
X71085528Y-61205432D02*
X71252195Y-61122099D01*
X69752195Y-61122099D02*
X69585529Y-61205432D01*
X69585529Y-61205432D02*
X69252195Y-61205432D01*
X69252195Y-61205432D02*
X69085529Y-61122099D01*
X69085529Y-61122099D02*
X69002195Y-60955432D01*
X69002195Y-60955432D02*
X69002195Y-60872099D01*
X69002195Y-60872099D02*
X69085529Y-60705432D01*
X69085529Y-60705432D02*
X69252195Y-60622099D01*
X69252195Y-60622099D02*
X69502195Y-60622099D01*
X69502195Y-60622099D02*
X69668862Y-60538765D01*
X69668862Y-60538765D02*
X69752195Y-60372099D01*
X69752195Y-60372099D02*
X69752195Y-60288765D01*
X69752195Y-60288765D02*
X69668862Y-60122099D01*
X69668862Y-60122099D02*
X69502195Y-60038765D01*
X69502195Y-60038765D02*
X69252195Y-60038765D01*
X69252195Y-60038765D02*
X69085529Y-60122099D01*
X68252195Y-61038765D02*
X68168862Y-61122099D01*
X68168862Y-61122099D02*
X68252195Y-61205432D01*
X68252195Y-61205432D02*
X68335528Y-61122099D01*
X68335528Y-61122099D02*
X68252195Y-61038765D01*
X68252195Y-61038765D02*
X68252195Y-61205432D01*
X66668862Y-61122099D02*
X66835529Y-61205432D01*
X66835529Y-61205432D02*
X67168862Y-61205432D01*
X67168862Y-61205432D02*
X67335529Y-61122099D01*
X67335529Y-61122099D02*
X67418862Y-61038765D01*
X67418862Y-61038765D02*
X67502195Y-60872099D01*
X67502195Y-60872099D02*
X67502195Y-60372099D01*
X67502195Y-60372099D02*
X67418862Y-60205432D01*
X67418862Y-60205432D02*
X67335529Y-60122099D01*
X67335529Y-60122099D02*
X67168862Y-60038765D01*
X67168862Y-60038765D02*
X66835529Y-60038765D01*
X66835529Y-60038765D02*
X66668862Y-60122099D01*
X65668862Y-61205432D02*
X65835529Y-61122099D01*
X65835529Y-61122099D02*
X65918862Y-61038765D01*
X65918862Y-61038765D02*
X66002195Y-60872099D01*
X66002195Y-60872099D02*
X66002195Y-60372099D01*
X66002195Y-60372099D02*
X65918862Y-60205432D01*
X65918862Y-60205432D02*
X65835529Y-60122099D01*
X65835529Y-60122099D02*
X65668862Y-60038765D01*
X65668862Y-60038765D02*
X65418862Y-60038765D01*
X65418862Y-60038765D02*
X65252195Y-60122099D01*
X65252195Y-60122099D02*
X65168862Y-60205432D01*
X65168862Y-60205432D02*
X65085529Y-60372099D01*
X65085529Y-60372099D02*
X65085529Y-60872099D01*
X65085529Y-60872099D02*
X65168862Y-61038765D01*
X65168862Y-61038765D02*
X65252195Y-61122099D01*
X65252195Y-61122099D02*
X65418862Y-61205432D01*
X65418862Y-61205432D02*
X65668862Y-61205432D01*
X64335529Y-61205432D02*
X64335529Y-60038765D01*
X64335529Y-60205432D02*
X64252196Y-60122099D01*
X64252196Y-60122099D02*
X64085529Y-60038765D01*
X64085529Y-60038765D02*
X63835529Y-60038765D01*
X63835529Y-60038765D02*
X63668862Y-60122099D01*
X63668862Y-60122099D02*
X63585529Y-60288765D01*
X63585529Y-60288765D02*
X63585529Y-61205432D01*
X63585529Y-60288765D02*
X63502196Y-60122099D01*
X63502196Y-60122099D02*
X63335529Y-60038765D01*
X63335529Y-60038765D02*
X63085529Y-60038765D01*
X63085529Y-60038765D02*
X62918862Y-60122099D01*
X62918862Y-60122099D02*
X62835529Y-60288765D01*
X62835529Y-60288765D02*
X62835529Y-61205432D01*
X88335527Y-62272834D02*
X88168860Y-62272834D01*
X88168860Y-62272834D02*
X88002193Y-62356167D01*
X88002193Y-62356167D02*
X87918860Y-62439501D01*
X87918860Y-62439501D02*
X87835527Y-62606167D01*
X87835527Y-62606167D02*
X87752193Y-62939501D01*
X87752193Y-62939501D02*
X87752193Y-63356167D01*
X87752193Y-63356167D02*
X87835527Y-63689501D01*
X87835527Y-63689501D02*
X87918860Y-63856167D01*
X87918860Y-63856167D02*
X88002193Y-63939501D01*
X88002193Y-63939501D02*
X88168860Y-64022834D01*
X88168860Y-64022834D02*
X88335527Y-64022834D01*
X88335527Y-64022834D02*
X88502193Y-63939501D01*
X88502193Y-63939501D02*
X88585527Y-63856167D01*
X88585527Y-63856167D02*
X88668860Y-63689501D01*
X88668860Y-63689501D02*
X88752193Y-63356167D01*
X88752193Y-63356167D02*
X88752193Y-62939501D01*
X88752193Y-62939501D02*
X88668860Y-62606167D01*
X88668860Y-62606167D02*
X88585527Y-62439501D01*
X88585527Y-62439501D02*
X88502193Y-62356167D01*
X88502193Y-62356167D02*
X88335527Y-62272834D01*
X86918860Y-64022834D02*
X86585526Y-64022834D01*
X86585526Y-64022834D02*
X86418860Y-63939501D01*
X86418860Y-63939501D02*
X86335526Y-63856167D01*
X86335526Y-63856167D02*
X86168860Y-63606167D01*
X86168860Y-63606167D02*
X86085526Y-63272834D01*
X86085526Y-63272834D02*
X86085526Y-62606167D01*
X86085526Y-62606167D02*
X86168860Y-62439501D01*
X86168860Y-62439501D02*
X86252193Y-62356167D01*
X86252193Y-62356167D02*
X86418860Y-62272834D01*
X86418860Y-62272834D02*
X86752193Y-62272834D01*
X86752193Y-62272834D02*
X86918860Y-62356167D01*
X86918860Y-62356167D02*
X87002193Y-62439501D01*
X87002193Y-62439501D02*
X87085526Y-62606167D01*
X87085526Y-62606167D02*
X87085526Y-63022834D01*
X87085526Y-63022834D02*
X87002193Y-63189501D01*
X87002193Y-63189501D02*
X86918860Y-63272834D01*
X86918860Y-63272834D02*
X86752193Y-63356167D01*
X86752193Y-63356167D02*
X86418860Y-63356167D01*
X86418860Y-63356167D02*
X86252193Y-63272834D01*
X86252193Y-63272834D02*
X86168860Y-63189501D01*
X86168860Y-63189501D02*
X86085526Y-63022834D01*
X84085526Y-62189501D02*
X85585526Y-64439501D01*
X83585526Y-62439501D02*
X83502193Y-62356167D01*
X83502193Y-62356167D02*
X83335526Y-62272834D01*
X83335526Y-62272834D02*
X82918860Y-62272834D01*
X82918860Y-62272834D02*
X82752193Y-62356167D01*
X82752193Y-62356167D02*
X82668860Y-62439501D01*
X82668860Y-62439501D02*
X82585526Y-62606167D01*
X82585526Y-62606167D02*
X82585526Y-62772834D01*
X82585526Y-62772834D02*
X82668860Y-63022834D01*
X82668860Y-63022834D02*
X83668860Y-64022834D01*
X83668860Y-64022834D02*
X82585526Y-64022834D01*
X81502193Y-62272834D02*
X81335526Y-62272834D01*
X81335526Y-62272834D02*
X81168859Y-62356167D01*
X81168859Y-62356167D02*
X81085526Y-62439501D01*
X81085526Y-62439501D02*
X81002193Y-62606167D01*
X81002193Y-62606167D02*
X80918859Y-62939501D01*
X80918859Y-62939501D02*
X80918859Y-63356167D01*
X80918859Y-63356167D02*
X81002193Y-63689501D01*
X81002193Y-63689501D02*
X81085526Y-63856167D01*
X81085526Y-63856167D02*
X81168859Y-63939501D01*
X81168859Y-63939501D02*
X81335526Y-64022834D01*
X81335526Y-64022834D02*
X81502193Y-64022834D01*
X81502193Y-64022834D02*
X81668859Y-63939501D01*
X81668859Y-63939501D02*
X81752193Y-63856167D01*
X81752193Y-63856167D02*
X81835526Y-63689501D01*
X81835526Y-63689501D02*
X81918859Y-63356167D01*
X81918859Y-63356167D02*
X81918859Y-62939501D01*
X81918859Y-62939501D02*
X81835526Y-62606167D01*
X81835526Y-62606167D02*
X81752193Y-62439501D01*
X81752193Y-62439501D02*
X81668859Y-62356167D01*
X81668859Y-62356167D02*
X81502193Y-62272834D01*
X80252192Y-62439501D02*
X80168859Y-62356167D01*
X80168859Y-62356167D02*
X80002192Y-62272834D01*
X80002192Y-62272834D02*
X79585526Y-62272834D01*
X79585526Y-62272834D02*
X79418859Y-62356167D01*
X79418859Y-62356167D02*
X79335526Y-62439501D01*
X79335526Y-62439501D02*
X79252192Y-62606167D01*
X79252192Y-62606167D02*
X79252192Y-62772834D01*
X79252192Y-62772834D02*
X79335526Y-63022834D01*
X79335526Y-63022834D02*
X80335526Y-64022834D01*
X80335526Y-64022834D02*
X79252192Y-64022834D01*
X77752192Y-62856167D02*
X77752192Y-64022834D01*
X78168859Y-62189501D02*
X78585525Y-63439501D01*
X78585525Y-63439501D02*
X77502192Y-63439501D01*
M02*
