%TF.GenerationSoftware,KiCad,Pcbnew,8.0.4*%
%TF.CreationDate,2024-09-01T10:39:02-04:00*%
%TF.ProjectId,power_distribution_2,706f7765-725f-4646-9973-747269627574,rev?*%
%TF.SameCoordinates,Original*%
%TF.FileFunction,Legend,Top*%
%TF.FilePolarity,Positive*%
%FSLAX46Y46*%
G04 Gerber Fmt 4.6, Leading zero omitted, Abs format (unit mm)*
G04 Created by KiCad (PCBNEW 8.0.4) date 2024-09-01 10:39:02*
%MOMM*%
%LPD*%
G01*
G04 APERTURE LIST*
%ADD10C,0.150000*%
%ADD11C,0.120000*%
G04 APERTURE END LIST*
D10*
X130594819Y-88083333D02*
X131309104Y-88083333D01*
X131309104Y-88083333D02*
X131451961Y-88130952D01*
X131451961Y-88130952D02*
X131547200Y-88226190D01*
X131547200Y-88226190D02*
X131594819Y-88369047D01*
X131594819Y-88369047D02*
X131594819Y-88464285D01*
X130594819Y-87702380D02*
X130594819Y-87083333D01*
X130594819Y-87083333D02*
X130975771Y-87416666D01*
X130975771Y-87416666D02*
X130975771Y-87273809D01*
X130975771Y-87273809D02*
X131023390Y-87178571D01*
X131023390Y-87178571D02*
X131071009Y-87130952D01*
X131071009Y-87130952D02*
X131166247Y-87083333D01*
X131166247Y-87083333D02*
X131404342Y-87083333D01*
X131404342Y-87083333D02*
X131499580Y-87130952D01*
X131499580Y-87130952D02*
X131547200Y-87178571D01*
X131547200Y-87178571D02*
X131594819Y-87273809D01*
X131594819Y-87273809D02*
X131594819Y-87559523D01*
X131594819Y-87559523D02*
X131547200Y-87654761D01*
X131547200Y-87654761D02*
X131499580Y-87702380D01*
X153234819Y-88083333D02*
X153949104Y-88083333D01*
X153949104Y-88083333D02*
X154091961Y-88130952D01*
X154091961Y-88130952D02*
X154187200Y-88226190D01*
X154187200Y-88226190D02*
X154234819Y-88369047D01*
X154234819Y-88369047D02*
X154234819Y-88464285D01*
X153234819Y-87130952D02*
X153234819Y-87607142D01*
X153234819Y-87607142D02*
X153711009Y-87654761D01*
X153711009Y-87654761D02*
X153663390Y-87607142D01*
X153663390Y-87607142D02*
X153615771Y-87511904D01*
X153615771Y-87511904D02*
X153615771Y-87273809D01*
X153615771Y-87273809D02*
X153663390Y-87178571D01*
X153663390Y-87178571D02*
X153711009Y-87130952D01*
X153711009Y-87130952D02*
X153806247Y-87083333D01*
X153806247Y-87083333D02*
X154044342Y-87083333D01*
X154044342Y-87083333D02*
X154139580Y-87130952D01*
X154139580Y-87130952D02*
X154187200Y-87178571D01*
X154187200Y-87178571D02*
X154234819Y-87273809D01*
X154234819Y-87273809D02*
X154234819Y-87511904D01*
X154234819Y-87511904D02*
X154187200Y-87607142D01*
X154187200Y-87607142D02*
X154139580Y-87654761D01*
X164554819Y-88083333D02*
X165269104Y-88083333D01*
X165269104Y-88083333D02*
X165411961Y-88130952D01*
X165411961Y-88130952D02*
X165507200Y-88226190D01*
X165507200Y-88226190D02*
X165554819Y-88369047D01*
X165554819Y-88369047D02*
X165554819Y-88464285D01*
X164554819Y-87178571D02*
X164554819Y-87369047D01*
X164554819Y-87369047D02*
X164602438Y-87464285D01*
X164602438Y-87464285D02*
X164650057Y-87511904D01*
X164650057Y-87511904D02*
X164792914Y-87607142D01*
X164792914Y-87607142D02*
X164983390Y-87654761D01*
X164983390Y-87654761D02*
X165364342Y-87654761D01*
X165364342Y-87654761D02*
X165459580Y-87607142D01*
X165459580Y-87607142D02*
X165507200Y-87559523D01*
X165507200Y-87559523D02*
X165554819Y-87464285D01*
X165554819Y-87464285D02*
X165554819Y-87273809D01*
X165554819Y-87273809D02*
X165507200Y-87178571D01*
X165507200Y-87178571D02*
X165459580Y-87130952D01*
X165459580Y-87130952D02*
X165364342Y-87083333D01*
X165364342Y-87083333D02*
X165126247Y-87083333D01*
X165126247Y-87083333D02*
X165031009Y-87130952D01*
X165031009Y-87130952D02*
X164983390Y-87178571D01*
X164983390Y-87178571D02*
X164935771Y-87273809D01*
X164935771Y-87273809D02*
X164935771Y-87464285D01*
X164935771Y-87464285D02*
X164983390Y-87559523D01*
X164983390Y-87559523D02*
X165031009Y-87607142D01*
X165031009Y-87607142D02*
X165126247Y-87654761D01*
X138666666Y-87954819D02*
X138666666Y-88669104D01*
X138666666Y-88669104D02*
X138619047Y-88811961D01*
X138619047Y-88811961D02*
X138523809Y-88907200D01*
X138523809Y-88907200D02*
X138380952Y-88954819D01*
X138380952Y-88954819D02*
X138285714Y-88954819D01*
X139142857Y-88954819D02*
X139142857Y-87954819D01*
X139142857Y-87954819D02*
X139523809Y-87954819D01*
X139523809Y-87954819D02*
X139619047Y-88002438D01*
X139619047Y-88002438D02*
X139666666Y-88050057D01*
X139666666Y-88050057D02*
X139714285Y-88145295D01*
X139714285Y-88145295D02*
X139714285Y-88288152D01*
X139714285Y-88288152D02*
X139666666Y-88383390D01*
X139666666Y-88383390D02*
X139619047Y-88431009D01*
X139619047Y-88431009D02*
X139523809Y-88478628D01*
X139523809Y-88478628D02*
X139142857Y-88478628D01*
X140095238Y-88050057D02*
X140142857Y-88002438D01*
X140142857Y-88002438D02*
X140238095Y-87954819D01*
X140238095Y-87954819D02*
X140476190Y-87954819D01*
X140476190Y-87954819D02*
X140571428Y-88002438D01*
X140571428Y-88002438D02*
X140619047Y-88050057D01*
X140619047Y-88050057D02*
X140666666Y-88145295D01*
X140666666Y-88145295D02*
X140666666Y-88240533D01*
X140666666Y-88240533D02*
X140619047Y-88383390D01*
X140619047Y-88383390D02*
X140047619Y-88954819D01*
X140047619Y-88954819D02*
X140666666Y-88954819D01*
X105454819Y-83583333D02*
X106169104Y-83583333D01*
X106169104Y-83583333D02*
X106311961Y-83630952D01*
X106311961Y-83630952D02*
X106407200Y-83726190D01*
X106407200Y-83726190D02*
X106454819Y-83869047D01*
X106454819Y-83869047D02*
X106454819Y-83964285D01*
X106454819Y-83059523D02*
X106454819Y-82869047D01*
X106454819Y-82869047D02*
X106407200Y-82773809D01*
X106407200Y-82773809D02*
X106359580Y-82726190D01*
X106359580Y-82726190D02*
X106216723Y-82630952D01*
X106216723Y-82630952D02*
X106026247Y-82583333D01*
X106026247Y-82583333D02*
X105645295Y-82583333D01*
X105645295Y-82583333D02*
X105550057Y-82630952D01*
X105550057Y-82630952D02*
X105502438Y-82678571D01*
X105502438Y-82678571D02*
X105454819Y-82773809D01*
X105454819Y-82773809D02*
X105454819Y-82964285D01*
X105454819Y-82964285D02*
X105502438Y-83059523D01*
X105502438Y-83059523D02*
X105550057Y-83107142D01*
X105550057Y-83107142D02*
X105645295Y-83154761D01*
X105645295Y-83154761D02*
X105883390Y-83154761D01*
X105883390Y-83154761D02*
X105978628Y-83107142D01*
X105978628Y-83107142D02*
X106026247Y-83059523D01*
X106026247Y-83059523D02*
X106073866Y-82964285D01*
X106073866Y-82964285D02*
X106073866Y-82773809D01*
X106073866Y-82773809D02*
X106026247Y-82678571D01*
X106026247Y-82678571D02*
X105978628Y-82630952D01*
X105978628Y-82630952D02*
X105883390Y-82583333D01*
X102238095Y-72954819D02*
X102238095Y-71954819D01*
X102238095Y-72431009D02*
X102809523Y-72431009D01*
X102809523Y-72954819D02*
X102809523Y-71954819D01*
X103809523Y-72954819D02*
X103238095Y-72954819D01*
X103523809Y-72954819D02*
X103523809Y-71954819D01*
X103523809Y-71954819D02*
X103428571Y-72097676D01*
X103428571Y-72097676D02*
X103333333Y-72192914D01*
X103333333Y-72192914D02*
X103238095Y-72240533D01*
X107954819Y-88083333D02*
X108669104Y-88083333D01*
X108669104Y-88083333D02*
X108811961Y-88130952D01*
X108811961Y-88130952D02*
X108907200Y-88226190D01*
X108907200Y-88226190D02*
X108954819Y-88369047D01*
X108954819Y-88369047D02*
X108954819Y-88464285D01*
X108954819Y-87083333D02*
X108954819Y-87654761D01*
X108954819Y-87369047D02*
X107954819Y-87369047D01*
X107954819Y-87369047D02*
X108097676Y-87464285D01*
X108097676Y-87464285D02*
X108192914Y-87559523D01*
X108192914Y-87559523D02*
X108240533Y-87654761D01*
X138666666Y-90454819D02*
X138666666Y-91169104D01*
X138666666Y-91169104D02*
X138619047Y-91311961D01*
X138619047Y-91311961D02*
X138523809Y-91407200D01*
X138523809Y-91407200D02*
X138380952Y-91454819D01*
X138380952Y-91454819D02*
X138285714Y-91454819D01*
X139142857Y-91454819D02*
X139142857Y-90454819D01*
X139142857Y-90454819D02*
X139523809Y-90454819D01*
X139523809Y-90454819D02*
X139619047Y-90502438D01*
X139619047Y-90502438D02*
X139666666Y-90550057D01*
X139666666Y-90550057D02*
X139714285Y-90645295D01*
X139714285Y-90645295D02*
X139714285Y-90788152D01*
X139714285Y-90788152D02*
X139666666Y-90883390D01*
X139666666Y-90883390D02*
X139619047Y-90931009D01*
X139619047Y-90931009D02*
X139523809Y-90978628D01*
X139523809Y-90978628D02*
X139142857Y-90978628D01*
X140666666Y-91454819D02*
X140095238Y-91454819D01*
X140380952Y-91454819D02*
X140380952Y-90454819D01*
X140380952Y-90454819D02*
X140285714Y-90597676D01*
X140285714Y-90597676D02*
X140190476Y-90692914D01*
X140190476Y-90692914D02*
X140095238Y-90740533D01*
X176238095Y-87954819D02*
X176238095Y-86954819D01*
X176238095Y-87431009D02*
X176809523Y-87431009D01*
X176809523Y-87954819D02*
X176809523Y-86954819D01*
X177714285Y-87288152D02*
X177714285Y-87954819D01*
X177476190Y-86907200D02*
X177238095Y-87621485D01*
X177238095Y-87621485D02*
X177857142Y-87621485D01*
X179404819Y-83583333D02*
X180119104Y-83583333D01*
X180119104Y-83583333D02*
X180261961Y-83630952D01*
X180261961Y-83630952D02*
X180357200Y-83726190D01*
X180357200Y-83726190D02*
X180404819Y-83869047D01*
X180404819Y-83869047D02*
X180404819Y-83964285D01*
X179404819Y-83202380D02*
X179404819Y-82535714D01*
X179404819Y-82535714D02*
X180404819Y-82964285D01*
X119274819Y-88083333D02*
X119989104Y-88083333D01*
X119989104Y-88083333D02*
X120131961Y-88130952D01*
X120131961Y-88130952D02*
X120227200Y-88226190D01*
X120227200Y-88226190D02*
X120274819Y-88369047D01*
X120274819Y-88369047D02*
X120274819Y-88464285D01*
X119370057Y-87654761D02*
X119322438Y-87607142D01*
X119322438Y-87607142D02*
X119274819Y-87511904D01*
X119274819Y-87511904D02*
X119274819Y-87273809D01*
X119274819Y-87273809D02*
X119322438Y-87178571D01*
X119322438Y-87178571D02*
X119370057Y-87130952D01*
X119370057Y-87130952D02*
X119465295Y-87083333D01*
X119465295Y-87083333D02*
X119560533Y-87083333D01*
X119560533Y-87083333D02*
X119703390Y-87130952D01*
X119703390Y-87130952D02*
X120274819Y-87702380D01*
X120274819Y-87702380D02*
X120274819Y-87083333D01*
X141914819Y-88083333D02*
X142629104Y-88083333D01*
X142629104Y-88083333D02*
X142771961Y-88130952D01*
X142771961Y-88130952D02*
X142867200Y-88226190D01*
X142867200Y-88226190D02*
X142914819Y-88369047D01*
X142914819Y-88369047D02*
X142914819Y-88464285D01*
X142248152Y-87178571D02*
X142914819Y-87178571D01*
X141867200Y-87416666D02*
X142581485Y-87654761D01*
X142581485Y-87654761D02*
X142581485Y-87035714D01*
X132666666Y-73954819D02*
X132666666Y-74669104D01*
X132666666Y-74669104D02*
X132619047Y-74811961D01*
X132619047Y-74811961D02*
X132523809Y-74907200D01*
X132523809Y-74907200D02*
X132380952Y-74954819D01*
X132380952Y-74954819D02*
X132285714Y-74954819D01*
X133285714Y-74383390D02*
X133190476Y-74335771D01*
X133190476Y-74335771D02*
X133142857Y-74288152D01*
X133142857Y-74288152D02*
X133095238Y-74192914D01*
X133095238Y-74192914D02*
X133095238Y-74145295D01*
X133095238Y-74145295D02*
X133142857Y-74050057D01*
X133142857Y-74050057D02*
X133190476Y-74002438D01*
X133190476Y-74002438D02*
X133285714Y-73954819D01*
X133285714Y-73954819D02*
X133476190Y-73954819D01*
X133476190Y-73954819D02*
X133571428Y-74002438D01*
X133571428Y-74002438D02*
X133619047Y-74050057D01*
X133619047Y-74050057D02*
X133666666Y-74145295D01*
X133666666Y-74145295D02*
X133666666Y-74192914D01*
X133666666Y-74192914D02*
X133619047Y-74288152D01*
X133619047Y-74288152D02*
X133571428Y-74335771D01*
X133571428Y-74335771D02*
X133476190Y-74383390D01*
X133476190Y-74383390D02*
X133285714Y-74383390D01*
X133285714Y-74383390D02*
X133190476Y-74431009D01*
X133190476Y-74431009D02*
X133142857Y-74478628D01*
X133142857Y-74478628D02*
X133095238Y-74573866D01*
X133095238Y-74573866D02*
X133095238Y-74764342D01*
X133095238Y-74764342D02*
X133142857Y-74859580D01*
X133142857Y-74859580D02*
X133190476Y-74907200D01*
X133190476Y-74907200D02*
X133285714Y-74954819D01*
X133285714Y-74954819D02*
X133476190Y-74954819D01*
X133476190Y-74954819D02*
X133571428Y-74907200D01*
X133571428Y-74907200D02*
X133619047Y-74859580D01*
X133619047Y-74859580D02*
X133666666Y-74764342D01*
X133666666Y-74764342D02*
X133666666Y-74573866D01*
X133666666Y-74573866D02*
X133619047Y-74478628D01*
X133619047Y-74478628D02*
X133571428Y-74431009D01*
X133571428Y-74431009D02*
X133476190Y-74383390D01*
X145928571Y-76614700D02*
X147071429Y-76614700D01*
X146500000Y-77186128D02*
X146500000Y-76043271D01*
X132928571Y-76614700D02*
X134071429Y-76614700D01*
X102238095Y-87954819D02*
X102238095Y-86954819D01*
X102238095Y-87431009D02*
X102809523Y-87431009D01*
X102809523Y-87954819D02*
X102809523Y-86954819D01*
X103190476Y-86954819D02*
X103809523Y-86954819D01*
X103809523Y-86954819D02*
X103476190Y-87335771D01*
X103476190Y-87335771D02*
X103619047Y-87335771D01*
X103619047Y-87335771D02*
X103714285Y-87383390D01*
X103714285Y-87383390D02*
X103761904Y-87431009D01*
X103761904Y-87431009D02*
X103809523Y-87526247D01*
X103809523Y-87526247D02*
X103809523Y-87764342D01*
X103809523Y-87764342D02*
X103761904Y-87859580D01*
X103761904Y-87859580D02*
X103714285Y-87907200D01*
X103714285Y-87907200D02*
X103619047Y-87954819D01*
X103619047Y-87954819D02*
X103333333Y-87954819D01*
X103333333Y-87954819D02*
X103238095Y-87907200D01*
X103238095Y-87907200D02*
X103190476Y-87859580D01*
X176238095Y-72954819D02*
X176238095Y-71954819D01*
X176238095Y-72431009D02*
X176809523Y-72431009D01*
X176809523Y-72954819D02*
X176809523Y-71954819D01*
X177238095Y-72050057D02*
X177285714Y-72002438D01*
X177285714Y-72002438D02*
X177380952Y-71954819D01*
X177380952Y-71954819D02*
X177619047Y-71954819D01*
X177619047Y-71954819D02*
X177714285Y-72002438D01*
X177714285Y-72002438D02*
X177761904Y-72050057D01*
X177761904Y-72050057D02*
X177809523Y-72145295D01*
X177809523Y-72145295D02*
X177809523Y-72240533D01*
X177809523Y-72240533D02*
X177761904Y-72383390D01*
X177761904Y-72383390D02*
X177190476Y-72954819D01*
X177190476Y-72954819D02*
X177809523Y-72954819D01*
D11*
%TO.C,J3*%
X132030000Y-91800000D02*
X132030000Y-92100000D01*
X132030000Y-92100000D02*
X132230000Y-92100000D01*
X132030000Y-92510000D02*
X132030000Y-93310000D01*
X132030000Y-93310000D02*
X132830000Y-93310000D01*
X132130000Y-91800000D02*
X132130000Y-92100000D01*
X132230000Y-82390000D02*
X132230000Y-93110000D01*
X132230000Y-91800000D02*
X132030000Y-91800000D01*
X132230000Y-93110000D02*
X135950000Y-93110000D01*
X132630000Y-82790000D02*
X132630000Y-92710000D01*
X132630000Y-92710000D02*
X135550000Y-92710000D01*
X133140000Y-82390000D02*
X133140000Y-82790000D01*
X133140000Y-93110000D02*
X133140000Y-92710000D01*
X134140000Y-82390000D02*
X134140000Y-82790000D01*
X134140000Y-93110000D02*
X134140000Y-92710000D01*
X135150000Y-84650000D02*
X135550000Y-84650000D01*
X135150000Y-84850000D02*
X135150000Y-84650000D01*
X135150000Y-86150000D02*
X135550000Y-86150000D01*
X135150000Y-86350000D02*
X135150000Y-86150000D01*
X135150000Y-87650000D02*
X135550000Y-87650000D01*
X135150000Y-87850000D02*
X135150000Y-87650000D01*
X135150000Y-89150000D02*
X135550000Y-89150000D01*
X135150000Y-89350000D02*
X135150000Y-89150000D01*
X135150000Y-90650000D02*
X135550000Y-90650000D01*
X135150000Y-90850000D02*
X135150000Y-90650000D01*
X135550000Y-82790000D02*
X132630000Y-82790000D01*
X135550000Y-84750000D02*
X135150000Y-84750000D01*
X135550000Y-84850000D02*
X135150000Y-84850000D01*
X135550000Y-86250000D02*
X135150000Y-86250000D01*
X135550000Y-86350000D02*
X135150000Y-86350000D01*
X135550000Y-87750000D02*
X135150000Y-87750000D01*
X135550000Y-87850000D02*
X135150000Y-87850000D01*
X135550000Y-89250000D02*
X135150000Y-89250000D01*
X135550000Y-89350000D02*
X135150000Y-89350000D01*
X135550000Y-90750000D02*
X135150000Y-90750000D01*
X135550000Y-90850000D02*
X135150000Y-90850000D01*
X135550000Y-92710000D02*
X135550000Y-82790000D01*
X135950000Y-82390000D02*
X132230000Y-82390000D01*
X135950000Y-93110000D02*
X135950000Y-82390000D01*
%TO.C,J5*%
X154670000Y-91800000D02*
X154670000Y-92100000D01*
X154670000Y-92100000D02*
X154870000Y-92100000D01*
X154670000Y-92510000D02*
X154670000Y-93310000D01*
X154670000Y-93310000D02*
X155470000Y-93310000D01*
X154770000Y-91800000D02*
X154770000Y-92100000D01*
X154870000Y-82390000D02*
X154870000Y-93110000D01*
X154870000Y-91800000D02*
X154670000Y-91800000D01*
X154870000Y-93110000D02*
X158590000Y-93110000D01*
X155270000Y-82790000D02*
X155270000Y-92710000D01*
X155270000Y-92710000D02*
X158190000Y-92710000D01*
X155780000Y-82390000D02*
X155780000Y-82790000D01*
X155780000Y-93110000D02*
X155780000Y-92710000D01*
X156780000Y-82390000D02*
X156780000Y-82790000D01*
X156780000Y-93110000D02*
X156780000Y-92710000D01*
X157790000Y-84650000D02*
X158190000Y-84650000D01*
X157790000Y-84850000D02*
X157790000Y-84650000D01*
X157790000Y-86150000D02*
X158190000Y-86150000D01*
X157790000Y-86350000D02*
X157790000Y-86150000D01*
X157790000Y-87650000D02*
X158190000Y-87650000D01*
X157790000Y-87850000D02*
X157790000Y-87650000D01*
X157790000Y-89150000D02*
X158190000Y-89150000D01*
X157790000Y-89350000D02*
X157790000Y-89150000D01*
X157790000Y-90650000D02*
X158190000Y-90650000D01*
X157790000Y-90850000D02*
X157790000Y-90650000D01*
X158190000Y-82790000D02*
X155270000Y-82790000D01*
X158190000Y-84750000D02*
X157790000Y-84750000D01*
X158190000Y-84850000D02*
X157790000Y-84850000D01*
X158190000Y-86250000D02*
X157790000Y-86250000D01*
X158190000Y-86350000D02*
X157790000Y-86350000D01*
X158190000Y-87750000D02*
X157790000Y-87750000D01*
X158190000Y-87850000D02*
X157790000Y-87850000D01*
X158190000Y-89250000D02*
X157790000Y-89250000D01*
X158190000Y-89350000D02*
X157790000Y-89350000D01*
X158190000Y-90750000D02*
X157790000Y-90750000D01*
X158190000Y-90850000D02*
X157790000Y-90850000D01*
X158190000Y-92710000D02*
X158190000Y-82790000D01*
X158590000Y-82390000D02*
X154870000Y-82390000D01*
X158590000Y-93110000D02*
X158590000Y-82390000D01*
%TO.C,J6*%
X165990000Y-91800000D02*
X165990000Y-92100000D01*
X165990000Y-92100000D02*
X166190000Y-92100000D01*
X165990000Y-92510000D02*
X165990000Y-93310000D01*
X165990000Y-93310000D02*
X166790000Y-93310000D01*
X166090000Y-91800000D02*
X166090000Y-92100000D01*
X166190000Y-82390000D02*
X166190000Y-93110000D01*
X166190000Y-91800000D02*
X165990000Y-91800000D01*
X166190000Y-93110000D02*
X169910000Y-93110000D01*
X166590000Y-82790000D02*
X166590000Y-92710000D01*
X166590000Y-92710000D02*
X169510000Y-92710000D01*
X167100000Y-82390000D02*
X167100000Y-82790000D01*
X167100000Y-93110000D02*
X167100000Y-92710000D01*
X168100000Y-82390000D02*
X168100000Y-82790000D01*
X168100000Y-93110000D02*
X168100000Y-92710000D01*
X169110000Y-84650000D02*
X169510000Y-84650000D01*
X169110000Y-84850000D02*
X169110000Y-84650000D01*
X169110000Y-86150000D02*
X169510000Y-86150000D01*
X169110000Y-86350000D02*
X169110000Y-86150000D01*
X169110000Y-87650000D02*
X169510000Y-87650000D01*
X169110000Y-87850000D02*
X169110000Y-87650000D01*
X169110000Y-89150000D02*
X169510000Y-89150000D01*
X169110000Y-89350000D02*
X169110000Y-89150000D01*
X169110000Y-90650000D02*
X169510000Y-90650000D01*
X169110000Y-90850000D02*
X169110000Y-90650000D01*
X169510000Y-82790000D02*
X166590000Y-82790000D01*
X169510000Y-84750000D02*
X169110000Y-84750000D01*
X169510000Y-84850000D02*
X169110000Y-84850000D01*
X169510000Y-86250000D02*
X169110000Y-86250000D01*
X169510000Y-86350000D02*
X169110000Y-86350000D01*
X169510000Y-87750000D02*
X169110000Y-87750000D01*
X169510000Y-87850000D02*
X169110000Y-87850000D01*
X169510000Y-89250000D02*
X169110000Y-89250000D01*
X169510000Y-89350000D02*
X169110000Y-89350000D01*
X169510000Y-90750000D02*
X169110000Y-90750000D01*
X169510000Y-90850000D02*
X169110000Y-90850000D01*
X169510000Y-92710000D02*
X169510000Y-82790000D01*
X169910000Y-82390000D02*
X166190000Y-82390000D01*
X169910000Y-93110000D02*
X169910000Y-82390000D01*
%TO.C,JP2*%
X138100000Y-89500000D02*
X140900000Y-89500000D01*
X138100000Y-91500000D02*
X138100000Y-89500000D01*
X140900000Y-89500000D02*
X140900000Y-91500000D01*
X140900000Y-91500000D02*
X138100000Y-91500000D01*
%TO.C,J9*%
X101190000Y-80890000D02*
X101190000Y-85610000D01*
X101190000Y-85610000D02*
X104910000Y-85610000D01*
X101590000Y-81290000D02*
X101590000Y-85210000D01*
X101590000Y-83150000D02*
X101990000Y-83150000D01*
X101590000Y-83250000D02*
X101990000Y-83250000D01*
X101590000Y-85210000D02*
X104510000Y-85210000D01*
X101990000Y-83150000D02*
X101990000Y-83350000D01*
X101990000Y-83350000D02*
X101590000Y-83350000D01*
X103000000Y-80890000D02*
X103000000Y-81290000D01*
X103000000Y-85610000D02*
X103000000Y-85210000D01*
X104000000Y-80890000D02*
X104000000Y-81290000D01*
X104000000Y-85610000D02*
X104000000Y-85210000D01*
X104510000Y-81290000D02*
X101590000Y-81290000D01*
X104510000Y-85210000D02*
X104510000Y-81290000D01*
X104910000Y-80890000D02*
X101190000Y-80890000D01*
X104910000Y-82200000D02*
X105110000Y-82200000D01*
X104910000Y-85610000D02*
X104910000Y-80890000D01*
X105010000Y-82200000D02*
X105010000Y-81900000D01*
X105110000Y-80690000D02*
X104310000Y-80690000D01*
X105110000Y-81490000D02*
X105110000Y-80690000D01*
X105110000Y-81900000D02*
X104910000Y-81900000D01*
X105110000Y-82200000D02*
X105110000Y-81900000D01*
%TO.C,J1*%
X109390000Y-91800000D02*
X109390000Y-92100000D01*
X109390000Y-92100000D02*
X109590000Y-92100000D01*
X109390000Y-92510000D02*
X109390000Y-93310000D01*
X109390000Y-93310000D02*
X110190000Y-93310000D01*
X109490000Y-91800000D02*
X109490000Y-92100000D01*
X109590000Y-82390000D02*
X109590000Y-93110000D01*
X109590000Y-91800000D02*
X109390000Y-91800000D01*
X109590000Y-93110000D02*
X113310000Y-93110000D01*
X109990000Y-82790000D02*
X109990000Y-92710000D01*
X109990000Y-92710000D02*
X112910000Y-92710000D01*
X110500000Y-82390000D02*
X110500000Y-82790000D01*
X110500000Y-93110000D02*
X110500000Y-92710000D01*
X111500000Y-82390000D02*
X111500000Y-82790000D01*
X111500000Y-93110000D02*
X111500000Y-92710000D01*
X112510000Y-84650000D02*
X112910000Y-84650000D01*
X112510000Y-84850000D02*
X112510000Y-84650000D01*
X112510000Y-86150000D02*
X112910000Y-86150000D01*
X112510000Y-86350000D02*
X112510000Y-86150000D01*
X112510000Y-87650000D02*
X112910000Y-87650000D01*
X112510000Y-87850000D02*
X112510000Y-87650000D01*
X112510000Y-89150000D02*
X112910000Y-89150000D01*
X112510000Y-89350000D02*
X112510000Y-89150000D01*
X112510000Y-90650000D02*
X112910000Y-90650000D01*
X112510000Y-90850000D02*
X112510000Y-90650000D01*
X112910000Y-82790000D02*
X109990000Y-82790000D01*
X112910000Y-84750000D02*
X112510000Y-84750000D01*
X112910000Y-84850000D02*
X112510000Y-84850000D01*
X112910000Y-86250000D02*
X112510000Y-86250000D01*
X112910000Y-86350000D02*
X112510000Y-86350000D01*
X112910000Y-87750000D02*
X112510000Y-87750000D01*
X112910000Y-87850000D02*
X112510000Y-87850000D01*
X112910000Y-89250000D02*
X112510000Y-89250000D01*
X112910000Y-89350000D02*
X112510000Y-89350000D01*
X112910000Y-90750000D02*
X112510000Y-90750000D01*
X112910000Y-90850000D02*
X112510000Y-90850000D01*
X112910000Y-92710000D02*
X112910000Y-82790000D01*
X113310000Y-82390000D02*
X109590000Y-82390000D01*
X113310000Y-93110000D02*
X113310000Y-82390000D01*
%TO.C,JP1*%
X138100000Y-92000000D02*
X140900000Y-92000000D01*
X138100000Y-94000000D02*
X138100000Y-92000000D01*
X140900000Y-92000000D02*
X140900000Y-94000000D01*
X140900000Y-94000000D02*
X138100000Y-94000000D01*
%TO.C,J7*%
X175140000Y-80890000D02*
X175140000Y-85610000D01*
X175140000Y-85610000D02*
X178860000Y-85610000D01*
X175540000Y-81290000D02*
X175540000Y-85210000D01*
X175540000Y-83150000D02*
X175940000Y-83150000D01*
X175540000Y-83250000D02*
X175940000Y-83250000D01*
X175540000Y-85210000D02*
X178460000Y-85210000D01*
X175940000Y-83150000D02*
X175940000Y-83350000D01*
X175940000Y-83350000D02*
X175540000Y-83350000D01*
X176950000Y-80890000D02*
X176950000Y-81290000D01*
X176950000Y-85610000D02*
X176950000Y-85210000D01*
X177950000Y-80890000D02*
X177950000Y-81290000D01*
X177950000Y-85610000D02*
X177950000Y-85210000D01*
X178460000Y-81290000D02*
X175540000Y-81290000D01*
X178460000Y-85210000D02*
X178460000Y-81290000D01*
X178860000Y-80890000D02*
X175140000Y-80890000D01*
X178860000Y-82200000D02*
X179060000Y-82200000D01*
X178860000Y-85610000D02*
X178860000Y-80890000D01*
X178960000Y-82200000D02*
X178960000Y-81900000D01*
X179060000Y-80690000D02*
X178260000Y-80690000D01*
X179060000Y-81490000D02*
X179060000Y-80690000D01*
X179060000Y-81900000D02*
X178860000Y-81900000D01*
X179060000Y-82200000D02*
X179060000Y-81900000D01*
%TO.C,J2*%
X120710000Y-91800000D02*
X120710000Y-92100000D01*
X120710000Y-92100000D02*
X120910000Y-92100000D01*
X120710000Y-92510000D02*
X120710000Y-93310000D01*
X120710000Y-93310000D02*
X121510000Y-93310000D01*
X120810000Y-91800000D02*
X120810000Y-92100000D01*
X120910000Y-82390000D02*
X120910000Y-93110000D01*
X120910000Y-91800000D02*
X120710000Y-91800000D01*
X120910000Y-93110000D02*
X124630000Y-93110000D01*
X121310000Y-82790000D02*
X121310000Y-92710000D01*
X121310000Y-92710000D02*
X124230000Y-92710000D01*
X121820000Y-82390000D02*
X121820000Y-82790000D01*
X121820000Y-93110000D02*
X121820000Y-92710000D01*
X122820000Y-82390000D02*
X122820000Y-82790000D01*
X122820000Y-93110000D02*
X122820000Y-92710000D01*
X123830000Y-84650000D02*
X124230000Y-84650000D01*
X123830000Y-84850000D02*
X123830000Y-84650000D01*
X123830000Y-86150000D02*
X124230000Y-86150000D01*
X123830000Y-86350000D02*
X123830000Y-86150000D01*
X123830000Y-87650000D02*
X124230000Y-87650000D01*
X123830000Y-87850000D02*
X123830000Y-87650000D01*
X123830000Y-89150000D02*
X124230000Y-89150000D01*
X123830000Y-89350000D02*
X123830000Y-89150000D01*
X123830000Y-90650000D02*
X124230000Y-90650000D01*
X123830000Y-90850000D02*
X123830000Y-90650000D01*
X124230000Y-82790000D02*
X121310000Y-82790000D01*
X124230000Y-84750000D02*
X123830000Y-84750000D01*
X124230000Y-84850000D02*
X123830000Y-84850000D01*
X124230000Y-86250000D02*
X123830000Y-86250000D01*
X124230000Y-86350000D02*
X123830000Y-86350000D01*
X124230000Y-87750000D02*
X123830000Y-87750000D01*
X124230000Y-87850000D02*
X123830000Y-87850000D01*
X124230000Y-89250000D02*
X123830000Y-89250000D01*
X124230000Y-89350000D02*
X123830000Y-89350000D01*
X124230000Y-90750000D02*
X123830000Y-90750000D01*
X124230000Y-90850000D02*
X123830000Y-90850000D01*
X124230000Y-92710000D02*
X124230000Y-82790000D01*
X124630000Y-82390000D02*
X120910000Y-82390000D01*
X124630000Y-93110000D02*
X124630000Y-82390000D01*
%TO.C,J4*%
X143350000Y-91800000D02*
X143350000Y-92100000D01*
X143350000Y-92100000D02*
X143550000Y-92100000D01*
X143350000Y-92510000D02*
X143350000Y-93310000D01*
X143350000Y-93310000D02*
X144150000Y-93310000D01*
X143450000Y-91800000D02*
X143450000Y-92100000D01*
X143550000Y-82390000D02*
X143550000Y-93110000D01*
X143550000Y-91800000D02*
X143350000Y-91800000D01*
X143550000Y-93110000D02*
X147270000Y-93110000D01*
X143950000Y-82790000D02*
X143950000Y-92710000D01*
X143950000Y-92710000D02*
X146870000Y-92710000D01*
X144460000Y-82390000D02*
X144460000Y-82790000D01*
X144460000Y-93110000D02*
X144460000Y-92710000D01*
X145460000Y-82390000D02*
X145460000Y-82790000D01*
X145460000Y-93110000D02*
X145460000Y-92710000D01*
X146470000Y-84650000D02*
X146870000Y-84650000D01*
X146470000Y-84850000D02*
X146470000Y-84650000D01*
X146470000Y-86150000D02*
X146870000Y-86150000D01*
X146470000Y-86350000D02*
X146470000Y-86150000D01*
X146470000Y-87650000D02*
X146870000Y-87650000D01*
X146470000Y-87850000D02*
X146470000Y-87650000D01*
X146470000Y-89150000D02*
X146870000Y-89150000D01*
X146470000Y-89350000D02*
X146470000Y-89150000D01*
X146470000Y-90650000D02*
X146870000Y-90650000D01*
X146470000Y-90850000D02*
X146470000Y-90650000D01*
X146870000Y-82790000D02*
X143950000Y-82790000D01*
X146870000Y-84750000D02*
X146470000Y-84750000D01*
X146870000Y-84850000D02*
X146470000Y-84850000D01*
X146870000Y-86250000D02*
X146470000Y-86250000D01*
X146870000Y-86350000D02*
X146470000Y-86350000D01*
X146870000Y-87750000D02*
X146470000Y-87750000D01*
X146870000Y-87850000D02*
X146470000Y-87850000D01*
X146870000Y-89250000D02*
X146470000Y-89250000D01*
X146870000Y-89350000D02*
X146470000Y-89350000D01*
X146870000Y-90750000D02*
X146470000Y-90750000D01*
X146870000Y-90850000D02*
X146470000Y-90850000D01*
X146870000Y-92710000D02*
X146870000Y-82790000D01*
X147270000Y-82390000D02*
X143550000Y-82390000D01*
X147270000Y-93110000D02*
X147270000Y-82390000D01*
%TO.C,J8*%
X134790000Y-75090000D02*
X134790000Y-77910000D01*
X134790000Y-75090000D02*
X136490000Y-73790000D01*
X134790000Y-77910000D02*
X136490000Y-79210000D01*
X136490000Y-73790000D02*
X145210000Y-73790000D01*
X136490000Y-79210000D02*
X145210000Y-79210000D01*
X145210000Y-73790000D02*
X145210000Y-79210000D01*
%TD*%
M02*
