%TF.GenerationSoftware,KiCad,Pcbnew,8.0.4*%
%TF.CreationDate,2024-09-01T10:39:02-04:00*%
%TF.ProjectId,power_distribution_2,706f7765-725f-4646-9973-747269627574,rev?*%
%TF.SameCoordinates,Original*%
%TF.FileFunction,Copper,L2,Bot*%
%TF.FilePolarity,Positive*%
%FSLAX46Y46*%
G04 Gerber Fmt 4.6, Leading zero omitted, Abs format (unit mm)*
G04 Created by KiCad (PCBNEW 8.0.4) date 2024-09-01 10:39:02*
%MOMM*%
%LPD*%
G01*
G04 APERTURE LIST*
G04 Aperture macros list*
%AMRoundRect*
0 Rectangle with rounded corners*
0 $1 Rounding radius*
0 $2 $3 $4 $5 $6 $7 $8 $9 X,Y pos of 4 corners*
0 Add a 4 corners polygon primitive as box body*
4,1,4,$2,$3,$4,$5,$6,$7,$8,$9,$2,$3,0*
0 Add four circle primitives for the rounded corners*
1,1,$1+$1,$2,$3*
1,1,$1+$1,$4,$5*
1,1,$1+$1,$6,$7*
1,1,$1+$1,$8,$9*
0 Add four rect primitives between the rounded corners*
20,1,$1+$1,$2,$3,$4,$5,0*
20,1,$1+$1,$4,$5,$6,$7,0*
20,1,$1+$1,$6,$7,$8,$9,0*
20,1,$1+$1,$8,$9,$2,$3,0*%
G04 Aperture macros list end*
%TA.AperFunction,ComponentPad*%
%ADD10RoundRect,0.250000X0.615000X-0.265000X0.615000X0.265000X-0.615000X0.265000X-0.615000X-0.265000X0*%
%TD*%
%TA.AperFunction,ComponentPad*%
%ADD11O,1.730000X1.030000*%
%TD*%
%TA.AperFunction,ComponentPad*%
%ADD12RoundRect,0.250000X-0.615000X0.265000X-0.615000X-0.265000X0.615000X-0.265000X0.615000X0.265000X0*%
%TD*%
%TA.AperFunction,ComponentPad*%
%ADD13C,2.900000*%
%TD*%
%TA.AperFunction,ConnectorPad*%
%ADD14C,5.000000*%
%TD*%
%TA.AperFunction,ComponentPad*%
%ADD15R,3.800000X3.800000*%
%TD*%
%TA.AperFunction,ComponentPad*%
%ADD16C,3.800000*%
%TD*%
G04 APERTURE END LIST*
D10*
%TO.P,J3,1,Pin_1*%
%TO.N,/CAN2 LOW*%
X133640000Y-91500000D03*
D11*
%TO.P,J3,2,Pin_2*%
%TO.N,/CAN1 HIGH*%
X133640000Y-90000000D03*
%TO.P,J3,3,Pin_3*%
%TO.N,GND*%
X133640000Y-88500000D03*
%TO.P,J3,4,Pin_4*%
X133640000Y-87000000D03*
%TO.P,J3,5,Pin_5*%
%TO.N,+BATT*%
X133640000Y-85500000D03*
%TO.P,J3,6,Pin_6*%
X133640000Y-84000000D03*
%TD*%
D10*
%TO.P,J5,1,Pin_1*%
%TO.N,/CAN2 LOW*%
X156280000Y-91500000D03*
D11*
%TO.P,J5,2,Pin_2*%
%TO.N,/CAN2 HIGH*%
X156280000Y-90000000D03*
%TO.P,J5,3,Pin_3*%
%TO.N,GND*%
X156280000Y-88500000D03*
%TO.P,J5,4,Pin_4*%
X156280000Y-87000000D03*
%TO.P,J5,5,Pin_5*%
%TO.N,+BATT*%
X156280000Y-85500000D03*
%TO.P,J5,6,Pin_6*%
X156280000Y-84000000D03*
%TD*%
D10*
%TO.P,J6,1,Pin_1*%
%TO.N,/CAN2 LOW*%
X167600000Y-91500000D03*
D11*
%TO.P,J6,2,Pin_2*%
%TO.N,/CAN2 HIGH*%
X167600000Y-90000000D03*
%TO.P,J6,3,Pin_3*%
%TO.N,GND*%
X167600000Y-88500000D03*
%TO.P,J6,4,Pin_4*%
X167600000Y-87000000D03*
%TO.P,J6,5,Pin_5*%
%TO.N,+BATT*%
X167600000Y-85500000D03*
%TO.P,J6,6,Pin_6*%
X167600000Y-84000000D03*
%TD*%
D12*
%TO.P,J9,1,Pin_1*%
%TO.N,/CAN1 HIGH*%
X103500000Y-82500000D03*
D11*
%TO.P,J9,2,Pin_2*%
%TO.N,/CAN2 LOW*%
X103500000Y-84000000D03*
%TD*%
D13*
%TO.P,H1,1*%
%TO.N,N/C*%
X103000000Y-76000000D03*
D14*
X103000000Y-76000000D03*
%TD*%
D10*
%TO.P,J1,1,Pin_1*%
%TO.N,/CAN2 LOW*%
X111000000Y-91500000D03*
D11*
%TO.P,J1,2,Pin_2*%
%TO.N,/CAN1 HIGH*%
X111000000Y-90000000D03*
%TO.P,J1,3,Pin_3*%
%TO.N,GND*%
X111000000Y-88500000D03*
%TO.P,J1,4,Pin_4*%
X111000000Y-87000000D03*
%TO.P,J1,5,Pin_5*%
%TO.N,+BATT*%
X111000000Y-85500000D03*
%TO.P,J1,6,Pin_6*%
X111000000Y-84000000D03*
%TD*%
D13*
%TO.P,H4,1*%
%TO.N,N/C*%
X177000000Y-91000000D03*
D14*
X177000000Y-91000000D03*
%TD*%
D12*
%TO.P,J7,1,Pin_1*%
%TO.N,/CAN2 HIGH*%
X177450000Y-82500000D03*
D11*
%TO.P,J7,2,Pin_2*%
%TO.N,/CAN2 LOW*%
X177450000Y-84000000D03*
%TD*%
D10*
%TO.P,J2,1,Pin_1*%
%TO.N,/CAN2 LOW*%
X122320000Y-91500000D03*
D11*
%TO.P,J2,2,Pin_2*%
%TO.N,/CAN1 HIGH*%
X122320000Y-90000000D03*
%TO.P,J2,3,Pin_3*%
%TO.N,GND*%
X122320000Y-88500000D03*
%TO.P,J2,4,Pin_4*%
X122320000Y-87000000D03*
%TO.P,J2,5,Pin_5*%
%TO.N,+BATT*%
X122320000Y-85500000D03*
%TO.P,J2,6,Pin_6*%
X122320000Y-84000000D03*
%TD*%
D10*
%TO.P,J4,1,Pin_1*%
%TO.N,/CAN2 LOW*%
X144960000Y-91500000D03*
D11*
%TO.P,J4,2,Pin_2*%
%TO.N,/CAN2 HIGH*%
X144960000Y-90000000D03*
%TO.P,J4,3,Pin_3*%
%TO.N,GND*%
X144960000Y-88500000D03*
%TO.P,J4,4,Pin_4*%
X144960000Y-87000000D03*
%TO.P,J4,5,Pin_5*%
%TO.N,+BATT*%
X144960000Y-85500000D03*
%TO.P,J4,6,Pin_6*%
X144960000Y-84000000D03*
%TD*%
D15*
%TO.P,J8,1,Pin_1*%
%TO.N,GND*%
X137500000Y-76500000D03*
D16*
%TO.P,J8,2,Pin_2*%
%TO.N,+BATT*%
X142500000Y-76500000D03*
%TD*%
D13*
%TO.P,H3,1*%
%TO.N,N/C*%
X103000000Y-91000000D03*
D14*
X103000000Y-91000000D03*
%TD*%
D13*
%TO.P,H2,1*%
%TO.N,N/C*%
X177000000Y-76000000D03*
D14*
X177000000Y-76000000D03*
%TD*%
M02*
