%TF.GenerationSoftware,KiCad,Pcbnew,8.0.4*%
%TF.CreationDate,2024-09-08T12:09:03-04:00*%
%TF.ProjectId,aux-board,6175782d-626f-4617-9264-2e6b69636164,rev?*%
%TF.SameCoordinates,Original*%
%TF.FileFunction,Copper,L1,Top*%
%TF.FilePolarity,Positive*%
%FSLAX46Y46*%
G04 Gerber Fmt 4.6, Leading zero omitted, Abs format (unit mm)*
G04 Created by KiCad (PCBNEW 8.0.4) date 2024-09-08 12:09:03*
%MOMM*%
%LPD*%
G01*
G04 APERTURE LIST*
G04 Aperture macros list*
%AMRoundRect*
0 Rectangle with rounded corners*
0 $1 Rounding radius*
0 $2 $3 $4 $5 $6 $7 $8 $9 X,Y pos of 4 corners*
0 Add a 4 corners polygon primitive as box body*
4,1,4,$2,$3,$4,$5,$6,$7,$8,$9,$2,$3,0*
0 Add four circle primitives for the rounded corners*
1,1,$1+$1,$2,$3*
1,1,$1+$1,$4,$5*
1,1,$1+$1,$6,$7*
1,1,$1+$1,$8,$9*
0 Add four rect primitives between the rounded corners*
20,1,$1+$1,$2,$3,$4,$5,0*
20,1,$1+$1,$4,$5,$6,$7,0*
20,1,$1+$1,$6,$7,$8,$9,0*
20,1,$1+$1,$8,$9,$2,$3,0*%
G04 Aperture macros list end*
%TA.AperFunction,ComponentPad*%
%ADD10C,3.500000*%
%TD*%
%TA.AperFunction,ComponentPad*%
%ADD11C,1.524000*%
%TD*%
%TA.AperFunction,ComponentPad*%
%ADD12R,1.700000X1.700000*%
%TD*%
%TA.AperFunction,ComponentPad*%
%ADD13O,1.700000X1.700000*%
%TD*%
%TA.AperFunction,ComponentPad*%
%ADD14RoundRect,0.250000X-0.265000X-0.615000X0.265000X-0.615000X0.265000X0.615000X-0.265000X0.615000X0*%
%TD*%
%TA.AperFunction,ComponentPad*%
%ADD15O,1.030000X1.730000*%
%TD*%
%TA.AperFunction,SMDPad,CuDef*%
%ADD16RoundRect,0.250000X-0.625000X0.312500X-0.625000X-0.312500X0.625000X-0.312500X0.625000X0.312500X0*%
%TD*%
%TA.AperFunction,ComponentPad*%
%ADD17C,1.700000*%
%TD*%
%TA.AperFunction,ComponentPad*%
%ADD18RoundRect,0.250000X0.615000X-0.265000X0.615000X0.265000X-0.615000X0.265000X-0.615000X-0.265000X0*%
%TD*%
%TA.AperFunction,ComponentPad*%
%ADD19O,1.730000X1.030000*%
%TD*%
%TA.AperFunction,SMDPad,CuDef*%
%ADD20RoundRect,0.250000X0.625000X-0.312500X0.625000X0.312500X-0.625000X0.312500X-0.625000X-0.312500X0*%
%TD*%
%TA.AperFunction,ComponentPad*%
%ADD21R,2.600000X2.600000*%
%TD*%
%TA.AperFunction,ComponentPad*%
%ADD22C,2.600000*%
%TD*%
%TA.AperFunction,ComponentPad*%
%ADD23C,2.000000*%
%TD*%
%TA.AperFunction,SMDPad,CuDef*%
%ADD24R,1.270000X1.680000*%
%TD*%
%TA.AperFunction,ComponentPad*%
%ADD25C,6.200000*%
%TD*%
%TA.AperFunction,ViaPad*%
%ADD26C,0.600000*%
%TD*%
%TA.AperFunction,Conductor*%
%ADD27C,0.750000*%
%TD*%
%TA.AperFunction,Conductor*%
%ADD28C,0.200000*%
%TD*%
%TA.AperFunction,Conductor*%
%ADD29C,1.000000*%
%TD*%
%TA.AperFunction,Conductor*%
%ADD30C,0.500000*%
%TD*%
%TA.AperFunction,Conductor*%
%ADD31C,1.500000*%
%TD*%
G04 APERTURE END LIST*
D10*
%TO.P,DISP1,*%
%TO.N,*%
X47895000Y-78975000D03*
D11*
%TO.P,DISP1,1,VCC*%
%TO.N,+3.3V*%
X120750000Y-77230000D03*
%TO.P,DISP1,2,GND*%
%TO.N,GND*%
X120750000Y-74690000D03*
%TO.P,DISP1,3,CS*%
%TO.N,TFT-CS*%
X120750000Y-72150000D03*
%TO.P,DISP1,4,RESET*%
%TO.N,TFT-RESET*%
X120750000Y-69610000D03*
%TO.P,DISP1,5,DC*%
%TO.N,TFT-DC*%
X120750000Y-67070000D03*
%TO.P,DISP1,6,MOSI*%
%TO.N,TFT-MOSI*%
X120750000Y-64530000D03*
%TO.P,DISP1,7,SCK*%
%TO.N,TFT-SCK*%
X120750000Y-61990000D03*
%TO.P,DISP1,8,LED*%
%TO.N,+3.3V*%
X120750000Y-59450000D03*
%TO.P,DISP1,9,MISO*%
%TO.N,TFT-MISO*%
X120750000Y-56910000D03*
%TO.P,DISP1,10,T_CLK*%
%TO.N,unconnected-(DISP1-T_CLK-Pad10)*%
X120750000Y-54370000D03*
%TO.P,DISP1,11,T_CS*%
%TO.N,unconnected-(DISP1-T_CS-Pad11)*%
X120750000Y-51830000D03*
%TO.P,DISP1,12,T_DIN*%
%TO.N,unconnected-(DISP1-T_DIN-Pad12)*%
X120750000Y-49290000D03*
%TO.P,DISP1,13,T_DO*%
%TO.N,unconnected-(DISP1-T_DO-Pad13)_1*%
X120750000Y-49290000D03*
%TO.N,unconnected-(DISP1-T_DO-Pad13)*%
X120750000Y-46750000D03*
%TO.P,DISP1,14,T_IRQ*%
%TO.N,unconnected-(DISP1-T_IRQ-Pad14)*%
X120750000Y-44210000D03*
%TD*%
D12*
%TO.P,J9,1,Pin_1*%
%TO.N,BCK*%
X105380000Y-50500000D03*
D13*
%TO.P,J9,2,Pin_2*%
%TO.N,DIN*%
X107920000Y-50500000D03*
%TO.P,J9,3,Pin_3*%
%TO.N,LRCK*%
X110460000Y-50500000D03*
%TO.P,J9,4,Pin_4*%
%TO.N,GND*%
X113000000Y-50500000D03*
%TO.P,J9,5,Pin_5*%
%TO.N,+3.3V*%
X115540000Y-50500000D03*
%TD*%
D12*
%TO.P,J8,1,Pin_1*%
%TO.N,+3.3V*%
X71050000Y-76625000D03*
D13*
%TO.P,J8,2,Pin_2*%
%TO.N,SDA*%
X68510000Y-76625000D03*
%TO.P,J8,3,Pin_3*%
%TO.N,SCL*%
X65970000Y-76625000D03*
%TO.P,J8,4,Pin_4*%
%TO.N,GND*%
X63430000Y-76625000D03*
%TD*%
D14*
%TO.P,J7,1,Pin_1*%
%TO.N,+5V*%
X39500000Y-75000000D03*
D15*
%TO.P,J7,2,Pin_2*%
%TO.N,GPIO-2*%
X41000000Y-75000000D03*
%TO.P,J7,3,Pin_3*%
%TO.N,GND*%
X42500000Y-75000000D03*
%TD*%
D16*
%TO.P,R4,1*%
%TO.N,NEO-1*%
X58250000Y-77037500D03*
%TO.P,R4,2*%
%TO.N,Net-(J4-Pin_2)*%
X58250000Y-79962500D03*
%TD*%
D11*
%TO.P,MOD1,1,Vin*%
%TO.N,+5V*%
X113780000Y-74620000D03*
%TO.P,MOD1,2,3vo*%
%TO.N,unconnected-(MOD1-3vo-Pad2)*%
X113780000Y-72080000D03*
%TO.P,MOD1,3,GND*%
%TO.N,GND*%
X113780000Y-69540000D03*
%TO.P,MOD1,4,SDA*%
%TO.N,SDA*%
X113780000Y-67000000D03*
%TO.P,MOD1,5,SCL*%
%TO.N,SCL*%
X113780000Y-64460000D03*
%TO.P,MOD1,6,RST*%
%TO.N,unconnected-(MOD1-RST-Pad6)*%
X113780000Y-61920000D03*
%TO.P,MOD1,7,ADR*%
%TO.N,unconnected-(MOD1-ADR-Pad7)*%
X96000000Y-64460000D03*
%TO.P,MOD1,8,INT*%
%TO.N,unconnected-(MOD1-INT-Pad8)*%
X96000000Y-67000000D03*
%TO.P,MOD1,9,PS1*%
%TO.N,unconnected-(MOD1-PS1-Pad9)*%
X96000000Y-69540000D03*
%TO.P,MOD1,10,PS0*%
%TO.N,unconnected-(MOD1-PS0-Pad10)*%
X96000000Y-72080000D03*
%TD*%
D14*
%TO.P,J6,1,Pin_1*%
%TO.N,+3.3V*%
X39500000Y-82750000D03*
D15*
%TO.P,J6,2,Pin_2*%
%TO.N,ADC-0*%
X41000000Y-82750000D03*
%TO.P,J6,3,Pin_3*%
%TO.N,GND*%
X42500000Y-82750000D03*
%TD*%
D17*
%TO.P,U1,40,5V*%
%TO.N,+5V*%
X39870000Y-51380000D03*
%TO.P,U1,39,GND*%
%TO.N,GND*%
X42410000Y-51380000D03*
%TO.P,U1,38,3V3*%
%TO.N,+3.3V*%
X44950000Y-51380000D03*
%TO.P,U1,37,PB10*%
%TO.N,unconnected-(U1-PB10-Pad37)*%
X47490000Y-51380000D03*
%TO.P,U1,36,PB2*%
%TO.N,TFT-CS*%
X50030000Y-51380000D03*
%TO.P,U1,35,PB1*%
%TO.N,TFT-RESET*%
X52570000Y-51380000D03*
%TO.P,U1,34,PB0*%
%TO.N,TFT-DC*%
X55110000Y-51380000D03*
%TO.P,U1,33,PA7*%
%TO.N,TFT-MOSI*%
X57650000Y-51380000D03*
%TO.P,U1,32,PA6*%
%TO.N,TFT-MISO*%
X60190000Y-51380000D03*
%TO.P,U1,31,PA5*%
%TO.N,TFT-SCK*%
X62730000Y-51380000D03*
%TO.P,U1,30,PA4*%
%TO.N,unconnected-(U1-PA4-Pad30)*%
X65270000Y-51380000D03*
%TO.P,U1,29,PA3*%
%TO.N,unconnected-(U1-PA3-Pad29)*%
X67810000Y-51380000D03*
%TO.P,U1,28,PA2*%
%TO.N,unconnected-(U1-PA2-Pad28)*%
X70350000Y-51380000D03*
%TO.P,U1,27,PA1*%
%TO.N,RC-PWM-0*%
X72890000Y-51380000D03*
%TO.P,U1,26,PA0*%
%TO.N,ADC-0*%
X75430000Y-51380000D03*
%TO.P,U1,25,RES*%
%TO.N,unconnected-(U1-RES-Pad25)*%
X77970000Y-51380000D03*
%TO.P,U1,24,PC15*%
%TO.N,unconnected-(U1-PC15-Pad24)*%
X80510000Y-51380000D03*
%TO.P,U1,23,PC14*%
%TO.N,unconnected-(U1-PC14-Pad23)*%
X83050000Y-51380000D03*
%TO.P,U1,22,PC13*%
%TO.N,unconnected-(U1-PC13-Pad22)*%
X85590000Y-51380000D03*
%TO.P,U1,21,VBat*%
%TO.N,unconnected-(U1-VBat-Pad21)*%
X88130000Y-51380000D03*
%TO.P,U1,20,3V3*%
%TO.N,unconnected-(U1-3V3-Pad20)*%
X88130000Y-66620000D03*
%TO.P,U1,19,GND*%
%TO.N,GND*%
X85590000Y-66620000D03*
%TO.P,U1,18,5V*%
%TO.N,unconnected-(U1-5V-Pad18)*%
X83050000Y-66620000D03*
%TO.P,U1,17,PB9*%
%TO.N,BTN-2*%
X80510000Y-66620000D03*
%TO.P,U1,16,PB8*%
%TO.N,BTN-1*%
X77970000Y-66620000D03*
%TO.P,U1,15,PB7*%
%TO.N,SDA*%
X75430000Y-66620000D03*
%TO.P,U1,14,PB6*%
%TO.N,SCL*%
X72890000Y-66620000D03*
%TO.P,U1,13,PB5*%
%TO.N,unconnected-(U1-PB5-Pad13)*%
X70350000Y-66620000D03*
%TO.P,U1,12,PB4*%
%TO.N,NEO-1*%
X67810000Y-66620000D03*
%TO.P,U1,11,PB3*%
%TO.N,NEO-0*%
X65270000Y-66620000D03*
%TO.P,U1,10,PA15*%
%TO.N,unconnected-(U1-PA15-Pad10)*%
X62730000Y-66620000D03*
%TO.P,U1,9,PA12*%
%TO.N,unconnected-(U1-PA12-Pad9)*%
X60190000Y-66620000D03*
%TO.P,U1,8,PA11*%
%TO.N,unconnected-(U1-PA11-Pad8)*%
X57650000Y-66620000D03*
%TO.P,U1,7,PA10*%
%TO.N,Net-(J2-UART0_TX)*%
X55110000Y-66620000D03*
%TO.P,U1,6,PA9*%
%TO.N,Net-(J2-UART0_RX)*%
X52570000Y-66620000D03*
%TO.P,U1,5,PA8*%
%TO.N,unconnected-(U1-PA8-Pad5)*%
X50030000Y-66620000D03*
%TO.P,U1,4,PB15*%
%TO.N,unconnected-(U1-PB15-Pad4)*%
X47490000Y-66620000D03*
%TO.P,U1,3,PB14*%
%TO.N,GPIO-2*%
X44950000Y-66620000D03*
%TO.P,U1,2,PB13*%
%TO.N,GPIO-1*%
X42410000Y-66620000D03*
D12*
%TO.P,U1,1,PB12*%
%TO.N,GPIO-0*%
X39870000Y-66620000D03*
%TD*%
D18*
%TO.P,J5,1,Pin_1*%
%TO.N,+5V*%
X46500000Y-89250000D03*
D19*
%TO.P,J5,2,Pin_2*%
%TO.N,RC-PWM-0*%
X46500000Y-87750000D03*
%TO.P,J5,3,Pin_3*%
%TO.N,GND*%
X46500000Y-86250000D03*
%TD*%
D20*
%TO.P,R2,1*%
%TO.N,BTN-2*%
X84500000Y-79962500D03*
%TO.P,R2,2*%
%TO.N,+3.3V*%
X84500000Y-77037500D03*
%TD*%
D21*
%TO.P,J1,1,Pin_1*%
%TO.N,+5V*%
X107250000Y-88000000D03*
D22*
%TO.P,J1,2,Pin_2*%
%TO.N,GND*%
X112250000Y-88000000D03*
%TD*%
D23*
%TO.P,SW1,2,2*%
%TO.N,GND*%
X79500000Y-84000000D03*
X79500000Y-90500000D03*
%TO.P,SW1,1,1*%
%TO.N,BTN-1*%
X75000000Y-84000000D03*
X75000000Y-90500000D03*
%TD*%
D18*
%TO.P,J3,1,Pin_1*%
%TO.N,+5V*%
X52500000Y-89250000D03*
D19*
%TO.P,J3,2,Pin_2*%
%TO.N,Net-(J3-Pin_2)*%
X52500000Y-87750000D03*
%TO.P,J3,3,Pin_3*%
%TO.N,GND*%
X52500000Y-86250000D03*
%TD*%
D20*
%TO.P,R1,1*%
%TO.N,BTN-1*%
X78750000Y-80212500D03*
%TO.P,R1,2*%
%TO.N,+3.3V*%
X78750000Y-77287500D03*
%TD*%
D23*
%TO.P,SW2,2,2*%
%TO.N,GND*%
X91500000Y-83750000D03*
X91500000Y-90250000D03*
%TO.P,SW2,1,1*%
%TO.N,BTN-2*%
X87000000Y-83750000D03*
X87000000Y-90250000D03*
%TD*%
D18*
%TO.P,J4,1,Pin_1*%
%TO.N,+5V*%
X58500000Y-89250000D03*
D19*
%TO.P,J4,2,Pin_2*%
%TO.N,Net-(J4-Pin_2)*%
X58500000Y-87750000D03*
%TO.P,J4,3,Pin_3*%
%TO.N,GND*%
X58500000Y-86250000D03*
%TD*%
D24*
%TO.P,J2,01,3.3v*%
%TO.N,unconnected-(J2-3.3v-Pad01)*%
X45370000Y-44855750D03*
%TO.P,J2,02,5V_PWR*%
%TO.N,+5V*%
X45370000Y-39415750D03*
%TO.P,J2,03,GPIO02/SDA1*%
%TO.N,unconnected-(J2-GPIO02{slash}SDA1-Pad03)*%
X47910000Y-44855750D03*
%TO.P,J2,04,5V_PWR*%
%TO.N,+5V*%
X47910000Y-39415750D03*
%TO.P,J2,05,GPIO03/SCL*%
%TO.N,unconnected-(J2-GPIO03{slash}SCL-Pad05)*%
X50450000Y-44855750D03*
%TO.P,J2,06,GND*%
%TO.N,GND*%
X50450000Y-39415750D03*
%TO.P,J2,07,GPIO04*%
%TO.N,unconnected-(J2-GPIO04-Pad07)*%
X52990000Y-44855750D03*
%TO.P,J2,08,UART0_TX*%
%TO.N,Net-(J2-UART0_TX)*%
X52990000Y-39415750D03*
%TO.P,J2,09,GND*%
%TO.N,GND*%
X55530000Y-44855750D03*
%TO.P,J2,10,UART0_RX*%
%TO.N,Net-(J2-UART0_RX)*%
X55530000Y-39415750D03*
%TO.P,J2,11,GPIO17*%
%TO.N,GPIO-0*%
X58070000Y-44855750D03*
%TO.P,J2,12,GPIO18*%
%TO.N,BCK*%
X58070000Y-39415750D03*
%TO.P,J2,13,GPIO27*%
%TO.N,GPIO-1*%
X60610000Y-44855750D03*
%TO.P,J2,14,GND*%
%TO.N,GND*%
X60610000Y-39415750D03*
%TO.P,J2,15,GPIO22*%
%TO.N,unconnected-(J2-GPIO22-Pad15)*%
X63150000Y-44855750D03*
%TO.P,J2,16,GPIO23*%
%TO.N,unconnected-(J2-GPIO23-Pad16)*%
X63150000Y-39415750D03*
%TO.P,J2,17,3.3v*%
%TO.N,unconnected-(J2-3.3v-Pad17)*%
X65690000Y-44855750D03*
%TO.P,J2,18,GPIO24*%
%TO.N,unconnected-(J2-GPIO24-Pad18)*%
X65690000Y-39415750D03*
%TO.P,J2,19,GPIO10/SPI_MOSI*%
%TO.N,unconnected-(J2-GPIO10{slash}SPI_MOSI-Pad19)*%
X68230000Y-44855750D03*
%TO.P,J2,20,GND*%
%TO.N,GND*%
X68230000Y-39415750D03*
%TO.P,J2,21,GPIO09/SPI_MISO*%
%TO.N,unconnected-(J2-GPIO09{slash}SPI_MISO-Pad21)*%
X70770000Y-44855750D03*
%TO.P,J2,22,GPIO25*%
%TO.N,unconnected-(J2-GPIO25-Pad22)*%
X70770000Y-39415750D03*
%TO.P,J2,23,GPIO11/SPI_CLK*%
%TO.N,unconnected-(J2-GPIO11{slash}SPI_CLK-Pad23)*%
X73310000Y-44855750D03*
%TO.P,J2,24,GPIO08*%
%TO.N,unconnected-(J2-GPIO08-Pad24)*%
X73310000Y-39415750D03*
%TO.P,J2,25,GND*%
%TO.N,GND*%
X75850000Y-44855750D03*
%TO.P,J2,26,GPIO07*%
%TO.N,unconnected-(J2-GPIO07-Pad26)*%
X75850000Y-39415750D03*
%TO.P,J2,27,ID_SD*%
%TO.N,unconnected-(J2-ID_SD-Pad27)*%
X78390000Y-44855750D03*
%TO.P,J2,28,ID_SC*%
%TO.N,unconnected-(J2-ID_SC-Pad28)*%
X78390000Y-39415750D03*
%TO.P,J2,29,GPIO05*%
%TO.N,unconnected-(J2-GPIO05-Pad29)*%
X80930000Y-44855750D03*
%TO.P,J2,30,GND*%
%TO.N,GND*%
X80930000Y-39415750D03*
%TO.P,J2,31,GPIO06*%
%TO.N,unconnected-(J2-GPIO06-Pad31)*%
X83470000Y-44855750D03*
%TO.P,J2,32,GPIO12*%
%TO.N,unconnected-(J2-GPIO12-Pad32)*%
X83470000Y-39415750D03*
%TO.P,J2,33,GPIO13*%
%TO.N,unconnected-(J2-GPIO13-Pad33)*%
X86010000Y-44855750D03*
%TO.P,J2,34,GND*%
%TO.N,GND*%
X86010000Y-39415750D03*
%TO.P,J2,35,GPIO19*%
%TO.N,LRCK*%
X88550000Y-44855750D03*
%TO.P,J2,36,GPIO16*%
%TO.N,unconnected-(J2-GPIO16-Pad36)*%
X88550000Y-39415750D03*
%TO.P,J2,37,GPIO26*%
%TO.N,unconnected-(J2-GPIO26-Pad37)*%
X91090000Y-44855750D03*
%TO.P,J2,38,GPIO20*%
%TO.N,unconnected-(J2-GPIO20-Pad38)*%
X91090000Y-39415750D03*
%TO.P,J2,39,GND*%
%TO.N,GND*%
X93630000Y-44855750D03*
%TO.P,J2,40,GPIO21*%
%TO.N,DIN*%
X93630000Y-39415750D03*
D25*
%TO.P,J2,S1*%
%TO.N,N/C*%
X40500000Y-42135750D03*
%TO.P,J2,S2*%
X98500000Y-42135750D03*
%TO.P,J2,S3*%
X98500000Y-91135750D03*
%TO.P,J2,S4*%
X40500000Y-91135750D03*
%TD*%
D16*
%TO.P,R3,1*%
%TO.N,NEO-0*%
X52500000Y-77037500D03*
%TO.P,R3,2*%
%TO.N,Net-(J3-Pin_2)*%
X52500000Y-79962500D03*
%TD*%
D26*
%TO.N,+5V*%
X45250000Y-39500000D03*
X47910000Y-39510750D03*
%TO.N,GND*%
X44000000Y-57750000D03*
X45799265Y-56450735D03*
X43250000Y-53700000D03*
%TO.N,+5V*%
X38320000Y-56000000D03*
%TO.N,GND*%
X55500000Y-45000000D03*
X60500000Y-39500000D03*
X86250000Y-39500000D03*
X76250000Y-44750000D03*
X81000000Y-39500000D03*
X93500000Y-45000000D03*
X69500000Y-39750000D03*
%TO.N,+3.3V*%
X57250000Y-72000000D03*
%TO.N,Net-(J2-UART0_TX)*%
X54250000Y-41750000D03*
%TO.N,Net-(J2-UART0_RX)*%
X54250000Y-39750000D03*
%TO.N,+3.3V*%
X73500000Y-62000000D03*
X85348478Y-62000000D03*
X85000000Y-75000000D03*
X79000000Y-75000000D03*
X46500000Y-53000000D03*
%TO.N,+5V*%
X43500000Y-45500000D03*
%TO.N,GPIO-1*%
X46750000Y-63250000D03*
X59000000Y-58273173D03*
X61750000Y-45000000D03*
%TO.N,GPIO-0*%
X58250000Y-56000000D03*
X59250000Y-45000000D03*
%TO.N,TFT-MISO*%
X116000000Y-56910000D03*
X59500000Y-55250000D03*
%TD*%
D27*
%TO.N,+5V*%
X44260000Y-43572985D02*
X44260000Y-39990000D01*
X44260000Y-39990000D02*
X44739250Y-39510750D01*
X44739250Y-39510750D02*
X45250000Y-39510750D01*
X43500000Y-44332985D02*
X44260000Y-43572985D01*
X43500000Y-45500000D02*
X43500000Y-44332985D01*
D28*
%TO.N,GND*%
X44500000Y-57750000D02*
X44000000Y-57750000D01*
X42410000Y-52860000D02*
X43250000Y-53700000D01*
X45799265Y-56450735D02*
X44500000Y-57750000D01*
X42410000Y-51380000D02*
X42410000Y-52860000D01*
%TO.N,TFT-SCK*%
X59810000Y-54300000D02*
X62730000Y-51380000D01*
X42550000Y-54300000D02*
X59810000Y-54300000D01*
X45513654Y-46650000D02*
X41260000Y-50903654D01*
X87912744Y-46650000D02*
X45513654Y-46650000D01*
X101320744Y-60058000D02*
X87912744Y-46650000D01*
X118818000Y-60058000D02*
X101320744Y-60058000D01*
X41260000Y-50903654D02*
X41260000Y-53010000D01*
X41260000Y-53010000D02*
X42550000Y-54300000D01*
X120750000Y-61990000D02*
X118818000Y-60058000D01*
%TO.N,GND*%
X55530000Y-44700750D02*
X55530000Y-44855750D01*
X50450000Y-39620750D02*
X55530000Y-44700750D01*
X50450000Y-39415750D02*
X50450000Y-39620750D01*
D29*
%TO.N,+5V*%
X38320000Y-73820000D02*
X39500000Y-75000000D01*
X38320000Y-56000000D02*
X38320000Y-73820000D01*
D30*
X45370000Y-39415750D02*
X47910000Y-39415750D01*
D28*
%TO.N,BCK*%
X94759936Y-50500000D02*
X105380000Y-50500000D01*
X90155000Y-45895064D02*
X94759936Y-50500000D01*
%TO.N,LRCK*%
X90027875Y-47027875D02*
X90722125Y-47027875D01*
X88550000Y-45550000D02*
X90027875Y-47027875D01*
X88550000Y-44855750D02*
X88550000Y-45550000D01*
X90722125Y-47027875D02*
X95344250Y-51650000D01*
X95344250Y-51650000D02*
X109310000Y-51650000D01*
X109310000Y-51650000D02*
X110460000Y-50500000D01*
%TO.N,BCK*%
X90155000Y-42959882D02*
X90155000Y-45895064D01*
X89695118Y-42500000D02*
X90155000Y-42959882D01*
X61063382Y-42500000D02*
X89695118Y-42500000D01*
X58070000Y-39506618D02*
X61063382Y-42500000D01*
X58070000Y-39415750D02*
X58070000Y-39506618D01*
%TO.N,GND*%
X69165750Y-39415750D02*
X69500000Y-39750000D01*
X68230000Y-39415750D02*
X69165750Y-39415750D01*
%TO.N,+3.3V*%
X55815256Y-72000000D02*
X57250000Y-72000000D01*
X51325000Y-76490256D02*
X55815256Y-72000000D01*
X45854138Y-83915000D02*
X51325000Y-78444138D01*
X40662416Y-83915000D02*
X45854138Y-83915000D01*
X51325000Y-78444138D02*
X51325000Y-76490256D01*
X39500000Y-82752584D02*
X40662416Y-83915000D01*
X39500000Y-82750000D02*
X39500000Y-82752584D01*
%TO.N,Net-(J2-UART0_TX)*%
X54250000Y-40675750D02*
X52990000Y-39415750D01*
X54250000Y-41750000D02*
X54250000Y-40675750D01*
%TO.N,Net-(J2-UART0_RX)*%
X55195750Y-39750000D02*
X55530000Y-39415750D01*
X54250000Y-39750000D02*
X55195750Y-39750000D01*
D30*
%TO.N,+3.3V*%
X73500000Y-62000000D02*
X85348478Y-62000000D01*
X88129500Y-73408000D02*
X84500000Y-77037500D01*
X116928000Y-73408000D02*
X88129500Y-73408000D01*
X120750000Y-77230000D02*
X116928000Y-73408000D01*
X84500000Y-75500000D02*
X85000000Y-75000000D01*
X84500000Y-77037500D02*
X84500000Y-75500000D01*
X78750000Y-77287500D02*
X78750000Y-75250000D01*
X78750000Y-75250000D02*
X79000000Y-75000000D01*
X44950000Y-51450000D02*
X46500000Y-53000000D01*
X44950000Y-51380000D02*
X44950000Y-51450000D01*
D28*
%TO.N,GPIO-1*%
X51726827Y-58273173D02*
X46750000Y-63250000D01*
X59000000Y-58273173D02*
X51726827Y-58273173D01*
X61605750Y-44855750D02*
X61750000Y-45000000D01*
X60610000Y-44855750D02*
X61605750Y-44855750D01*
%TO.N,GPIO-0*%
X39870000Y-64314315D02*
X39870000Y-66620000D01*
X48184315Y-56000000D02*
X39870000Y-64314315D01*
X58250000Y-56000000D02*
X48184315Y-56000000D01*
X59105750Y-44855750D02*
X59250000Y-45000000D01*
X58070000Y-44855750D02*
X59105750Y-44855750D01*
D29*
%TO.N,+3.3V*%
X115540000Y-54240000D02*
X120750000Y-59450000D01*
X115540000Y-50500000D02*
X115540000Y-54240000D01*
D28*
%TO.N,TFT-MISO*%
X42113654Y-55250000D02*
X59500000Y-55250000D01*
X38720000Y-51856346D02*
X42113654Y-55250000D01*
X38720000Y-46630000D02*
X38720000Y-51856346D01*
X88078430Y-46250000D02*
X39100000Y-46250000D01*
X116000000Y-56910000D02*
X98738430Y-56910000D01*
X39100000Y-46250000D02*
X38720000Y-46630000D01*
X98738430Y-56910000D02*
X88078430Y-46250000D01*
%TO.N,TFT-MOSI*%
X55130000Y-53900000D02*
X57650000Y-51380000D01*
X45843654Y-53900000D02*
X55130000Y-53900000D01*
X43800000Y-51856346D02*
X45843654Y-53900000D01*
X43800000Y-50903654D02*
X43800000Y-51856346D01*
X87747058Y-47050000D02*
X47653654Y-47050000D01*
X101155058Y-60458000D02*
X87747058Y-47050000D01*
X47653654Y-47050000D02*
X43800000Y-50903654D01*
X116678000Y-60458000D02*
X101155058Y-60458000D01*
X120750000Y-64530000D02*
X116678000Y-60458000D01*
%TO.N,TFT-DC*%
X55110000Y-53140000D02*
X55110000Y-51380000D01*
X54750000Y-53500000D02*
X55110000Y-53140000D01*
X46340000Y-50903654D02*
X46340000Y-51856346D01*
X49793654Y-47450000D02*
X46340000Y-50903654D01*
X87581372Y-47450000D02*
X49793654Y-47450000D01*
X100989372Y-60858000D02*
X87581372Y-47450000D01*
X114538000Y-60858000D02*
X100989372Y-60858000D01*
X47983654Y-53500000D02*
X54750000Y-53500000D01*
X46340000Y-51856346D02*
X47983654Y-53500000D01*
X120750000Y-67070000D02*
X114538000Y-60858000D01*
%TO.N,TFT-RESET*%
X49553654Y-52530000D02*
X51420000Y-52530000D01*
X48880000Y-50903654D02*
X48880000Y-51856346D01*
X48880000Y-51856346D02*
X49553654Y-52530000D01*
X51933654Y-47850000D02*
X48880000Y-50903654D01*
X87415686Y-47850000D02*
X51933654Y-47850000D01*
X114982000Y-62982000D02*
X102547686Y-62982000D01*
X102547686Y-62982000D02*
X87415686Y-47850000D01*
X120750000Y-68750000D02*
X114982000Y-62982000D01*
X120750000Y-69610000D02*
X120750000Y-68750000D01*
X51420000Y-52530000D02*
X52570000Y-51380000D01*
%TO.N,TFT-CS*%
X53160000Y-48250000D02*
X50030000Y-51380000D01*
X114219895Y-63398000D02*
X102398000Y-63398000D01*
X87250000Y-48250000D02*
X53160000Y-48250000D01*
X117062000Y-66240105D02*
X114219895Y-63398000D01*
X102398000Y-63398000D02*
X87250000Y-48250000D01*
X120750000Y-72150000D02*
X117062000Y-68462000D01*
X117062000Y-68462000D02*
X117062000Y-66240105D01*
%TO.N,RC-PWM-0*%
X75906346Y-50230000D02*
X74040000Y-50230000D01*
X76580000Y-50903654D02*
X75906346Y-50230000D01*
X76580000Y-51856346D02*
X76580000Y-50903654D01*
X66660000Y-61776346D02*
X76580000Y-51856346D01*
X66660000Y-67096346D02*
X66660000Y-61776346D01*
X66177266Y-67579080D02*
X66660000Y-67096346D01*
X65920920Y-67579080D02*
X66177266Y-67579080D01*
X54400000Y-79100000D02*
X65920920Y-67579080D01*
X74040000Y-50230000D02*
X72890000Y-51380000D01*
X51640256Y-79100000D02*
X54400000Y-79100000D01*
X51325000Y-79415256D02*
X51640256Y-79100000D01*
X51325000Y-82927584D02*
X51325000Y-79415256D01*
X46502584Y-87750000D02*
X51325000Y-82927584D01*
X46500000Y-87750000D02*
X46502584Y-87750000D01*
%TO.N,ADC-0*%
X69136827Y-57673173D02*
X75430000Y-51380000D01*
X47076827Y-57673173D02*
X69136827Y-57673173D01*
X46100000Y-58650000D02*
X47076827Y-57673173D01*
X46100000Y-72902584D02*
X46100000Y-58650000D01*
X41000000Y-78002584D02*
X46100000Y-72902584D01*
X41000000Y-82750000D02*
X41000000Y-78002584D01*
D29*
%TO.N,+5V*%
X38285000Y-83765430D02*
X38285000Y-76215000D01*
X38834570Y-84315000D02*
X38285000Y-83765430D01*
X39315000Y-84315000D02*
X38834570Y-84315000D01*
X44250000Y-89250000D02*
X39315000Y-84315000D01*
X46500000Y-89250000D02*
X44250000Y-89250000D01*
X38285000Y-76215000D02*
X39500000Y-75000000D01*
D31*
X52500000Y-89250000D02*
X46500000Y-89250000D01*
X58500000Y-89250000D02*
X52500000Y-89250000D01*
X61700000Y-92450000D02*
X58500000Y-89250000D01*
X76950000Y-91307717D02*
X75807717Y-92450000D01*
X79556533Y-87085750D02*
X76950000Y-89692283D01*
X75807717Y-92450000D02*
X61700000Y-92450000D01*
X106335750Y-87085750D02*
X79556533Y-87085750D01*
X76950000Y-89692283D02*
X76950000Y-91307717D01*
X107250000Y-88000000D02*
X106335750Y-87085750D01*
D28*
X113780000Y-81470000D02*
X107250000Y-88000000D01*
X113780000Y-74620000D02*
X113780000Y-81470000D01*
%TO.N,SCL*%
X94788105Y-64750000D02*
X74760000Y-64750000D01*
X95560105Y-65522000D02*
X94788105Y-64750000D01*
X112718000Y-65522000D02*
X95560105Y-65522000D01*
X74760000Y-64750000D02*
X72890000Y-66620000D01*
X113780000Y-64460000D02*
X112718000Y-65522000D01*
%TO.N,SDA*%
X76800000Y-65250000D02*
X75430000Y-66620000D01*
X92748105Y-65250000D02*
X76800000Y-65250000D01*
X95560105Y-68062000D02*
X92748105Y-65250000D01*
X112718000Y-68062000D02*
X95560105Y-68062000D01*
X113780000Y-67000000D02*
X112718000Y-68062000D01*
%TO.N,BTN-2*%
X80510000Y-75972500D02*
X80510000Y-66620000D01*
X84500000Y-79962500D02*
X80510000Y-75972500D01*
%TO.N,BTN-1*%
X77120000Y-67470000D02*
X77970000Y-66620000D01*
X77120000Y-78120000D02*
X77120000Y-67470000D01*
X78750000Y-79750000D02*
X77120000Y-78120000D01*
X78750000Y-80212500D02*
X78750000Y-79750000D01*
%TO.N,NEO-1*%
X67810000Y-67477500D02*
X67810000Y-66620000D01*
X58250000Y-77037500D02*
X67810000Y-67477500D01*
%TO.N,NEO-0*%
X54852500Y-77037500D02*
X65270000Y-66620000D01*
X52500000Y-77037500D02*
X54852500Y-77037500D01*
%TO.N,BTN-1*%
X75000000Y-90500000D02*
X75000000Y-84000000D01*
%TO.N,BTN-2*%
X87000000Y-82462500D02*
X87000000Y-83750000D01*
X84500000Y-79962500D02*
X87000000Y-82462500D01*
%TO.N,BTN-1*%
X75000000Y-83962500D02*
X75000000Y-84000000D01*
X78750000Y-80212500D02*
X75000000Y-83962500D01*
%TO.N,SDA*%
X68510000Y-73540000D02*
X75430000Y-66620000D01*
X68510000Y-76625000D02*
X68510000Y-73540000D01*
%TO.N,SCL*%
X65970000Y-73540000D02*
X72890000Y-66620000D01*
X65970000Y-76625000D02*
X65970000Y-73540000D01*
%TO.N,Net-(J4-Pin_2)*%
X58850000Y-87750000D02*
X58500000Y-87750000D01*
X59665000Y-86935000D02*
X58850000Y-87750000D01*
X58250000Y-79962500D02*
X59665000Y-81377500D01*
X59665000Y-81377500D02*
X59665000Y-86935000D01*
%TO.N,Net-(J3-Pin_2)*%
X53665000Y-86835000D02*
X52750000Y-87750000D01*
X52750000Y-87750000D02*
X52500000Y-87750000D01*
X52500000Y-79962500D02*
X53665000Y-81127500D01*
X53665000Y-81127500D02*
X53665000Y-86835000D01*
%TO.N,GPIO-2*%
X41000000Y-70570000D02*
X44950000Y-66620000D01*
X41000000Y-75000000D02*
X41000000Y-70570000D01*
%TO.N,DIN*%
X106670000Y-49250000D02*
X107920000Y-50500000D01*
X100805923Y-49250000D02*
X106670000Y-49250000D01*
X95100000Y-43544077D02*
X100805923Y-49250000D01*
X93630000Y-39415750D02*
X95100000Y-40885750D01*
X95100000Y-40885750D02*
X95100000Y-43544077D01*
%TD*%
M02*
